G04 #@! TF.GenerationSoftware,KiCad,Pcbnew,8.0.1-rc1*
G04 #@! TF.CreationDate,2024-03-28T09:47:17-05:00*
G04 #@! TF.ProjectId,motor_control,6d6f746f-725f-4636-9f6e-74726f6c2e6b,1.0*
G04 #@! TF.SameCoordinates,Original*
G04 #@! TF.FileFunction,Soldermask,Top*
G04 #@! TF.FilePolarity,Negative*
%FSLAX46Y46*%
G04 Gerber Fmt 4.6, Leading zero omitted, Abs format (unit mm)*
G04 Created by KiCad (PCBNEW 8.0.1-rc1) date 2024-03-28 09:47:17*
%MOMM*%
%LPD*%
G01*
G04 APERTURE LIST*
G04 Aperture macros list*
%AMRoundRect*
0 Rectangle with rounded corners*
0 $1 Rounding radius*
0 $2 $3 $4 $5 $6 $7 $8 $9 X,Y pos of 4 corners*
0 Add a 4 corners polygon primitive as box body*
4,1,4,$2,$3,$4,$5,$6,$7,$8,$9,$2,$3,0*
0 Add four circle primitives for the rounded corners*
1,1,$1+$1,$2,$3*
1,1,$1+$1,$4,$5*
1,1,$1+$1,$6,$7*
1,1,$1+$1,$8,$9*
0 Add four rect primitives between the rounded corners*
20,1,$1+$1,$2,$3,$4,$5,0*
20,1,$1+$1,$4,$5,$6,$7,0*
20,1,$1+$1,$6,$7,$8,$9,0*
20,1,$1+$1,$8,$9,$2,$3,0*%
G04 Aperture macros list end*
%ADD10C,3.810000*%
%ADD11RoundRect,0.218750X-0.256250X0.218750X-0.256250X-0.218750X0.256250X-0.218750X0.256250X0.218750X0*%
%ADD12RoundRect,0.218750X-0.218750X-0.256250X0.218750X-0.256250X0.218750X0.256250X-0.218750X0.256250X0*%
%ADD13R,1.700000X1.700000*%
%ADD14O,1.700000X1.700000*%
%ADD15RoundRect,0.218750X0.256250X-0.218750X0.256250X0.218750X-0.256250X0.218750X-0.256250X-0.218750X0*%
%ADD16C,2.000000*%
%ADD17C,2.600000*%
%ADD18RoundRect,0.249900X-0.800100X0.800100X-0.800100X-0.800100X0.800100X-0.800100X0.800100X0.800100X0*%
%ADD19C,2.100000*%
%ADD20R,1.900000X0.400000*%
%ADD21RoundRect,0.218750X0.218750X0.256250X-0.218750X0.256250X-0.218750X-0.256250X0.218750X-0.256250X0*%
%ADD22R,3.500000X1.600000*%
%ADD23R,2.000000X1.500000*%
%ADD24R,2.000000X3.800000*%
%ADD25RoundRect,0.119100X-0.277900X0.587900X-0.277900X-0.587900X0.277900X-0.587900X0.277900X0.587900X0*%
%ADD26RoundRect,0.075000X-0.662500X-0.075000X0.662500X-0.075000X0.662500X0.075000X-0.662500X0.075000X0*%
%ADD27RoundRect,0.075000X-0.075000X-0.662500X0.075000X-0.662500X0.075000X0.662500X-0.075000X0.662500X0*%
%ADD28R,1.625600X1.625600*%
%ADD29C,1.625600*%
%ADD30RoundRect,0.102000X-0.750000X0.200000X-0.750000X-0.200000X0.750000X-0.200000X0.750000X0.200000X0*%
%ADD31R,3.505200X1.778000*%
G04 APERTURE END LIST*
D10*
X168910000Y-118110000D03*
X118110000Y-118110000D03*
X168910000Y-80010000D03*
X118110000Y-80010000D03*
D11*
X164719000Y-103733500D03*
X164719000Y-105308500D03*
D12*
X133959500Y-111506000D03*
X135534500Y-111506000D03*
D13*
X170180000Y-101600000D03*
D14*
X170180000Y-104140000D03*
X170180000Y-106680000D03*
X170180000Y-109220000D03*
D15*
X131699000Y-82296000D03*
X131699000Y-80721000D03*
D16*
X163830000Y-119380000D03*
D12*
X154533500Y-90297000D03*
X156108500Y-90297000D03*
D13*
X152146000Y-119380000D03*
D14*
X154686000Y-119380000D03*
X157226000Y-119380000D03*
X159766000Y-119380000D03*
D11*
X133223000Y-91668500D03*
X133223000Y-93243500D03*
X145415000Y-103352500D03*
X145415000Y-104927500D03*
D15*
X130175000Y-82296000D03*
X130175000Y-80721000D03*
D13*
X156220000Y-78740000D03*
D14*
X158760000Y-78740000D03*
X161300000Y-78740000D03*
X163840000Y-78740000D03*
D17*
X116179000Y-84977000D03*
X116179000Y-89013000D03*
D18*
X125879000Y-89013000D03*
D19*
X125879000Y-84977000D03*
D13*
X170180000Y-88910000D03*
D14*
X170180000Y-91450000D03*
X170180000Y-93990000D03*
X170180000Y-96530000D03*
D20*
X153035000Y-97352000D03*
X153035000Y-98552000D03*
X153035000Y-99752000D03*
D11*
X150622000Y-97764500D03*
X150622000Y-99339500D03*
D15*
X133223000Y-82296000D03*
X133223000Y-80721000D03*
D12*
X145389500Y-101727000D03*
X146964500Y-101727000D03*
D15*
X156464000Y-109372500D03*
X156464000Y-107797500D03*
D11*
X161417000Y-87350500D03*
X161417000Y-88925500D03*
D21*
X132867500Y-107442000D03*
X131292500Y-107442000D03*
D17*
X116179000Y-92724000D03*
X116179000Y-96760000D03*
D18*
X125879000Y-96760000D03*
D19*
X125879000Y-92724000D03*
D13*
X116840000Y-100457000D03*
D14*
X116840000Y-102997000D03*
X116840000Y-105537000D03*
X116840000Y-108077000D03*
X116840000Y-110617000D03*
X116840000Y-113157000D03*
D22*
X137447000Y-115824000D03*
X132047000Y-115824000D03*
D23*
X133248000Y-84695000D03*
X133248000Y-86995000D03*
D24*
X139548000Y-86995000D03*
D23*
X133248000Y-89295000D03*
D11*
X131699000Y-91668500D03*
X131699000Y-93243500D03*
X160807500Y-108178500D03*
X160807500Y-109753500D03*
D15*
X135636000Y-104292500D03*
X135636000Y-102717500D03*
D21*
X156108500Y-88773000D03*
X154533500Y-88773000D03*
D15*
X162331500Y-109753500D03*
X162331500Y-108178500D03*
D12*
X159867500Y-90424000D03*
X161442500Y-90424000D03*
D25*
X134046000Y-101700000D03*
X133096000Y-101700000D03*
X132146000Y-101700000D03*
X132146000Y-104210000D03*
X134046000Y-104210000D03*
D26*
X156365500Y-96310000D03*
X156365500Y-96810000D03*
X156365500Y-97310000D03*
X156365500Y-97810000D03*
X156365500Y-98310000D03*
X156365500Y-98810000D03*
X156365500Y-99310000D03*
X156365500Y-99810000D03*
X156365500Y-100310000D03*
X156365500Y-100810000D03*
X156365500Y-101310000D03*
X156365500Y-101810000D03*
D27*
X157778000Y-103222500D03*
X158278000Y-103222500D03*
X158778000Y-103222500D03*
X159278000Y-103222500D03*
X159778000Y-103222500D03*
X160278000Y-103222500D03*
X160778000Y-103222500D03*
X161278000Y-103222500D03*
X161778000Y-103222500D03*
X162278000Y-103222500D03*
X162778000Y-103222500D03*
X163278000Y-103222500D03*
D26*
X164690500Y-101810000D03*
X164690500Y-101310000D03*
X164690500Y-100810000D03*
X164690500Y-100310000D03*
X164690500Y-99810000D03*
X164690500Y-99310000D03*
X164690500Y-98810000D03*
X164690500Y-98310000D03*
X164690500Y-97810000D03*
X164690500Y-97310000D03*
X164690500Y-96810000D03*
X164690500Y-96310000D03*
D27*
X163278000Y-94897500D03*
X162778000Y-94897500D03*
X162278000Y-94897500D03*
X161778000Y-94897500D03*
X161278000Y-94897500D03*
X160778000Y-94897500D03*
X160278000Y-94897500D03*
X159778000Y-94897500D03*
X159278000Y-94897500D03*
X158778000Y-94897500D03*
X158278000Y-94897500D03*
X157778000Y-94897500D03*
D15*
X154940000Y-109372500D03*
X154940000Y-107797500D03*
D21*
X153822500Y-101346000D03*
X152247500Y-101346000D03*
D15*
X156337000Y-94386500D03*
X156337000Y-92811500D03*
X165227000Y-94894500D03*
X165227000Y-93319500D03*
D12*
X160782000Y-106680000D03*
X162357000Y-106680000D03*
D28*
X139700000Y-92278200D03*
D29*
X139700000Y-113461800D03*
D11*
X130166000Y-91668500D03*
X130166000Y-93243500D03*
D15*
X159893000Y-88925500D03*
X159893000Y-87350500D03*
D30*
X121724000Y-103740000D03*
X121724000Y-104390000D03*
X121724000Y-105040000D03*
X121724000Y-105690000D03*
X121724000Y-106340000D03*
X121724000Y-106990000D03*
X121724000Y-107640000D03*
X121724000Y-108290000D03*
X121724000Y-108940000D03*
X121724000Y-109590000D03*
X121724000Y-110240000D03*
X121724000Y-110890000D03*
X128974000Y-110890000D03*
X128974000Y-110240000D03*
X128974000Y-109590000D03*
X128974000Y-108940000D03*
X128974000Y-108290000D03*
X128974000Y-107640000D03*
X128974000Y-106990000D03*
X128974000Y-106340000D03*
X128974000Y-105690000D03*
X128974000Y-105040000D03*
X128974000Y-104390000D03*
X128974000Y-103740000D03*
D31*
X129667000Y-89611200D03*
X129667000Y-84378800D03*
D11*
X146939000Y-103352500D03*
X146939000Y-104927500D03*
D13*
X156596000Y-86106000D03*
D14*
X154056000Y-86106000D03*
D21*
X132867500Y-105918000D03*
X131292500Y-105918000D03*
D16*
X123190000Y-78740000D03*
M02*
