M48
; DRILL file {KiCad 8.0.1-rc1} date 2024-03-28T09:47:18-0500
; FORMAT={-:-/ absolute / inch / decimal}
; #@! TF.CreationDate,2024-03-28T09:47:18-05:00
; #@! TF.GenerationSoftware,Kicad,Pcbnew,8.0.1-rc1
; #@! TF.FileFunction,Plated,1,2,PTH
FMAT,2
INCH
; #@! TA.AperFunction,Plated,PTH,ViaDrill
T1C0.0100
; #@! TA.AperFunction,Plated,PTH,ViaDrill
T2C0.0200
; #@! TA.AperFunction,Plated,PTH,ComponentDrill
T3C0.0394
; #@! TA.AperFunction,Plated,PTH,ComponentDrill
T4C0.0433
; #@! TA.AperFunction,Plated,PTH,ComponentDrill
T5C0.0440
%
G90
G05
T1
X4.975Y-3.925
X4.997Y-3.975
X5.02Y-3.9505
X5.23Y-4.28
X5.305Y-3.61
X5.34Y-4.16
X6.045Y-4.305
X6.05Y-4.035
X6.085Y-3.79
X6.085Y-3.95
X6.0994Y-3.9945
X6.1Y-4.135
X6.115Y-3.755
X6.15Y-4.035
X6.16Y-4.165
X6.195Y-3.495
X6.245Y-3.66
X6.2685Y-3.64
X6.355Y-3.385
X6.39Y-4.38
X6.46Y-3.705
X6.535Y-4.085
X6.5836Y-3.9303
T2
X5.165Y-3.425
X5.585Y-3.425
T3
X4.6Y-3.955
X4.6Y-4.055
X4.6Y-4.155
X4.6Y-4.255
X4.6Y-4.355
X4.6Y-4.455
X5.99Y-4.7
X6.0652Y-3.39
X6.09Y-4.7
X6.1504Y-3.1
X6.1652Y-3.39
X6.19Y-4.7
X6.2504Y-3.1
X6.29Y-4.7
X6.3504Y-3.1
X6.4504Y-3.1
X6.7Y-3.5004
X6.7Y-3.6004
X6.7Y-3.7004
X6.7Y-3.8004
X6.7Y-4.0
X6.7Y-4.1
X6.7Y-4.2
X6.7Y-4.3
T4
X4.9559Y-3.3456
X4.9559Y-3.5044
X4.9559Y-3.6506
X4.9559Y-3.8094
T5
X5.5Y-3.633
X5.5Y-4.467
M30
