G04 #@! TF.GenerationSoftware,KiCad,Pcbnew,8.0.1-rc1*
G04 #@! TF.CreationDate,2024-03-28T09:47:17-05:00*
G04 #@! TF.ProjectId,motor_control,6d6f746f-725f-4636-9f6e-74726f6c2e6b,1.0*
G04 #@! TF.SameCoordinates,Original*
G04 #@! TF.FileFunction,Legend,Bot*
G04 #@! TF.FilePolarity,Positive*
%FSLAX46Y46*%
G04 Gerber Fmt 4.6, Leading zero omitted, Abs format (unit mm)*
G04 Created by KiCad (PCBNEW 8.0.1-rc1) date 2024-03-28 09:47:17*
%MOMM*%
%LPD*%
G01*
G04 APERTURE LIST*
%ADD10C,0.150000*%
%ADD11C,0.250000*%
%ADD12C,0.317500*%
%ADD13C,0.203200*%
%ADD14C,0.300000*%
%ADD15C,0.010000*%
G04 APERTURE END LIST*
D10*
X127889000Y-83820000D02*
X127889000Y-90170000D01*
X127889000Y-97917000D02*
X127127000Y-97917000D01*
X127127000Y-91567000D02*
X127889000Y-91567000D01*
X127889000Y-90170000D02*
X127127000Y-90170000D01*
X127889000Y-91567000D02*
X127889000Y-97917000D01*
X127127000Y-83820000D02*
X127889000Y-83820000D01*
D11*
X159152000Y-80364295D02*
X159199619Y-80507152D01*
X159199619Y-80507152D02*
X159199619Y-80745247D01*
X159199619Y-80745247D02*
X159152000Y-80840485D01*
X159152000Y-80840485D02*
X159104380Y-80888104D01*
X159104380Y-80888104D02*
X159009142Y-80935723D01*
X159009142Y-80935723D02*
X158913904Y-80935723D01*
X158913904Y-80935723D02*
X158818666Y-80888104D01*
X158818666Y-80888104D02*
X158771047Y-80840485D01*
X158771047Y-80840485D02*
X158723428Y-80745247D01*
X158723428Y-80745247D02*
X158675809Y-80554771D01*
X158675809Y-80554771D02*
X158628190Y-80459533D01*
X158628190Y-80459533D02*
X158580571Y-80411914D01*
X158580571Y-80411914D02*
X158485333Y-80364295D01*
X158485333Y-80364295D02*
X158390095Y-80364295D01*
X158390095Y-80364295D02*
X158294857Y-80411914D01*
X158294857Y-80411914D02*
X158247238Y-80459533D01*
X158247238Y-80459533D02*
X158199619Y-80554771D01*
X158199619Y-80554771D02*
X158199619Y-80792866D01*
X158199619Y-80792866D02*
X158247238Y-80935723D01*
X158199619Y-81269057D02*
X159199619Y-81507152D01*
X159199619Y-81507152D02*
X158485333Y-81697628D01*
X158485333Y-81697628D02*
X159199619Y-81888104D01*
X159199619Y-81888104D02*
X158199619Y-82126200D01*
X159104380Y-83078580D02*
X159152000Y-83030961D01*
X159152000Y-83030961D02*
X159199619Y-82888104D01*
X159199619Y-82888104D02*
X159199619Y-82792866D01*
X159199619Y-82792866D02*
X159152000Y-82650009D01*
X159152000Y-82650009D02*
X159056761Y-82554771D01*
X159056761Y-82554771D02*
X158961523Y-82507152D01*
X158961523Y-82507152D02*
X158771047Y-82459533D01*
X158771047Y-82459533D02*
X158628190Y-82459533D01*
X158628190Y-82459533D02*
X158437714Y-82507152D01*
X158437714Y-82507152D02*
X158342476Y-82554771D01*
X158342476Y-82554771D02*
X158247238Y-82650009D01*
X158247238Y-82650009D02*
X158199619Y-82792866D01*
X158199619Y-82792866D02*
X158199619Y-82888104D01*
X158199619Y-82888104D02*
X158247238Y-83030961D01*
X158247238Y-83030961D02*
X158294857Y-83078580D01*
X159199619Y-83983342D02*
X159199619Y-83507152D01*
X159199619Y-83507152D02*
X158199619Y-83507152D01*
X159199619Y-84316676D02*
X158199619Y-84316676D01*
X159199619Y-84888104D02*
X158628190Y-84459533D01*
X158199619Y-84888104D02*
X158771047Y-84316676D01*
X168338285Y-109669619D02*
X168338285Y-108669619D01*
X168338285Y-108669619D02*
X167957333Y-108669619D01*
X167957333Y-108669619D02*
X167862095Y-108717238D01*
X167862095Y-108717238D02*
X167814476Y-108764857D01*
X167814476Y-108764857D02*
X167766857Y-108860095D01*
X167766857Y-108860095D02*
X167766857Y-109002952D01*
X167766857Y-109002952D02*
X167814476Y-109098190D01*
X167814476Y-109098190D02*
X167862095Y-109145809D01*
X167862095Y-109145809D02*
X167957333Y-109193428D01*
X167957333Y-109193428D02*
X168338285Y-109193428D01*
X167004952Y-109145809D02*
X166862095Y-109193428D01*
X166862095Y-109193428D02*
X166814476Y-109241047D01*
X166814476Y-109241047D02*
X166766857Y-109336285D01*
X166766857Y-109336285D02*
X166766857Y-109479142D01*
X166766857Y-109479142D02*
X166814476Y-109574380D01*
X166814476Y-109574380D02*
X166862095Y-109622000D01*
X166862095Y-109622000D02*
X166957333Y-109669619D01*
X166957333Y-109669619D02*
X167338285Y-109669619D01*
X167338285Y-109669619D02*
X167338285Y-108669619D01*
X167338285Y-108669619D02*
X167004952Y-108669619D01*
X167004952Y-108669619D02*
X166909714Y-108717238D01*
X166909714Y-108717238D02*
X166862095Y-108764857D01*
X166862095Y-108764857D02*
X166814476Y-108860095D01*
X166814476Y-108860095D02*
X166814476Y-108955333D01*
X166814476Y-108955333D02*
X166862095Y-109050571D01*
X166862095Y-109050571D02*
X166909714Y-109098190D01*
X166909714Y-109098190D02*
X167004952Y-109145809D01*
X167004952Y-109145809D02*
X167338285Y-109145809D01*
X165814476Y-109669619D02*
X166385904Y-109669619D01*
X166100190Y-109669619D02*
X166100190Y-108669619D01*
X166100190Y-108669619D02*
X166195428Y-108812476D01*
X166195428Y-108812476D02*
X166290666Y-108907714D01*
X166290666Y-108907714D02*
X166385904Y-108955333D01*
X165433523Y-108764857D02*
X165385904Y-108717238D01*
X165385904Y-108717238D02*
X165290666Y-108669619D01*
X165290666Y-108669619D02*
X165052571Y-108669619D01*
X165052571Y-108669619D02*
X164957333Y-108717238D01*
X164957333Y-108717238D02*
X164909714Y-108764857D01*
X164909714Y-108764857D02*
X164862095Y-108860095D01*
X164862095Y-108860095D02*
X164862095Y-108955333D01*
X164862095Y-108955333D02*
X164909714Y-109098190D01*
X164909714Y-109098190D02*
X165481142Y-109669619D01*
X165481142Y-109669619D02*
X164862095Y-109669619D01*
X121919904Y-96271238D02*
X122015142Y-96223619D01*
X122015142Y-96223619D02*
X122157999Y-96223619D01*
X122157999Y-96223619D02*
X122300856Y-96271238D01*
X122300856Y-96271238D02*
X122396094Y-96366476D01*
X122396094Y-96366476D02*
X122443713Y-96461714D01*
X122443713Y-96461714D02*
X122491332Y-96652190D01*
X122491332Y-96652190D02*
X122491332Y-96795047D01*
X122491332Y-96795047D02*
X122443713Y-96985523D01*
X122443713Y-96985523D02*
X122396094Y-97080761D01*
X122396094Y-97080761D02*
X122300856Y-97176000D01*
X122300856Y-97176000D02*
X122157999Y-97223619D01*
X122157999Y-97223619D02*
X122062761Y-97223619D01*
X122062761Y-97223619D02*
X121919904Y-97176000D01*
X121919904Y-97176000D02*
X121872285Y-97128380D01*
X121872285Y-97128380D02*
X121872285Y-96795047D01*
X121872285Y-96795047D02*
X122062761Y-96795047D01*
X121443713Y-97223619D02*
X121443713Y-96223619D01*
X121443713Y-96223619D02*
X120872285Y-97223619D01*
X120872285Y-97223619D02*
X120872285Y-96223619D01*
X120396094Y-97223619D02*
X120396094Y-96223619D01*
X120396094Y-96223619D02*
X120157999Y-96223619D01*
X120157999Y-96223619D02*
X120015142Y-96271238D01*
X120015142Y-96271238D02*
X119919904Y-96366476D01*
X119919904Y-96366476D02*
X119872285Y-96461714D01*
X119872285Y-96461714D02*
X119824666Y-96652190D01*
X119824666Y-96652190D02*
X119824666Y-96795047D01*
X119824666Y-96795047D02*
X119872285Y-96985523D01*
X119872285Y-96985523D02*
X119919904Y-97080761D01*
X119919904Y-97080761D02*
X120015142Y-97176000D01*
X120015142Y-97176000D02*
X120157999Y-97223619D01*
X120157999Y-97223619D02*
X120396094Y-97223619D01*
X152595619Y-115165333D02*
X151595619Y-115165333D01*
X151595619Y-115165333D02*
X151595619Y-115546285D01*
X151595619Y-115546285D02*
X151643238Y-115641523D01*
X151643238Y-115641523D02*
X151690857Y-115689142D01*
X151690857Y-115689142D02*
X151786095Y-115736761D01*
X151786095Y-115736761D02*
X151928952Y-115736761D01*
X151928952Y-115736761D02*
X152024190Y-115689142D01*
X152024190Y-115689142D02*
X152071809Y-115641523D01*
X152071809Y-115641523D02*
X152119428Y-115546285D01*
X152119428Y-115546285D02*
X152119428Y-115165333D01*
X152309904Y-116117714D02*
X152309904Y-116593904D01*
X152595619Y-116022476D02*
X151595619Y-116355809D01*
X151595619Y-116355809D02*
X152595619Y-116689142D01*
X151928952Y-117451047D02*
X152595619Y-117451047D01*
X151548000Y-117212952D02*
X152262285Y-116974857D01*
X152262285Y-116974857D02*
X152262285Y-117593904D01*
X120395904Y-100906619D02*
X120395904Y-99906619D01*
X120395904Y-99906619D02*
X120062571Y-100620904D01*
X120062571Y-100620904D02*
X119729238Y-99906619D01*
X119729238Y-99906619D02*
X119729238Y-100906619D01*
X119300666Y-100620904D02*
X118824476Y-100620904D01*
X119395904Y-100906619D02*
X119062571Y-99906619D01*
X119062571Y-99906619D02*
X118729238Y-100906619D01*
X122181808Y-92159619D02*
X121848475Y-93159619D01*
X121848475Y-93159619D02*
X121515142Y-92159619D01*
X121181808Y-93159619D02*
X121181808Y-92492952D01*
X121181808Y-92159619D02*
X121229427Y-92207238D01*
X121229427Y-92207238D02*
X121181808Y-92254857D01*
X121181808Y-92254857D02*
X121134189Y-92207238D01*
X121134189Y-92207238D02*
X121181808Y-92159619D01*
X121181808Y-92159619D02*
X121181808Y-92254857D01*
X120705618Y-92492952D02*
X120705618Y-93159619D01*
X120705618Y-92588190D02*
X120657999Y-92540571D01*
X120657999Y-92540571D02*
X120562761Y-92492952D01*
X120562761Y-92492952D02*
X120419904Y-92492952D01*
X120419904Y-92492952D02*
X120324666Y-92540571D01*
X120324666Y-92540571D02*
X120277047Y-92635809D01*
X120277047Y-92635809D02*
X120277047Y-93159619D01*
X160215619Y-115165333D02*
X159215619Y-115165333D01*
X159215619Y-115165333D02*
X159215619Y-115546285D01*
X159215619Y-115546285D02*
X159263238Y-115641523D01*
X159263238Y-115641523D02*
X159310857Y-115689142D01*
X159310857Y-115689142D02*
X159406095Y-115736761D01*
X159406095Y-115736761D02*
X159548952Y-115736761D01*
X159548952Y-115736761D02*
X159644190Y-115689142D01*
X159644190Y-115689142D02*
X159691809Y-115641523D01*
X159691809Y-115641523D02*
X159739428Y-115546285D01*
X159739428Y-115546285D02*
X159739428Y-115165333D01*
X159929904Y-116117714D02*
X159929904Y-116593904D01*
X160215619Y-116022476D02*
X159215619Y-116355809D01*
X159215619Y-116355809D02*
X160215619Y-116689142D01*
X159215619Y-116927238D02*
X159215619Y-117593904D01*
X159215619Y-117593904D02*
X160215619Y-117165333D01*
D12*
X128394460Y-89680142D02*
X128333983Y-89498713D01*
X128333983Y-89498713D02*
X128333983Y-89196332D01*
X128333983Y-89196332D02*
X128394460Y-89075380D01*
X128394460Y-89075380D02*
X128454936Y-89014904D01*
X128454936Y-89014904D02*
X128575888Y-88954427D01*
X128575888Y-88954427D02*
X128696840Y-88954427D01*
X128696840Y-88954427D02*
X128817793Y-89014904D01*
X128817793Y-89014904D02*
X128878269Y-89075380D01*
X128878269Y-89075380D02*
X128938745Y-89196332D01*
X128938745Y-89196332D02*
X128999221Y-89438237D01*
X128999221Y-89438237D02*
X129059698Y-89559189D01*
X129059698Y-89559189D02*
X129120174Y-89619666D01*
X129120174Y-89619666D02*
X129241126Y-89680142D01*
X129241126Y-89680142D02*
X129362079Y-89680142D01*
X129362079Y-89680142D02*
X129483031Y-89619666D01*
X129483031Y-89619666D02*
X129543507Y-89559189D01*
X129543507Y-89559189D02*
X129603983Y-89438237D01*
X129603983Y-89438237D02*
X129603983Y-89135856D01*
X129603983Y-89135856D02*
X129543507Y-88954427D01*
X129180650Y-88531094D02*
X128333983Y-88289189D01*
X128333983Y-88289189D02*
X128938745Y-88047284D01*
X128938745Y-88047284D02*
X128333983Y-87805380D01*
X128333983Y-87805380D02*
X129180650Y-87563475D01*
X128333983Y-87079666D02*
X129180650Y-87079666D01*
X129603983Y-87079666D02*
X129543507Y-87140142D01*
X129543507Y-87140142D02*
X129483031Y-87079666D01*
X129483031Y-87079666D02*
X129543507Y-87019189D01*
X129543507Y-87019189D02*
X129603983Y-87079666D01*
X129603983Y-87079666D02*
X129483031Y-87079666D01*
X129180650Y-86656332D02*
X129180650Y-86172523D01*
X129603983Y-86474904D02*
X128515412Y-86474904D01*
X128515412Y-86474904D02*
X128394460Y-86414427D01*
X128394460Y-86414427D02*
X128333983Y-86293475D01*
X128333983Y-86293475D02*
X128333983Y-86172523D01*
X128394460Y-85204904D02*
X128333983Y-85325856D01*
X128333983Y-85325856D02*
X128333983Y-85567761D01*
X128333983Y-85567761D02*
X128394460Y-85688713D01*
X128394460Y-85688713D02*
X128454936Y-85749190D01*
X128454936Y-85749190D02*
X128575888Y-85809666D01*
X128575888Y-85809666D02*
X128938745Y-85809666D01*
X128938745Y-85809666D02*
X129059698Y-85749190D01*
X129059698Y-85749190D02*
X129120174Y-85688713D01*
X129120174Y-85688713D02*
X129180650Y-85567761D01*
X129180650Y-85567761D02*
X129180650Y-85325856D01*
X129180650Y-85325856D02*
X129120174Y-85204904D01*
X128333983Y-84660619D02*
X129603983Y-84660619D01*
X128333983Y-84116333D02*
X128999221Y-84116333D01*
X128999221Y-84116333D02*
X129120174Y-84176809D01*
X129120174Y-84176809D02*
X129180650Y-84297761D01*
X129180650Y-84297761D02*
X129180650Y-84479190D01*
X129180650Y-84479190D02*
X129120174Y-84600142D01*
X129120174Y-84600142D02*
X129059698Y-84660619D01*
D11*
X167854285Y-88397238D02*
X167949523Y-88349619D01*
X167949523Y-88349619D02*
X168092380Y-88349619D01*
X168092380Y-88349619D02*
X168235237Y-88397238D01*
X168235237Y-88397238D02*
X168330475Y-88492476D01*
X168330475Y-88492476D02*
X168378094Y-88587714D01*
X168378094Y-88587714D02*
X168425713Y-88778190D01*
X168425713Y-88778190D02*
X168425713Y-88921047D01*
X168425713Y-88921047D02*
X168378094Y-89111523D01*
X168378094Y-89111523D02*
X168330475Y-89206761D01*
X168330475Y-89206761D02*
X168235237Y-89302000D01*
X168235237Y-89302000D02*
X168092380Y-89349619D01*
X168092380Y-89349619D02*
X167997142Y-89349619D01*
X167997142Y-89349619D02*
X167854285Y-89302000D01*
X167854285Y-89302000D02*
X167806666Y-89254380D01*
X167806666Y-89254380D02*
X167806666Y-88921047D01*
X167806666Y-88921047D02*
X167997142Y-88921047D01*
X167378094Y-89349619D02*
X167378094Y-88349619D01*
X167378094Y-88349619D02*
X166806666Y-89349619D01*
X166806666Y-89349619D02*
X166806666Y-88349619D01*
X166330475Y-89349619D02*
X166330475Y-88349619D01*
X166330475Y-88349619D02*
X166092380Y-88349619D01*
X166092380Y-88349619D02*
X165949523Y-88397238D01*
X165949523Y-88397238D02*
X165854285Y-88492476D01*
X165854285Y-88492476D02*
X165806666Y-88587714D01*
X165806666Y-88587714D02*
X165759047Y-88778190D01*
X165759047Y-88778190D02*
X165759047Y-88921047D01*
X165759047Y-88921047D02*
X165806666Y-89111523D01*
X165806666Y-89111523D02*
X165854285Y-89206761D01*
X165854285Y-89206761D02*
X165949523Y-89302000D01*
X165949523Y-89302000D02*
X166092380Y-89349619D01*
X166092380Y-89349619D02*
X166330475Y-89349619D01*
X122348284Y-102922809D02*
X122014951Y-102922809D01*
X121872094Y-103446619D02*
X122348284Y-103446619D01*
X122348284Y-103446619D02*
X122348284Y-102446619D01*
X122348284Y-102446619D02*
X121872094Y-102446619D01*
X121443522Y-103446619D02*
X121443522Y-102446619D01*
X121443522Y-102446619D02*
X120872094Y-103446619D01*
X120872094Y-103446619D02*
X120872094Y-102446619D01*
X119824475Y-103351380D02*
X119872094Y-103399000D01*
X119872094Y-103399000D02*
X120014951Y-103446619D01*
X120014951Y-103446619D02*
X120110189Y-103446619D01*
X120110189Y-103446619D02*
X120253046Y-103399000D01*
X120253046Y-103399000D02*
X120348284Y-103303761D01*
X120348284Y-103303761D02*
X120395903Y-103208523D01*
X120395903Y-103208523D02*
X120443522Y-103018047D01*
X120443522Y-103018047D02*
X120443522Y-102875190D01*
X120443522Y-102875190D02*
X120395903Y-102684714D01*
X120395903Y-102684714D02*
X120348284Y-102589476D01*
X120348284Y-102589476D02*
X120253046Y-102494238D01*
X120253046Y-102494238D02*
X120110189Y-102446619D01*
X120110189Y-102446619D02*
X120014951Y-102446619D01*
X120014951Y-102446619D02*
X119872094Y-102494238D01*
X119872094Y-102494238D02*
X119824475Y-102541857D01*
X119062570Y-102922809D02*
X118919713Y-102970428D01*
X118919713Y-102970428D02*
X118872094Y-103018047D01*
X118872094Y-103018047D02*
X118824475Y-103113285D01*
X118824475Y-103113285D02*
X118824475Y-103256142D01*
X118824475Y-103256142D02*
X118872094Y-103351380D01*
X118872094Y-103351380D02*
X118919713Y-103399000D01*
X118919713Y-103399000D02*
X119014951Y-103446619D01*
X119014951Y-103446619D02*
X119395903Y-103446619D01*
X119395903Y-103446619D02*
X119395903Y-102446619D01*
X119395903Y-102446619D02*
X119062570Y-102446619D01*
X119062570Y-102446619D02*
X118967332Y-102494238D01*
X118967332Y-102494238D02*
X118919713Y-102541857D01*
X118919713Y-102541857D02*
X118872094Y-102637095D01*
X118872094Y-102637095D02*
X118872094Y-102732333D01*
X118872094Y-102732333D02*
X118919713Y-102827571D01*
X118919713Y-102827571D02*
X118967332Y-102875190D01*
X118967332Y-102875190D02*
X119062570Y-102922809D01*
X119062570Y-102922809D02*
X119395903Y-102922809D01*
X122015142Y-89429000D02*
X121872285Y-89476619D01*
X121872285Y-89476619D02*
X121634190Y-89476619D01*
X121634190Y-89476619D02*
X121538952Y-89429000D01*
X121538952Y-89429000D02*
X121491333Y-89381380D01*
X121491333Y-89381380D02*
X121443714Y-89286142D01*
X121443714Y-89286142D02*
X121443714Y-89190904D01*
X121443714Y-89190904D02*
X121491333Y-89095666D01*
X121491333Y-89095666D02*
X121538952Y-89048047D01*
X121538952Y-89048047D02*
X121634190Y-89000428D01*
X121634190Y-89000428D02*
X121824666Y-88952809D01*
X121824666Y-88952809D02*
X121919904Y-88905190D01*
X121919904Y-88905190D02*
X121967523Y-88857571D01*
X121967523Y-88857571D02*
X122015142Y-88762333D01*
X122015142Y-88762333D02*
X122015142Y-88667095D01*
X122015142Y-88667095D02*
X121967523Y-88571857D01*
X121967523Y-88571857D02*
X121919904Y-88524238D01*
X121919904Y-88524238D02*
X121824666Y-88476619D01*
X121824666Y-88476619D02*
X121586571Y-88476619D01*
X121586571Y-88476619D02*
X121443714Y-88524238D01*
X121110380Y-88476619D02*
X120872285Y-89476619D01*
X120872285Y-89476619D02*
X120681809Y-88762333D01*
X120681809Y-88762333D02*
X120491333Y-89476619D01*
X120491333Y-89476619D02*
X120253238Y-88476619D01*
X122015142Y-85365000D02*
X121872285Y-85412619D01*
X121872285Y-85412619D02*
X121634190Y-85412619D01*
X121634190Y-85412619D02*
X121538952Y-85365000D01*
X121538952Y-85365000D02*
X121491333Y-85317380D01*
X121491333Y-85317380D02*
X121443714Y-85222142D01*
X121443714Y-85222142D02*
X121443714Y-85126904D01*
X121443714Y-85126904D02*
X121491333Y-85031666D01*
X121491333Y-85031666D02*
X121538952Y-84984047D01*
X121538952Y-84984047D02*
X121634190Y-84936428D01*
X121634190Y-84936428D02*
X121824666Y-84888809D01*
X121824666Y-84888809D02*
X121919904Y-84841190D01*
X121919904Y-84841190D02*
X121967523Y-84793571D01*
X121967523Y-84793571D02*
X122015142Y-84698333D01*
X122015142Y-84698333D02*
X122015142Y-84603095D01*
X122015142Y-84603095D02*
X121967523Y-84507857D01*
X121967523Y-84507857D02*
X121919904Y-84460238D01*
X121919904Y-84460238D02*
X121824666Y-84412619D01*
X121824666Y-84412619D02*
X121586571Y-84412619D01*
X121586571Y-84412619D02*
X121443714Y-84460238D01*
X121110380Y-84412619D02*
X120872285Y-85412619D01*
X120872285Y-85412619D02*
X120681809Y-84698333D01*
X120681809Y-84698333D02*
X120491333Y-85412619D01*
X120491333Y-85412619D02*
X120253238Y-84412619D01*
X120538760Y-113606619D02*
X120538760Y-112606619D01*
X120538760Y-112606619D02*
X120205427Y-113320904D01*
X120205427Y-113320904D02*
X119872094Y-112606619D01*
X119872094Y-112606619D02*
X119872094Y-113606619D01*
X119062570Y-113082809D02*
X118919713Y-113130428D01*
X118919713Y-113130428D02*
X118872094Y-113178047D01*
X118872094Y-113178047D02*
X118824475Y-113273285D01*
X118824475Y-113273285D02*
X118824475Y-113416142D01*
X118824475Y-113416142D02*
X118872094Y-113511380D01*
X118872094Y-113511380D02*
X118919713Y-113559000D01*
X118919713Y-113559000D02*
X119014951Y-113606619D01*
X119014951Y-113606619D02*
X119395903Y-113606619D01*
X119395903Y-113606619D02*
X119395903Y-112606619D01*
X119395903Y-112606619D02*
X119062570Y-112606619D01*
X119062570Y-112606619D02*
X118967332Y-112654238D01*
X118967332Y-112654238D02*
X118919713Y-112701857D01*
X118919713Y-112701857D02*
X118872094Y-112797095D01*
X118872094Y-112797095D02*
X118872094Y-112892333D01*
X118872094Y-112892333D02*
X118919713Y-112987571D01*
X118919713Y-112987571D02*
X118967332Y-113035190D01*
X118967332Y-113035190D02*
X119062570Y-113082809D01*
X119062570Y-113082809D02*
X119395903Y-113082809D01*
X156088238Y-88392095D02*
X156040619Y-88296857D01*
X156040619Y-88296857D02*
X156040619Y-88154000D01*
X156040619Y-88154000D02*
X156088238Y-88011143D01*
X156088238Y-88011143D02*
X156183476Y-87915905D01*
X156183476Y-87915905D02*
X156278714Y-87868286D01*
X156278714Y-87868286D02*
X156469190Y-87820667D01*
X156469190Y-87820667D02*
X156612047Y-87820667D01*
X156612047Y-87820667D02*
X156802523Y-87868286D01*
X156802523Y-87868286D02*
X156897761Y-87915905D01*
X156897761Y-87915905D02*
X156993000Y-88011143D01*
X156993000Y-88011143D02*
X157040619Y-88154000D01*
X157040619Y-88154000D02*
X157040619Y-88249238D01*
X157040619Y-88249238D02*
X156993000Y-88392095D01*
X156993000Y-88392095D02*
X156945380Y-88439714D01*
X156945380Y-88439714D02*
X156612047Y-88439714D01*
X156612047Y-88439714D02*
X156612047Y-88249238D01*
X157040619Y-88868286D02*
X156040619Y-88868286D01*
X156040619Y-88868286D02*
X157040619Y-89439714D01*
X157040619Y-89439714D02*
X156040619Y-89439714D01*
X157040619Y-89915905D02*
X156040619Y-89915905D01*
X156040619Y-89915905D02*
X156040619Y-90154000D01*
X156040619Y-90154000D02*
X156088238Y-90296857D01*
X156088238Y-90296857D02*
X156183476Y-90392095D01*
X156183476Y-90392095D02*
X156278714Y-90439714D01*
X156278714Y-90439714D02*
X156469190Y-90487333D01*
X156469190Y-90487333D02*
X156612047Y-90487333D01*
X156612047Y-90487333D02*
X156802523Y-90439714D01*
X156802523Y-90439714D02*
X156897761Y-90392095D01*
X156897761Y-90392095D02*
X156993000Y-90296857D01*
X156993000Y-90296857D02*
X157040619Y-90154000D01*
X157040619Y-90154000D02*
X157040619Y-89915905D01*
X168520952Y-95969619D02*
X167949524Y-95969619D01*
X168235238Y-96969619D02*
X168235238Y-95969619D01*
X167711428Y-95969619D02*
X167044762Y-96969619D01*
X167044762Y-95969619D02*
X167711428Y-96969619D01*
X161692000Y-80354753D02*
X161739619Y-80497610D01*
X161739619Y-80497610D02*
X161739619Y-80735705D01*
X161739619Y-80735705D02*
X161692000Y-80830943D01*
X161692000Y-80830943D02*
X161644380Y-80878562D01*
X161644380Y-80878562D02*
X161549142Y-80926181D01*
X161549142Y-80926181D02*
X161453904Y-80926181D01*
X161453904Y-80926181D02*
X161358666Y-80878562D01*
X161358666Y-80878562D02*
X161311047Y-80830943D01*
X161311047Y-80830943D02*
X161263428Y-80735705D01*
X161263428Y-80735705D02*
X161215809Y-80545229D01*
X161215809Y-80545229D02*
X161168190Y-80449991D01*
X161168190Y-80449991D02*
X161120571Y-80402372D01*
X161120571Y-80402372D02*
X161025333Y-80354753D01*
X161025333Y-80354753D02*
X160930095Y-80354753D01*
X160930095Y-80354753D02*
X160834857Y-80402372D01*
X160834857Y-80402372D02*
X160787238Y-80449991D01*
X160787238Y-80449991D02*
X160739619Y-80545229D01*
X160739619Y-80545229D02*
X160739619Y-80783324D01*
X160739619Y-80783324D02*
X160787238Y-80926181D01*
X160739619Y-81259515D02*
X161739619Y-81497610D01*
X161739619Y-81497610D02*
X161025333Y-81688086D01*
X161025333Y-81688086D02*
X161739619Y-81878562D01*
X161739619Y-81878562D02*
X160739619Y-82116658D01*
X161739619Y-82497610D02*
X160739619Y-82497610D01*
X160739619Y-82497610D02*
X160739619Y-82735705D01*
X160739619Y-82735705D02*
X160787238Y-82878562D01*
X160787238Y-82878562D02*
X160882476Y-82973800D01*
X160882476Y-82973800D02*
X160977714Y-83021419D01*
X160977714Y-83021419D02*
X161168190Y-83069038D01*
X161168190Y-83069038D02*
X161311047Y-83069038D01*
X161311047Y-83069038D02*
X161501523Y-83021419D01*
X161501523Y-83021419D02*
X161596761Y-82973800D01*
X161596761Y-82973800D02*
X161692000Y-82878562D01*
X161692000Y-82878562D02*
X161739619Y-82735705D01*
X161739619Y-82735705D02*
X161739619Y-82497610D01*
X161739619Y-83497610D02*
X160739619Y-83497610D01*
X160739619Y-84164276D02*
X160739619Y-84354752D01*
X160739619Y-84354752D02*
X160787238Y-84449990D01*
X160787238Y-84449990D02*
X160882476Y-84545228D01*
X160882476Y-84545228D02*
X161072952Y-84592847D01*
X161072952Y-84592847D02*
X161406285Y-84592847D01*
X161406285Y-84592847D02*
X161596761Y-84545228D01*
X161596761Y-84545228D02*
X161692000Y-84449990D01*
X161692000Y-84449990D02*
X161739619Y-84354752D01*
X161739619Y-84354752D02*
X161739619Y-84164276D01*
X161739619Y-84164276D02*
X161692000Y-84069038D01*
X161692000Y-84069038D02*
X161596761Y-83973800D01*
X161596761Y-83973800D02*
X161406285Y-83926181D01*
X161406285Y-83926181D02*
X161072952Y-83926181D01*
X161072952Y-83926181D02*
X160882476Y-83973800D01*
X160882476Y-83973800D02*
X160787238Y-84069038D01*
X160787238Y-84069038D02*
X160739619Y-84164276D01*
X155135619Y-115165333D02*
X154135619Y-115165333D01*
X154135619Y-115165333D02*
X154135619Y-115546285D01*
X154135619Y-115546285D02*
X154183238Y-115641523D01*
X154183238Y-115641523D02*
X154230857Y-115689142D01*
X154230857Y-115689142D02*
X154326095Y-115736761D01*
X154326095Y-115736761D02*
X154468952Y-115736761D01*
X154468952Y-115736761D02*
X154564190Y-115689142D01*
X154564190Y-115689142D02*
X154611809Y-115641523D01*
X154611809Y-115641523D02*
X154659428Y-115546285D01*
X154659428Y-115546285D02*
X154659428Y-115165333D01*
X154849904Y-116117714D02*
X154849904Y-116593904D01*
X155135619Y-116022476D02*
X154135619Y-116355809D01*
X154135619Y-116355809D02*
X155135619Y-116689142D01*
X154135619Y-117498666D02*
X154135619Y-117022476D01*
X154135619Y-117022476D02*
X154611809Y-116974857D01*
X154611809Y-116974857D02*
X154564190Y-117022476D01*
X154564190Y-117022476D02*
X154516571Y-117117714D01*
X154516571Y-117117714D02*
X154516571Y-117355809D01*
X154516571Y-117355809D02*
X154564190Y-117451047D01*
X154564190Y-117451047D02*
X154611809Y-117498666D01*
X154611809Y-117498666D02*
X154707047Y-117546285D01*
X154707047Y-117546285D02*
X154945142Y-117546285D01*
X154945142Y-117546285D02*
X155040380Y-117498666D01*
X155040380Y-117498666D02*
X155088000Y-117451047D01*
X155088000Y-117451047D02*
X155135619Y-117355809D01*
X155135619Y-117355809D02*
X155135619Y-117117714D01*
X155135619Y-117117714D02*
X155088000Y-117022476D01*
X155088000Y-117022476D02*
X155040380Y-116974857D01*
X168338285Y-107129619D02*
X168338285Y-106129619D01*
X168338285Y-106129619D02*
X167957333Y-106129619D01*
X167957333Y-106129619D02*
X167862095Y-106177238D01*
X167862095Y-106177238D02*
X167814476Y-106224857D01*
X167814476Y-106224857D02*
X167766857Y-106320095D01*
X167766857Y-106320095D02*
X167766857Y-106462952D01*
X167766857Y-106462952D02*
X167814476Y-106558190D01*
X167814476Y-106558190D02*
X167862095Y-106605809D01*
X167862095Y-106605809D02*
X167957333Y-106653428D01*
X167957333Y-106653428D02*
X168338285Y-106653428D01*
X167004952Y-106605809D02*
X166862095Y-106653428D01*
X166862095Y-106653428D02*
X166814476Y-106701047D01*
X166814476Y-106701047D02*
X166766857Y-106796285D01*
X166766857Y-106796285D02*
X166766857Y-106939142D01*
X166766857Y-106939142D02*
X166814476Y-107034380D01*
X166814476Y-107034380D02*
X166862095Y-107082000D01*
X166862095Y-107082000D02*
X166957333Y-107129619D01*
X166957333Y-107129619D02*
X167338285Y-107129619D01*
X167338285Y-107129619D02*
X167338285Y-106129619D01*
X167338285Y-106129619D02*
X167004952Y-106129619D01*
X167004952Y-106129619D02*
X166909714Y-106177238D01*
X166909714Y-106177238D02*
X166862095Y-106224857D01*
X166862095Y-106224857D02*
X166814476Y-106320095D01*
X166814476Y-106320095D02*
X166814476Y-106415333D01*
X166814476Y-106415333D02*
X166862095Y-106510571D01*
X166862095Y-106510571D02*
X166909714Y-106558190D01*
X166909714Y-106558190D02*
X167004952Y-106605809D01*
X167004952Y-106605809D02*
X167338285Y-106605809D01*
X165814476Y-107129619D02*
X166385904Y-107129619D01*
X166100190Y-107129619D02*
X166100190Y-106129619D01*
X166100190Y-106129619D02*
X166195428Y-106272476D01*
X166195428Y-106272476D02*
X166290666Y-106367714D01*
X166290666Y-106367714D02*
X166385904Y-106415333D01*
X165481142Y-106129619D02*
X164862095Y-106129619D01*
X164862095Y-106129619D02*
X165195428Y-106510571D01*
X165195428Y-106510571D02*
X165052571Y-106510571D01*
X165052571Y-106510571D02*
X164957333Y-106558190D01*
X164957333Y-106558190D02*
X164909714Y-106605809D01*
X164909714Y-106605809D02*
X164862095Y-106701047D01*
X164862095Y-106701047D02*
X164862095Y-106939142D01*
X164862095Y-106939142D02*
X164909714Y-107034380D01*
X164909714Y-107034380D02*
X164957333Y-107082000D01*
X164957333Y-107082000D02*
X165052571Y-107129619D01*
X165052571Y-107129619D02*
X165338285Y-107129619D01*
X165338285Y-107129619D02*
X165433523Y-107082000D01*
X165433523Y-107082000D02*
X165481142Y-107034380D01*
X167806666Y-94429619D02*
X168139999Y-93953428D01*
X168378094Y-94429619D02*
X168378094Y-93429619D01*
X168378094Y-93429619D02*
X167997142Y-93429619D01*
X167997142Y-93429619D02*
X167901904Y-93477238D01*
X167901904Y-93477238D02*
X167854285Y-93524857D01*
X167854285Y-93524857D02*
X167806666Y-93620095D01*
X167806666Y-93620095D02*
X167806666Y-93762952D01*
X167806666Y-93762952D02*
X167854285Y-93858190D01*
X167854285Y-93858190D02*
X167901904Y-93905809D01*
X167901904Y-93905809D02*
X167997142Y-93953428D01*
X167997142Y-93953428D02*
X168378094Y-93953428D01*
X167473332Y-93429619D02*
X166806666Y-94429619D01*
X166806666Y-93429619D02*
X167473332Y-94429619D01*
X122205428Y-110542809D02*
X121872095Y-110542809D01*
X121729238Y-111066619D02*
X122205428Y-111066619D01*
X122205428Y-111066619D02*
X122205428Y-110066619D01*
X122205428Y-110066619D02*
X121729238Y-110066619D01*
X121300666Y-111066619D02*
X121300666Y-110066619D01*
X121300666Y-110066619D02*
X120729238Y-111066619D01*
X120729238Y-111066619D02*
X120729238Y-110066619D01*
X119681619Y-110971380D02*
X119729238Y-111019000D01*
X119729238Y-111019000D02*
X119872095Y-111066619D01*
X119872095Y-111066619D02*
X119967333Y-111066619D01*
X119967333Y-111066619D02*
X120110190Y-111019000D01*
X120110190Y-111019000D02*
X120205428Y-110923761D01*
X120205428Y-110923761D02*
X120253047Y-110828523D01*
X120253047Y-110828523D02*
X120300666Y-110638047D01*
X120300666Y-110638047D02*
X120300666Y-110495190D01*
X120300666Y-110495190D02*
X120253047Y-110304714D01*
X120253047Y-110304714D02*
X120205428Y-110209476D01*
X120205428Y-110209476D02*
X120110190Y-110114238D01*
X120110190Y-110114238D02*
X119967333Y-110066619D01*
X119967333Y-110066619D02*
X119872095Y-110066619D01*
X119872095Y-110066619D02*
X119729238Y-110114238D01*
X119729238Y-110114238D02*
X119681619Y-110161857D01*
X119300666Y-110780904D02*
X118824476Y-110780904D01*
X119395904Y-111066619D02*
X119062571Y-110066619D01*
X119062571Y-110066619D02*
X118729238Y-111066619D01*
X154500619Y-88606380D02*
X154024428Y-88273047D01*
X154500619Y-88034952D02*
X153500619Y-88034952D01*
X153500619Y-88034952D02*
X153500619Y-88415904D01*
X153500619Y-88415904D02*
X153548238Y-88511142D01*
X153548238Y-88511142D02*
X153595857Y-88558761D01*
X153595857Y-88558761D02*
X153691095Y-88606380D01*
X153691095Y-88606380D02*
X153833952Y-88606380D01*
X153833952Y-88606380D02*
X153929190Y-88558761D01*
X153929190Y-88558761D02*
X153976809Y-88511142D01*
X153976809Y-88511142D02*
X154024428Y-88415904D01*
X154024428Y-88415904D02*
X154024428Y-88034952D01*
X154453000Y-88987333D02*
X154500619Y-89130190D01*
X154500619Y-89130190D02*
X154500619Y-89368285D01*
X154500619Y-89368285D02*
X154453000Y-89463523D01*
X154453000Y-89463523D02*
X154405380Y-89511142D01*
X154405380Y-89511142D02*
X154310142Y-89558761D01*
X154310142Y-89558761D02*
X154214904Y-89558761D01*
X154214904Y-89558761D02*
X154119666Y-89511142D01*
X154119666Y-89511142D02*
X154072047Y-89463523D01*
X154072047Y-89463523D02*
X154024428Y-89368285D01*
X154024428Y-89368285D02*
X153976809Y-89177809D01*
X153976809Y-89177809D02*
X153929190Y-89082571D01*
X153929190Y-89082571D02*
X153881571Y-89034952D01*
X153881571Y-89034952D02*
X153786333Y-88987333D01*
X153786333Y-88987333D02*
X153691095Y-88987333D01*
X153691095Y-88987333D02*
X153595857Y-89034952D01*
X153595857Y-89034952D02*
X153548238Y-89082571D01*
X153548238Y-89082571D02*
X153500619Y-89177809D01*
X153500619Y-89177809D02*
X153500619Y-89415904D01*
X153500619Y-89415904D02*
X153548238Y-89558761D01*
X153500619Y-89844476D02*
X153500619Y-90415904D01*
X154500619Y-90130190D02*
X153500619Y-90130190D01*
X168338285Y-102049619D02*
X168338285Y-101049619D01*
X168338285Y-101049619D02*
X167957333Y-101049619D01*
X167957333Y-101049619D02*
X167862095Y-101097238D01*
X167862095Y-101097238D02*
X167814476Y-101144857D01*
X167814476Y-101144857D02*
X167766857Y-101240095D01*
X167766857Y-101240095D02*
X167766857Y-101382952D01*
X167766857Y-101382952D02*
X167814476Y-101478190D01*
X167814476Y-101478190D02*
X167862095Y-101525809D01*
X167862095Y-101525809D02*
X167957333Y-101573428D01*
X167957333Y-101573428D02*
X168338285Y-101573428D01*
X167004952Y-101525809D02*
X166862095Y-101573428D01*
X166862095Y-101573428D02*
X166814476Y-101621047D01*
X166814476Y-101621047D02*
X166766857Y-101716285D01*
X166766857Y-101716285D02*
X166766857Y-101859142D01*
X166766857Y-101859142D02*
X166814476Y-101954380D01*
X166814476Y-101954380D02*
X166862095Y-102002000D01*
X166862095Y-102002000D02*
X166957333Y-102049619D01*
X166957333Y-102049619D02*
X167338285Y-102049619D01*
X167338285Y-102049619D02*
X167338285Y-101049619D01*
X167338285Y-101049619D02*
X167004952Y-101049619D01*
X167004952Y-101049619D02*
X166909714Y-101097238D01*
X166909714Y-101097238D02*
X166862095Y-101144857D01*
X166862095Y-101144857D02*
X166814476Y-101240095D01*
X166814476Y-101240095D02*
X166814476Y-101335333D01*
X166814476Y-101335333D02*
X166862095Y-101430571D01*
X166862095Y-101430571D02*
X166909714Y-101478190D01*
X166909714Y-101478190D02*
X167004952Y-101525809D01*
X167004952Y-101525809D02*
X167338285Y-101525809D01*
X165814476Y-102049619D02*
X166385904Y-102049619D01*
X166100190Y-102049619D02*
X166100190Y-101049619D01*
X166100190Y-101049619D02*
X166195428Y-101192476D01*
X166195428Y-101192476D02*
X166290666Y-101287714D01*
X166290666Y-101287714D02*
X166385904Y-101335333D01*
X164909714Y-101049619D02*
X165385904Y-101049619D01*
X165385904Y-101049619D02*
X165433523Y-101525809D01*
X165433523Y-101525809D02*
X165385904Y-101478190D01*
X165385904Y-101478190D02*
X165290666Y-101430571D01*
X165290666Y-101430571D02*
X165052571Y-101430571D01*
X165052571Y-101430571D02*
X164957333Y-101478190D01*
X164957333Y-101478190D02*
X164909714Y-101525809D01*
X164909714Y-101525809D02*
X164862095Y-101621047D01*
X164862095Y-101621047D02*
X164862095Y-101859142D01*
X164862095Y-101859142D02*
X164909714Y-101954380D01*
X164909714Y-101954380D02*
X164957333Y-102002000D01*
X164957333Y-102002000D02*
X165052571Y-102049619D01*
X165052571Y-102049619D02*
X165290666Y-102049619D01*
X165290666Y-102049619D02*
X165385904Y-102002000D01*
X165385904Y-102002000D02*
X165433523Y-101954380D01*
X168378094Y-91889619D02*
X168378094Y-90889619D01*
X168378094Y-90889619D02*
X167806666Y-91889619D01*
X167806666Y-91889619D02*
X167806666Y-90889619D01*
X166759047Y-91794380D02*
X166806666Y-91842000D01*
X166806666Y-91842000D02*
X166949523Y-91889619D01*
X166949523Y-91889619D02*
X167044761Y-91889619D01*
X167044761Y-91889619D02*
X167187618Y-91842000D01*
X167187618Y-91842000D02*
X167282856Y-91746761D01*
X167282856Y-91746761D02*
X167330475Y-91651523D01*
X167330475Y-91651523D02*
X167378094Y-91461047D01*
X167378094Y-91461047D02*
X167378094Y-91318190D01*
X167378094Y-91318190D02*
X167330475Y-91127714D01*
X167330475Y-91127714D02*
X167282856Y-91032476D01*
X167282856Y-91032476D02*
X167187618Y-90937238D01*
X167187618Y-90937238D02*
X167044761Y-90889619D01*
X167044761Y-90889619D02*
X166949523Y-90889619D01*
X166949523Y-90889619D02*
X166806666Y-90937238D01*
X166806666Y-90937238D02*
X166759047Y-90984857D01*
X155707238Y-80899095D02*
X155659619Y-80803857D01*
X155659619Y-80803857D02*
X155659619Y-80661000D01*
X155659619Y-80661000D02*
X155707238Y-80518143D01*
X155707238Y-80518143D02*
X155802476Y-80422905D01*
X155802476Y-80422905D02*
X155897714Y-80375286D01*
X155897714Y-80375286D02*
X156088190Y-80327667D01*
X156088190Y-80327667D02*
X156231047Y-80327667D01*
X156231047Y-80327667D02*
X156421523Y-80375286D01*
X156421523Y-80375286D02*
X156516761Y-80422905D01*
X156516761Y-80422905D02*
X156612000Y-80518143D01*
X156612000Y-80518143D02*
X156659619Y-80661000D01*
X156659619Y-80661000D02*
X156659619Y-80756238D01*
X156659619Y-80756238D02*
X156612000Y-80899095D01*
X156612000Y-80899095D02*
X156564380Y-80946714D01*
X156564380Y-80946714D02*
X156231047Y-80946714D01*
X156231047Y-80946714D02*
X156231047Y-80756238D01*
X156659619Y-81375286D02*
X155659619Y-81375286D01*
X155659619Y-81375286D02*
X156659619Y-81946714D01*
X156659619Y-81946714D02*
X155659619Y-81946714D01*
X156659619Y-82422905D02*
X155659619Y-82422905D01*
X155659619Y-82422905D02*
X155659619Y-82661000D01*
X155659619Y-82661000D02*
X155707238Y-82803857D01*
X155707238Y-82803857D02*
X155802476Y-82899095D01*
X155802476Y-82899095D02*
X155897714Y-82946714D01*
X155897714Y-82946714D02*
X156088190Y-82994333D01*
X156088190Y-82994333D02*
X156231047Y-82994333D01*
X156231047Y-82994333D02*
X156421523Y-82946714D01*
X156421523Y-82946714D02*
X156516761Y-82899095D01*
X156516761Y-82899095D02*
X156612000Y-82803857D01*
X156612000Y-82803857D02*
X156659619Y-82661000D01*
X156659619Y-82661000D02*
X156659619Y-82422905D01*
X168338285Y-104589619D02*
X168338285Y-103589619D01*
X168338285Y-103589619D02*
X167957333Y-103589619D01*
X167957333Y-103589619D02*
X167862095Y-103637238D01*
X167862095Y-103637238D02*
X167814476Y-103684857D01*
X167814476Y-103684857D02*
X167766857Y-103780095D01*
X167766857Y-103780095D02*
X167766857Y-103922952D01*
X167766857Y-103922952D02*
X167814476Y-104018190D01*
X167814476Y-104018190D02*
X167862095Y-104065809D01*
X167862095Y-104065809D02*
X167957333Y-104113428D01*
X167957333Y-104113428D02*
X168338285Y-104113428D01*
X167004952Y-104065809D02*
X166862095Y-104113428D01*
X166862095Y-104113428D02*
X166814476Y-104161047D01*
X166814476Y-104161047D02*
X166766857Y-104256285D01*
X166766857Y-104256285D02*
X166766857Y-104399142D01*
X166766857Y-104399142D02*
X166814476Y-104494380D01*
X166814476Y-104494380D02*
X166862095Y-104542000D01*
X166862095Y-104542000D02*
X166957333Y-104589619D01*
X166957333Y-104589619D02*
X167338285Y-104589619D01*
X167338285Y-104589619D02*
X167338285Y-103589619D01*
X167338285Y-103589619D02*
X167004952Y-103589619D01*
X167004952Y-103589619D02*
X166909714Y-103637238D01*
X166909714Y-103637238D02*
X166862095Y-103684857D01*
X166862095Y-103684857D02*
X166814476Y-103780095D01*
X166814476Y-103780095D02*
X166814476Y-103875333D01*
X166814476Y-103875333D02*
X166862095Y-103970571D01*
X166862095Y-103970571D02*
X166909714Y-104018190D01*
X166909714Y-104018190D02*
X167004952Y-104065809D01*
X167004952Y-104065809D02*
X167338285Y-104065809D01*
X165814476Y-104589619D02*
X166385904Y-104589619D01*
X166100190Y-104589619D02*
X166100190Y-103589619D01*
X166100190Y-103589619D02*
X166195428Y-103732476D01*
X166195428Y-103732476D02*
X166290666Y-103827714D01*
X166290666Y-103827714D02*
X166385904Y-103875333D01*
X164957333Y-103922952D02*
X164957333Y-104589619D01*
X165195428Y-103542000D02*
X165433523Y-104256285D01*
X165433523Y-104256285D02*
X164814476Y-104256285D01*
D12*
X128333983Y-97124761D02*
X129603983Y-97124761D01*
X129603983Y-97124761D02*
X129603983Y-96640951D01*
X129603983Y-96640951D02*
X129543507Y-96519999D01*
X129543507Y-96519999D02*
X129483031Y-96459522D01*
X129483031Y-96459522D02*
X129362079Y-96399046D01*
X129362079Y-96399046D02*
X129180650Y-96399046D01*
X129180650Y-96399046D02*
X129059698Y-96459522D01*
X129059698Y-96459522D02*
X128999221Y-96519999D01*
X128999221Y-96519999D02*
X128938745Y-96640951D01*
X128938745Y-96640951D02*
X128938745Y-97124761D01*
X128333983Y-95673332D02*
X128394460Y-95794284D01*
X128394460Y-95794284D02*
X128454936Y-95854761D01*
X128454936Y-95854761D02*
X128575888Y-95915237D01*
X128575888Y-95915237D02*
X128938745Y-95915237D01*
X128938745Y-95915237D02*
X129059698Y-95854761D01*
X129059698Y-95854761D02*
X129120174Y-95794284D01*
X129120174Y-95794284D02*
X129180650Y-95673332D01*
X129180650Y-95673332D02*
X129180650Y-95491903D01*
X129180650Y-95491903D02*
X129120174Y-95370951D01*
X129120174Y-95370951D02*
X129059698Y-95310475D01*
X129059698Y-95310475D02*
X128938745Y-95249999D01*
X128938745Y-95249999D02*
X128575888Y-95249999D01*
X128575888Y-95249999D02*
X128454936Y-95310475D01*
X128454936Y-95310475D02*
X128394460Y-95370951D01*
X128394460Y-95370951D02*
X128333983Y-95491903D01*
X128333983Y-95491903D02*
X128333983Y-95673332D01*
X129180650Y-94826665D02*
X128333983Y-94584760D01*
X128333983Y-94584760D02*
X128938745Y-94342855D01*
X128938745Y-94342855D02*
X128333983Y-94100951D01*
X128333983Y-94100951D02*
X129180650Y-93859046D01*
X128394460Y-92891427D02*
X128333983Y-93012379D01*
X128333983Y-93012379D02*
X128333983Y-93254284D01*
X128333983Y-93254284D02*
X128394460Y-93375237D01*
X128394460Y-93375237D02*
X128515412Y-93435713D01*
X128515412Y-93435713D02*
X128999221Y-93435713D01*
X128999221Y-93435713D02*
X129120174Y-93375237D01*
X129120174Y-93375237D02*
X129180650Y-93254284D01*
X129180650Y-93254284D02*
X129180650Y-93012379D01*
X129180650Y-93012379D02*
X129120174Y-92891427D01*
X129120174Y-92891427D02*
X128999221Y-92830951D01*
X128999221Y-92830951D02*
X128878269Y-92830951D01*
X128878269Y-92830951D02*
X128757317Y-93435713D01*
X128333983Y-92286666D02*
X129180650Y-92286666D01*
X128938745Y-92286666D02*
X129059698Y-92226189D01*
X129059698Y-92226189D02*
X129120174Y-92165713D01*
X129120174Y-92165713D02*
X129180650Y-92044761D01*
X129180650Y-92044761D02*
X129180650Y-91923808D01*
D13*
X145342427Y-120456649D02*
X144839265Y-120456649D01*
X144839265Y-120456649D02*
X145110199Y-120766287D01*
X145110199Y-120766287D02*
X144994084Y-120766287D01*
X144994084Y-120766287D02*
X144916675Y-120804992D01*
X144916675Y-120804992D02*
X144877970Y-120843697D01*
X144877970Y-120843697D02*
X144839265Y-120921106D01*
X144839265Y-120921106D02*
X144839265Y-121114630D01*
X144839265Y-121114630D02*
X144877970Y-121192040D01*
X144877970Y-121192040D02*
X144916675Y-121230745D01*
X144916675Y-121230745D02*
X144994084Y-121269449D01*
X144994084Y-121269449D02*
X145226313Y-121269449D01*
X145226313Y-121269449D02*
X145303722Y-121230745D01*
X145303722Y-121230745D02*
X145342427Y-121192040D01*
X144490923Y-120959811D02*
X143871647Y-120959811D01*
X143329780Y-120456649D02*
X143252370Y-120456649D01*
X143252370Y-120456649D02*
X143174961Y-120495354D01*
X143174961Y-120495354D02*
X143136256Y-120534059D01*
X143136256Y-120534059D02*
X143097551Y-120611468D01*
X143097551Y-120611468D02*
X143058846Y-120766287D01*
X143058846Y-120766287D02*
X143058846Y-120959811D01*
X143058846Y-120959811D02*
X143097551Y-121114630D01*
X143097551Y-121114630D02*
X143136256Y-121192040D01*
X143136256Y-121192040D02*
X143174961Y-121230745D01*
X143174961Y-121230745D02*
X143252370Y-121269449D01*
X143252370Y-121269449D02*
X143329780Y-121269449D01*
X143329780Y-121269449D02*
X143407189Y-121230745D01*
X143407189Y-121230745D02*
X143445894Y-121192040D01*
X143445894Y-121192040D02*
X143484599Y-121114630D01*
X143484599Y-121114630D02*
X143523303Y-120959811D01*
X143523303Y-120959811D02*
X143523303Y-120766287D01*
X143523303Y-120766287D02*
X143484599Y-120611468D01*
X143484599Y-120611468D02*
X143445894Y-120534059D01*
X143445894Y-120534059D02*
X143407189Y-120495354D01*
X143407189Y-120495354D02*
X143329780Y-120456649D01*
X142555685Y-120456649D02*
X142478275Y-120456649D01*
X142478275Y-120456649D02*
X142400866Y-120495354D01*
X142400866Y-120495354D02*
X142362161Y-120534059D01*
X142362161Y-120534059D02*
X142323456Y-120611468D01*
X142323456Y-120611468D02*
X142284751Y-120766287D01*
X142284751Y-120766287D02*
X142284751Y-120959811D01*
X142284751Y-120959811D02*
X142323456Y-121114630D01*
X142323456Y-121114630D02*
X142362161Y-121192040D01*
X142362161Y-121192040D02*
X142400866Y-121230745D01*
X142400866Y-121230745D02*
X142478275Y-121269449D01*
X142478275Y-121269449D02*
X142555685Y-121269449D01*
X142555685Y-121269449D02*
X142633094Y-121230745D01*
X142633094Y-121230745D02*
X142671799Y-121192040D01*
X142671799Y-121192040D02*
X142710504Y-121114630D01*
X142710504Y-121114630D02*
X142749208Y-120959811D01*
X142749208Y-120959811D02*
X142749208Y-120766287D01*
X142749208Y-120766287D02*
X142710504Y-120611468D01*
X142710504Y-120611468D02*
X142671799Y-120534059D01*
X142671799Y-120534059D02*
X142633094Y-120495354D01*
X142633094Y-120495354D02*
X142555685Y-120456649D01*
X141781590Y-120456649D02*
X141704180Y-120456649D01*
X141704180Y-120456649D02*
X141626771Y-120495354D01*
X141626771Y-120495354D02*
X141588066Y-120534059D01*
X141588066Y-120534059D02*
X141549361Y-120611468D01*
X141549361Y-120611468D02*
X141510656Y-120766287D01*
X141510656Y-120766287D02*
X141510656Y-120959811D01*
X141510656Y-120959811D02*
X141549361Y-121114630D01*
X141549361Y-121114630D02*
X141588066Y-121192040D01*
X141588066Y-121192040D02*
X141626771Y-121230745D01*
X141626771Y-121230745D02*
X141704180Y-121269449D01*
X141704180Y-121269449D02*
X141781590Y-121269449D01*
X141781590Y-121269449D02*
X141858999Y-121230745D01*
X141858999Y-121230745D02*
X141897704Y-121192040D01*
X141897704Y-121192040D02*
X141936409Y-121114630D01*
X141936409Y-121114630D02*
X141975113Y-120959811D01*
X141975113Y-120959811D02*
X141975113Y-120766287D01*
X141975113Y-120766287D02*
X141936409Y-120611468D01*
X141936409Y-120611468D02*
X141897704Y-120534059D01*
X141897704Y-120534059D02*
X141858999Y-120495354D01*
X141858999Y-120495354D02*
X141781590Y-120456649D01*
X141007495Y-120456649D02*
X140930085Y-120456649D01*
X140930085Y-120456649D02*
X140852676Y-120495354D01*
X140852676Y-120495354D02*
X140813971Y-120534059D01*
X140813971Y-120534059D02*
X140775266Y-120611468D01*
X140775266Y-120611468D02*
X140736561Y-120766287D01*
X140736561Y-120766287D02*
X140736561Y-120959811D01*
X140736561Y-120959811D02*
X140775266Y-121114630D01*
X140775266Y-121114630D02*
X140813971Y-121192040D01*
X140813971Y-121192040D02*
X140852676Y-121230745D01*
X140852676Y-121230745D02*
X140930085Y-121269449D01*
X140930085Y-121269449D02*
X141007495Y-121269449D01*
X141007495Y-121269449D02*
X141084904Y-121230745D01*
X141084904Y-121230745D02*
X141123609Y-121192040D01*
X141123609Y-121192040D02*
X141162314Y-121114630D01*
X141162314Y-121114630D02*
X141201018Y-120959811D01*
X141201018Y-120959811D02*
X141201018Y-120766287D01*
X141201018Y-120766287D02*
X141162314Y-120611468D01*
X141162314Y-120611468D02*
X141123609Y-120534059D01*
X141123609Y-120534059D02*
X141084904Y-120495354D01*
X141084904Y-120495354D02*
X141007495Y-120456649D01*
X140426923Y-120534059D02*
X140388219Y-120495354D01*
X140388219Y-120495354D02*
X140310809Y-120456649D01*
X140310809Y-120456649D02*
X140117285Y-120456649D01*
X140117285Y-120456649D02*
X140039876Y-120495354D01*
X140039876Y-120495354D02*
X140001171Y-120534059D01*
X140001171Y-120534059D02*
X139962466Y-120611468D01*
X139962466Y-120611468D02*
X139962466Y-120688878D01*
X139962466Y-120688878D02*
X140001171Y-120804992D01*
X140001171Y-120804992D02*
X140465628Y-121269449D01*
X140465628Y-121269449D02*
X139962466Y-121269449D01*
X139459305Y-120456649D02*
X139381895Y-120456649D01*
X139381895Y-120456649D02*
X139304486Y-120495354D01*
X139304486Y-120495354D02*
X139265781Y-120534059D01*
X139265781Y-120534059D02*
X139227076Y-120611468D01*
X139227076Y-120611468D02*
X139188371Y-120766287D01*
X139188371Y-120766287D02*
X139188371Y-120959811D01*
X139188371Y-120959811D02*
X139227076Y-121114630D01*
X139227076Y-121114630D02*
X139265781Y-121192040D01*
X139265781Y-121192040D02*
X139304486Y-121230745D01*
X139304486Y-121230745D02*
X139381895Y-121269449D01*
X139381895Y-121269449D02*
X139459305Y-121269449D01*
X139459305Y-121269449D02*
X139536714Y-121230745D01*
X139536714Y-121230745D02*
X139575419Y-121192040D01*
X139575419Y-121192040D02*
X139614124Y-121114630D01*
X139614124Y-121114630D02*
X139652828Y-120959811D01*
X139652828Y-120959811D02*
X139652828Y-120766287D01*
X139652828Y-120766287D02*
X139614124Y-120611468D01*
X139614124Y-120611468D02*
X139575419Y-120534059D01*
X139575419Y-120534059D02*
X139536714Y-120495354D01*
X139536714Y-120495354D02*
X139459305Y-120456649D01*
X138723914Y-120804992D02*
X138801324Y-120766287D01*
X138801324Y-120766287D02*
X138840029Y-120727583D01*
X138840029Y-120727583D02*
X138878733Y-120650173D01*
X138878733Y-120650173D02*
X138878733Y-120611468D01*
X138878733Y-120611468D02*
X138840029Y-120534059D01*
X138840029Y-120534059D02*
X138801324Y-120495354D01*
X138801324Y-120495354D02*
X138723914Y-120456649D01*
X138723914Y-120456649D02*
X138569095Y-120456649D01*
X138569095Y-120456649D02*
X138491686Y-120495354D01*
X138491686Y-120495354D02*
X138452981Y-120534059D01*
X138452981Y-120534059D02*
X138414276Y-120611468D01*
X138414276Y-120611468D02*
X138414276Y-120650173D01*
X138414276Y-120650173D02*
X138452981Y-120727583D01*
X138452981Y-120727583D02*
X138491686Y-120766287D01*
X138491686Y-120766287D02*
X138569095Y-120804992D01*
X138569095Y-120804992D02*
X138723914Y-120804992D01*
X138723914Y-120804992D02*
X138801324Y-120843697D01*
X138801324Y-120843697D02*
X138840029Y-120882402D01*
X138840029Y-120882402D02*
X138878733Y-120959811D01*
X138878733Y-120959811D02*
X138878733Y-121114630D01*
X138878733Y-121114630D02*
X138840029Y-121192040D01*
X138840029Y-121192040D02*
X138801324Y-121230745D01*
X138801324Y-121230745D02*
X138723914Y-121269449D01*
X138723914Y-121269449D02*
X138569095Y-121269449D01*
X138569095Y-121269449D02*
X138491686Y-121230745D01*
X138491686Y-121230745D02*
X138452981Y-121192040D01*
X138452981Y-121192040D02*
X138414276Y-121114630D01*
X138414276Y-121114630D02*
X138414276Y-120959811D01*
X138414276Y-120959811D02*
X138452981Y-120882402D01*
X138452981Y-120882402D02*
X138491686Y-120843697D01*
X138491686Y-120843697D02*
X138569095Y-120804992D01*
D11*
X163279619Y-80422905D02*
X163279619Y-81041952D01*
X163279619Y-81041952D02*
X163660571Y-80708619D01*
X163660571Y-80708619D02*
X163660571Y-80851476D01*
X163660571Y-80851476D02*
X163708190Y-80946714D01*
X163708190Y-80946714D02*
X163755809Y-80994333D01*
X163755809Y-80994333D02*
X163851047Y-81041952D01*
X163851047Y-81041952D02*
X164089142Y-81041952D01*
X164089142Y-81041952D02*
X164184380Y-80994333D01*
X164184380Y-80994333D02*
X164232000Y-80946714D01*
X164232000Y-80946714D02*
X164279619Y-80851476D01*
X164279619Y-80851476D02*
X164279619Y-80565762D01*
X164279619Y-80565762D02*
X164232000Y-80470524D01*
X164232000Y-80470524D02*
X164184380Y-80422905D01*
X163279619Y-81327667D02*
X164279619Y-81661000D01*
X164279619Y-81661000D02*
X163279619Y-81994333D01*
X163279619Y-82232429D02*
X163279619Y-82851476D01*
X163279619Y-82851476D02*
X163660571Y-82518143D01*
X163660571Y-82518143D02*
X163660571Y-82661000D01*
X163660571Y-82661000D02*
X163708190Y-82756238D01*
X163708190Y-82756238D02*
X163755809Y-82803857D01*
X163755809Y-82803857D02*
X163851047Y-82851476D01*
X163851047Y-82851476D02*
X164089142Y-82851476D01*
X164089142Y-82851476D02*
X164184380Y-82803857D01*
X164184380Y-82803857D02*
X164232000Y-82756238D01*
X164232000Y-82756238D02*
X164279619Y-82661000D01*
X164279619Y-82661000D02*
X164279619Y-82375286D01*
X164279619Y-82375286D02*
X164232000Y-82280048D01*
X164232000Y-82280048D02*
X164184380Y-82232429D01*
X157675619Y-115165333D02*
X156675619Y-115165333D01*
X156675619Y-115165333D02*
X156675619Y-115546285D01*
X156675619Y-115546285D02*
X156723238Y-115641523D01*
X156723238Y-115641523D02*
X156770857Y-115689142D01*
X156770857Y-115689142D02*
X156866095Y-115736761D01*
X156866095Y-115736761D02*
X157008952Y-115736761D01*
X157008952Y-115736761D02*
X157104190Y-115689142D01*
X157104190Y-115689142D02*
X157151809Y-115641523D01*
X157151809Y-115641523D02*
X157199428Y-115546285D01*
X157199428Y-115546285D02*
X157199428Y-115165333D01*
X157389904Y-116117714D02*
X157389904Y-116593904D01*
X157675619Y-116022476D02*
X156675619Y-116355809D01*
X156675619Y-116355809D02*
X157675619Y-116689142D01*
X156675619Y-117451047D02*
X156675619Y-117260571D01*
X156675619Y-117260571D02*
X156723238Y-117165333D01*
X156723238Y-117165333D02*
X156770857Y-117117714D01*
X156770857Y-117117714D02*
X156913714Y-117022476D01*
X156913714Y-117022476D02*
X157104190Y-116974857D01*
X157104190Y-116974857D02*
X157485142Y-116974857D01*
X157485142Y-116974857D02*
X157580380Y-117022476D01*
X157580380Y-117022476D02*
X157628000Y-117070095D01*
X157628000Y-117070095D02*
X157675619Y-117165333D01*
X157675619Y-117165333D02*
X157675619Y-117355809D01*
X157675619Y-117355809D02*
X157628000Y-117451047D01*
X157628000Y-117451047D02*
X157580380Y-117498666D01*
X157580380Y-117498666D02*
X157485142Y-117546285D01*
X157485142Y-117546285D02*
X157247047Y-117546285D01*
X157247047Y-117546285D02*
X157151809Y-117498666D01*
X157151809Y-117498666D02*
X157104190Y-117451047D01*
X157104190Y-117451047D02*
X157056571Y-117355809D01*
X157056571Y-117355809D02*
X157056571Y-117165333D01*
X157056571Y-117165333D02*
X157104190Y-117070095D01*
X157104190Y-117070095D02*
X157151809Y-117022476D01*
X157151809Y-117022476D02*
X157247047Y-116974857D01*
X122300666Y-108526619D02*
X122300666Y-107526619D01*
X122300666Y-107526619D02*
X121919714Y-107526619D01*
X121919714Y-107526619D02*
X121824476Y-107574238D01*
X121824476Y-107574238D02*
X121776857Y-107621857D01*
X121776857Y-107621857D02*
X121729238Y-107717095D01*
X121729238Y-107717095D02*
X121729238Y-107859952D01*
X121729238Y-107859952D02*
X121776857Y-107955190D01*
X121776857Y-107955190D02*
X121824476Y-108002809D01*
X121824476Y-108002809D02*
X121919714Y-108050428D01*
X121919714Y-108050428D02*
X122300666Y-108050428D01*
X120967333Y-108002809D02*
X120824476Y-108050428D01*
X120824476Y-108050428D02*
X120776857Y-108098047D01*
X120776857Y-108098047D02*
X120729238Y-108193285D01*
X120729238Y-108193285D02*
X120729238Y-108336142D01*
X120729238Y-108336142D02*
X120776857Y-108431380D01*
X120776857Y-108431380D02*
X120824476Y-108479000D01*
X120824476Y-108479000D02*
X120919714Y-108526619D01*
X120919714Y-108526619D02*
X121300666Y-108526619D01*
X121300666Y-108526619D02*
X121300666Y-107526619D01*
X121300666Y-107526619D02*
X120967333Y-107526619D01*
X120967333Y-107526619D02*
X120872095Y-107574238D01*
X120872095Y-107574238D02*
X120824476Y-107621857D01*
X120824476Y-107621857D02*
X120776857Y-107717095D01*
X120776857Y-107717095D02*
X120776857Y-107812333D01*
X120776857Y-107812333D02*
X120824476Y-107907571D01*
X120824476Y-107907571D02*
X120872095Y-107955190D01*
X120872095Y-107955190D02*
X120967333Y-108002809D01*
X120967333Y-108002809D02*
X121300666Y-108002809D01*
X119776857Y-108526619D02*
X120348285Y-108526619D01*
X120062571Y-108526619D02*
X120062571Y-107526619D01*
X120062571Y-107526619D02*
X120157809Y-107669476D01*
X120157809Y-107669476D02*
X120253047Y-107764714D01*
X120253047Y-107764714D02*
X120348285Y-107812333D01*
X119395904Y-107621857D02*
X119348285Y-107574238D01*
X119348285Y-107574238D02*
X119253047Y-107526619D01*
X119253047Y-107526619D02*
X119014952Y-107526619D01*
X119014952Y-107526619D02*
X118919714Y-107574238D01*
X118919714Y-107574238D02*
X118872095Y-107621857D01*
X118872095Y-107621857D02*
X118824476Y-107717095D01*
X118824476Y-107717095D02*
X118824476Y-107812333D01*
X118824476Y-107812333D02*
X118872095Y-107955190D01*
X118872095Y-107955190D02*
X119443523Y-108526619D01*
X119443523Y-108526619D02*
X118824476Y-108526619D01*
D14*
X144564489Y-80061297D02*
X145169251Y-80061297D01*
X145169251Y-80061297D02*
X145169251Y-78791297D01*
X143657346Y-80000821D02*
X143778298Y-80061297D01*
X143778298Y-80061297D02*
X144020203Y-80061297D01*
X144020203Y-80061297D02*
X144141156Y-80000821D01*
X144141156Y-80000821D02*
X144201632Y-79879868D01*
X144201632Y-79879868D02*
X144201632Y-79396059D01*
X144201632Y-79396059D02*
X144141156Y-79275106D01*
X144141156Y-79275106D02*
X144020203Y-79214630D01*
X144020203Y-79214630D02*
X143778298Y-79214630D01*
X143778298Y-79214630D02*
X143657346Y-79275106D01*
X143657346Y-79275106D02*
X143596870Y-79396059D01*
X143596870Y-79396059D02*
X143596870Y-79517011D01*
X143596870Y-79517011D02*
X144201632Y-79637963D01*
X142568775Y-80000821D02*
X142689727Y-80061297D01*
X142689727Y-80061297D02*
X142931632Y-80061297D01*
X142931632Y-80061297D02*
X143052585Y-80000821D01*
X143052585Y-80000821D02*
X143113061Y-79879868D01*
X143113061Y-79879868D02*
X143113061Y-79396059D01*
X143113061Y-79396059D02*
X143052585Y-79275106D01*
X143052585Y-79275106D02*
X142931632Y-79214630D01*
X142931632Y-79214630D02*
X142689727Y-79214630D01*
X142689727Y-79214630D02*
X142568775Y-79275106D01*
X142568775Y-79275106D02*
X142508299Y-79396059D01*
X142508299Y-79396059D02*
X142508299Y-79517011D01*
X142508299Y-79517011D02*
X143113061Y-79637963D01*
X141964014Y-80061297D02*
X141964014Y-79214630D01*
X141964014Y-79335582D02*
X141903537Y-79275106D01*
X141903537Y-79275106D02*
X141782585Y-79214630D01*
X141782585Y-79214630D02*
X141601156Y-79214630D01*
X141601156Y-79214630D02*
X141480204Y-79275106D01*
X141480204Y-79275106D02*
X141419728Y-79396059D01*
X141419728Y-79396059D02*
X141419728Y-80061297D01*
X141419728Y-79396059D02*
X141359252Y-79275106D01*
X141359252Y-79275106D02*
X141238299Y-79214630D01*
X141238299Y-79214630D02*
X141056871Y-79214630D01*
X141056871Y-79214630D02*
X140935918Y-79275106D01*
X140935918Y-79275106D02*
X140875442Y-79396059D01*
X140875442Y-79396059D02*
X140875442Y-80061297D01*
X139726395Y-80061297D02*
X139726395Y-79396059D01*
X139726395Y-79396059D02*
X139786871Y-79275106D01*
X139786871Y-79275106D02*
X139907823Y-79214630D01*
X139907823Y-79214630D02*
X140149728Y-79214630D01*
X140149728Y-79214630D02*
X140270681Y-79275106D01*
X139726395Y-80000821D02*
X139847347Y-80061297D01*
X139847347Y-80061297D02*
X140149728Y-80061297D01*
X140149728Y-80061297D02*
X140270681Y-80000821D01*
X140270681Y-80000821D02*
X140331157Y-79879868D01*
X140331157Y-79879868D02*
X140331157Y-79758916D01*
X140331157Y-79758916D02*
X140270681Y-79637963D01*
X140270681Y-79637963D02*
X140149728Y-79577487D01*
X140149728Y-79577487D02*
X139847347Y-79577487D01*
X139847347Y-79577487D02*
X139726395Y-79517011D01*
X139121633Y-79214630D02*
X139121633Y-80061297D01*
X139121633Y-79335582D02*
X139061156Y-79275106D01*
X139061156Y-79275106D02*
X138940204Y-79214630D01*
X138940204Y-79214630D02*
X138758775Y-79214630D01*
X138758775Y-79214630D02*
X138637823Y-79275106D01*
X138637823Y-79275106D02*
X138577347Y-79396059D01*
X138577347Y-79396059D02*
X138577347Y-80061297D01*
X136339727Y-78851773D02*
X136460680Y-78791297D01*
X136460680Y-78791297D02*
X136642108Y-78791297D01*
X136642108Y-78791297D02*
X136823537Y-78851773D01*
X136823537Y-78851773D02*
X136944489Y-78972725D01*
X136944489Y-78972725D02*
X137004966Y-79093678D01*
X137004966Y-79093678D02*
X137065442Y-79335582D01*
X137065442Y-79335582D02*
X137065442Y-79517011D01*
X137065442Y-79517011D02*
X137004966Y-79758916D01*
X137004966Y-79758916D02*
X136944489Y-79879868D01*
X136944489Y-79879868D02*
X136823537Y-80000821D01*
X136823537Y-80000821D02*
X136642108Y-80061297D01*
X136642108Y-80061297D02*
X136521156Y-80061297D01*
X136521156Y-80061297D02*
X136339727Y-80000821D01*
X136339727Y-80000821D02*
X136279251Y-79940344D01*
X136279251Y-79940344D02*
X136279251Y-79517011D01*
X136279251Y-79517011D02*
X136521156Y-79517011D01*
X135251156Y-80000821D02*
X135372108Y-80061297D01*
X135372108Y-80061297D02*
X135614013Y-80061297D01*
X135614013Y-80061297D02*
X135734966Y-80000821D01*
X135734966Y-80000821D02*
X135795442Y-79879868D01*
X135795442Y-79879868D02*
X135795442Y-79396059D01*
X135795442Y-79396059D02*
X135734966Y-79275106D01*
X135734966Y-79275106D02*
X135614013Y-79214630D01*
X135614013Y-79214630D02*
X135372108Y-79214630D01*
X135372108Y-79214630D02*
X135251156Y-79275106D01*
X135251156Y-79275106D02*
X135190680Y-79396059D01*
X135190680Y-79396059D02*
X135190680Y-79517011D01*
X135190680Y-79517011D02*
X135795442Y-79637963D01*
X134464966Y-80061297D02*
X134585918Y-80000821D01*
X134585918Y-80000821D02*
X134646395Y-79940344D01*
X134646395Y-79940344D02*
X134706871Y-79819392D01*
X134706871Y-79819392D02*
X134706871Y-79456535D01*
X134706871Y-79456535D02*
X134646395Y-79335582D01*
X134646395Y-79335582D02*
X134585918Y-79275106D01*
X134585918Y-79275106D02*
X134464966Y-79214630D01*
X134464966Y-79214630D02*
X134283537Y-79214630D01*
X134283537Y-79214630D02*
X134162585Y-79275106D01*
X134162585Y-79275106D02*
X134102109Y-79335582D01*
X134102109Y-79335582D02*
X134041633Y-79456535D01*
X134041633Y-79456535D02*
X134041633Y-79819392D01*
X134041633Y-79819392D02*
X134102109Y-79940344D01*
X134102109Y-79940344D02*
X134162585Y-80000821D01*
X134162585Y-80000821D02*
X134283537Y-80061297D01*
X134283537Y-80061297D02*
X134464966Y-80061297D01*
X133497347Y-79214630D02*
X133497347Y-80484630D01*
X133497347Y-79275106D02*
X133376394Y-79214630D01*
X133376394Y-79214630D02*
X133134489Y-79214630D01*
X133134489Y-79214630D02*
X133013537Y-79275106D01*
X133013537Y-79275106D02*
X132953061Y-79335582D01*
X132953061Y-79335582D02*
X132892585Y-79456535D01*
X132892585Y-79456535D02*
X132892585Y-79819392D01*
X132892585Y-79819392D02*
X132953061Y-79940344D01*
X132953061Y-79940344D02*
X133013537Y-80000821D01*
X133013537Y-80000821D02*
X133134489Y-80061297D01*
X133134489Y-80061297D02*
X133376394Y-80061297D01*
X133376394Y-80061297D02*
X133497347Y-80000821D01*
X132348299Y-80061297D02*
X132348299Y-78791297D01*
X131804013Y-80061297D02*
X131804013Y-79396059D01*
X131804013Y-79396059D02*
X131864489Y-79275106D01*
X131864489Y-79275106D02*
X131985441Y-79214630D01*
X131985441Y-79214630D02*
X132166870Y-79214630D01*
X132166870Y-79214630D02*
X132287822Y-79275106D01*
X132287822Y-79275106D02*
X132348299Y-79335582D01*
X131320203Y-79214630D02*
X131017822Y-80061297D01*
X130715441Y-79214630D02*
X131017822Y-80061297D01*
X131017822Y-80061297D02*
X131138774Y-80363678D01*
X131138774Y-80363678D02*
X131199251Y-80424154D01*
X131199251Y-80424154D02*
X131320203Y-80484630D01*
X130292108Y-80000821D02*
X130171155Y-80061297D01*
X130171155Y-80061297D02*
X129929251Y-80061297D01*
X129929251Y-80061297D02*
X129808298Y-80000821D01*
X129808298Y-80000821D02*
X129747822Y-79879868D01*
X129747822Y-79879868D02*
X129747822Y-79819392D01*
X129747822Y-79819392D02*
X129808298Y-79698440D01*
X129808298Y-79698440D02*
X129929251Y-79637963D01*
X129929251Y-79637963D02*
X130110679Y-79637963D01*
X130110679Y-79637963D02*
X130231632Y-79577487D01*
X130231632Y-79577487D02*
X130292108Y-79456535D01*
X130292108Y-79456535D02*
X130292108Y-79396059D01*
X130292108Y-79396059D02*
X130231632Y-79275106D01*
X130231632Y-79275106D02*
X130110679Y-79214630D01*
X130110679Y-79214630D02*
X129929251Y-79214630D01*
X129929251Y-79214630D02*
X129808298Y-79275106D01*
X129203537Y-80061297D02*
X129203537Y-79214630D01*
X129203537Y-78791297D02*
X129264013Y-78851773D01*
X129264013Y-78851773D02*
X129203537Y-78912249D01*
X129203537Y-78912249D02*
X129143060Y-78851773D01*
X129143060Y-78851773D02*
X129203537Y-78791297D01*
X129203537Y-78791297D02*
X129203537Y-78912249D01*
X128054489Y-80000821D02*
X128175441Y-80061297D01*
X128175441Y-80061297D02*
X128417346Y-80061297D01*
X128417346Y-80061297D02*
X128538298Y-80000821D01*
X128538298Y-80000821D02*
X128598775Y-79940344D01*
X128598775Y-79940344D02*
X128659251Y-79819392D01*
X128659251Y-79819392D02*
X128659251Y-79456535D01*
X128659251Y-79456535D02*
X128598775Y-79335582D01*
X128598775Y-79335582D02*
X128538298Y-79275106D01*
X128538298Y-79275106D02*
X128417346Y-79214630D01*
X128417346Y-79214630D02*
X128175441Y-79214630D01*
X128175441Y-79214630D02*
X128054489Y-79275106D01*
X126965918Y-80061297D02*
X126965918Y-79396059D01*
X126965918Y-79396059D02*
X127026394Y-79275106D01*
X127026394Y-79275106D02*
X127147346Y-79214630D01*
X127147346Y-79214630D02*
X127389251Y-79214630D01*
X127389251Y-79214630D02*
X127510204Y-79275106D01*
X126965918Y-80000821D02*
X127086870Y-80061297D01*
X127086870Y-80061297D02*
X127389251Y-80061297D01*
X127389251Y-80061297D02*
X127510204Y-80000821D01*
X127510204Y-80000821D02*
X127570680Y-79879868D01*
X127570680Y-79879868D02*
X127570680Y-79758916D01*
X127570680Y-79758916D02*
X127510204Y-79637963D01*
X127510204Y-79637963D02*
X127389251Y-79577487D01*
X127389251Y-79577487D02*
X127086870Y-79577487D01*
X127086870Y-79577487D02*
X126965918Y-79517011D01*
X126179727Y-80061297D02*
X126300679Y-80000821D01*
X126300679Y-80000821D02*
X126361156Y-79879868D01*
X126361156Y-79879868D02*
X126361156Y-78791297D01*
X124123537Y-80061297D02*
X124728299Y-80061297D01*
X124728299Y-80061297D02*
X124728299Y-78791297D01*
X123095442Y-80061297D02*
X123700204Y-80061297D01*
X123700204Y-80061297D02*
X123700204Y-78791297D01*
X121946394Y-79940344D02*
X122006870Y-80000821D01*
X122006870Y-80000821D02*
X122188299Y-80061297D01*
X122188299Y-80061297D02*
X122309251Y-80061297D01*
X122309251Y-80061297D02*
X122490680Y-80000821D01*
X122490680Y-80000821D02*
X122611632Y-79879868D01*
X122611632Y-79879868D02*
X122672109Y-79758916D01*
X122672109Y-79758916D02*
X122732585Y-79517011D01*
X122732585Y-79517011D02*
X122732585Y-79335582D01*
X122732585Y-79335582D02*
X122672109Y-79093678D01*
X122672109Y-79093678D02*
X122611632Y-78972725D01*
X122611632Y-78972725D02*
X122490680Y-78851773D01*
X122490680Y-78851773D02*
X122309251Y-78791297D01*
X122309251Y-78791297D02*
X122188299Y-78791297D01*
X122188299Y-78791297D02*
X122006870Y-78851773D01*
X122006870Y-78851773D02*
X121946394Y-78912249D01*
X145169251Y-82105926D02*
X145169251Y-80835926D01*
X145169251Y-80835926D02*
X144745917Y-81743069D01*
X144745917Y-81743069D02*
X144322584Y-80835926D01*
X144322584Y-80835926D02*
X144322584Y-82105926D01*
X143536393Y-82105926D02*
X143657345Y-82045450D01*
X143657345Y-82045450D02*
X143717822Y-81984973D01*
X143717822Y-81984973D02*
X143778298Y-81864021D01*
X143778298Y-81864021D02*
X143778298Y-81501164D01*
X143778298Y-81501164D02*
X143717822Y-81380211D01*
X143717822Y-81380211D02*
X143657345Y-81319735D01*
X143657345Y-81319735D02*
X143536393Y-81259259D01*
X143536393Y-81259259D02*
X143354964Y-81259259D01*
X143354964Y-81259259D02*
X143234012Y-81319735D01*
X143234012Y-81319735D02*
X143173536Y-81380211D01*
X143173536Y-81380211D02*
X143113060Y-81501164D01*
X143113060Y-81501164D02*
X143113060Y-81864021D01*
X143113060Y-81864021D02*
X143173536Y-81984973D01*
X143173536Y-81984973D02*
X143234012Y-82045450D01*
X143234012Y-82045450D02*
X143354964Y-82105926D01*
X143354964Y-82105926D02*
X143536393Y-82105926D01*
X142750202Y-81259259D02*
X142266393Y-81259259D01*
X142568774Y-80835926D02*
X142568774Y-81924497D01*
X142568774Y-81924497D02*
X142508297Y-82045450D01*
X142508297Y-82045450D02*
X142387345Y-82105926D01*
X142387345Y-82105926D02*
X142266393Y-82105926D01*
X141661631Y-82105926D02*
X141782583Y-82045450D01*
X141782583Y-82045450D02*
X141843060Y-81984973D01*
X141843060Y-81984973D02*
X141903536Y-81864021D01*
X141903536Y-81864021D02*
X141903536Y-81501164D01*
X141903536Y-81501164D02*
X141843060Y-81380211D01*
X141843060Y-81380211D02*
X141782583Y-81319735D01*
X141782583Y-81319735D02*
X141661631Y-81259259D01*
X141661631Y-81259259D02*
X141480202Y-81259259D01*
X141480202Y-81259259D02*
X141359250Y-81319735D01*
X141359250Y-81319735D02*
X141298774Y-81380211D01*
X141298774Y-81380211D02*
X141238298Y-81501164D01*
X141238298Y-81501164D02*
X141238298Y-81864021D01*
X141238298Y-81864021D02*
X141298774Y-81984973D01*
X141298774Y-81984973D02*
X141359250Y-82045450D01*
X141359250Y-82045450D02*
X141480202Y-82105926D01*
X141480202Y-82105926D02*
X141661631Y-82105926D01*
X140694012Y-82105926D02*
X140694012Y-81259259D01*
X140694012Y-81501164D02*
X140633535Y-81380211D01*
X140633535Y-81380211D02*
X140573059Y-81319735D01*
X140573059Y-81319735D02*
X140452107Y-81259259D01*
X140452107Y-81259259D02*
X140331154Y-81259259D01*
X138214488Y-81984973D02*
X138274964Y-82045450D01*
X138274964Y-82045450D02*
X138456393Y-82105926D01*
X138456393Y-82105926D02*
X138577345Y-82105926D01*
X138577345Y-82105926D02*
X138758774Y-82045450D01*
X138758774Y-82045450D02*
X138879726Y-81924497D01*
X138879726Y-81924497D02*
X138940203Y-81803545D01*
X138940203Y-81803545D02*
X139000679Y-81561640D01*
X139000679Y-81561640D02*
X139000679Y-81380211D01*
X139000679Y-81380211D02*
X138940203Y-81138307D01*
X138940203Y-81138307D02*
X138879726Y-81017354D01*
X138879726Y-81017354D02*
X138758774Y-80896402D01*
X138758774Y-80896402D02*
X138577345Y-80835926D01*
X138577345Y-80835926D02*
X138456393Y-80835926D01*
X138456393Y-80835926D02*
X138274964Y-80896402D01*
X138274964Y-80896402D02*
X138214488Y-80956878D01*
X137488774Y-82105926D02*
X137609726Y-82045450D01*
X137609726Y-82045450D02*
X137670203Y-81984973D01*
X137670203Y-81984973D02*
X137730679Y-81864021D01*
X137730679Y-81864021D02*
X137730679Y-81501164D01*
X137730679Y-81501164D02*
X137670203Y-81380211D01*
X137670203Y-81380211D02*
X137609726Y-81319735D01*
X137609726Y-81319735D02*
X137488774Y-81259259D01*
X137488774Y-81259259D02*
X137307345Y-81259259D01*
X137307345Y-81259259D02*
X137186393Y-81319735D01*
X137186393Y-81319735D02*
X137125917Y-81380211D01*
X137125917Y-81380211D02*
X137065441Y-81501164D01*
X137065441Y-81501164D02*
X137065441Y-81864021D01*
X137065441Y-81864021D02*
X137125917Y-81984973D01*
X137125917Y-81984973D02*
X137186393Y-82045450D01*
X137186393Y-82045450D02*
X137307345Y-82105926D01*
X137307345Y-82105926D02*
X137488774Y-82105926D01*
X136521155Y-81259259D02*
X136521155Y-82105926D01*
X136521155Y-81380211D02*
X136460678Y-81319735D01*
X136460678Y-81319735D02*
X136339726Y-81259259D01*
X136339726Y-81259259D02*
X136158297Y-81259259D01*
X136158297Y-81259259D02*
X136037345Y-81319735D01*
X136037345Y-81319735D02*
X135976869Y-81440688D01*
X135976869Y-81440688D02*
X135976869Y-82105926D01*
X135553535Y-81259259D02*
X135069726Y-81259259D01*
X135372107Y-80835926D02*
X135372107Y-81924497D01*
X135372107Y-81924497D02*
X135311630Y-82045450D01*
X135311630Y-82045450D02*
X135190678Y-82105926D01*
X135190678Y-82105926D02*
X135069726Y-82105926D01*
X134646393Y-82105926D02*
X134646393Y-81259259D01*
X134646393Y-81501164D02*
X134585916Y-81380211D01*
X134585916Y-81380211D02*
X134525440Y-81319735D01*
X134525440Y-81319735D02*
X134404488Y-81259259D01*
X134404488Y-81259259D02*
X134283535Y-81259259D01*
X133678774Y-82105926D02*
X133799726Y-82045450D01*
X133799726Y-82045450D02*
X133860203Y-81984973D01*
X133860203Y-81984973D02*
X133920679Y-81864021D01*
X133920679Y-81864021D02*
X133920679Y-81501164D01*
X133920679Y-81501164D02*
X133860203Y-81380211D01*
X133860203Y-81380211D02*
X133799726Y-81319735D01*
X133799726Y-81319735D02*
X133678774Y-81259259D01*
X133678774Y-81259259D02*
X133497345Y-81259259D01*
X133497345Y-81259259D02*
X133376393Y-81319735D01*
X133376393Y-81319735D02*
X133315917Y-81380211D01*
X133315917Y-81380211D02*
X133255441Y-81501164D01*
X133255441Y-81501164D02*
X133255441Y-81864021D01*
X133255441Y-81864021D02*
X133315917Y-81984973D01*
X133315917Y-81984973D02*
X133376393Y-82045450D01*
X133376393Y-82045450D02*
X133497345Y-82105926D01*
X133497345Y-82105926D02*
X133678774Y-82105926D01*
X132529726Y-82105926D02*
X132650678Y-82045450D01*
X132650678Y-82045450D02*
X132711155Y-81924497D01*
X132711155Y-81924497D02*
X132711155Y-80835926D01*
X131078298Y-82105926D02*
X131078298Y-80835926D01*
X131078298Y-80835926D02*
X130594488Y-80835926D01*
X130594488Y-80835926D02*
X130473536Y-80896402D01*
X130473536Y-80896402D02*
X130413059Y-80956878D01*
X130413059Y-80956878D02*
X130352583Y-81077830D01*
X130352583Y-81077830D02*
X130352583Y-81259259D01*
X130352583Y-81259259D02*
X130413059Y-81380211D01*
X130413059Y-81380211D02*
X130473536Y-81440688D01*
X130473536Y-81440688D02*
X130594488Y-81501164D01*
X130594488Y-81501164D02*
X131078298Y-81501164D01*
X129082583Y-81984973D02*
X129143059Y-82045450D01*
X129143059Y-82045450D02*
X129324488Y-82105926D01*
X129324488Y-82105926D02*
X129445440Y-82105926D01*
X129445440Y-82105926D02*
X129626869Y-82045450D01*
X129626869Y-82045450D02*
X129747821Y-81924497D01*
X129747821Y-81924497D02*
X129808298Y-81803545D01*
X129808298Y-81803545D02*
X129868774Y-81561640D01*
X129868774Y-81561640D02*
X129868774Y-81380211D01*
X129868774Y-81380211D02*
X129808298Y-81138307D01*
X129808298Y-81138307D02*
X129747821Y-81017354D01*
X129747821Y-81017354D02*
X129626869Y-80896402D01*
X129626869Y-80896402D02*
X129445440Y-80835926D01*
X129445440Y-80835926D02*
X129324488Y-80835926D01*
X129324488Y-80835926D02*
X129143059Y-80896402D01*
X129143059Y-80896402D02*
X129082583Y-80956878D01*
X128114964Y-81440688D02*
X127933536Y-81501164D01*
X127933536Y-81501164D02*
X127873059Y-81561640D01*
X127873059Y-81561640D02*
X127812583Y-81682592D01*
X127812583Y-81682592D02*
X127812583Y-81864021D01*
X127812583Y-81864021D02*
X127873059Y-81984973D01*
X127873059Y-81984973D02*
X127933536Y-82045450D01*
X127933536Y-82045450D02*
X128054488Y-82105926D01*
X128054488Y-82105926D02*
X128538298Y-82105926D01*
X128538298Y-82105926D02*
X128538298Y-80835926D01*
X128538298Y-80835926D02*
X128114964Y-80835926D01*
X128114964Y-80835926D02*
X127994012Y-80896402D01*
X127994012Y-80896402D02*
X127933536Y-80956878D01*
X127933536Y-80956878D02*
X127873059Y-81077830D01*
X127873059Y-81077830D02*
X127873059Y-81198783D01*
X127873059Y-81198783D02*
X127933536Y-81319735D01*
X127933536Y-81319735D02*
X127994012Y-81380211D01*
X127994012Y-81380211D02*
X128114964Y-81440688D01*
X128114964Y-81440688D02*
X128538298Y-81440688D01*
X144443536Y-84150555D02*
X144866870Y-83545793D01*
X145169251Y-84150555D02*
X145169251Y-82880555D01*
X145169251Y-82880555D02*
X144685441Y-82880555D01*
X144685441Y-82880555D02*
X144564489Y-82941031D01*
X144564489Y-82941031D02*
X144504012Y-83001507D01*
X144504012Y-83001507D02*
X144443536Y-83122459D01*
X144443536Y-83122459D02*
X144443536Y-83303888D01*
X144443536Y-83303888D02*
X144504012Y-83424840D01*
X144504012Y-83424840D02*
X144564489Y-83485317D01*
X144564489Y-83485317D02*
X144685441Y-83545793D01*
X144685441Y-83545793D02*
X145169251Y-83545793D01*
X143415441Y-84090079D02*
X143536393Y-84150555D01*
X143536393Y-84150555D02*
X143778298Y-84150555D01*
X143778298Y-84150555D02*
X143899251Y-84090079D01*
X143899251Y-84090079D02*
X143959727Y-83969126D01*
X143959727Y-83969126D02*
X143959727Y-83485317D01*
X143959727Y-83485317D02*
X143899251Y-83364364D01*
X143899251Y-83364364D02*
X143778298Y-83303888D01*
X143778298Y-83303888D02*
X143536393Y-83303888D01*
X143536393Y-83303888D02*
X143415441Y-83364364D01*
X143415441Y-83364364D02*
X143354965Y-83485317D01*
X143354965Y-83485317D02*
X143354965Y-83606269D01*
X143354965Y-83606269D02*
X143959727Y-83727221D01*
X142931632Y-83303888D02*
X142629251Y-84150555D01*
X142629251Y-84150555D02*
X142326870Y-83303888D01*
X140210203Y-84150555D02*
X140935918Y-84150555D01*
X140573061Y-84150555D02*
X140573061Y-82880555D01*
X140573061Y-82880555D02*
X140694013Y-83061983D01*
X140694013Y-83061983D02*
X140814965Y-83182936D01*
X140814965Y-83182936D02*
X140935918Y-83243412D01*
X139665918Y-84029602D02*
X139605441Y-84090079D01*
X139605441Y-84090079D02*
X139665918Y-84150555D01*
X139665918Y-84150555D02*
X139726394Y-84090079D01*
X139726394Y-84090079D02*
X139665918Y-84029602D01*
X139665918Y-84029602D02*
X139665918Y-84150555D01*
X138819251Y-82880555D02*
X138698298Y-82880555D01*
X138698298Y-82880555D02*
X138577346Y-82941031D01*
X138577346Y-82941031D02*
X138516870Y-83001507D01*
X138516870Y-83001507D02*
X138456394Y-83122459D01*
X138456394Y-83122459D02*
X138395917Y-83364364D01*
X138395917Y-83364364D02*
X138395917Y-83666745D01*
X138395917Y-83666745D02*
X138456394Y-83908650D01*
X138456394Y-83908650D02*
X138516870Y-84029602D01*
X138516870Y-84029602D02*
X138577346Y-84090079D01*
X138577346Y-84090079D02*
X138698298Y-84150555D01*
X138698298Y-84150555D02*
X138819251Y-84150555D01*
X138819251Y-84150555D02*
X138940203Y-84090079D01*
X138940203Y-84090079D02*
X139000679Y-84029602D01*
X139000679Y-84029602D02*
X139061156Y-83908650D01*
X139061156Y-83908650D02*
X139121632Y-83666745D01*
X139121632Y-83666745D02*
X139121632Y-83364364D01*
X139121632Y-83364364D02*
X139061156Y-83122459D01*
X139061156Y-83122459D02*
X139000679Y-83001507D01*
X139000679Y-83001507D02*
X138940203Y-82941031D01*
X138940203Y-82941031D02*
X138819251Y-82880555D01*
D11*
X121253046Y-104986619D02*
X120633999Y-104986619D01*
X120633999Y-104986619D02*
X120967332Y-105367571D01*
X120967332Y-105367571D02*
X120824475Y-105367571D01*
X120824475Y-105367571D02*
X120729237Y-105415190D01*
X120729237Y-105415190D02*
X120681618Y-105462809D01*
X120681618Y-105462809D02*
X120633999Y-105558047D01*
X120633999Y-105558047D02*
X120633999Y-105796142D01*
X120633999Y-105796142D02*
X120681618Y-105891380D01*
X120681618Y-105891380D02*
X120729237Y-105939000D01*
X120729237Y-105939000D02*
X120824475Y-105986619D01*
X120824475Y-105986619D02*
X121110189Y-105986619D01*
X121110189Y-105986619D02*
X121205427Y-105939000D01*
X121205427Y-105939000D02*
X121253046Y-105891380D01*
X120348284Y-104986619D02*
X120014951Y-105986619D01*
X120014951Y-105986619D02*
X119681618Y-104986619D01*
X119443522Y-104986619D02*
X118824475Y-104986619D01*
X118824475Y-104986619D02*
X119157808Y-105367571D01*
X119157808Y-105367571D02*
X119014951Y-105367571D01*
X119014951Y-105367571D02*
X118919713Y-105415190D01*
X118919713Y-105415190D02*
X118872094Y-105462809D01*
X118872094Y-105462809D02*
X118824475Y-105558047D01*
X118824475Y-105558047D02*
X118824475Y-105796142D01*
X118824475Y-105796142D02*
X118872094Y-105891380D01*
X118872094Y-105891380D02*
X118919713Y-105939000D01*
X118919713Y-105939000D02*
X119014951Y-105986619D01*
X119014951Y-105986619D02*
X119300665Y-105986619D01*
X119300665Y-105986619D02*
X119395903Y-105939000D01*
X119395903Y-105939000D02*
X119443522Y-105891380D01*
D15*
X150386359Y-76998631D02*
X150825130Y-77079267D01*
X151247717Y-77205920D01*
X151650993Y-77376553D01*
X152031832Y-77589129D01*
X152387108Y-77841613D01*
X152713695Y-78131968D01*
X153008467Y-78458158D01*
X153268297Y-78818147D01*
X153490059Y-79209900D01*
X153503952Y-79238209D01*
X153589422Y-79424546D01*
X153667449Y-79614593D01*
X153733626Y-79796375D01*
X153783550Y-79957919D01*
X153812815Y-80087250D01*
X153828893Y-80187800D01*
X150063200Y-80187800D01*
X150063200Y-80392953D01*
X150062884Y-80456667D01*
X150059192Y-80538332D01*
X150048206Y-80591845D01*
X150026077Y-80631690D01*
X149988954Y-80672353D01*
X149943838Y-80711776D01*
X149882118Y-80739549D01*
X149796500Y-80746600D01*
X149730159Y-80743024D01*
X149664620Y-80721701D01*
X149604047Y-80672353D01*
X149581103Y-80648535D01*
X149552884Y-80610115D01*
X149537494Y-80564368D01*
X149531082Y-80496810D01*
X149529800Y-80392953D01*
X149529800Y-80187800D01*
X145893564Y-80187800D01*
X145910496Y-80105250D01*
X145919710Y-80065102D01*
X145954080Y-79943289D01*
X146002042Y-79795108D01*
X146058545Y-79634613D01*
X146118539Y-79475854D01*
X146176973Y-79332881D01*
X146228796Y-79219748D01*
X146361060Y-78975863D01*
X146609169Y-78600247D01*
X146892242Y-78258743D01*
X147207237Y-77953143D01*
X147551112Y-77685237D01*
X147920825Y-77456816D01*
X148313335Y-77269671D01*
X148725600Y-77125592D01*
X149154579Y-77026371D01*
X149597229Y-76973798D01*
X150050509Y-76969665D01*
X150386359Y-76998631D01*
G36*
X150386359Y-76998631D02*
G01*
X150825130Y-77079267D01*
X151247717Y-77205920D01*
X151650993Y-77376553D01*
X152031832Y-77589129D01*
X152387108Y-77841613D01*
X152713695Y-78131968D01*
X153008467Y-78458158D01*
X153268297Y-78818147D01*
X153490059Y-79209900D01*
X153503952Y-79238209D01*
X153589422Y-79424546D01*
X153667449Y-79614593D01*
X153733626Y-79796375D01*
X153783550Y-79957919D01*
X153812815Y-80087250D01*
X153828893Y-80187800D01*
X150063200Y-80187800D01*
X150063200Y-80392953D01*
X150062884Y-80456667D01*
X150059192Y-80538332D01*
X150048206Y-80591845D01*
X150026077Y-80631690D01*
X149988954Y-80672353D01*
X149943838Y-80711776D01*
X149882118Y-80739549D01*
X149796500Y-80746600D01*
X149730159Y-80743024D01*
X149664620Y-80721701D01*
X149604047Y-80672353D01*
X149581103Y-80648535D01*
X149552884Y-80610115D01*
X149537494Y-80564368D01*
X149531082Y-80496810D01*
X149529800Y-80392953D01*
X149529800Y-80187800D01*
X145893564Y-80187800D01*
X145910496Y-80105250D01*
X145919710Y-80065102D01*
X145954080Y-79943289D01*
X146002042Y-79795108D01*
X146058545Y-79634613D01*
X146118539Y-79475854D01*
X146176973Y-79332881D01*
X146228796Y-79219748D01*
X146361060Y-78975863D01*
X146609169Y-78600247D01*
X146892242Y-78258743D01*
X147207237Y-77953143D01*
X147551112Y-77685237D01*
X147920825Y-77456816D01*
X148313335Y-77269671D01*
X148725600Y-77125592D01*
X149154579Y-77026371D01*
X149597229Y-76973798D01*
X150050509Y-76969665D01*
X150386359Y-76998631D01*
G37*
X153844281Y-81860800D02*
X153786170Y-82097608D01*
X153707876Y-82343503D01*
X153706281Y-82348513D01*
X153699924Y-82366638D01*
X153526547Y-82782299D01*
X153309834Y-83173922D01*
X153052638Y-83538259D01*
X152757814Y-83872067D01*
X152428214Y-84172098D01*
X152066692Y-84435108D01*
X151676100Y-84657851D01*
X151490913Y-84745235D01*
X151112569Y-84891315D01*
X150726320Y-84995261D01*
X150317200Y-85061520D01*
X150291192Y-85064410D01*
X149881231Y-85085435D01*
X149463373Y-85063202D01*
X149046713Y-84999528D01*
X148640349Y-84896227D01*
X148253374Y-84755115D01*
X147894886Y-84578008D01*
X147611322Y-84401731D01*
X147248023Y-84126772D01*
X146921253Y-83819073D01*
X146632670Y-83481473D01*
X146383933Y-83116811D01*
X146176701Y-82727925D01*
X146014345Y-82321935D01*
X146850484Y-82321935D01*
X146851290Y-82369618D01*
X146867795Y-82431916D01*
X146903210Y-82518632D01*
X146960750Y-82639574D01*
X147001329Y-82719607D01*
X147165208Y-82999261D01*
X147353103Y-83251464D01*
X147578038Y-83494249D01*
X147835907Y-83722629D01*
X148162218Y-83949715D01*
X148513814Y-84133145D01*
X148888849Y-84271976D01*
X149285478Y-84365269D01*
X149351853Y-84375244D01*
X149542602Y-84392845D01*
X149756587Y-84400405D01*
X149975542Y-84397959D01*
X150181202Y-84385542D01*
X150355300Y-84363191D01*
X150726005Y-84273849D01*
X151094499Y-84137176D01*
X151441998Y-83958587D01*
X151763508Y-83741053D01*
X152054033Y-83487546D01*
X152308580Y-83201038D01*
X152386205Y-83096846D01*
X152501250Y-82926484D01*
X152604399Y-82755124D01*
X152688127Y-82595539D01*
X152744909Y-82460499D01*
X152764883Y-82399677D01*
X152775976Y-82343503D01*
X152768863Y-82296627D01*
X152743395Y-82237130D01*
X152738910Y-82228010D01*
X152665502Y-82133695D01*
X152565780Y-82081625D01*
X152445671Y-82075026D01*
X152404785Y-82081551D01*
X152352066Y-82097662D01*
X152308093Y-82127764D01*
X152265239Y-82179833D01*
X152215875Y-82261847D01*
X152152374Y-82381785D01*
X151969956Y-82690967D01*
X151759872Y-82961852D01*
X151517925Y-83198334D01*
X151238918Y-83406239D01*
X151041611Y-83524272D01*
X150734941Y-83665089D01*
X150412053Y-83762170D01*
X150063831Y-83818717D01*
X149987699Y-83825361D01*
X149636025Y-83826109D01*
X149290986Y-83779194D01*
X148957118Y-83687187D01*
X148638953Y-83552659D01*
X148341026Y-83378182D01*
X148067872Y-83166326D01*
X147824024Y-82919663D01*
X147614016Y-82640764D01*
X147442382Y-82332199D01*
X147394445Y-82240080D01*
X147321378Y-82141056D01*
X147242477Y-82085041D01*
X147152670Y-82067400D01*
X147088220Y-82072122D01*
X146977969Y-82111688D01*
X146899260Y-82191049D01*
X146852660Y-82309746D01*
X146850484Y-82321935D01*
X146014345Y-82321935D01*
X146012633Y-82317653D01*
X145893388Y-81888833D01*
X145886603Y-81847382D01*
X148240124Y-81847382D01*
X148254168Y-81973556D01*
X148310906Y-82114644D01*
X148454295Y-82339167D01*
X148645908Y-82553781D01*
X148869138Y-82733039D01*
X149118434Y-82872545D01*
X149388244Y-82967901D01*
X149564828Y-83003810D01*
X149851048Y-83021598D01*
X150133613Y-82990016D01*
X150408879Y-82909922D01*
X150673203Y-82782169D01*
X150922942Y-82607614D01*
X150936566Y-82596124D01*
X151037748Y-82494880D01*
X151144265Y-82365474D01*
X151243595Y-82224185D01*
X151323213Y-82087294D01*
X151366814Y-81976725D01*
X151382100Y-81851155D01*
X151355355Y-81744288D01*
X151288116Y-81661342D01*
X151181919Y-81607534D01*
X151086197Y-81594174D01*
X150983977Y-81622293D01*
X150893169Y-81698932D01*
X150812500Y-81824842D01*
X150811717Y-81826392D01*
X150718149Y-81973611D01*
X150593998Y-82116015D01*
X150453916Y-82238872D01*
X150312555Y-82327452D01*
X150184778Y-82380593D01*
X149959359Y-82434480D01*
X149734327Y-82441333D01*
X149515486Y-82403057D01*
X149308640Y-82321557D01*
X149119595Y-82198741D01*
X148954156Y-82036513D01*
X148818126Y-81836781D01*
X148802386Y-81808856D01*
X148720063Y-81690712D01*
X148635442Y-81619646D01*
X148543550Y-81592634D01*
X148439415Y-81606655D01*
X148335307Y-81658780D01*
X148267571Y-81740874D01*
X148240124Y-81847382D01*
X145886603Y-81847382D01*
X145820624Y-81444304D01*
X145796000Y-80986903D01*
X145796000Y-80772000D01*
X148983788Y-80772000D01*
X149045255Y-80887867D01*
X149114561Y-80995205D01*
X149250337Y-81133718D01*
X149415516Y-81239514D01*
X149600702Y-81307055D01*
X149796500Y-81330799D01*
X149927238Y-81320192D01*
X150117037Y-81266747D01*
X150289986Y-81173184D01*
X150436687Y-81045044D01*
X150547746Y-80887867D01*
X150609213Y-80772000D01*
X153931115Y-80772000D01*
X153916407Y-81184750D01*
X153907987Y-81358454D01*
X153883818Y-81620333D01*
X153845866Y-81851155D01*
X153844281Y-81860800D01*
G36*
X153844281Y-81860800D02*
G01*
X153786170Y-82097608D01*
X153707876Y-82343503D01*
X153706281Y-82348513D01*
X153699924Y-82366638D01*
X153526547Y-82782299D01*
X153309834Y-83173922D01*
X153052638Y-83538259D01*
X152757814Y-83872067D01*
X152428214Y-84172098D01*
X152066692Y-84435108D01*
X151676100Y-84657851D01*
X151490913Y-84745235D01*
X151112569Y-84891315D01*
X150726320Y-84995261D01*
X150317200Y-85061520D01*
X150291192Y-85064410D01*
X149881231Y-85085435D01*
X149463373Y-85063202D01*
X149046713Y-84999528D01*
X148640349Y-84896227D01*
X148253374Y-84755115D01*
X147894886Y-84578008D01*
X147611322Y-84401731D01*
X147248023Y-84126772D01*
X146921253Y-83819073D01*
X146632670Y-83481473D01*
X146383933Y-83116811D01*
X146176701Y-82727925D01*
X146014345Y-82321935D01*
X146850484Y-82321935D01*
X146851290Y-82369618D01*
X146867795Y-82431916D01*
X146903210Y-82518632D01*
X146960750Y-82639574D01*
X147001329Y-82719607D01*
X147165208Y-82999261D01*
X147353103Y-83251464D01*
X147578038Y-83494249D01*
X147835907Y-83722629D01*
X148162218Y-83949715D01*
X148513814Y-84133145D01*
X148888849Y-84271976D01*
X149285478Y-84365269D01*
X149351853Y-84375244D01*
X149542602Y-84392845D01*
X149756587Y-84400405D01*
X149975542Y-84397959D01*
X150181202Y-84385542D01*
X150355300Y-84363191D01*
X150726005Y-84273849D01*
X151094499Y-84137176D01*
X151441998Y-83958587D01*
X151763508Y-83741053D01*
X152054033Y-83487546D01*
X152308580Y-83201038D01*
X152386205Y-83096846D01*
X152501250Y-82926484D01*
X152604399Y-82755124D01*
X152688127Y-82595539D01*
X152744909Y-82460499D01*
X152764883Y-82399677D01*
X152775976Y-82343503D01*
X152768863Y-82296627D01*
X152743395Y-82237130D01*
X152738910Y-82228010D01*
X152665502Y-82133695D01*
X152565780Y-82081625D01*
X152445671Y-82075026D01*
X152404785Y-82081551D01*
X152352066Y-82097662D01*
X152308093Y-82127764D01*
X152265239Y-82179833D01*
X152215875Y-82261847D01*
X152152374Y-82381785D01*
X151969956Y-82690967D01*
X151759872Y-82961852D01*
X151517925Y-83198334D01*
X151238918Y-83406239D01*
X151041611Y-83524272D01*
X150734941Y-83665089D01*
X150412053Y-83762170D01*
X150063831Y-83818717D01*
X149987699Y-83825361D01*
X149636025Y-83826109D01*
X149290986Y-83779194D01*
X148957118Y-83687187D01*
X148638953Y-83552659D01*
X148341026Y-83378182D01*
X148067872Y-83166326D01*
X147824024Y-82919663D01*
X147614016Y-82640764D01*
X147442382Y-82332199D01*
X147394445Y-82240080D01*
X147321378Y-82141056D01*
X147242477Y-82085041D01*
X147152670Y-82067400D01*
X147088220Y-82072122D01*
X146977969Y-82111688D01*
X146899260Y-82191049D01*
X146852660Y-82309746D01*
X146850484Y-82321935D01*
X146014345Y-82321935D01*
X146012633Y-82317653D01*
X145893388Y-81888833D01*
X145886603Y-81847382D01*
X148240124Y-81847382D01*
X148254168Y-81973556D01*
X148310906Y-82114644D01*
X148454295Y-82339167D01*
X148645908Y-82553781D01*
X148869138Y-82733039D01*
X149118434Y-82872545D01*
X149388244Y-82967901D01*
X149564828Y-83003810D01*
X149851048Y-83021598D01*
X150133613Y-82990016D01*
X150408879Y-82909922D01*
X150673203Y-82782169D01*
X150922942Y-82607614D01*
X150936566Y-82596124D01*
X151037748Y-82494880D01*
X151144265Y-82365474D01*
X151243595Y-82224185D01*
X151323213Y-82087294D01*
X151366814Y-81976725D01*
X151382100Y-81851155D01*
X151355355Y-81744288D01*
X151288116Y-81661342D01*
X151181919Y-81607534D01*
X151086197Y-81594174D01*
X150983977Y-81622293D01*
X150893169Y-81698932D01*
X150812500Y-81824842D01*
X150811717Y-81826392D01*
X150718149Y-81973611D01*
X150593998Y-82116015D01*
X150453916Y-82238872D01*
X150312555Y-82327452D01*
X150184778Y-82380593D01*
X149959359Y-82434480D01*
X149734327Y-82441333D01*
X149515486Y-82403057D01*
X149308640Y-82321557D01*
X149119595Y-82198741D01*
X148954156Y-82036513D01*
X148818126Y-81836781D01*
X148802386Y-81808856D01*
X148720063Y-81690712D01*
X148635442Y-81619646D01*
X148543550Y-81592634D01*
X148439415Y-81606655D01*
X148335307Y-81658780D01*
X148267571Y-81740874D01*
X148240124Y-81847382D01*
X145886603Y-81847382D01*
X145820624Y-81444304D01*
X145796000Y-80986903D01*
X145796000Y-80772000D01*
X148983788Y-80772000D01*
X149045255Y-80887867D01*
X149114561Y-80995205D01*
X149250337Y-81133718D01*
X149415516Y-81239514D01*
X149600702Y-81307055D01*
X149796500Y-81330799D01*
X149927238Y-81320192D01*
X150117037Y-81266747D01*
X150289986Y-81173184D01*
X150436687Y-81045044D01*
X150547746Y-80887867D01*
X150609213Y-80772000D01*
X153931115Y-80772000D01*
X153916407Y-81184750D01*
X153907987Y-81358454D01*
X153883818Y-81620333D01*
X153845866Y-81851155D01*
X153844281Y-81860800D01*
G37*
M02*
