G04 #@! TF.GenerationSoftware,KiCad,Pcbnew,8.0.1-rc1*
G04 #@! TF.CreationDate,2024-03-28T09:47:17-05:00*
G04 #@! TF.ProjectId,motor_control,6d6f746f-725f-4636-9f6e-74726f6c2e6b,1.0*
G04 #@! TF.SameCoordinates,Original*
G04 #@! TF.FileFunction,Copper,L1,Top*
G04 #@! TF.FilePolarity,Positive*
%FSLAX46Y46*%
G04 Gerber Fmt 4.6, Leading zero omitted, Abs format (unit mm)*
G04 Created by KiCad (PCBNEW 8.0.1-rc1) date 2024-03-28 09:47:17*
%MOMM*%
%LPD*%
G01*
G04 APERTURE LIST*
G04 Aperture macros list*
%AMRoundRect*
0 Rectangle with rounded corners*
0 $1 Rounding radius*
0 $2 $3 $4 $5 $6 $7 $8 $9 X,Y pos of 4 corners*
0 Add a 4 corners polygon primitive as box body*
4,1,4,$2,$3,$4,$5,$6,$7,$8,$9,$2,$3,0*
0 Add four circle primitives for the rounded corners*
1,1,$1+$1,$2,$3*
1,1,$1+$1,$4,$5*
1,1,$1+$1,$6,$7*
1,1,$1+$1,$8,$9*
0 Add four rect primitives between the rounded corners*
20,1,$1+$1,$2,$3,$4,$5,0*
20,1,$1+$1,$4,$5,$6,$7,0*
20,1,$1+$1,$6,$7,$8,$9,0*
20,1,$1+$1,$8,$9,$2,$3,0*%
G04 Aperture macros list end*
G04 #@! TA.AperFunction,WasherPad*
%ADD10C,3.810000*%
G04 #@! TD*
G04 #@! TA.AperFunction,SMDPad,CuDef*
%ADD11RoundRect,0.218750X-0.256250X0.218750X-0.256250X-0.218750X0.256250X-0.218750X0.256250X0.218750X0*%
G04 #@! TD*
G04 #@! TA.AperFunction,SMDPad,CuDef*
%ADD12RoundRect,0.218750X-0.218750X-0.256250X0.218750X-0.256250X0.218750X0.256250X-0.218750X0.256250X0*%
G04 #@! TD*
G04 #@! TA.AperFunction,ComponentPad*
%ADD13R,1.700000X1.700000*%
G04 #@! TD*
G04 #@! TA.AperFunction,ComponentPad*
%ADD14O,1.700000X1.700000*%
G04 #@! TD*
G04 #@! TA.AperFunction,SMDPad,CuDef*
%ADD15RoundRect,0.218750X0.256250X-0.218750X0.256250X0.218750X-0.256250X0.218750X-0.256250X-0.218750X0*%
G04 #@! TD*
G04 #@! TA.AperFunction,SMDPad,CuDef*
%ADD16C,1.000000*%
G04 #@! TD*
G04 #@! TA.AperFunction,ComponentPad*
%ADD17RoundRect,0.249900X-0.800100X0.800100X-0.800100X-0.800100X0.800100X-0.800100X0.800100X0.800100X0*%
G04 #@! TD*
G04 #@! TA.AperFunction,ComponentPad*
%ADD18C,2.100000*%
G04 #@! TD*
G04 #@! TA.AperFunction,SMDPad,CuDef*
%ADD19R,1.900000X0.400000*%
G04 #@! TD*
G04 #@! TA.AperFunction,SMDPad,CuDef*
%ADD20RoundRect,0.218750X0.218750X0.256250X-0.218750X0.256250X-0.218750X-0.256250X0.218750X-0.256250X0*%
G04 #@! TD*
G04 #@! TA.AperFunction,SMDPad,CuDef*
%ADD21R,3.500000X1.600000*%
G04 #@! TD*
G04 #@! TA.AperFunction,SMDPad,CuDef*
%ADD22R,2.000000X1.500000*%
G04 #@! TD*
G04 #@! TA.AperFunction,SMDPad,CuDef*
%ADD23R,2.000000X3.800000*%
G04 #@! TD*
G04 #@! TA.AperFunction,SMDPad,CuDef*
%ADD24RoundRect,0.088500X-0.206500X0.516500X-0.206500X-0.516500X0.206500X-0.516500X0.206500X0.516500X0*%
G04 #@! TD*
G04 #@! TA.AperFunction,SMDPad,CuDef*
%ADD25RoundRect,0.075000X-0.662500X-0.075000X0.662500X-0.075000X0.662500X0.075000X-0.662500X0.075000X0*%
G04 #@! TD*
G04 #@! TA.AperFunction,SMDPad,CuDef*
%ADD26RoundRect,0.075000X-0.075000X-0.662500X0.075000X-0.662500X0.075000X0.662500X-0.075000X0.662500X0*%
G04 #@! TD*
G04 #@! TA.AperFunction,ComponentPad*
%ADD27R,1.625600X1.625600*%
G04 #@! TD*
G04 #@! TA.AperFunction,ComponentPad*
%ADD28C,1.625600*%
G04 #@! TD*
G04 #@! TA.AperFunction,SMDPad,CuDef*
%ADD29R,1.500000X0.400000*%
G04 #@! TD*
G04 #@! TA.AperFunction,SMDPad,CuDef*
%ADD30R,3.505200X1.778000*%
G04 #@! TD*
G04 #@! TA.AperFunction,ViaPad*
%ADD31C,0.508000*%
G04 #@! TD*
G04 #@! TA.AperFunction,ViaPad*
%ADD32C,1.016000*%
G04 #@! TD*
G04 #@! TA.AperFunction,Conductor*
%ADD33C,0.304800*%
G04 #@! TD*
G04 #@! TA.AperFunction,Conductor*
%ADD34C,0.635000*%
G04 #@! TD*
G04 #@! TA.AperFunction,Conductor*
%ADD35C,0.508000*%
G04 #@! TD*
G04 #@! TA.AperFunction,Conductor*
%ADD36C,1.270000*%
G04 #@! TD*
G04 APERTURE END LIST*
D10*
X168910000Y-118110000D03*
X118110000Y-118110000D03*
X168910000Y-80010000D03*
X118110000Y-80010000D03*
D11*
X164719000Y-103733500D03*
X164719000Y-105308500D03*
D12*
X133959500Y-111506000D03*
X135534500Y-111506000D03*
D13*
X170180000Y-101600000D03*
D14*
X170180000Y-104140000D03*
X170180000Y-106680000D03*
X170180000Y-109220000D03*
D15*
X131699000Y-82296000D03*
X131699000Y-80721000D03*
D16*
X163830000Y-119380000D03*
D12*
X154533500Y-90297000D03*
X156108500Y-90297000D03*
D13*
X152146000Y-119380000D03*
D14*
X154686000Y-119380000D03*
X157226000Y-119380000D03*
X159766000Y-119380000D03*
D11*
X133223000Y-91668500D03*
X133223000Y-93243500D03*
X145415000Y-103352500D03*
X145415000Y-104927500D03*
D15*
X130175000Y-82296000D03*
X130175000Y-80721000D03*
D13*
X156220000Y-78740000D03*
D14*
X158760000Y-78740000D03*
X161300000Y-78740000D03*
X163840000Y-78740000D03*
D17*
X125879000Y-89013000D03*
D18*
X125879000Y-84977000D03*
D13*
X170180000Y-88910000D03*
D14*
X170180000Y-91450000D03*
X170180000Y-93990000D03*
X170180000Y-96530000D03*
D19*
X153035000Y-97352000D03*
X153035000Y-98552000D03*
X153035000Y-99752000D03*
D11*
X150622000Y-97764500D03*
X150622000Y-99339500D03*
D15*
X133223000Y-82296000D03*
X133223000Y-80721000D03*
D12*
X145389500Y-101727000D03*
X146964500Y-101727000D03*
D15*
X156464000Y-109372500D03*
X156464000Y-107797500D03*
D11*
X161417000Y-87350500D03*
X161417000Y-88925500D03*
D20*
X132867500Y-107442000D03*
X131292500Y-107442000D03*
D17*
X125879000Y-96760000D03*
D18*
X125879000Y-92724000D03*
D13*
X116840000Y-100457000D03*
D14*
X116840000Y-102997000D03*
X116840000Y-105537000D03*
X116840000Y-108077000D03*
X116840000Y-110617000D03*
X116840000Y-113157000D03*
D21*
X137447000Y-115824000D03*
X132047000Y-115824000D03*
D22*
X133248000Y-84695000D03*
X133248000Y-86995000D03*
D23*
X139548000Y-86995000D03*
D22*
X133248000Y-89295000D03*
D11*
X131699000Y-91668500D03*
X131699000Y-93243500D03*
X160807500Y-108178500D03*
X160807500Y-109753500D03*
D15*
X135636000Y-104292500D03*
X135636000Y-102717500D03*
D20*
X156108500Y-88773000D03*
X154533500Y-88773000D03*
D15*
X162331500Y-109753500D03*
X162331500Y-108178500D03*
D12*
X159867500Y-90424000D03*
X161442500Y-90424000D03*
D24*
X134046000Y-101700000D03*
X133096000Y-101700000D03*
X132146000Y-101700000D03*
X132146000Y-104210000D03*
X134046000Y-104210000D03*
D25*
X156365500Y-96310000D03*
X156365500Y-96810000D03*
X156365500Y-97310000D03*
X156365500Y-97810000D03*
X156365500Y-98310000D03*
X156365500Y-98810000D03*
X156365500Y-99310000D03*
X156365500Y-99810000D03*
X156365500Y-100310000D03*
X156365500Y-100810000D03*
X156365500Y-101310000D03*
X156365500Y-101810000D03*
D26*
X157778000Y-103222500D03*
X158278000Y-103222500D03*
X158778000Y-103222500D03*
X159278000Y-103222500D03*
X159778000Y-103222500D03*
X160278000Y-103222500D03*
X160778000Y-103222500D03*
X161278000Y-103222500D03*
X161778000Y-103222500D03*
X162278000Y-103222500D03*
X162778000Y-103222500D03*
X163278000Y-103222500D03*
D25*
X164690500Y-101810000D03*
X164690500Y-101310000D03*
X164690500Y-100810000D03*
X164690500Y-100310000D03*
X164690500Y-99810000D03*
X164690500Y-99310000D03*
X164690500Y-98810000D03*
X164690500Y-98310000D03*
X164690500Y-97810000D03*
X164690500Y-97310000D03*
X164690500Y-96810000D03*
X164690500Y-96310000D03*
D26*
X163278000Y-94897500D03*
X162778000Y-94897500D03*
X162278000Y-94897500D03*
X161778000Y-94897500D03*
X161278000Y-94897500D03*
X160778000Y-94897500D03*
X160278000Y-94897500D03*
X159778000Y-94897500D03*
X159278000Y-94897500D03*
X158778000Y-94897500D03*
X158278000Y-94897500D03*
X157778000Y-94897500D03*
D15*
X154940000Y-109372500D03*
X154940000Y-107797500D03*
D20*
X153822500Y-101346000D03*
X152247500Y-101346000D03*
D15*
X156337000Y-94386500D03*
X156337000Y-92811500D03*
X165227000Y-94894500D03*
X165227000Y-93319500D03*
D12*
X160782000Y-106680000D03*
X162357000Y-106680000D03*
D27*
X139700000Y-92278200D03*
D28*
X139700000Y-113461800D03*
D11*
X130166000Y-91668500D03*
X130166000Y-93243500D03*
D15*
X159893000Y-88925500D03*
X159893000Y-87350500D03*
D29*
X121724000Y-103740000D03*
X121724000Y-104390000D03*
X121724000Y-105040000D03*
X121724000Y-105690000D03*
X121724000Y-106340000D03*
X121724000Y-106990000D03*
X121724000Y-107640000D03*
X121724000Y-108290000D03*
X121724000Y-108940000D03*
X121724000Y-109590000D03*
X121724000Y-110240000D03*
X121724000Y-110890000D03*
X128974000Y-110890000D03*
X128974000Y-110240000D03*
X128974000Y-109590000D03*
X128974000Y-108940000D03*
X128974000Y-108290000D03*
X128974000Y-107640000D03*
X128974000Y-106990000D03*
X128974000Y-106340000D03*
X128974000Y-105690000D03*
X128974000Y-105040000D03*
X128974000Y-104390000D03*
X128974000Y-103740000D03*
D30*
X129667000Y-89611200D03*
X129667000Y-84378800D03*
D11*
X146939000Y-103352500D03*
X146939000Y-104927500D03*
D13*
X156596000Y-86106000D03*
D14*
X154056000Y-86106000D03*
D20*
X132867500Y-105918000D03*
X131292500Y-105918000D03*
D16*
X123190000Y-78740000D03*
D31*
X132842000Y-108712000D03*
X155321000Y-95377000D03*
X135636000Y-105664000D03*
X157353000Y-88773000D03*
X164084000Y-94107000D03*
X165989000Y-103759000D03*
X153670000Y-102489000D03*
X161417000Y-85979000D03*
X134747000Y-91694000D03*
X162306000Y-111252000D03*
X153543000Y-109347000D03*
D32*
X131191000Y-86995000D03*
X141859000Y-86995000D03*
D31*
X154559000Y-96266000D03*
X154559000Y-100330000D03*
X156210000Y-102489000D03*
X154924931Y-101460512D03*
X154940000Y-105029000D03*
X156464000Y-105791000D03*
X126365000Y-99695000D03*
X159219700Y-92456000D03*
X167223858Y-99829978D03*
X126923300Y-100965000D03*
X158623000Y-92964000D03*
X127508000Y-100343412D03*
D33*
X134721500Y-91668500D02*
X134747000Y-91694000D01*
X156311500Y-94386500D02*
X156337000Y-94386500D01*
X164719000Y-103733500D02*
X165963500Y-103733500D01*
X131699000Y-91668500D02*
X130166000Y-91668500D01*
X135636000Y-104292500D02*
X134128500Y-104292500D01*
X164690500Y-96310000D02*
X164690500Y-95983375D01*
X164439500Y-94107000D02*
X165227000Y-94894500D01*
X133248000Y-89295000D02*
X133248000Y-91643500D01*
X161417000Y-87350500D02*
X161417000Y-85979000D01*
X154889200Y-100888800D02*
X154279700Y-100888800D01*
X162331500Y-111226500D02*
X162306000Y-111252000D01*
X134128500Y-104292500D02*
X134046000Y-104210000D01*
X162331500Y-109753500D02*
X162331500Y-111226500D01*
X156365500Y-100310000D02*
X155468000Y-100310000D01*
X130070500Y-106340000D02*
X128974000Y-106340000D01*
X132867500Y-107442000D02*
X132867500Y-108686500D01*
X165963500Y-103733500D02*
X165989000Y-103759000D01*
X156848000Y-94897500D02*
X156337000Y-94386500D01*
X131292500Y-105918000D02*
X130492500Y-105918000D01*
X164208000Y-103222500D02*
X164719000Y-103733500D01*
X133248000Y-91643500D02*
X133223000Y-91668500D01*
X153822500Y-101346000D02*
X153822500Y-102336500D01*
X131292500Y-105918000D02*
X131343500Y-105918000D01*
X154940000Y-109372500D02*
X153568500Y-109372500D01*
X155468000Y-100310000D02*
X154889200Y-100888800D01*
X133223000Y-91668500D02*
X131699000Y-91668500D01*
X135636000Y-104292500D02*
X135636000Y-105664000D01*
X132867500Y-108686500D02*
X132842000Y-108712000D01*
X155321000Y-95377000D02*
X156311500Y-94386500D01*
X163278000Y-103222500D02*
X164208000Y-103222500D01*
X133223000Y-91668500D02*
X134721500Y-91668500D01*
X153568500Y-109372500D02*
X153543000Y-109347000D01*
X156464000Y-109372500D02*
X154940000Y-109372500D01*
X153822500Y-102336500D02*
X153670000Y-102489000D01*
X165227000Y-95446875D02*
X165227000Y-94894500D01*
X131343500Y-105918000D02*
X132867500Y-107442000D01*
X130492500Y-105918000D02*
X130070500Y-106340000D01*
X164690500Y-95983375D02*
X165227000Y-95446875D01*
X164084000Y-94107000D02*
X164439500Y-94107000D01*
X154279700Y-100888800D02*
X153822500Y-101346000D01*
X157778000Y-94897500D02*
X156848000Y-94897500D01*
X156108500Y-88773000D02*
X157353000Y-88773000D01*
D34*
X139700000Y-115443000D02*
X139319000Y-115824000D01*
D33*
X131045000Y-103740000D02*
X131515000Y-104210000D01*
D34*
X139700000Y-113461800D02*
X139700000Y-115443000D01*
D35*
X132146000Y-104210000D02*
X132531000Y-104210000D01*
X134264500Y-105943500D02*
X134264500Y-110236000D01*
D33*
X130810000Y-110744000D02*
X130810000Y-110236000D01*
X128974000Y-103740000D02*
X131045000Y-103740000D01*
D34*
X139700000Y-112395000D02*
X139700000Y-113461800D01*
X139319000Y-115824000D02*
X137447000Y-115824000D01*
D33*
X130810000Y-110236000D02*
X134264500Y-110236000D01*
X128974000Y-110240000D02*
X130806000Y-110240000D01*
X130664000Y-110890000D02*
X130810000Y-110744000D01*
D34*
X138811000Y-111506000D02*
X139700000Y-112395000D01*
D33*
X130806000Y-110240000D02*
X130810000Y-110236000D01*
D34*
X135534500Y-111506000D02*
X134264500Y-110236000D01*
D33*
X128974000Y-110890000D02*
X130664000Y-110890000D01*
D35*
X132531000Y-104210000D02*
X134264500Y-105943500D01*
D34*
X135534500Y-111506000D02*
X138811000Y-111506000D01*
D33*
X131515000Y-104210000D02*
X132146000Y-104210000D01*
X120549000Y-108940000D02*
X121724000Y-108940000D01*
X166420800Y-96469200D02*
X166037200Y-96852800D01*
X132867500Y-105918000D02*
X133705700Y-106756200D01*
X131953000Y-109601000D02*
X129992000Y-107640000D01*
X166420800Y-94030800D02*
X166420800Y-96469200D01*
X120269000Y-105167000D02*
X120269000Y-105537000D01*
D36*
X133248000Y-86995000D02*
X131191000Y-86995000D01*
D33*
X165227000Y-93319500D02*
X165709500Y-93319500D01*
X158278000Y-93889000D02*
X157861000Y-93472000D01*
X133705700Y-106756200D02*
X133705700Y-109118300D01*
X120396000Y-105040000D02*
X120269000Y-105167000D01*
X120512000Y-109590000D02*
X120396000Y-109474000D01*
X158278000Y-94897500D02*
X158278000Y-93889000D01*
X121724000Y-109590000D02*
X120512000Y-109590000D01*
X164690500Y-96810000D02*
X163485000Y-96810000D01*
X120269000Y-105537000D02*
X120422000Y-105690000D01*
X156365500Y-99810000D02*
X157873000Y-99810000D01*
X120422000Y-105690000D02*
X121724000Y-105690000D01*
X153035000Y-98552000D02*
X149733000Y-98552000D01*
X129992000Y-107640000D02*
X128974000Y-107640000D01*
X164733300Y-96852800D02*
X164690500Y-96810000D01*
X166037200Y-96852800D02*
X164733300Y-96852800D01*
X133223000Y-109601000D02*
X131953000Y-109601000D01*
X158278000Y-99405000D02*
X158278000Y-94897500D01*
X157873000Y-99810000D02*
X158278000Y-99405000D01*
X133705700Y-109118300D02*
X133223000Y-109601000D01*
X120396000Y-109474000D02*
X120396000Y-109093000D01*
X121724000Y-105040000D02*
X120396000Y-105040000D01*
X165709500Y-93319500D02*
X166420800Y-94030800D01*
X128974000Y-107640000D02*
X127310000Y-107640000D01*
X162778000Y-103222500D02*
X162778000Y-104485000D01*
X120396000Y-109093000D02*
X120549000Y-108940000D01*
X154051000Y-103124000D02*
X149352000Y-103124000D01*
X155365000Y-101810000D02*
X154051000Y-103124000D01*
X149352000Y-103124000D02*
X147955000Y-101727000D01*
X146964500Y-101727000D02*
X146964500Y-103327000D01*
X156365500Y-101810000D02*
X155365000Y-101810000D01*
X146964500Y-103327000D02*
X146939000Y-103352500D01*
X147955000Y-101727000D02*
X146964500Y-101727000D01*
X155579000Y-99310000D02*
X156365500Y-99310000D01*
X154559000Y-100330000D02*
X155579000Y-99310000D01*
X154533500Y-88773000D02*
X154533500Y-90297000D01*
X154533500Y-90297000D02*
X154533500Y-96240500D01*
X154559000Y-88747500D02*
X154533500Y-88773000D01*
X154559000Y-87757000D02*
X154559000Y-88747500D01*
X154533500Y-96240500D02*
X154559000Y-96266000D01*
X154056000Y-87254000D02*
X154559000Y-87757000D01*
X154056000Y-86106000D02*
X154056000Y-87254000D01*
D36*
X125879000Y-89013000D02*
X126477200Y-89611200D01*
X126477200Y-89611200D02*
X129667000Y-89611200D01*
D33*
X154940000Y-105029000D02*
X156210000Y-103759000D01*
X154940000Y-107797500D02*
X154940000Y-105029000D01*
X155075443Y-101310000D02*
X156365500Y-101310000D01*
X156210000Y-103759000D02*
X156210000Y-102489000D01*
X154924931Y-101460512D02*
X155075443Y-101310000D01*
D36*
X133223000Y-84670000D02*
X133248000Y-84695000D01*
X130175000Y-82296000D02*
X133223000Y-82296000D01*
X135114000Y-84695000D02*
X133248000Y-84695000D01*
X129667000Y-82804000D02*
X130175000Y-82296000D01*
X136398000Y-85979000D02*
X135114000Y-84695000D01*
X136398000Y-91059000D02*
X136398000Y-85979000D01*
X139700000Y-92278200D02*
X137617200Y-92278200D01*
D34*
X132146000Y-98613000D02*
X133604000Y-97155000D01*
X133604000Y-97155000D02*
X138303000Y-97155000D01*
D36*
X133223000Y-82296000D02*
X133223000Y-84670000D01*
D34*
X139700000Y-95758000D02*
X139700000Y-92278200D01*
X138303000Y-97155000D02*
X139700000Y-95758000D01*
X132146000Y-101700000D02*
X132146000Y-98613000D01*
D36*
X137617200Y-92278200D02*
X136398000Y-91059000D01*
X129667000Y-84378800D02*
X129667000Y-82804000D01*
D33*
X157778000Y-103222500D02*
X157778000Y-104477000D01*
X157778000Y-104477000D02*
X156464000Y-105791000D01*
X156464000Y-105791000D02*
X156464000Y-107797500D01*
X118364000Y-100457000D02*
X116840000Y-100457000D01*
X119126000Y-102870000D02*
X119126000Y-101219000D01*
X119996000Y-103740000D02*
X119126000Y-102870000D01*
X120265000Y-104390000D02*
X121724000Y-104390000D01*
X119126000Y-101219000D02*
X118364000Y-100457000D01*
X119996000Y-103740000D02*
X119996000Y-104121000D01*
X119996000Y-104121000D02*
X120265000Y-104390000D01*
X121724000Y-103740000D02*
X119996000Y-103740000D01*
X120213000Y-106609000D02*
X120213000Y-106990000D01*
X121724000Y-106340000D02*
X120482000Y-106340000D01*
X119126000Y-112268000D02*
X119126000Y-108077000D01*
X120482000Y-106340000D02*
X120213000Y-106609000D01*
X118237000Y-113157000D02*
X119126000Y-112268000D01*
X119126000Y-108077000D02*
X120213000Y-106990000D01*
X120213000Y-106990000D02*
X121724000Y-106990000D01*
X116840000Y-113157000D02*
X118237000Y-113157000D01*
X167894000Y-102119578D02*
X167894000Y-103632000D01*
X168402000Y-104140000D02*
X170180000Y-104140000D01*
X164690500Y-100810000D02*
X166584422Y-100810000D01*
X166584422Y-100810000D02*
X167894000Y-102119578D01*
X167894000Y-103632000D02*
X168402000Y-104140000D01*
X166731000Y-100310000D02*
X168021000Y-101600000D01*
X164690500Y-100310000D02*
X166731000Y-100310000D01*
X168021000Y-101600000D02*
X170180000Y-101600000D01*
X158760000Y-80020000D02*
X158760000Y-78740000D01*
X163278000Y-82898578D02*
X161024422Y-80645000D01*
X161024422Y-80645000D02*
X159385000Y-80645000D01*
X159385000Y-80645000D02*
X158760000Y-80020000D01*
X163278000Y-94897500D02*
X163278000Y-82898578D01*
X164338000Y-92329000D02*
X163735200Y-91726200D01*
X163735199Y-82709199D02*
X161300000Y-80274000D01*
X161300000Y-80274000D02*
X161300000Y-78740000D01*
X166878000Y-96658578D02*
X166878000Y-93218000D01*
X166226578Y-97310000D02*
X166878000Y-96658578D01*
X163735200Y-91726200D02*
X163735199Y-82709199D01*
X166878000Y-93218000D02*
X165989000Y-92329000D01*
X164690500Y-97310000D02*
X166226578Y-97310000D01*
X165989000Y-92329000D02*
X164338000Y-92329000D01*
X164690500Y-101810000D02*
X166291266Y-101810000D01*
X168021000Y-109220000D02*
X170180000Y-109220000D01*
X166979600Y-108178600D02*
X168021000Y-109220000D01*
X166291266Y-101810000D02*
X166979600Y-102498334D01*
X166979600Y-102498334D02*
X166979600Y-108178600D01*
X167436800Y-105841800D02*
X168275000Y-106680000D01*
X168275000Y-106680000D02*
X170180000Y-106680000D01*
X167436800Y-102308956D02*
X167436800Y-105841800D01*
X166437844Y-101310000D02*
X167436800Y-102308956D01*
X164690500Y-101310000D02*
X166437844Y-101310000D01*
X157226000Y-117983000D02*
X157226000Y-119380000D01*
X159278000Y-103222500D02*
X159278000Y-115931000D01*
X159278000Y-115931000D02*
X157226000Y-117983000D01*
X158278000Y-103222500D02*
X158278000Y-115637844D01*
X158278000Y-115637844D02*
X157025044Y-116890800D01*
X157025044Y-116890800D02*
X153111200Y-116890800D01*
X152146000Y-117856000D02*
X152146000Y-119380000D01*
X153111200Y-116890800D02*
X152146000Y-117856000D01*
X159778000Y-103222500D02*
X159778000Y-119368000D01*
X159778000Y-119368000D02*
X159766000Y-119380000D01*
X157214422Y-117348000D02*
X158778000Y-115784422D01*
X158778000Y-115784422D02*
X158778000Y-103222500D01*
X154686000Y-119380000D02*
X154686000Y-117856000D01*
X154686000Y-117856000D02*
X155194000Y-117348000D01*
X155194000Y-117348000D02*
X157214422Y-117348000D01*
D36*
X123063000Y-85979000D02*
X123063000Y-91694000D01*
X125879000Y-84977000D02*
X124065000Y-84977000D01*
X123063000Y-91694000D02*
X124093000Y-92724000D01*
X124065000Y-84977000D02*
X123063000Y-85979000D01*
X124093000Y-92724000D02*
X125879000Y-92724000D01*
D33*
X168097200Y-98233378D02*
X168097200Y-96951800D01*
X168097200Y-96951800D02*
X168529000Y-96520000D01*
X168539000Y-96530000D02*
X170180000Y-96530000D01*
X167020578Y-99310000D02*
X168097200Y-98233378D01*
X164690500Y-99310000D02*
X167020578Y-99310000D01*
X168529000Y-96520000D02*
X168539000Y-96530000D01*
X168920000Y-93990000D02*
X170180000Y-93990000D01*
X164690500Y-98810000D02*
X166874000Y-98810000D01*
X166874000Y-98810000D02*
X167640000Y-98044000D01*
X168910000Y-93980000D02*
X168920000Y-93990000D01*
X167640000Y-98044000D02*
X167640000Y-95250000D01*
X167640000Y-95250000D02*
X168910000Y-93980000D01*
X145362500Y-101700000D02*
X145389500Y-101727000D01*
X134046000Y-101700000D02*
X145362500Y-101700000D01*
X145389500Y-103327000D02*
X145415000Y-103352500D01*
X145389500Y-101727000D02*
X145389500Y-103327000D01*
X161442500Y-90424000D02*
X161442500Y-88951000D01*
X161442500Y-88951000D02*
X161417000Y-88925500D01*
X161417000Y-88925500D02*
X159893000Y-88925500D01*
X128974000Y-106990000D02*
X130104000Y-106990000D01*
X130104000Y-106990000D02*
X130556000Y-107442000D01*
X130556000Y-107442000D02*
X131292500Y-107442000D01*
X160807500Y-108178500D02*
X162331500Y-108178500D01*
X162357000Y-106680000D02*
X162357000Y-108153000D01*
X162357000Y-108153000D02*
X162331500Y-108178500D01*
X154375000Y-97352000D02*
X155333000Y-98310000D01*
X155333000Y-98310000D02*
X156365500Y-98310000D01*
X151822000Y-97352000D02*
X151409500Y-97764500D01*
X151409500Y-97764500D02*
X150622000Y-97764500D01*
X153035000Y-97352000D02*
X154375000Y-97352000D01*
X153035000Y-97352000D02*
X151822000Y-97352000D01*
X156361500Y-98806000D02*
X156365500Y-98810000D01*
X155321000Y-98806000D02*
X156361500Y-98806000D01*
X151822000Y-99752000D02*
X151409500Y-99339500D01*
X153035000Y-99752000D02*
X151822000Y-99752000D01*
X154375000Y-99752000D02*
X155321000Y-98806000D01*
X151409500Y-99339500D02*
X150622000Y-99339500D01*
X153035000Y-99752000D02*
X154375000Y-99752000D01*
X159867500Y-90424000D02*
X159778000Y-90513500D01*
X159778000Y-90513500D02*
X159778000Y-94897500D01*
X160782000Y-106680000D02*
X160782000Y-103226500D01*
X160782000Y-103226500D02*
X160778000Y-103222500D01*
X127788000Y-105690000D02*
X128974000Y-105690000D01*
X159219700Y-92456000D02*
X159278000Y-92514300D01*
X126365000Y-104267000D02*
X127788000Y-105690000D01*
X159278000Y-92514300D02*
X159278000Y-94897500D01*
X126365000Y-99695000D02*
X126365000Y-104267000D01*
X126923300Y-103999800D02*
X127963500Y-105040000D01*
X164690500Y-99810000D02*
X167203880Y-99810000D01*
X167203880Y-99810000D02*
X167223858Y-99829978D01*
X126923300Y-100965000D02*
X126923300Y-103999800D01*
X127963500Y-105040000D02*
X128974000Y-105040000D01*
X127482100Y-100369312D02*
X127482100Y-103809300D01*
X158778000Y-94897500D02*
X158778000Y-93119000D01*
X158778000Y-93119000D02*
X158623000Y-92964000D01*
X128062800Y-104390000D02*
X128974000Y-104390000D01*
X127508000Y-100343412D02*
X127482100Y-100369312D01*
X127482100Y-103809300D02*
X128062800Y-104390000D01*
G04 #@! TA.AperFunction,Conductor*
G36*
X130383054Y-108081447D02*
G01*
X130411958Y-108087197D01*
X130474866Y-108120106D01*
X130494614Y-108144628D01*
X130499397Y-108152383D01*
X130499398Y-108152384D01*
X130499400Y-108152387D01*
X130619613Y-108272600D01*
X130764308Y-108361849D01*
X130925686Y-108415324D01*
X131025289Y-108425500D01*
X131559710Y-108425499D01*
X131659314Y-108415324D01*
X131820692Y-108361849D01*
X131946730Y-108284107D01*
X132015208Y-108265370D01*
X132082947Y-108286629D01*
X132128439Y-108341136D01*
X132137240Y-108411585D01*
X132131806Y-108432962D01*
X132094668Y-108539098D01*
X132093912Y-108541258D01*
X132074675Y-108712000D01*
X132093912Y-108882744D01*
X132150664Y-109044930D01*
X132150665Y-109044933D01*
X132242079Y-109190417D01*
X132242080Y-109190419D01*
X132363580Y-109311919D01*
X132363582Y-109311920D01*
X132412110Y-109342413D01*
X132459148Y-109395592D01*
X132469968Y-109465759D01*
X132441135Y-109530637D01*
X132381803Y-109569628D01*
X132345074Y-109575100D01*
X130744906Y-109575100D01*
X130736969Y-109576679D01*
X130712386Y-109579100D01*
X130358500Y-109579100D01*
X130290379Y-109559098D01*
X130243886Y-109505442D01*
X130232500Y-109453100D01*
X130232500Y-109341367D01*
X130232499Y-109341350D01*
X130225739Y-109278468D01*
X130225739Y-109251532D01*
X130232499Y-109188649D01*
X130232500Y-109188632D01*
X130232500Y-108691367D01*
X130232499Y-108691350D01*
X130225739Y-108628468D01*
X130225739Y-108601532D01*
X130232499Y-108538649D01*
X130232500Y-108538632D01*
X130232500Y-108205031D01*
X130252502Y-108136910D01*
X130306158Y-108090417D01*
X130376432Y-108080313D01*
X130383054Y-108081447D01*
G37*
G04 #@! TD.AperFunction*
G04 #@! TA.AperFunction,Conductor*
G36*
X158337065Y-96016892D02*
G01*
X158354704Y-96028229D01*
X158378704Y-96046645D01*
X158420571Y-96103983D01*
X158426261Y-96136631D01*
X158427999Y-96138155D01*
X158509638Y-96127408D01*
X158542531Y-96127408D01*
X158550673Y-96128479D01*
X158550676Y-96128481D01*
X158664756Y-96143500D01*
X158664763Y-96143500D01*
X158891237Y-96143500D01*
X158891244Y-96143500D01*
X159005324Y-96128481D01*
X159005327Y-96128479D01*
X159011553Y-96127660D01*
X159044447Y-96127660D01*
X159050672Y-96128479D01*
X159050676Y-96128481D01*
X159164756Y-96143500D01*
X159164763Y-96143500D01*
X159391237Y-96143500D01*
X159391244Y-96143500D01*
X159505324Y-96128481D01*
X159505327Y-96128479D01*
X159511553Y-96127660D01*
X159544447Y-96127660D01*
X159550672Y-96128479D01*
X159550676Y-96128481D01*
X159664756Y-96143500D01*
X159664763Y-96143500D01*
X159891237Y-96143500D01*
X159891244Y-96143500D01*
X160005324Y-96128481D01*
X160005327Y-96128479D01*
X160011553Y-96127660D01*
X160044447Y-96127660D01*
X160050672Y-96128479D01*
X160050676Y-96128481D01*
X160164756Y-96143500D01*
X160164763Y-96143500D01*
X160391237Y-96143500D01*
X160391244Y-96143500D01*
X160505324Y-96128481D01*
X160505327Y-96128479D01*
X160511553Y-96127660D01*
X160544447Y-96127660D01*
X160550672Y-96128479D01*
X160550676Y-96128481D01*
X160664756Y-96143500D01*
X160664763Y-96143500D01*
X160891237Y-96143500D01*
X160891244Y-96143500D01*
X161005324Y-96128481D01*
X161005327Y-96128479D01*
X161011553Y-96127660D01*
X161044447Y-96127660D01*
X161050672Y-96128479D01*
X161050676Y-96128481D01*
X161164756Y-96143500D01*
X161164763Y-96143500D01*
X161391237Y-96143500D01*
X161391244Y-96143500D01*
X161505324Y-96128481D01*
X161505327Y-96128479D01*
X161511553Y-96127660D01*
X161544447Y-96127660D01*
X161550672Y-96128479D01*
X161550676Y-96128481D01*
X161664756Y-96143500D01*
X161664763Y-96143500D01*
X161891237Y-96143500D01*
X161891244Y-96143500D01*
X162005324Y-96128481D01*
X162005327Y-96128479D01*
X162011553Y-96127660D01*
X162044447Y-96127660D01*
X162050672Y-96128479D01*
X162050676Y-96128481D01*
X162164756Y-96143500D01*
X162164763Y-96143500D01*
X162391237Y-96143500D01*
X162391244Y-96143500D01*
X162505324Y-96128481D01*
X162505327Y-96128479D01*
X162511553Y-96127660D01*
X162544447Y-96127660D01*
X162550672Y-96128479D01*
X162550676Y-96128481D01*
X162664756Y-96143500D01*
X162664763Y-96143500D01*
X162891237Y-96143500D01*
X162891244Y-96143500D01*
X163005324Y-96128481D01*
X163005327Y-96128479D01*
X163011553Y-96127660D01*
X163044447Y-96127660D01*
X163050672Y-96128479D01*
X163050676Y-96128481D01*
X163164756Y-96143500D01*
X163164763Y-96143500D01*
X163318500Y-96143500D01*
X163386621Y-96163502D01*
X163433114Y-96217158D01*
X163444500Y-96269500D01*
X163444500Y-96423246D01*
X163460591Y-96545468D01*
X163460591Y-96578361D01*
X163449842Y-96659999D01*
X163452774Y-96663341D01*
X163509514Y-96680002D01*
X163541355Y-96709296D01*
X163559771Y-96733296D01*
X163585372Y-96799516D01*
X163571108Y-96869065D01*
X163559771Y-96886704D01*
X163541355Y-96910704D01*
X163484017Y-96952571D01*
X163451368Y-96958261D01*
X163449843Y-96960000D01*
X163460591Y-97041638D01*
X163460591Y-97074531D01*
X163444500Y-97196753D01*
X163444500Y-97423246D01*
X163460339Y-97543554D01*
X163460339Y-97576446D01*
X163444500Y-97696753D01*
X163444500Y-97923246D01*
X163460339Y-98043554D01*
X163460339Y-98076446D01*
X163444500Y-98196753D01*
X163444500Y-98423246D01*
X163460339Y-98543554D01*
X163460339Y-98576446D01*
X163444500Y-98696753D01*
X163444500Y-98923246D01*
X163460339Y-99043554D01*
X163460339Y-99076446D01*
X163444500Y-99196753D01*
X163444500Y-99423246D01*
X163460339Y-99543554D01*
X163460339Y-99576446D01*
X163444500Y-99696753D01*
X163444500Y-99923246D01*
X163460339Y-100043554D01*
X163460339Y-100076446D01*
X163444500Y-100196753D01*
X163444500Y-100423246D01*
X163460339Y-100543554D01*
X163460339Y-100576446D01*
X163444500Y-100696753D01*
X163444500Y-100923246D01*
X163460339Y-101043554D01*
X163460339Y-101076446D01*
X163444500Y-101196753D01*
X163444500Y-101423246D01*
X163460339Y-101543554D01*
X163460339Y-101576446D01*
X163444500Y-101696753D01*
X163444500Y-101850500D01*
X163424498Y-101918621D01*
X163370842Y-101965114D01*
X163318500Y-101976500D01*
X163164753Y-101976500D01*
X163042531Y-101992591D01*
X163009638Y-101992591D01*
X162928000Y-101981843D01*
X162924658Y-101984774D01*
X162907998Y-102041514D01*
X162878704Y-102073355D01*
X162854704Y-102091771D01*
X162788484Y-102117372D01*
X162718935Y-102103108D01*
X162701296Y-102091771D01*
X162677296Y-102073355D01*
X162635429Y-102016017D01*
X162629738Y-101983368D01*
X162627999Y-101981842D01*
X162546361Y-101992591D01*
X162513468Y-101992591D01*
X162391246Y-101976500D01*
X162391244Y-101976500D01*
X162164756Y-101976500D01*
X162164753Y-101976500D01*
X162044446Y-101992339D01*
X162011554Y-101992339D01*
X161891246Y-101976500D01*
X161891244Y-101976500D01*
X161664756Y-101976500D01*
X161664753Y-101976500D01*
X161544446Y-101992339D01*
X161511554Y-101992339D01*
X161391246Y-101976500D01*
X161391244Y-101976500D01*
X161164756Y-101976500D01*
X161164753Y-101976500D01*
X161044446Y-101992339D01*
X161011554Y-101992339D01*
X160891246Y-101976500D01*
X160891244Y-101976500D01*
X160664756Y-101976500D01*
X160664753Y-101976500D01*
X160544446Y-101992339D01*
X160511554Y-101992339D01*
X160391246Y-101976500D01*
X160391244Y-101976500D01*
X160164756Y-101976500D01*
X160164753Y-101976500D01*
X160044446Y-101992339D01*
X160011554Y-101992339D01*
X159891246Y-101976500D01*
X159891244Y-101976500D01*
X159664756Y-101976500D01*
X159664753Y-101976500D01*
X159544446Y-101992339D01*
X159511554Y-101992339D01*
X159391246Y-101976500D01*
X159391244Y-101976500D01*
X159164756Y-101976500D01*
X159164753Y-101976500D01*
X159044446Y-101992339D01*
X159011554Y-101992339D01*
X158891246Y-101976500D01*
X158891244Y-101976500D01*
X158664756Y-101976500D01*
X158664753Y-101976500D01*
X158544446Y-101992339D01*
X158511554Y-101992339D01*
X158391246Y-101976500D01*
X158391244Y-101976500D01*
X158164756Y-101976500D01*
X158164753Y-101976500D01*
X158044446Y-101992339D01*
X158011554Y-101992339D01*
X157891246Y-101976500D01*
X157891244Y-101976500D01*
X157737500Y-101976500D01*
X157669379Y-101956498D01*
X157622886Y-101902842D01*
X157611500Y-101850500D01*
X157611500Y-101696763D01*
X157611500Y-101696756D01*
X157596481Y-101582676D01*
X157596479Y-101582672D01*
X157595660Y-101576447D01*
X157595660Y-101543553D01*
X157596479Y-101537327D01*
X157596481Y-101537324D01*
X157611500Y-101423244D01*
X157611500Y-101196756D01*
X157596481Y-101082676D01*
X157596479Y-101082672D01*
X157595660Y-101076447D01*
X157595660Y-101043553D01*
X157596479Y-101037327D01*
X157596481Y-101037324D01*
X157611500Y-100923244D01*
X157611500Y-100696756D01*
X157596481Y-100582676D01*
X157596479Y-100582672D01*
X157595660Y-100576447D01*
X157595660Y-100543553D01*
X157596479Y-100537327D01*
X157596481Y-100537324D01*
X157611500Y-100423244D01*
X157611500Y-100196756D01*
X157596481Y-100082676D01*
X157596479Y-100082673D01*
X157595408Y-100074532D01*
X157595408Y-100041637D01*
X157606156Y-99959999D01*
X157603225Y-99956658D01*
X157546486Y-99939998D01*
X157514645Y-99910704D01*
X157496229Y-99886704D01*
X157470628Y-99820484D01*
X157484892Y-99750935D01*
X157496229Y-99733296D01*
X157514645Y-99709296D01*
X157571983Y-99667429D01*
X157604631Y-99661738D01*
X157606156Y-99660000D01*
X157595408Y-99578363D01*
X157595408Y-99545468D01*
X157596479Y-99537326D01*
X157596481Y-99537324D01*
X157611500Y-99423244D01*
X157611500Y-99196756D01*
X157596481Y-99082676D01*
X157596479Y-99082672D01*
X157595660Y-99076447D01*
X157595660Y-99043553D01*
X157596479Y-99037327D01*
X157596481Y-99037324D01*
X157611500Y-98923244D01*
X157611500Y-98696756D01*
X157596481Y-98582676D01*
X157596479Y-98582672D01*
X157595660Y-98576447D01*
X157595660Y-98543553D01*
X157596479Y-98537327D01*
X157596481Y-98537324D01*
X157611500Y-98423244D01*
X157611500Y-98196756D01*
X157596481Y-98082676D01*
X157596479Y-98082672D01*
X157595660Y-98076447D01*
X157595660Y-98043553D01*
X157596479Y-98037327D01*
X157596481Y-98037324D01*
X157611500Y-97923244D01*
X157611500Y-97696756D01*
X157596481Y-97582676D01*
X157596479Y-97582672D01*
X157595660Y-97576447D01*
X157595660Y-97543553D01*
X157596479Y-97537327D01*
X157596481Y-97537324D01*
X157611500Y-97423244D01*
X157611500Y-97196756D01*
X157596481Y-97082676D01*
X157596479Y-97082672D01*
X157595660Y-97076447D01*
X157595660Y-97043553D01*
X157596479Y-97037327D01*
X157596481Y-97037324D01*
X157611500Y-96923244D01*
X157611500Y-96696756D01*
X157596481Y-96582676D01*
X157596479Y-96582672D01*
X157595660Y-96576447D01*
X157595660Y-96543553D01*
X157596479Y-96537327D01*
X157596481Y-96537324D01*
X157611500Y-96423244D01*
X157611500Y-96269500D01*
X157631502Y-96201379D01*
X157685158Y-96154886D01*
X157737500Y-96143500D01*
X157891237Y-96143500D01*
X157891244Y-96143500D01*
X158005324Y-96128481D01*
X158005326Y-96128479D01*
X158013468Y-96127408D01*
X158046361Y-96127408D01*
X158128000Y-96138155D01*
X158131342Y-96135225D01*
X158148002Y-96078486D01*
X158177296Y-96046645D01*
X158201296Y-96028229D01*
X158267516Y-96002628D01*
X158337065Y-96016892D01*
G37*
G04 #@! TD.AperFunction*
G04 #@! TA.AperFunction,Conductor*
G36*
X118355311Y-101390182D02*
G01*
X118384020Y-101411674D01*
X118428195Y-101455849D01*
X118462221Y-101518161D01*
X118465100Y-101544944D01*
X118465100Y-102935095D01*
X118490498Y-103062777D01*
X118490500Y-103062782D01*
X118499087Y-103083514D01*
X118540318Y-103183054D01*
X118612645Y-103291299D01*
X118612647Y-103291301D01*
X119298195Y-103976849D01*
X119332221Y-104039161D01*
X119335100Y-104065944D01*
X119335100Y-104186095D01*
X119360498Y-104313777D01*
X119360500Y-104313782D01*
X119410318Y-104434054D01*
X119482644Y-104542298D01*
X119747239Y-104806892D01*
X119747244Y-104806898D01*
X119751644Y-104811298D01*
X119751645Y-104811299D01*
X119843701Y-104903355D01*
X119951946Y-104975682D01*
X120067812Y-105023675D01*
X120072223Y-105025502D01*
X120199906Y-105050900D01*
X120199907Y-105050900D01*
X120340000Y-105050900D01*
X120408121Y-105070902D01*
X120454614Y-105124558D01*
X120466000Y-105176900D01*
X120466000Y-105288602D01*
X120472766Y-105351532D01*
X120472766Y-105378468D01*
X120466000Y-105441397D01*
X120466000Y-105565928D01*
X120445998Y-105634049D01*
X120392342Y-105680542D01*
X120364584Y-105689506D01*
X120307313Y-105700899D01*
X120289228Y-105704496D01*
X120289219Y-105704499D01*
X120168945Y-105754318D01*
X120060705Y-105826642D01*
X120060698Y-105826647D01*
X119968645Y-105918701D01*
X119968642Y-105918702D01*
X119968643Y-105918703D01*
X119773983Y-106113360D01*
X119773976Y-106113370D01*
X119699643Y-106187703D01*
X119699642Y-106187705D01*
X119627318Y-106295945D01*
X119577500Y-106416217D01*
X119577498Y-106416222D01*
X119552100Y-106543904D01*
X119552100Y-106664054D01*
X119532098Y-106732175D01*
X119515195Y-106753149D01*
X118686986Y-107581357D01*
X118686977Y-107581369D01*
X118612643Y-107655703D01*
X118612642Y-107655705D01*
X118540318Y-107763945D01*
X118490500Y-107884217D01*
X118490498Y-107884222D01*
X118465100Y-108011904D01*
X118465100Y-111942054D01*
X118445098Y-112010175D01*
X118428195Y-112031150D01*
X118113908Y-112345436D01*
X118051596Y-112379461D01*
X117980780Y-112374396D01*
X117923945Y-112331849D01*
X117919326Y-112325249D01*
X117915721Y-112319731D01*
X117915720Y-112319729D01*
X117763237Y-112154091D01*
X117605283Y-112031150D01*
X117585576Y-112015811D01*
X117552319Y-111997813D01*
X117501929Y-111947802D01*
X117486576Y-111878485D01*
X117511136Y-111811872D01*
X117552320Y-111776186D01*
X117585576Y-111758189D01*
X117763240Y-111619906D01*
X117915722Y-111454268D01*
X118038860Y-111265791D01*
X118129296Y-111059616D01*
X118184564Y-110841368D01*
X118203156Y-110617000D01*
X118184564Y-110392632D01*
X118141584Y-110222908D01*
X118129297Y-110174387D01*
X118129296Y-110174386D01*
X118129296Y-110174384D01*
X118038860Y-109968209D01*
X117993775Y-109899201D01*
X117915724Y-109779734D01*
X117915720Y-109779729D01*
X117773740Y-109625500D01*
X117763240Y-109614094D01*
X117763239Y-109614093D01*
X117763237Y-109614091D01*
X117681382Y-109550381D01*
X117585576Y-109475811D01*
X117551792Y-109457528D01*
X117501402Y-109407516D01*
X117486050Y-109338199D01*
X117510610Y-109271586D01*
X117551793Y-109235901D01*
X117585300Y-109217767D01*
X117585301Y-109217767D01*
X117762902Y-109079534D01*
X117915325Y-108913958D01*
X118038419Y-108725548D01*
X118128820Y-108519456D01*
X118128823Y-108519449D01*
X118176544Y-108331000D01*
X117270703Y-108331000D01*
X117305925Y-108269993D01*
X117340000Y-108142826D01*
X117340000Y-108011174D01*
X117305925Y-107884007D01*
X117270703Y-107823000D01*
X118176544Y-107823000D01*
X118176544Y-107822999D01*
X118128823Y-107634550D01*
X118128820Y-107634543D01*
X118038419Y-107428451D01*
X117915325Y-107240041D01*
X117762902Y-107074465D01*
X117585301Y-106936232D01*
X117585300Y-106936231D01*
X117551791Y-106918097D01*
X117501401Y-106868083D01*
X117486050Y-106798766D01*
X117510612Y-106732153D01*
X117551790Y-106696472D01*
X117585576Y-106678189D01*
X117763240Y-106539906D01*
X117915722Y-106374268D01*
X118038860Y-106185791D01*
X118129296Y-105979616D01*
X118184564Y-105761368D01*
X118203156Y-105537000D01*
X118184564Y-105312632D01*
X118178477Y-105288595D01*
X118129297Y-105094387D01*
X118129296Y-105094386D01*
X118129296Y-105094384D01*
X118038860Y-104888209D01*
X118019290Y-104858255D01*
X117915724Y-104699734D01*
X117915720Y-104699729D01*
X117787818Y-104560793D01*
X117763240Y-104534094D01*
X117763239Y-104534093D01*
X117763237Y-104534091D01*
X117681382Y-104470381D01*
X117585576Y-104395811D01*
X117583497Y-104394686D01*
X117552320Y-104377814D01*
X117501929Y-104327802D01*
X117486576Y-104258485D01*
X117511136Y-104191872D01*
X117552320Y-104156186D01*
X117561803Y-104151054D01*
X117585576Y-104138189D01*
X117763240Y-103999906D01*
X117915722Y-103834268D01*
X118038860Y-103645791D01*
X118129296Y-103439616D01*
X118184564Y-103221368D01*
X118203156Y-102997000D01*
X118184564Y-102772632D01*
X118180757Y-102757598D01*
X118129297Y-102554387D01*
X118129296Y-102554386D01*
X118129296Y-102554384D01*
X118038860Y-102348209D01*
X118029941Y-102334558D01*
X117915724Y-102159734D01*
X117915719Y-102159729D01*
X117911703Y-102155367D01*
X117772524Y-102004179D01*
X117741103Y-101940514D01*
X117749090Y-101869968D01*
X117793948Y-101814939D01*
X117821183Y-101800789D01*
X117936204Y-101757889D01*
X118053261Y-101670261D01*
X118140889Y-101553204D01*
X118176871Y-101456733D01*
X118219416Y-101399901D01*
X118285936Y-101375090D01*
X118355311Y-101390182D01*
G37*
G04 #@! TD.AperFunction*
G04 #@! TA.AperFunction,Conductor*
G36*
X121866121Y-109018502D02*
G01*
X121912614Y-109072158D01*
X121924000Y-109124500D01*
X121924000Y-109405500D01*
X121903998Y-109473621D01*
X121850342Y-109520114D01*
X121798000Y-109531500D01*
X121650000Y-109531500D01*
X121581879Y-109511498D01*
X121535386Y-109457842D01*
X121524000Y-109405500D01*
X121524000Y-109124500D01*
X121544002Y-109056379D01*
X121597658Y-109009886D01*
X121650000Y-108998500D01*
X121798000Y-108998500D01*
X121866121Y-109018502D01*
G37*
G04 #@! TD.AperFunction*
G04 #@! TA.AperFunction,Conductor*
G36*
X121866121Y-105118502D02*
G01*
X121912614Y-105172158D01*
X121924000Y-105224500D01*
X121924000Y-105505500D01*
X121903998Y-105573621D01*
X121850342Y-105620114D01*
X121798000Y-105631500D01*
X121650000Y-105631500D01*
X121581879Y-105611498D01*
X121535386Y-105557842D01*
X121524000Y-105505500D01*
X121524000Y-105224500D01*
X121544002Y-105156379D01*
X121597658Y-105109886D01*
X121650000Y-105098500D01*
X121798000Y-105098500D01*
X121866121Y-105118502D01*
G37*
G04 #@! TD.AperFunction*
G04 #@! TA.AperFunction,Conductor*
G36*
X127482260Y-85555054D02*
G01*
X127518834Y-85587907D01*
X127551138Y-85631061D01*
X127668192Y-85718687D01*
X127668194Y-85718688D01*
X127668196Y-85718689D01*
X127727275Y-85740724D01*
X127805195Y-85769788D01*
X127805203Y-85769790D01*
X127865750Y-85776299D01*
X127865755Y-85776299D01*
X127865762Y-85776300D01*
X127865768Y-85776300D01*
X131468232Y-85776300D01*
X131468238Y-85776300D01*
X131468245Y-85776299D01*
X131468249Y-85776299D01*
X131528796Y-85769790D01*
X131528799Y-85769789D01*
X131528801Y-85769789D01*
X131665804Y-85718689D01*
X131665807Y-85718686D01*
X131673713Y-85714370D01*
X131674938Y-85716613D01*
X131728760Y-85696523D01*
X131798138Y-85711597D01*
X131838649Y-85746692D01*
X131856028Y-85769908D01*
X131880838Y-85836428D01*
X131865746Y-85905802D01*
X131856028Y-85920924D01*
X131797555Y-85999035D01*
X131746505Y-86135906D01*
X131740000Y-86196402D01*
X131740000Y-86741000D01*
X134756000Y-86741000D01*
X134756000Y-86258344D01*
X134776002Y-86190223D01*
X134829658Y-86143730D01*
X134899932Y-86133626D01*
X134964512Y-86163120D01*
X134971095Y-86169249D01*
X135217595Y-86415749D01*
X135251621Y-86478061D01*
X135254500Y-86504844D01*
X135254500Y-90886204D01*
X135234498Y-90954325D01*
X135180842Y-91000818D01*
X135110568Y-91010922D01*
X135087034Y-91003784D01*
X135086609Y-91005001D01*
X134988568Y-90970695D01*
X134917746Y-90945913D01*
X134917744Y-90945912D01*
X134917746Y-90945912D01*
X134747000Y-90926675D01*
X134576255Y-90945912D01*
X134420171Y-91000529D01*
X134378556Y-91007600D01*
X134117778Y-91007600D01*
X134049657Y-90987598D01*
X134028683Y-90970695D01*
X133945805Y-90887817D01*
X133911779Y-90825505D01*
X133908900Y-90798722D01*
X133908900Y-90679500D01*
X133928902Y-90611379D01*
X133982558Y-90564886D01*
X134034900Y-90553500D01*
X134296632Y-90553500D01*
X134296638Y-90553500D01*
X134296645Y-90553499D01*
X134296649Y-90553499D01*
X134357196Y-90546990D01*
X134357199Y-90546989D01*
X134357201Y-90546989D01*
X134494204Y-90495889D01*
X134611261Y-90408261D01*
X134685709Y-90308811D01*
X134698887Y-90291207D01*
X134698887Y-90291206D01*
X134698889Y-90291204D01*
X134749989Y-90154201D01*
X134753743Y-90119290D01*
X134756499Y-90093649D01*
X134756500Y-90093632D01*
X134756500Y-88496367D01*
X134756499Y-88496350D01*
X134749990Y-88435803D01*
X134749988Y-88435795D01*
X134719535Y-88354150D01*
X134698889Y-88298796D01*
X134698888Y-88298794D01*
X134698887Y-88298792D01*
X134639972Y-88220091D01*
X134615161Y-88153571D01*
X134630253Y-88084196D01*
X134639973Y-88069072D01*
X134698443Y-87990966D01*
X134698444Y-87990964D01*
X134749494Y-87854093D01*
X134755999Y-87793597D01*
X134756000Y-87793585D01*
X134756000Y-87249000D01*
X131740000Y-87249000D01*
X131740000Y-87793597D01*
X131746505Y-87854093D01*
X131797555Y-87990964D01*
X131797556Y-87990965D01*
X131856027Y-88069074D01*
X131880838Y-88135594D01*
X131865746Y-88204969D01*
X131856028Y-88220091D01*
X131838650Y-88243306D01*
X131781815Y-88285853D01*
X131711000Y-88290919D01*
X131674477Y-88274241D01*
X131673718Y-88275632D01*
X131665802Y-88271310D01*
X131528804Y-88220211D01*
X131528796Y-88220209D01*
X131468249Y-88213700D01*
X131468238Y-88213700D01*
X127865762Y-88213700D01*
X127865750Y-88213700D01*
X127805203Y-88220209D01*
X127805195Y-88220211D01*
X127668197Y-88271310D01*
X127668193Y-88271312D01*
X127639008Y-88293160D01*
X127572488Y-88317970D01*
X127503114Y-88302878D01*
X127452912Y-88252676D01*
X127437500Y-88192291D01*
X127437500Y-88162355D01*
X127426888Y-88058496D01*
X127426888Y-88058494D01*
X127371123Y-87890204D01*
X127278051Y-87739311D01*
X127278050Y-87739310D01*
X127278045Y-87739304D01*
X127152695Y-87613954D01*
X127152689Y-87613949D01*
X127091321Y-87576097D01*
X127001796Y-87520877D01*
X126833506Y-87465112D01*
X126833503Y-87465111D01*
X126729644Y-87454500D01*
X126729636Y-87454500D01*
X125028364Y-87454500D01*
X125028356Y-87454500D01*
X124924496Y-87465111D01*
X124756204Y-87520877D01*
X124605310Y-87613949D01*
X124605304Y-87613954D01*
X124479954Y-87739304D01*
X124479949Y-87739310D01*
X124473769Y-87749330D01*
X124442716Y-87799676D01*
X124439741Y-87804499D01*
X124386955Y-87851977D01*
X124316880Y-87863380D01*
X124251764Y-87835088D01*
X124212282Y-87776082D01*
X124206500Y-87738352D01*
X124206500Y-86504844D01*
X124226502Y-86436723D01*
X124243405Y-86415749D01*
X124501749Y-86157405D01*
X124564061Y-86123379D01*
X124590844Y-86120500D01*
X124771653Y-86120500D01*
X124839774Y-86140502D01*
X124853480Y-86150686D01*
X124960104Y-86241752D01*
X125169268Y-86369927D01*
X125395908Y-86463805D01*
X125634443Y-86521072D01*
X125879000Y-86540319D01*
X126123557Y-86521072D01*
X126362092Y-86463805D01*
X126588732Y-86369927D01*
X126797896Y-86241752D01*
X126984433Y-86082433D01*
X127143752Y-85895896D01*
X127271927Y-85686732D01*
X127301558Y-85615196D01*
X127346105Y-85559917D01*
X127413469Y-85537496D01*
X127482260Y-85555054D01*
G37*
G04 #@! TD.AperFunction*
G04 #@! TA.AperFunction,Conductor*
G36*
X168910839Y-76200011D02*
G01*
X168922255Y-76200160D01*
X169103762Y-76202535D01*
X169115270Y-76203213D01*
X169499859Y-76243635D01*
X169512875Y-76245696D01*
X169890325Y-76325925D01*
X169903059Y-76329338D01*
X170270048Y-76448580D01*
X170282333Y-76453295D01*
X170545509Y-76570469D01*
X170634862Y-76610252D01*
X170646613Y-76616240D01*
X170787510Y-76697586D01*
X170980786Y-76809174D01*
X170991833Y-76816348D01*
X171290513Y-77033351D01*
X171304017Y-77043163D01*
X171314266Y-77051463D01*
X171601018Y-77309655D01*
X171610344Y-77318981D01*
X171868536Y-77605733D01*
X171876836Y-77615982D01*
X171977094Y-77753974D01*
X172085174Y-77902734D01*
X172103647Y-77928159D01*
X172110830Y-77939220D01*
X172303759Y-78273386D01*
X172309747Y-78285137D01*
X172399178Y-78486000D01*
X172444845Y-78588571D01*
X172466698Y-78637652D01*
X172471424Y-78649965D01*
X172590660Y-79016937D01*
X172594074Y-79029676D01*
X172674302Y-79407119D01*
X172676365Y-79420146D01*
X172716785Y-79804722D01*
X172717464Y-79816243D01*
X172719989Y-80009159D01*
X172720000Y-80010808D01*
X172720000Y-118109191D01*
X172719989Y-118110840D01*
X172717464Y-118303756D01*
X172716785Y-118315277D01*
X172676365Y-118699853D01*
X172674302Y-118712880D01*
X172594074Y-119090323D01*
X172590660Y-119103062D01*
X172471424Y-119470034D01*
X172466698Y-119482347D01*
X172309747Y-119834862D01*
X172303759Y-119846613D01*
X172110830Y-120180779D01*
X172103647Y-120191840D01*
X171876836Y-120504017D01*
X171868536Y-120514266D01*
X171610344Y-120801018D01*
X171601018Y-120810344D01*
X171314266Y-121068536D01*
X171304017Y-121076836D01*
X170991840Y-121303647D01*
X170980779Y-121310830D01*
X170646613Y-121503759D01*
X170634862Y-121509747D01*
X170282347Y-121666698D01*
X170270034Y-121671424D01*
X169903062Y-121790660D01*
X169890323Y-121794074D01*
X169512880Y-121874302D01*
X169499853Y-121876365D01*
X169115277Y-121916785D01*
X169103756Y-121917464D01*
X168910841Y-121919989D01*
X168909192Y-121920000D01*
X118110808Y-121920000D01*
X118109159Y-121919989D01*
X117916243Y-121917464D01*
X117904722Y-121916785D01*
X117520146Y-121876365D01*
X117507119Y-121874302D01*
X117129676Y-121794074D01*
X117116937Y-121790660D01*
X116847617Y-121703153D01*
X116749961Y-121671422D01*
X116737656Y-121666699D01*
X116648299Y-121626915D01*
X116385137Y-121509747D01*
X116373386Y-121503759D01*
X116039220Y-121310830D01*
X116028159Y-121303647D01*
X115715982Y-121076836D01*
X115705733Y-121068536D01*
X115418981Y-120810344D01*
X115409655Y-120801018D01*
X115151463Y-120514266D01*
X115143163Y-120504017D01*
X115129662Y-120485434D01*
X114916348Y-120191833D01*
X114909174Y-120180786D01*
X114716240Y-119846613D01*
X114710252Y-119834862D01*
X114607632Y-119604375D01*
X114553295Y-119482333D01*
X114548580Y-119470048D01*
X114429338Y-119103059D01*
X114425925Y-119090323D01*
X114345696Y-118712875D01*
X114343634Y-118699853D01*
X114327120Y-118542734D01*
X114303213Y-118315270D01*
X114302535Y-118303755D01*
X114301685Y-118238811D01*
X114300011Y-118110839D01*
X114300005Y-118110005D01*
X115691728Y-118110005D01*
X115710795Y-118413073D01*
X115710798Y-118413096D01*
X115735527Y-118542734D01*
X115767702Y-118711400D01*
X115861548Y-119000225D01*
X115990852Y-119275011D01*
X115990854Y-119275014D01*
X115990857Y-119275020D01*
X116153576Y-119531425D01*
X116153579Y-119531428D01*
X116347153Y-119765418D01*
X116347157Y-119765422D01*
X116568536Y-119973312D01*
X116681891Y-120055669D01*
X116814225Y-120151815D01*
X117080350Y-120298118D01*
X117285617Y-120379388D01*
X117362707Y-120409911D01*
X117362710Y-120409911D01*
X117362713Y-120409913D01*
X117656861Y-120485438D01*
X117958155Y-120523500D01*
X117958159Y-120523500D01*
X118261841Y-120523500D01*
X118261845Y-120523500D01*
X118563139Y-120485438D01*
X118857287Y-120409913D01*
X119139650Y-120298118D01*
X119405775Y-120151815D01*
X119651465Y-119973311D01*
X119872844Y-119765421D01*
X120066423Y-119531425D01*
X120229148Y-119275011D01*
X120358452Y-119000225D01*
X120452298Y-118711400D01*
X120509203Y-118413090D01*
X120519989Y-118241655D01*
X120528272Y-118110005D01*
X120528272Y-118109994D01*
X120509204Y-117806926D01*
X120509203Y-117806910D01*
X120452298Y-117508600D01*
X120358452Y-117219775D01*
X120229148Y-116944989D01*
X120181690Y-116870207D01*
X120066423Y-116688574D01*
X120066420Y-116688571D01*
X119872846Y-116454581D01*
X119872842Y-116454577D01*
X119651463Y-116246687D01*
X119419285Y-116078000D01*
X129789000Y-116078000D01*
X129789000Y-116672597D01*
X129795505Y-116733093D01*
X129846555Y-116869964D01*
X129846555Y-116869965D01*
X129934095Y-116986904D01*
X130051034Y-117074444D01*
X130187906Y-117125494D01*
X130248402Y-117131999D01*
X130248415Y-117132000D01*
X131793000Y-117132000D01*
X131793000Y-116078000D01*
X132301000Y-116078000D01*
X132301000Y-117132000D01*
X133845585Y-117132000D01*
X133845597Y-117131999D01*
X133906093Y-117125494D01*
X134042964Y-117074444D01*
X134042965Y-117074444D01*
X134159904Y-116986904D01*
X134247444Y-116869965D01*
X134247444Y-116869964D01*
X134298494Y-116733093D01*
X134304999Y-116672597D01*
X134305000Y-116672585D01*
X134305000Y-116078000D01*
X132301000Y-116078000D01*
X131793000Y-116078000D01*
X129789000Y-116078000D01*
X119419285Y-116078000D01*
X119405777Y-116068186D01*
X119364990Y-116045763D01*
X119139650Y-115921882D01*
X119058378Y-115889704D01*
X118857292Y-115810088D01*
X118857274Y-115810083D01*
X118563153Y-115734565D01*
X118563145Y-115734563D01*
X118563139Y-115734562D01*
X118563129Y-115734560D01*
X118563125Y-115734560D01*
X118261859Y-115696501D01*
X118261848Y-115696500D01*
X118261845Y-115696500D01*
X117958155Y-115696500D01*
X117958152Y-115696500D01*
X117958140Y-115696501D01*
X117656874Y-115734560D01*
X117656867Y-115734561D01*
X117656861Y-115734562D01*
X117656856Y-115734563D01*
X117656846Y-115734565D01*
X117362725Y-115810083D01*
X117362707Y-115810088D01*
X117080350Y-115921882D01*
X116814222Y-116068186D01*
X116568536Y-116246687D01*
X116347157Y-116454577D01*
X116347153Y-116454581D01*
X116153579Y-116688571D01*
X116153576Y-116688574D01*
X115990857Y-116944979D01*
X115990850Y-116944993D01*
X115861551Y-117219768D01*
X115861549Y-117219772D01*
X115767703Y-117508596D01*
X115767701Y-117508603D01*
X115710798Y-117806903D01*
X115710795Y-117806926D01*
X115691728Y-118109994D01*
X115691728Y-118110005D01*
X114300005Y-118110005D01*
X114300000Y-118109191D01*
X114300000Y-115570000D01*
X129789000Y-115570000D01*
X131793000Y-115570000D01*
X131793000Y-114516000D01*
X132301000Y-114516000D01*
X132301000Y-115570000D01*
X134305000Y-115570000D01*
X134305000Y-114975414D01*
X134304999Y-114975402D01*
X134298494Y-114914906D01*
X134247444Y-114778035D01*
X134247444Y-114778034D01*
X134159904Y-114661095D01*
X134042965Y-114573555D01*
X133906093Y-114522505D01*
X133845597Y-114516000D01*
X132301000Y-114516000D01*
X131793000Y-114516000D01*
X130248402Y-114516000D01*
X130187906Y-114522505D01*
X130051035Y-114573555D01*
X130051034Y-114573555D01*
X129934095Y-114661095D01*
X129846555Y-114778034D01*
X129846555Y-114778035D01*
X129795505Y-114914906D01*
X129789000Y-114975402D01*
X129789000Y-115570000D01*
X114300000Y-115570000D01*
X114300000Y-113157000D01*
X115476844Y-113157000D01*
X115495437Y-113381375D01*
X115550702Y-113599612D01*
X115550703Y-113599613D01*
X115550704Y-113599616D01*
X115591279Y-113692118D01*
X115641141Y-113805793D01*
X115764275Y-113994265D01*
X115764279Y-113994270D01*
X115916762Y-114159908D01*
X115971331Y-114202381D01*
X116094424Y-114298189D01*
X116292426Y-114405342D01*
X116292427Y-114405342D01*
X116292428Y-114405343D01*
X116404227Y-114443723D01*
X116505365Y-114478444D01*
X116727431Y-114515500D01*
X116727435Y-114515500D01*
X116952565Y-114515500D01*
X116952569Y-114515500D01*
X117174635Y-114478444D01*
X117387574Y-114405342D01*
X117585576Y-114298189D01*
X117763240Y-114159906D01*
X117915722Y-113994268D01*
X117967227Y-113915434D01*
X117993654Y-113874985D01*
X118047658Y-113828896D01*
X118099137Y-113817900D01*
X118302092Y-113817900D01*
X118302093Y-113817900D01*
X118429777Y-113792502D01*
X118550054Y-113742682D01*
X118658299Y-113670355D01*
X119639355Y-112689299D01*
X119711682Y-112581054D01*
X119761502Y-112460777D01*
X119786900Y-112333093D01*
X119786900Y-112202906D01*
X119786900Y-111760000D01*
X133014001Y-111760000D01*
X133014001Y-111810673D01*
X133024168Y-111910208D01*
X133077607Y-112071478D01*
X133166795Y-112216074D01*
X133166800Y-112216080D01*
X133286919Y-112336199D01*
X133286925Y-112336204D01*
X133431520Y-112425392D01*
X133592787Y-112478830D01*
X133692327Y-112488999D01*
X133705500Y-112488998D01*
X133705500Y-111760000D01*
X133014001Y-111760000D01*
X119786900Y-111760000D01*
X119786900Y-108402943D01*
X119806902Y-108334822D01*
X119823799Y-108313853D01*
X120257426Y-107880226D01*
X120319735Y-107846204D01*
X120390550Y-107851268D01*
X120447386Y-107893815D01*
X120472197Y-107960335D01*
X120471796Y-107982792D01*
X120465500Y-108041350D01*
X120465500Y-108538632D01*
X120465501Y-108538652D01*
X120472513Y-108603884D01*
X120472513Y-108630818D01*
X120466001Y-108691394D01*
X120466000Y-108691414D01*
X120466000Y-108740001D01*
X120467294Y-108741295D01*
X120531003Y-108760002D01*
X120563750Y-108790491D01*
X120610738Y-108853261D01*
X120690716Y-108913132D01*
X120733263Y-108969968D01*
X120738327Y-109040784D01*
X120704302Y-109103096D01*
X120641990Y-109137121D01*
X120615207Y-109140000D01*
X120466000Y-109140000D01*
X120466000Y-109188602D01*
X120472766Y-109251532D01*
X120472766Y-109278468D01*
X120466000Y-109341397D01*
X120466000Y-109390000D01*
X120615207Y-109390000D01*
X120683328Y-109410002D01*
X120729821Y-109463658D01*
X120739925Y-109533932D01*
X120710431Y-109598512D01*
X120690716Y-109616868D01*
X120610738Y-109676738D01*
X120563750Y-109739509D01*
X120506915Y-109782056D01*
X120466685Y-109789313D01*
X120466000Y-109789999D01*
X120466000Y-109838585D01*
X120466001Y-109838605D01*
X120472513Y-109899182D01*
X120472513Y-109926116D01*
X120465501Y-109991347D01*
X120465500Y-109991367D01*
X120465500Y-110488649D01*
X120472261Y-110551532D01*
X120472261Y-110578468D01*
X120465500Y-110641350D01*
X120465500Y-111138649D01*
X120472009Y-111199196D01*
X120472011Y-111199204D01*
X120523110Y-111336202D01*
X120523112Y-111336207D01*
X120610738Y-111453261D01*
X120727792Y-111540887D01*
X120727794Y-111540888D01*
X120727796Y-111540889D01*
X120775935Y-111558844D01*
X120864795Y-111591988D01*
X120864803Y-111591990D01*
X120925350Y-111598499D01*
X120925355Y-111598499D01*
X120925362Y-111598500D01*
X120925368Y-111598500D01*
X122522632Y-111598500D01*
X122522638Y-111598500D01*
X122522645Y-111598499D01*
X122522649Y-111598499D01*
X122583196Y-111591990D01*
X122583199Y-111591989D01*
X122583201Y-111591989D01*
X122720204Y-111540889D01*
X122807312Y-111475681D01*
X122837261Y-111453261D01*
X122924887Y-111336207D01*
X122924887Y-111336206D01*
X122924889Y-111336204D01*
X122975989Y-111199201D01*
X122979635Y-111165294D01*
X122982499Y-111138649D01*
X122982500Y-111138632D01*
X122982500Y-110641367D01*
X122982499Y-110641350D01*
X122975739Y-110578468D01*
X122975739Y-110551532D01*
X122982499Y-110488649D01*
X122982500Y-110488632D01*
X122982500Y-109991367D01*
X122982499Y-109991352D01*
X122980011Y-109968209D01*
X122975989Y-109930799D01*
X122975988Y-109930797D01*
X122975485Y-109926114D01*
X122975485Y-109899173D01*
X122981999Y-109838592D01*
X122982000Y-109838585D01*
X122982000Y-109789999D01*
X122980705Y-109788704D01*
X122916997Y-109769998D01*
X122884250Y-109739509D01*
X122837261Y-109676738D01*
X122757284Y-109616868D01*
X122714737Y-109560032D01*
X122709673Y-109489216D01*
X122743698Y-109426904D01*
X122806010Y-109392879D01*
X122832793Y-109390000D01*
X122982000Y-109390000D01*
X122982000Y-109341414D01*
X122981999Y-109341404D01*
X122975232Y-109278471D01*
X122975232Y-109251529D01*
X122981999Y-109188595D01*
X122982000Y-109188585D01*
X122982000Y-109140000D01*
X122832793Y-109140000D01*
X122764672Y-109119998D01*
X122718179Y-109066342D01*
X122708075Y-108996068D01*
X122737569Y-108931488D01*
X122757284Y-108913132D01*
X122837261Y-108853261D01*
X122884250Y-108790491D01*
X122941085Y-108747944D01*
X122981314Y-108740686D01*
X122982000Y-108740001D01*
X122982000Y-108691414D01*
X122981999Y-108691404D01*
X122975485Y-108630821D01*
X122975485Y-108603880D01*
X122975987Y-108599204D01*
X122975989Y-108599201D01*
X122982500Y-108538638D01*
X122982500Y-108041362D01*
X122982499Y-108041350D01*
X122975739Y-107978468D01*
X122975739Y-107951532D01*
X122982499Y-107888649D01*
X122982500Y-107888632D01*
X122982500Y-107391367D01*
X122982499Y-107391350D01*
X122975739Y-107328468D01*
X122975739Y-107301532D01*
X122982499Y-107238649D01*
X122982500Y-107238632D01*
X122982500Y-106741367D01*
X122982499Y-106741350D01*
X122975739Y-106678468D01*
X122975739Y-106651532D01*
X122982499Y-106588649D01*
X122982500Y-106588632D01*
X122982500Y-106091367D01*
X122982499Y-106091352D01*
X122976033Y-106031209D01*
X122975989Y-106030799D01*
X122975988Y-106030797D01*
X122975485Y-106026114D01*
X122975485Y-105999173D01*
X122981999Y-105938592D01*
X122982000Y-105938585D01*
X122982000Y-105889999D01*
X122980705Y-105888704D01*
X122916997Y-105869998D01*
X122884250Y-105839509D01*
X122837261Y-105776738D01*
X122757284Y-105716868D01*
X122714737Y-105660032D01*
X122709673Y-105589216D01*
X122743698Y-105526904D01*
X122806010Y-105492879D01*
X122832793Y-105490000D01*
X122982000Y-105490000D01*
X122982000Y-105441414D01*
X122981999Y-105441404D01*
X122975232Y-105378471D01*
X122975232Y-105351529D01*
X122981999Y-105288595D01*
X122982000Y-105288585D01*
X122982000Y-105240000D01*
X122832793Y-105240000D01*
X122764672Y-105219998D01*
X122718179Y-105166342D01*
X122708075Y-105096068D01*
X122737569Y-105031488D01*
X122757284Y-105013132D01*
X122837261Y-104953261D01*
X122874619Y-104903357D01*
X122884250Y-104890490D01*
X122941085Y-104847944D01*
X122981314Y-104840686D01*
X122982000Y-104840001D01*
X122982000Y-104791414D01*
X122981999Y-104791404D01*
X122975485Y-104730821D01*
X122975485Y-104703880D01*
X122975987Y-104699204D01*
X122975989Y-104699201D01*
X122982500Y-104638638D01*
X122982500Y-104141362D01*
X122982354Y-104140000D01*
X122975739Y-104078468D01*
X122975739Y-104051532D01*
X122982499Y-103988649D01*
X122982500Y-103988632D01*
X122982500Y-103491367D01*
X122982499Y-103491350D01*
X122975990Y-103430803D01*
X122975988Y-103430795D01*
X122939451Y-103332839D01*
X122924889Y-103293796D01*
X122924888Y-103293794D01*
X122924887Y-103293792D01*
X122837261Y-103176738D01*
X122720207Y-103089112D01*
X122720202Y-103089110D01*
X122583204Y-103038011D01*
X122583196Y-103038009D01*
X122522649Y-103031500D01*
X122522638Y-103031500D01*
X120925362Y-103031500D01*
X120925350Y-103031500D01*
X120864801Y-103038010D01*
X120775934Y-103071156D01*
X120731902Y-103079100D01*
X120321944Y-103079100D01*
X120253823Y-103059098D01*
X120232849Y-103042195D01*
X119823805Y-102633151D01*
X119789779Y-102570839D01*
X119786900Y-102544056D01*
X119786900Y-101153906D01*
X119779603Y-101117224D01*
X119779603Y-101117221D01*
X119761504Y-101026227D01*
X119761503Y-101026226D01*
X119761503Y-101026223D01*
X119711682Y-100905946D01*
X119639355Y-100797701D01*
X118785299Y-99943645D01*
X118677054Y-99871318D01*
X118556777Y-99821498D01*
X118551679Y-99820484D01*
X118429095Y-99796100D01*
X118429093Y-99796100D01*
X118324500Y-99796100D01*
X118256379Y-99776098D01*
X118209886Y-99722442D01*
X118203917Y-99695000D01*
X125597675Y-99695000D01*
X125616912Y-99865744D01*
X125673664Y-100027930D01*
X125673663Y-100027930D01*
X125684786Y-100045630D01*
X125704100Y-100112668D01*
X125704100Y-104332095D01*
X125729498Y-104459777D01*
X125729500Y-104459782D01*
X125730266Y-104461631D01*
X125779318Y-104580054D01*
X125851645Y-104688299D01*
X127366701Y-106203355D01*
X127474946Y-106275682D01*
X127595223Y-106325502D01*
X127614082Y-106329253D01*
X127676989Y-106362157D01*
X127712122Y-106423851D01*
X127715500Y-106452831D01*
X127715500Y-106588649D01*
X127722261Y-106651532D01*
X127722261Y-106678468D01*
X127715500Y-106741350D01*
X127715500Y-107238632D01*
X127715501Y-107238652D01*
X127722513Y-107303884D01*
X127722513Y-107330818D01*
X127716001Y-107391394D01*
X127716000Y-107391414D01*
X127716000Y-107440001D01*
X127717294Y-107441295D01*
X127781003Y-107460002D01*
X127813750Y-107490491D01*
X127866139Y-107560475D01*
X127864342Y-107561820D01*
X127892408Y-107613217D01*
X127887343Y-107684032D01*
X127865054Y-107718712D01*
X127866139Y-107719525D01*
X127813750Y-107789509D01*
X127756915Y-107832056D01*
X127716685Y-107839313D01*
X127716000Y-107839999D01*
X127716000Y-107888585D01*
X127716001Y-107888605D01*
X127722513Y-107949182D01*
X127722513Y-107976116D01*
X127715501Y-108041347D01*
X127715500Y-108041367D01*
X127715500Y-108538649D01*
X127722261Y-108601532D01*
X127722261Y-108628468D01*
X127715500Y-108691350D01*
X127715500Y-109188649D01*
X127722261Y-109251532D01*
X127722261Y-109278468D01*
X127715500Y-109341350D01*
X127715500Y-109838649D01*
X127722261Y-109901532D01*
X127722261Y-109928468D01*
X127715500Y-109991350D01*
X127715500Y-110488649D01*
X127722261Y-110551532D01*
X127722261Y-110578468D01*
X127715500Y-110641350D01*
X127715500Y-111138649D01*
X127722009Y-111199196D01*
X127722011Y-111199204D01*
X127773110Y-111336202D01*
X127773112Y-111336207D01*
X127860738Y-111453261D01*
X127977792Y-111540887D01*
X127977794Y-111540888D01*
X127977796Y-111540889D01*
X128025935Y-111558844D01*
X128114795Y-111591988D01*
X128114803Y-111591990D01*
X128175350Y-111598499D01*
X128175355Y-111598499D01*
X128175362Y-111598500D01*
X128175368Y-111598500D01*
X129772632Y-111598500D01*
X129772638Y-111598500D01*
X129772645Y-111598499D01*
X129772649Y-111598499D01*
X129794536Y-111596145D01*
X129833201Y-111591989D01*
X129908946Y-111563737D01*
X129922066Y-111558844D01*
X129966098Y-111550900D01*
X130729092Y-111550900D01*
X130729093Y-111550900D01*
X130856777Y-111525502D01*
X130977054Y-111475682D01*
X131085299Y-111403355D01*
X131231297Y-111257356D01*
X131231299Y-111257355D01*
X131323355Y-111165299D01*
X131395682Y-111057054D01*
X131429801Y-110974681D01*
X131474349Y-110919401D01*
X131541712Y-110896980D01*
X131546210Y-110896900D01*
X132917572Y-110896900D01*
X132985693Y-110916902D01*
X133032186Y-110970558D01*
X133042290Y-111040832D01*
X133037177Y-111062531D01*
X133024170Y-111101783D01*
X133024168Y-111101793D01*
X133014000Y-111201318D01*
X133014000Y-111252000D01*
X134060170Y-111252000D01*
X134128291Y-111272002D01*
X134149265Y-111288905D01*
X134176595Y-111316235D01*
X134210621Y-111378547D01*
X134213500Y-111405330D01*
X134213500Y-112488999D01*
X134226673Y-112488999D01*
X134326208Y-112478831D01*
X134487478Y-112425392D01*
X134632074Y-112336204D01*
X134657549Y-112310729D01*
X134719861Y-112276703D01*
X134790677Y-112281767D01*
X134835740Y-112310727D01*
X134861613Y-112336600D01*
X135006308Y-112425849D01*
X135167686Y-112479324D01*
X135267289Y-112489500D01*
X135801710Y-112489499D01*
X135901314Y-112479324D01*
X136062692Y-112425849D01*
X136184432Y-112350758D01*
X136250578Y-112332000D01*
X138416670Y-112332000D01*
X138484791Y-112352002D01*
X138505765Y-112368905D01*
X138634791Y-112497931D01*
X138668817Y-112560243D01*
X138663752Y-112631058D01*
X138648909Y-112659296D01*
X138551351Y-112798623D01*
X138453643Y-113008159D01*
X138453641Y-113008165D01*
X138393803Y-113231482D01*
X138373653Y-113461800D01*
X138393803Y-113692117D01*
X138453641Y-113915434D01*
X138453643Y-113915440D01*
X138551350Y-114124974D01*
X138685968Y-114317229D01*
X138708656Y-114384503D01*
X138691371Y-114453364D01*
X138639601Y-114501948D01*
X138582755Y-114515500D01*
X135648350Y-114515500D01*
X135587803Y-114522009D01*
X135587795Y-114522011D01*
X135450797Y-114573110D01*
X135450792Y-114573112D01*
X135333738Y-114660738D01*
X135246112Y-114777792D01*
X135246110Y-114777797D01*
X135195011Y-114914795D01*
X135195009Y-114914803D01*
X135188500Y-114975350D01*
X135188500Y-116672649D01*
X135195009Y-116733196D01*
X135195011Y-116733204D01*
X135246110Y-116870202D01*
X135246112Y-116870207D01*
X135333738Y-116987261D01*
X135450792Y-117074887D01*
X135450794Y-117074888D01*
X135450796Y-117074889D01*
X135509875Y-117096924D01*
X135587795Y-117125988D01*
X135587803Y-117125990D01*
X135648350Y-117132499D01*
X135648355Y-117132499D01*
X135648362Y-117132500D01*
X135648368Y-117132500D01*
X139245632Y-117132500D01*
X139245638Y-117132500D01*
X139245645Y-117132499D01*
X139245649Y-117132499D01*
X139306196Y-117125990D01*
X139306199Y-117125989D01*
X139306201Y-117125989D01*
X139443204Y-117074889D01*
X139443799Y-117074444D01*
X139560261Y-116987261D01*
X139647887Y-116870207D01*
X139647887Y-116870206D01*
X139647889Y-116870204D01*
X139698989Y-116733201D01*
X139705500Y-116672638D01*
X139705500Y-116626519D01*
X139725502Y-116558398D01*
X139761499Y-116521754D01*
X139845536Y-116465602D01*
X139845535Y-116465602D01*
X139845545Y-116465596D01*
X139960596Y-116350545D01*
X139960597Y-116350542D01*
X139967773Y-116343367D01*
X139967779Y-116343359D01*
X140219358Y-116091780D01*
X140219372Y-116091769D01*
X140341591Y-115969550D01*
X140341596Y-115969545D01*
X140421798Y-115849515D01*
X140431992Y-115834259D01*
X140457783Y-115771993D01*
X140494258Y-115683935D01*
X140526000Y-115524354D01*
X140526000Y-114556590D01*
X140546002Y-114488469D01*
X140562905Y-114467495D01*
X140625059Y-114405341D01*
X140716041Y-114314359D01*
X140848650Y-114124974D01*
X140946358Y-113915437D01*
X141006197Y-113692118D01*
X141026347Y-113461800D01*
X141006197Y-113231482D01*
X140946358Y-113008163D01*
X140848650Y-112798627D01*
X140848649Y-112798626D01*
X140848648Y-112798623D01*
X140716047Y-112609249D01*
X140716043Y-112609244D01*
X140716041Y-112609241D01*
X140562905Y-112456105D01*
X140528880Y-112393793D01*
X140526001Y-112367010D01*
X140526001Y-112313648D01*
X140526000Y-112313644D01*
X140494258Y-112154065D01*
X140431992Y-112003742D01*
X140425647Y-111994246D01*
X140413121Y-111975499D01*
X140413121Y-111975498D01*
X140413120Y-111975498D01*
X140341602Y-111868463D01*
X140341597Y-111868457D01*
X140341596Y-111868455D01*
X140226545Y-111753404D01*
X140226544Y-111753403D01*
X140223383Y-111750242D01*
X140223368Y-111750228D01*
X139457006Y-110983866D01*
X139456997Y-110983856D01*
X139398312Y-110925171D01*
X139337545Y-110864404D01*
X139202258Y-110774008D01*
X139051935Y-110711742D01*
X139003792Y-110702166D01*
X138892359Y-110680000D01*
X138892354Y-110680000D01*
X136250578Y-110680000D01*
X136184432Y-110661241D01*
X136062692Y-110586151D01*
X135901314Y-110532676D01*
X135901311Y-110532675D01*
X135901309Y-110532675D01*
X135801719Y-110522500D01*
X135801711Y-110522500D01*
X135771330Y-110522500D01*
X135703209Y-110502498D01*
X135682235Y-110485595D01*
X135063905Y-109867265D01*
X135029879Y-109804953D01*
X135027000Y-109778170D01*
X135027000Y-106409850D01*
X135047002Y-106341729D01*
X135100658Y-106295236D01*
X135170932Y-106285132D01*
X135220036Y-106303163D01*
X135303066Y-106355334D01*
X135303067Y-106355334D01*
X135303070Y-106355336D01*
X135465254Y-106412087D01*
X135465253Y-106412087D01*
X135482543Y-106414034D01*
X135636000Y-106431325D01*
X135806746Y-106412087D01*
X135968930Y-106355336D01*
X136114419Y-106263919D01*
X136235919Y-106142419D01*
X136327336Y-105996930D01*
X136384087Y-105834746D01*
X136403325Y-105664000D01*
X136384087Y-105493254D01*
X136327336Y-105331070D01*
X136322579Y-105323499D01*
X136316212Y-105313365D01*
X136296900Y-105246331D01*
X136296900Y-105185730D01*
X136298142Y-105181500D01*
X144432001Y-105181500D01*
X144432001Y-105194673D01*
X144442168Y-105294208D01*
X144495607Y-105455478D01*
X144584795Y-105600074D01*
X144584800Y-105600080D01*
X144704919Y-105720199D01*
X144704925Y-105720204D01*
X144849520Y-105809392D01*
X145010789Y-105862830D01*
X145010793Y-105862831D01*
X145110318Y-105872999D01*
X145161000Y-105872998D01*
X145161000Y-105181500D01*
X145669000Y-105181500D01*
X145669000Y-105872999D01*
X145719673Y-105872999D01*
X145819208Y-105862831D01*
X145980478Y-105809392D01*
X146110853Y-105728976D01*
X146179332Y-105710239D01*
X146243147Y-105728976D01*
X146373520Y-105809392D01*
X146534789Y-105862830D01*
X146534793Y-105862831D01*
X146634318Y-105872999D01*
X146685000Y-105872998D01*
X146685000Y-105181500D01*
X147193000Y-105181500D01*
X147193000Y-105872999D01*
X147243673Y-105872999D01*
X147343208Y-105862831D01*
X147504478Y-105809392D01*
X147649074Y-105720204D01*
X147649080Y-105720199D01*
X147769199Y-105600080D01*
X147769204Y-105600074D01*
X147858392Y-105455479D01*
X147911830Y-105294210D01*
X147911831Y-105294206D01*
X147921999Y-105194681D01*
X147922000Y-105194681D01*
X147922000Y-105181500D01*
X147193000Y-105181500D01*
X146685000Y-105181500D01*
X145669000Y-105181500D01*
X145161000Y-105181500D01*
X144432001Y-105181500D01*
X136298142Y-105181500D01*
X136316902Y-105117609D01*
X136341208Y-105090800D01*
X136341198Y-105090790D01*
X136341421Y-105090566D01*
X136344755Y-105086890D01*
X136346379Y-105085604D01*
X136346387Y-105085600D01*
X136466600Y-104965387D01*
X136555849Y-104820692D01*
X136609324Y-104659314D01*
X136619500Y-104559711D01*
X136619499Y-104025290D01*
X136609324Y-103925686D01*
X136555849Y-103764308D01*
X136466600Y-103619613D01*
X136440727Y-103593740D01*
X136406703Y-103531431D01*
X136411767Y-103460615D01*
X136440729Y-103415549D01*
X136466204Y-103390074D01*
X136555392Y-103245479D01*
X136608830Y-103084210D01*
X136608831Y-103084206D01*
X136618999Y-102984681D01*
X136619000Y-102984681D01*
X136619000Y-102971500D01*
X135508000Y-102971500D01*
X135439879Y-102951498D01*
X135393386Y-102897842D01*
X135382000Y-102845500D01*
X135382000Y-102589500D01*
X135402002Y-102521379D01*
X135455658Y-102474886D01*
X135508000Y-102463500D01*
X136619000Y-102463500D01*
X136628725Y-102453774D01*
X136639001Y-102418779D01*
X136692657Y-102372286D01*
X136744999Y-102360900D01*
X144478899Y-102360900D01*
X144547020Y-102380902D01*
X144586139Y-102420752D01*
X144596398Y-102437384D01*
X144596400Y-102437387D01*
X144622417Y-102463404D01*
X144656442Y-102525714D01*
X144651378Y-102596530D01*
X144622418Y-102641593D01*
X144584405Y-102679606D01*
X144584400Y-102679612D01*
X144495151Y-102824307D01*
X144479888Y-102870368D01*
X144442012Y-102984674D01*
X144441675Y-102985690D01*
X144431500Y-103085280D01*
X144431500Y-103619710D01*
X144440692Y-103709682D01*
X144441676Y-103719314D01*
X144495151Y-103880692D01*
X144584400Y-104025387D01*
X144610271Y-104051258D01*
X144644296Y-104113568D01*
X144639232Y-104184384D01*
X144610273Y-104229447D01*
X144584795Y-104254925D01*
X144495607Y-104399520D01*
X144442169Y-104560789D01*
X144442168Y-104560793D01*
X144432000Y-104660318D01*
X144432000Y-104673500D01*
X147921999Y-104673500D01*
X147921999Y-104660326D01*
X147911831Y-104560791D01*
X147858392Y-104399521D01*
X147769204Y-104254925D01*
X147769199Y-104254919D01*
X147743728Y-104229448D01*
X147709702Y-104167136D01*
X147714767Y-104096321D01*
X147743726Y-104051260D01*
X147769600Y-104025387D01*
X147858849Y-103880692D01*
X147912324Y-103719314D01*
X147922500Y-103619711D01*
X147922499Y-103085290D01*
X147922276Y-103083111D01*
X147912324Y-102985687D01*
X147911991Y-102984681D01*
X147897811Y-102941891D01*
X147895371Y-102870940D01*
X147931678Y-102809929D01*
X147995207Y-102778233D01*
X148065786Y-102785914D01*
X148106508Y-102813162D01*
X148834244Y-103540897D01*
X148834255Y-103540909D01*
X148838644Y-103545298D01*
X148838645Y-103545299D01*
X148930701Y-103637355D01*
X149038946Y-103709682D01*
X149145083Y-103753645D01*
X149159223Y-103759502D01*
X149286906Y-103784900D01*
X154116092Y-103784900D01*
X154116093Y-103784900D01*
X154243777Y-103759502D01*
X154364054Y-103709682D01*
X154472299Y-103637355D01*
X155318031Y-102791621D01*
X155380342Y-102757598D01*
X155451157Y-102762662D01*
X155507993Y-102805209D01*
X155514615Y-102816114D01*
X155514898Y-102815937D01*
X155529786Y-102839630D01*
X155549100Y-102906668D01*
X155549100Y-103433054D01*
X155529098Y-103501175D01*
X155512195Y-103522150D01*
X154765251Y-104269093D01*
X154717773Y-104298926D01*
X154607067Y-104337665D01*
X154461582Y-104429079D01*
X154461580Y-104429080D01*
X154340080Y-104550580D01*
X154340079Y-104550582D01*
X154248665Y-104696066D01*
X154248664Y-104696069D01*
X154191912Y-104858255D01*
X154172675Y-105029000D01*
X154191912Y-105199744D01*
X154248664Y-105361930D01*
X154248663Y-105361930D01*
X154259786Y-105379630D01*
X154279100Y-105446668D01*
X154279100Y-106904269D01*
X154259098Y-106972390D01*
X154234791Y-106999199D01*
X154234802Y-106999210D01*
X154234592Y-106999419D01*
X154231253Y-107003103D01*
X154229609Y-107004402D01*
X154109405Y-107124606D01*
X154109400Y-107124612D01*
X154020151Y-107269307D01*
X154009473Y-107301532D01*
X153979690Y-107391414D01*
X153966675Y-107430690D01*
X153956500Y-107530280D01*
X153956500Y-108064710D01*
X153966675Y-108164309D01*
X153966676Y-108164314D01*
X154020151Y-108325692D01*
X154109400Y-108470387D01*
X154134917Y-108495904D01*
X154168942Y-108558214D01*
X154163878Y-108629030D01*
X154134992Y-108674020D01*
X154134392Y-108674621D01*
X154072108Y-108708698D01*
X154045222Y-108711600D01*
X154001251Y-108711600D01*
X153934215Y-108692287D01*
X153875932Y-108655665D01*
X153875929Y-108655663D01*
X153775491Y-108620518D01*
X153713746Y-108598913D01*
X153713744Y-108598912D01*
X153713746Y-108598912D01*
X153543000Y-108579675D01*
X153372255Y-108598912D01*
X153210069Y-108655664D01*
X153210066Y-108655665D01*
X153064582Y-108747079D01*
X153064580Y-108747080D01*
X152943080Y-108868580D01*
X152943079Y-108868582D01*
X152851665Y-109014066D01*
X152851664Y-109014069D01*
X152794912Y-109176255D01*
X152775675Y-109347000D01*
X152794912Y-109517744D01*
X152851664Y-109679930D01*
X152851665Y-109679933D01*
X152943079Y-109825417D01*
X152943080Y-109825419D01*
X153064580Y-109946919D01*
X153064582Y-109946920D01*
X153210066Y-110038334D01*
X153210067Y-110038334D01*
X153210070Y-110038336D01*
X153372254Y-110095087D01*
X153372253Y-110095087D01*
X153389543Y-110097034D01*
X153543000Y-110114325D01*
X153713746Y-110095087D01*
X153841665Y-110050325D01*
X153869829Y-110040471D01*
X153911444Y-110033400D01*
X154045222Y-110033400D01*
X154113343Y-110053402D01*
X154134317Y-110070305D01*
X154229606Y-110165594D01*
X154229612Y-110165599D01*
X154229613Y-110165600D01*
X154374308Y-110254849D01*
X154535686Y-110308324D01*
X154635289Y-110318500D01*
X155244710Y-110318499D01*
X155344314Y-110308324D01*
X155505692Y-110254849D01*
X155635854Y-110174563D01*
X155704332Y-110155827D01*
X155768144Y-110174563D01*
X155898308Y-110254849D01*
X156059686Y-110308324D01*
X156159289Y-110318500D01*
X156768710Y-110318499D01*
X156868314Y-110308324D01*
X157029692Y-110254849D01*
X157174387Y-110165600D01*
X157294600Y-110045387D01*
X157383849Y-109900692D01*
X157383850Y-109900688D01*
X157383859Y-109900674D01*
X157436645Y-109853196D01*
X157506720Y-109841793D01*
X157571835Y-109870085D01*
X157611318Y-109929090D01*
X157617100Y-109966821D01*
X157617100Y-115311900D01*
X157597098Y-115380021D01*
X157580195Y-115400995D01*
X156788195Y-116192995D01*
X156725883Y-116227021D01*
X156699100Y-116229900D01*
X153046104Y-116229900D01*
X152918422Y-116255298D01*
X152918417Y-116255300D01*
X152798145Y-116305118D01*
X152689905Y-116377442D01*
X152689898Y-116377447D01*
X151632647Y-117434698D01*
X151632642Y-117434705D01*
X151560318Y-117542945D01*
X151510500Y-117663217D01*
X151510498Y-117663222D01*
X151485100Y-117790904D01*
X151485100Y-117895500D01*
X151465098Y-117963621D01*
X151411442Y-118010114D01*
X151359100Y-118021500D01*
X151247350Y-118021500D01*
X151186803Y-118028009D01*
X151186795Y-118028011D01*
X151049797Y-118079110D01*
X151049792Y-118079112D01*
X150932738Y-118166738D01*
X150845112Y-118283792D01*
X150845110Y-118283797D01*
X150794011Y-118420795D01*
X150794009Y-118420803D01*
X150787500Y-118481350D01*
X150787500Y-120278649D01*
X150794009Y-120339196D01*
X150794011Y-120339204D01*
X150845110Y-120476202D01*
X150845112Y-120476207D01*
X150932738Y-120593261D01*
X151049792Y-120680887D01*
X151049794Y-120680888D01*
X151049796Y-120680889D01*
X151104900Y-120701442D01*
X151186795Y-120731988D01*
X151186803Y-120731990D01*
X151247350Y-120738499D01*
X151247355Y-120738499D01*
X151247362Y-120738500D01*
X151247368Y-120738500D01*
X153044632Y-120738500D01*
X153044638Y-120738500D01*
X153044645Y-120738499D01*
X153044649Y-120738499D01*
X153105196Y-120731990D01*
X153105199Y-120731989D01*
X153105201Y-120731989D01*
X153242204Y-120680889D01*
X153312399Y-120628342D01*
X153359261Y-120593261D01*
X153446886Y-120476208D01*
X153446885Y-120476208D01*
X153446889Y-120476204D01*
X153490999Y-120357939D01*
X153533545Y-120301107D01*
X153600066Y-120276296D01*
X153669440Y-120291388D01*
X153701753Y-120316635D01*
X153722529Y-120339204D01*
X153762762Y-120382908D01*
X153797458Y-120409913D01*
X153940424Y-120521189D01*
X154138426Y-120628342D01*
X154138427Y-120628342D01*
X154138428Y-120628343D01*
X154250227Y-120666723D01*
X154351365Y-120701444D01*
X154573431Y-120738500D01*
X154573435Y-120738500D01*
X154798565Y-120738500D01*
X154798569Y-120738500D01*
X155020635Y-120701444D01*
X155233574Y-120628342D01*
X155431576Y-120521189D01*
X155609240Y-120382906D01*
X155761722Y-120217268D01*
X155850518Y-120081354D01*
X155904520Y-120035268D01*
X155974868Y-120025692D01*
X156039225Y-120055669D01*
X156061480Y-120081353D01*
X156067707Y-120090883D01*
X156150275Y-120217265D01*
X156150279Y-120217270D01*
X156302762Y-120382908D01*
X156337458Y-120409913D01*
X156480424Y-120521189D01*
X156678426Y-120628342D01*
X156678427Y-120628342D01*
X156678428Y-120628343D01*
X156790227Y-120666723D01*
X156891365Y-120701444D01*
X157113431Y-120738500D01*
X157113435Y-120738500D01*
X157338565Y-120738500D01*
X157338569Y-120738500D01*
X157560635Y-120701444D01*
X157773574Y-120628342D01*
X157971576Y-120521189D01*
X158149240Y-120382906D01*
X158301722Y-120217268D01*
X158390518Y-120081354D01*
X158444520Y-120035268D01*
X158514868Y-120025692D01*
X158579225Y-120055669D01*
X158601480Y-120081353D01*
X158607707Y-120090883D01*
X158690275Y-120217265D01*
X158690279Y-120217270D01*
X158842762Y-120382908D01*
X158877458Y-120409913D01*
X159020424Y-120521189D01*
X159218426Y-120628342D01*
X159218427Y-120628342D01*
X159218428Y-120628343D01*
X159330227Y-120666723D01*
X159431365Y-120701444D01*
X159653431Y-120738500D01*
X159653435Y-120738500D01*
X159878565Y-120738500D01*
X159878569Y-120738500D01*
X160100635Y-120701444D01*
X160313574Y-120628342D01*
X160511576Y-120521189D01*
X160689240Y-120382906D01*
X160841722Y-120217268D01*
X160964860Y-120028791D01*
X161055296Y-119822616D01*
X161110564Y-119604368D01*
X161129156Y-119380003D01*
X162824659Y-119380003D01*
X162843974Y-119576124D01*
X162843974Y-119576126D01*
X162901186Y-119764728D01*
X162994090Y-119938538D01*
X163119117Y-120090883D01*
X163271462Y-120215910D01*
X163445273Y-120308814D01*
X163633868Y-120366024D01*
X163633872Y-120366024D01*
X163633874Y-120366025D01*
X163829997Y-120385341D01*
X163830000Y-120385341D01*
X163830003Y-120385341D01*
X164026124Y-120366025D01*
X164026126Y-120366025D01*
X164026127Y-120366024D01*
X164026132Y-120366024D01*
X164214727Y-120308814D01*
X164388538Y-120215910D01*
X164540883Y-120090883D01*
X164665910Y-119938538D01*
X164758814Y-119764727D01*
X164816024Y-119576132D01*
X164835341Y-119380000D01*
X164825000Y-119275006D01*
X164816025Y-119183875D01*
X164816025Y-119183873D01*
X164816024Y-119183870D01*
X164816024Y-119183868D01*
X164758814Y-118995273D01*
X164665910Y-118821462D01*
X164540883Y-118669117D01*
X164388538Y-118544090D01*
X164385992Y-118542729D01*
X164214728Y-118451186D01*
X164026125Y-118393974D01*
X163830003Y-118374659D01*
X163829997Y-118374659D01*
X163633875Y-118393974D01*
X163633873Y-118393974D01*
X163445271Y-118451186D01*
X163271461Y-118544090D01*
X163119117Y-118669117D01*
X162994090Y-118821461D01*
X162901186Y-118995271D01*
X162843974Y-119183873D01*
X162843974Y-119183875D01*
X162824659Y-119379996D01*
X162824659Y-119380003D01*
X161129156Y-119380003D01*
X161129156Y-119380000D01*
X161110564Y-119155632D01*
X161110562Y-119155624D01*
X161055297Y-118937387D01*
X161055296Y-118937386D01*
X161055296Y-118937384D01*
X160964860Y-118731209D01*
X160947500Y-118704637D01*
X160841724Y-118542734D01*
X160841720Y-118542729D01*
X160689237Y-118377091D01*
X160569367Y-118283792D01*
X160511576Y-118238811D01*
X160504928Y-118235213D01*
X160454539Y-118185200D01*
X160438900Y-118124401D01*
X160438900Y-118110005D01*
X166491728Y-118110005D01*
X166510795Y-118413073D01*
X166510798Y-118413096D01*
X166535527Y-118542734D01*
X166567702Y-118711400D01*
X166661548Y-119000225D01*
X166790852Y-119275011D01*
X166790854Y-119275014D01*
X166790857Y-119275020D01*
X166953576Y-119531425D01*
X166953579Y-119531428D01*
X167147153Y-119765418D01*
X167147157Y-119765422D01*
X167368536Y-119973312D01*
X167481891Y-120055669D01*
X167614225Y-120151815D01*
X167880350Y-120298118D01*
X168085617Y-120379388D01*
X168162707Y-120409911D01*
X168162710Y-120409911D01*
X168162713Y-120409913D01*
X168456861Y-120485438D01*
X168758155Y-120523500D01*
X168758159Y-120523500D01*
X169061841Y-120523500D01*
X169061845Y-120523500D01*
X169363139Y-120485438D01*
X169657287Y-120409913D01*
X169939650Y-120298118D01*
X170205775Y-120151815D01*
X170451465Y-119973311D01*
X170672844Y-119765421D01*
X170866423Y-119531425D01*
X171029148Y-119275011D01*
X171158452Y-119000225D01*
X171252298Y-118711400D01*
X171309203Y-118413090D01*
X171319989Y-118241655D01*
X171328272Y-118110005D01*
X171328272Y-118109994D01*
X171309204Y-117806926D01*
X171309203Y-117806910D01*
X171252298Y-117508600D01*
X171158452Y-117219775D01*
X171029148Y-116944989D01*
X170981690Y-116870207D01*
X170866423Y-116688574D01*
X170866420Y-116688571D01*
X170672846Y-116454581D01*
X170672842Y-116454577D01*
X170451463Y-116246687D01*
X170205777Y-116068186D01*
X170164990Y-116045763D01*
X169939650Y-115921882D01*
X169858378Y-115889704D01*
X169657292Y-115810088D01*
X169657274Y-115810083D01*
X169363153Y-115734565D01*
X169363145Y-115734563D01*
X169363139Y-115734562D01*
X169363129Y-115734560D01*
X169363125Y-115734560D01*
X169061859Y-115696501D01*
X169061848Y-115696500D01*
X169061845Y-115696500D01*
X168758155Y-115696500D01*
X168758152Y-115696500D01*
X168758140Y-115696501D01*
X168456874Y-115734560D01*
X168456867Y-115734561D01*
X168456861Y-115734562D01*
X168456856Y-115734563D01*
X168456846Y-115734565D01*
X168162725Y-115810083D01*
X168162707Y-115810088D01*
X167880350Y-115921882D01*
X167614222Y-116068186D01*
X167368536Y-116246687D01*
X167147157Y-116454577D01*
X167147153Y-116454581D01*
X166953579Y-116688571D01*
X166953576Y-116688574D01*
X166790857Y-116944979D01*
X166790850Y-116944993D01*
X166661551Y-117219768D01*
X166661549Y-117219772D01*
X166567703Y-117508596D01*
X166567701Y-117508603D01*
X166510798Y-117806903D01*
X166510795Y-117806926D01*
X166491728Y-118109994D01*
X166491728Y-118110005D01*
X160438900Y-118110005D01*
X160438900Y-110824998D01*
X160458902Y-110756877D01*
X160512558Y-110710384D01*
X160550332Y-110702166D01*
X160553500Y-110698998D01*
X160553500Y-109625500D01*
X160573502Y-109557379D01*
X160627158Y-109510886D01*
X160679500Y-109499500D01*
X160935500Y-109499500D01*
X161003621Y-109519502D01*
X161050114Y-109573158D01*
X161061500Y-109625500D01*
X161061500Y-110698999D01*
X161112173Y-110698999D01*
X161211708Y-110688831D01*
X161372979Y-110635392D01*
X161478452Y-110570335D01*
X161546931Y-110551597D01*
X161614670Y-110572856D01*
X161660163Y-110627362D01*
X161670600Y-110677575D01*
X161670600Y-110793748D01*
X161651287Y-110860784D01*
X161614665Y-110919067D01*
X161614664Y-110919069D01*
X161557912Y-111081255D01*
X161538675Y-111252000D01*
X161557912Y-111422744D01*
X161614664Y-111584930D01*
X161614665Y-111584933D01*
X161706079Y-111730417D01*
X161706080Y-111730419D01*
X161827580Y-111851919D01*
X161827582Y-111851920D01*
X161973066Y-111943334D01*
X161973067Y-111943334D01*
X161973070Y-111943336D01*
X162135254Y-112000087D01*
X162135253Y-112000087D01*
X162152543Y-112002034D01*
X162306000Y-112019325D01*
X162476746Y-112000087D01*
X162638930Y-111943336D01*
X162784419Y-111851919D01*
X162905919Y-111730419D01*
X162997336Y-111584930D01*
X163054087Y-111422746D01*
X163073325Y-111252000D01*
X163054087Y-111081254D01*
X162999471Y-110925171D01*
X162992400Y-110883556D01*
X162992400Y-110646730D01*
X163012402Y-110578609D01*
X163036708Y-110551800D01*
X163036698Y-110551790D01*
X163036921Y-110551566D01*
X163040255Y-110547890D01*
X163041879Y-110546604D01*
X163041887Y-110546600D01*
X163162100Y-110426387D01*
X163251349Y-110281692D01*
X163304824Y-110120314D01*
X163315000Y-110020711D01*
X163314999Y-109486290D01*
X163314287Y-109479325D01*
X163308932Y-109426904D01*
X163304824Y-109386686D01*
X163251349Y-109225308D01*
X163162100Y-109080613D01*
X163136581Y-109055094D01*
X163102557Y-108992785D01*
X163107621Y-108921969D01*
X163136581Y-108876905D01*
X163162100Y-108851387D01*
X163251349Y-108706692D01*
X163304824Y-108545314D01*
X163315000Y-108445711D01*
X163314999Y-107911290D01*
X163304824Y-107811686D01*
X163251349Y-107650308D01*
X163162100Y-107505613D01*
X163162098Y-107505611D01*
X163161363Y-107504419D01*
X163142626Y-107435940D01*
X163161361Y-107372128D01*
X163239349Y-107245692D01*
X163292824Y-107084314D01*
X163303000Y-106984711D01*
X163302999Y-106375290D01*
X163292824Y-106275686D01*
X163239349Y-106114308D01*
X163150100Y-105969613D01*
X163150099Y-105969612D01*
X163150094Y-105969606D01*
X163029893Y-105849405D01*
X163029887Y-105849400D01*
X162885192Y-105760151D01*
X162867589Y-105754318D01*
X162723814Y-105706676D01*
X162723811Y-105706675D01*
X162723809Y-105706675D01*
X162624219Y-105696500D01*
X162089789Y-105696500D01*
X161990190Y-105706675D01*
X161990187Y-105706675D01*
X161990186Y-105706676D01*
X161949376Y-105720199D01*
X161828807Y-105760151D01*
X161684112Y-105849400D01*
X161684106Y-105849405D01*
X161658595Y-105874917D01*
X161596283Y-105908943D01*
X161525468Y-105903878D01*
X161480405Y-105874917D01*
X161479805Y-105874317D01*
X161445779Y-105812005D01*
X161442900Y-105785222D01*
X161442900Y-105562500D01*
X163736001Y-105562500D01*
X163736001Y-105575673D01*
X163746168Y-105675208D01*
X163799607Y-105836478D01*
X163888795Y-105981074D01*
X163888800Y-105981080D01*
X164008919Y-106101199D01*
X164008925Y-106101204D01*
X164153520Y-106190392D01*
X164314789Y-106243830D01*
X164314793Y-106243831D01*
X164414318Y-106253999D01*
X164465000Y-106253998D01*
X164465000Y-105562500D01*
X164973000Y-105562500D01*
X164973000Y-106253999D01*
X165023673Y-106253999D01*
X165123208Y-106243831D01*
X165284478Y-106190392D01*
X165429074Y-106101204D01*
X165429080Y-106101199D01*
X165549199Y-105981080D01*
X165549204Y-105981074D01*
X165638392Y-105836479D01*
X165691830Y-105675210D01*
X165691831Y-105675206D01*
X165701999Y-105575681D01*
X165702000Y-105575681D01*
X165702000Y-105562500D01*
X164973000Y-105562500D01*
X164465000Y-105562500D01*
X163736001Y-105562500D01*
X161442900Y-105562500D01*
X161442900Y-104582967D01*
X161462902Y-104514846D01*
X161516558Y-104468353D01*
X161585345Y-104458045D01*
X161664756Y-104468500D01*
X161664763Y-104468500D01*
X161891237Y-104468500D01*
X161891244Y-104468500D01*
X162005324Y-104453481D01*
X162005327Y-104453479D01*
X162011553Y-104452660D01*
X162044447Y-104452660D01*
X162050672Y-104453479D01*
X162050676Y-104453481D01*
X162164756Y-104468500D01*
X162164763Y-104468500D01*
X162391237Y-104468500D01*
X162391244Y-104468500D01*
X162505324Y-104453481D01*
X162505326Y-104453479D01*
X162513468Y-104452408D01*
X162546361Y-104452408D01*
X162628000Y-104463155D01*
X162631342Y-104460225D01*
X162648002Y-104403486D01*
X162677296Y-104371645D01*
X162701296Y-104353229D01*
X162767516Y-104327628D01*
X162837065Y-104341892D01*
X162854704Y-104353229D01*
X162878704Y-104371645D01*
X162920571Y-104428983D01*
X162926261Y-104461631D01*
X162927999Y-104463155D01*
X163009638Y-104452408D01*
X163042531Y-104452408D01*
X163050673Y-104453479D01*
X163050676Y-104453481D01*
X163164756Y-104468500D01*
X163164763Y-104468500D01*
X163391237Y-104468500D01*
X163391244Y-104468500D01*
X163505324Y-104453481D01*
X163647268Y-104394686D01*
X163695344Y-104357795D01*
X163761561Y-104332196D01*
X163831110Y-104346460D01*
X163879286Y-104391611D01*
X163888400Y-104406387D01*
X163914271Y-104432258D01*
X163948296Y-104494568D01*
X163943232Y-104565384D01*
X163914273Y-104610447D01*
X163888795Y-104635925D01*
X163799607Y-104780520D01*
X163746169Y-104941789D01*
X163746168Y-104941793D01*
X163736000Y-105041318D01*
X163736000Y-105054500D01*
X165701999Y-105054500D01*
X165701999Y-105041326D01*
X165691831Y-104941791D01*
X165638392Y-104780521D01*
X165560357Y-104654007D01*
X165541620Y-104585528D01*
X165562879Y-104517789D01*
X165617386Y-104472297D01*
X165687835Y-104463496D01*
X165709203Y-104468928D01*
X165818254Y-104507087D01*
X165989000Y-104526325D01*
X166159746Y-104507087D01*
X166159757Y-104507083D01*
X166164649Y-104505967D01*
X166235514Y-104510302D01*
X166292785Y-104552261D01*
X166318280Y-104618522D01*
X166318700Y-104628805D01*
X166318700Y-108243695D01*
X166344098Y-108371377D01*
X166344100Y-108371382D01*
X166348800Y-108382729D01*
X166393918Y-108491654D01*
X166466245Y-108599899D01*
X167599701Y-109733355D01*
X167707946Y-109805682D01*
X167828223Y-109855502D01*
X167955907Y-109880900D01*
X168086093Y-109880900D01*
X168920863Y-109880900D01*
X168988984Y-109900902D01*
X169026346Y-109937985D01*
X169104275Y-110057264D01*
X169104279Y-110057270D01*
X169256762Y-110222908D01*
X169297800Y-110254849D01*
X169434424Y-110361189D01*
X169632426Y-110468342D01*
X169632427Y-110468342D01*
X169632428Y-110468343D01*
X169691546Y-110488638D01*
X169845365Y-110541444D01*
X170067431Y-110578500D01*
X170067435Y-110578500D01*
X170292565Y-110578500D01*
X170292569Y-110578500D01*
X170514635Y-110541444D01*
X170727574Y-110468342D01*
X170925576Y-110361189D01*
X171103240Y-110222906D01*
X171255722Y-110057268D01*
X171378860Y-109868791D01*
X171469296Y-109662616D01*
X171524564Y-109444368D01*
X171543156Y-109220000D01*
X171524564Y-108995632D01*
X171486248Y-108844325D01*
X171469297Y-108777387D01*
X171469296Y-108777386D01*
X171469296Y-108777384D01*
X171378860Y-108571209D01*
X171359292Y-108541258D01*
X171255724Y-108382734D01*
X171255720Y-108382729D01*
X171103237Y-108217091D01*
X171010137Y-108144628D01*
X170925576Y-108078811D01*
X170892319Y-108060813D01*
X170841929Y-108010802D01*
X170826576Y-107941485D01*
X170851136Y-107874872D01*
X170892320Y-107839186D01*
X170905495Y-107832056D01*
X170925576Y-107821189D01*
X171103240Y-107682906D01*
X171255722Y-107517268D01*
X171378860Y-107328791D01*
X171469296Y-107122616D01*
X171524564Y-106904368D01*
X171543156Y-106680000D01*
X171524564Y-106455632D01*
X171483946Y-106295236D01*
X171469297Y-106237387D01*
X171469296Y-106237386D01*
X171469296Y-106237384D01*
X171378860Y-106031209D01*
X171356466Y-105996933D01*
X171255724Y-105842734D01*
X171255720Y-105842729D01*
X171128467Y-105704498D01*
X171103240Y-105677094D01*
X171103239Y-105677093D01*
X171103237Y-105677091D01*
X171010552Y-105604951D01*
X170925576Y-105538811D01*
X170892319Y-105520813D01*
X170841929Y-105470802D01*
X170826576Y-105401485D01*
X170851136Y-105334872D01*
X170892320Y-105299186D01*
X170925576Y-105281189D01*
X171103240Y-105142906D01*
X171255722Y-104977268D01*
X171378860Y-104788791D01*
X171469296Y-104582616D01*
X171524564Y-104364368D01*
X171543156Y-104140000D01*
X171524564Y-103915632D01*
X171503959Y-103834265D01*
X171469297Y-103697387D01*
X171469296Y-103697386D01*
X171469296Y-103697384D01*
X171378860Y-103491209D01*
X171345150Y-103439612D01*
X171255724Y-103302734D01*
X171255719Y-103302729D01*
X171247496Y-103293797D01*
X171112524Y-103147179D01*
X171081103Y-103083514D01*
X171089090Y-103012968D01*
X171133948Y-102957939D01*
X171161183Y-102943789D01*
X171276204Y-102900889D01*
X171280275Y-102897842D01*
X171393261Y-102813261D01*
X171480887Y-102696207D01*
X171480887Y-102696206D01*
X171480889Y-102696204D01*
X171531989Y-102559201D01*
X171533618Y-102544056D01*
X171538499Y-102498649D01*
X171538500Y-102498632D01*
X171538500Y-100701367D01*
X171538499Y-100701350D01*
X171531990Y-100640803D01*
X171531988Y-100640795D01*
X171495718Y-100543553D01*
X171480889Y-100503796D01*
X171480888Y-100503794D01*
X171480887Y-100503792D01*
X171393261Y-100386738D01*
X171276207Y-100299112D01*
X171276202Y-100299110D01*
X171139204Y-100248011D01*
X171139196Y-100248009D01*
X171078649Y-100241500D01*
X171078638Y-100241500D01*
X169281362Y-100241500D01*
X169281350Y-100241500D01*
X169220803Y-100248009D01*
X169220795Y-100248011D01*
X169083797Y-100299110D01*
X169083792Y-100299112D01*
X168966738Y-100386738D01*
X168879112Y-100503792D01*
X168879110Y-100503797D01*
X168828011Y-100640795D01*
X168828009Y-100640803D01*
X168821500Y-100701350D01*
X168821500Y-100813100D01*
X168801498Y-100881221D01*
X168747842Y-100927714D01*
X168695500Y-100939100D01*
X168346944Y-100939100D01*
X168278823Y-100919098D01*
X168257849Y-100902195D01*
X167832533Y-100476879D01*
X167798507Y-100414567D01*
X167803572Y-100343752D01*
X167820147Y-100314473D01*
X167820013Y-100314389D01*
X167821855Y-100311456D01*
X167823124Y-100309216D01*
X167823772Y-100308401D01*
X167823777Y-100308397D01*
X167915194Y-100162908D01*
X167971945Y-100000724D01*
X167991183Y-99829978D01*
X167971945Y-99659232D01*
X167915194Y-99497048D01*
X167911926Y-99491848D01*
X167892617Y-99423529D01*
X167913310Y-99355614D01*
X167929511Y-99335718D01*
X168508123Y-98757107D01*
X168508128Y-98757103D01*
X168518497Y-98746733D01*
X168518499Y-98746733D01*
X168610555Y-98654677D01*
X168682882Y-98546432D01*
X168732702Y-98426155D01*
X168758100Y-98298471D01*
X168758100Y-97316900D01*
X168778102Y-97248779D01*
X168831758Y-97202286D01*
X168884100Y-97190900D01*
X168920863Y-97190900D01*
X168988984Y-97210902D01*
X169026346Y-97247985D01*
X169104275Y-97367264D01*
X169104279Y-97367270D01*
X169256762Y-97532908D01*
X169262436Y-97537324D01*
X169434424Y-97671189D01*
X169632426Y-97778342D01*
X169632427Y-97778342D01*
X169632428Y-97778343D01*
X169744227Y-97816723D01*
X169845365Y-97851444D01*
X170067431Y-97888500D01*
X170067435Y-97888500D01*
X170292565Y-97888500D01*
X170292569Y-97888500D01*
X170514635Y-97851444D01*
X170727574Y-97778342D01*
X170925576Y-97671189D01*
X171103240Y-97532906D01*
X171255722Y-97367268D01*
X171378860Y-97178791D01*
X171469296Y-96972616D01*
X171524564Y-96754368D01*
X171543156Y-96530000D01*
X171524564Y-96305632D01*
X171486390Y-96154886D01*
X171469297Y-96087387D01*
X171469296Y-96087386D01*
X171469296Y-96087384D01*
X171378860Y-95881209D01*
X171366030Y-95861571D01*
X171255724Y-95692734D01*
X171255720Y-95692729D01*
X171135444Y-95562077D01*
X171103240Y-95527094D01*
X171103239Y-95527093D01*
X171103237Y-95527091D01*
X171007743Y-95452765D01*
X170925576Y-95388811D01*
X170892319Y-95370813D01*
X170841929Y-95320802D01*
X170826576Y-95251485D01*
X170851136Y-95184872D01*
X170892320Y-95149186D01*
X170925576Y-95131189D01*
X171103240Y-94992906D01*
X171255722Y-94827268D01*
X171378860Y-94638791D01*
X171469296Y-94432616D01*
X171524564Y-94214368D01*
X171543156Y-93990000D01*
X171524564Y-93765632D01*
X171511836Y-93715370D01*
X171469297Y-93547387D01*
X171469296Y-93547386D01*
X171469296Y-93547384D01*
X171378860Y-93341209D01*
X171364468Y-93319180D01*
X171255724Y-93152734D01*
X171255720Y-93152729D01*
X171103237Y-92987091D01*
X170997696Y-92904945D01*
X170925576Y-92848811D01*
X170892319Y-92830813D01*
X170841929Y-92780802D01*
X170826576Y-92711485D01*
X170851136Y-92644872D01*
X170892320Y-92609186D01*
X170925576Y-92591189D01*
X171103240Y-92452906D01*
X171255722Y-92287268D01*
X171378860Y-92098791D01*
X171469296Y-91892616D01*
X171524564Y-91674368D01*
X171543156Y-91450000D01*
X171524564Y-91225632D01*
X171516821Y-91195057D01*
X171469297Y-91007387D01*
X171469296Y-91007386D01*
X171469296Y-91007384D01*
X171378860Y-90801209D01*
X171327437Y-90722500D01*
X171255724Y-90612734D01*
X171255714Y-90612722D01*
X171112159Y-90456782D01*
X171080737Y-90393117D01*
X171088723Y-90322571D01*
X171133582Y-90267542D01*
X171160827Y-90253388D01*
X171275965Y-90210444D01*
X171392904Y-90122904D01*
X171480444Y-90005965D01*
X171480444Y-90005964D01*
X171531494Y-89869093D01*
X171537999Y-89808597D01*
X171538000Y-89808585D01*
X171538000Y-89164000D01*
X170610703Y-89164000D01*
X170645925Y-89102993D01*
X170680000Y-88975826D01*
X170680000Y-88844174D01*
X170645925Y-88717007D01*
X170610703Y-88656000D01*
X171538000Y-88656000D01*
X171538000Y-88011414D01*
X171537999Y-88011402D01*
X171531494Y-87950906D01*
X171480444Y-87814035D01*
X171480444Y-87814034D01*
X171392904Y-87697095D01*
X171275965Y-87609555D01*
X171139093Y-87558505D01*
X171078597Y-87552000D01*
X170434000Y-87552000D01*
X170434000Y-88479297D01*
X170372993Y-88444075D01*
X170245826Y-88410000D01*
X170114174Y-88410000D01*
X169987007Y-88444075D01*
X169926000Y-88479297D01*
X169926000Y-87552000D01*
X169281402Y-87552000D01*
X169220906Y-87558505D01*
X169084035Y-87609555D01*
X169084034Y-87609555D01*
X168967095Y-87697095D01*
X168879555Y-87814034D01*
X168879555Y-87814035D01*
X168828505Y-87950906D01*
X168822000Y-88011402D01*
X168822000Y-88656000D01*
X169749297Y-88656000D01*
X169714075Y-88717007D01*
X169680000Y-88844174D01*
X169680000Y-88975826D01*
X169714075Y-89102993D01*
X169749297Y-89164000D01*
X168822000Y-89164000D01*
X168822000Y-89808597D01*
X168828505Y-89869093D01*
X168879555Y-90005964D01*
X168879555Y-90005965D01*
X168967095Y-90122904D01*
X169084034Y-90210444D01*
X169199172Y-90253388D01*
X169256008Y-90295935D01*
X169280819Y-90362455D01*
X169265728Y-90431829D01*
X169247841Y-90456782D01*
X169104280Y-90612729D01*
X169104275Y-90612734D01*
X168981141Y-90801206D01*
X168890703Y-91007386D01*
X168890702Y-91007387D01*
X168835437Y-91225624D01*
X168835436Y-91225630D01*
X168835436Y-91225632D01*
X168816844Y-91450000D01*
X168834476Y-91662787D01*
X168835437Y-91674375D01*
X168890702Y-91892612D01*
X168890703Y-91892613D01*
X168890704Y-91892616D01*
X168953297Y-92035314D01*
X168981141Y-92098793D01*
X169104275Y-92287265D01*
X169104279Y-92287270D01*
X169256762Y-92452908D01*
X169290854Y-92479443D01*
X169434424Y-92591189D01*
X169467680Y-92609186D01*
X169518071Y-92659200D01*
X169533423Y-92728516D01*
X169508862Y-92795129D01*
X169467680Y-92830813D01*
X169434426Y-92848810D01*
X169434424Y-92848811D01*
X169256762Y-92987091D01*
X169104278Y-93152731D01*
X169032879Y-93262016D01*
X168978875Y-93308104D01*
X168927396Y-93319100D01*
X168844902Y-93319100D01*
X168741470Y-93339675D01*
X168741469Y-93339674D01*
X168717229Y-93344496D01*
X168717217Y-93344500D01*
X168596945Y-93394318D01*
X168488705Y-93466642D01*
X168488698Y-93466647D01*
X167753995Y-94201351D01*
X167691683Y-94235377D01*
X167620868Y-94230312D01*
X167564032Y-94187765D01*
X167539221Y-94121245D01*
X167538900Y-94112256D01*
X167538900Y-93152908D01*
X167538899Y-93152904D01*
X167513502Y-93025223D01*
X167463682Y-92904946D01*
X167391355Y-92796701D01*
X167299299Y-92704645D01*
X166410299Y-91815645D01*
X166302054Y-91743318D01*
X166230296Y-91713595D01*
X166181782Y-91693500D01*
X166181777Y-91693498D01*
X166054095Y-91668100D01*
X166054093Y-91668100D01*
X164663944Y-91668100D01*
X164595823Y-91648098D01*
X164574849Y-91631195D01*
X164433004Y-91489350D01*
X164398978Y-91427038D01*
X164396099Y-91400255D01*
X164396099Y-82644104D01*
X164396098Y-82644103D01*
X164370701Y-82516422D01*
X164320881Y-82396145D01*
X164248554Y-82287900D01*
X164156498Y-82195844D01*
X164156497Y-82195843D01*
X164152097Y-82191443D01*
X164152086Y-82191433D01*
X162031902Y-80071248D01*
X161997876Y-80008936D01*
X162002941Y-79938120D01*
X162043606Y-79882721D01*
X162045570Y-79881192D01*
X162045576Y-79881189D01*
X162223240Y-79742906D01*
X162375722Y-79577268D01*
X162464518Y-79441354D01*
X162518520Y-79395268D01*
X162588868Y-79385692D01*
X162653225Y-79415669D01*
X162675480Y-79441353D01*
X162681707Y-79450883D01*
X162764275Y-79577265D01*
X162764279Y-79577270D01*
X162916762Y-79742908D01*
X162958635Y-79775499D01*
X163094424Y-79881189D01*
X163292426Y-79988342D01*
X163292427Y-79988342D01*
X163292428Y-79988343D01*
X163357867Y-80010808D01*
X163505365Y-80061444D01*
X163727431Y-80098500D01*
X163727435Y-80098500D01*
X163952565Y-80098500D01*
X163952569Y-80098500D01*
X164174635Y-80061444D01*
X164324472Y-80010005D01*
X166491728Y-80010005D01*
X166510795Y-80313073D01*
X166510798Y-80313096D01*
X166540156Y-80467000D01*
X166567702Y-80611400D01*
X166661548Y-80900225D01*
X166790852Y-81175011D01*
X166790854Y-81175014D01*
X166790857Y-81175020D01*
X166953576Y-81431425D01*
X166953579Y-81431428D01*
X167147153Y-81665418D01*
X167147157Y-81665422D01*
X167368536Y-81873312D01*
X167581763Y-82028230D01*
X167614225Y-82051815D01*
X167880350Y-82198118D01*
X168085617Y-82279388D01*
X168162707Y-82309911D01*
X168162710Y-82309911D01*
X168162713Y-82309913D01*
X168456861Y-82385438D01*
X168758155Y-82423500D01*
X168758159Y-82423500D01*
X169061841Y-82423500D01*
X169061845Y-82423500D01*
X169363139Y-82385438D01*
X169657287Y-82309913D01*
X169939650Y-82198118D01*
X170205775Y-82051815D01*
X170451465Y-81873311D01*
X170672844Y-81665421D01*
X170866423Y-81431425D01*
X171029148Y-81175011D01*
X171158452Y-80900225D01*
X171252298Y-80611400D01*
X171309203Y-80313090D01*
X171322704Y-80098500D01*
X171328272Y-80010005D01*
X171328272Y-80009994D01*
X171309204Y-79706926D01*
X171309203Y-79706910D01*
X171252298Y-79408600D01*
X171158452Y-79119775D01*
X171029148Y-78844989D01*
X171029142Y-78844979D01*
X170866423Y-78588574D01*
X170866420Y-78588571D01*
X170672846Y-78354581D01*
X170672842Y-78354577D01*
X170451463Y-78146687D01*
X170205777Y-77968186D01*
X170089186Y-77904090D01*
X169939650Y-77821882D01*
X169836156Y-77780906D01*
X169657292Y-77710088D01*
X169657274Y-77710083D01*
X169363153Y-77634565D01*
X169363145Y-77634563D01*
X169363139Y-77634562D01*
X169363129Y-77634560D01*
X169363125Y-77634560D01*
X169061859Y-77596501D01*
X169061848Y-77596500D01*
X169061845Y-77596500D01*
X168758155Y-77596500D01*
X168758152Y-77596500D01*
X168758140Y-77596501D01*
X168456874Y-77634560D01*
X168456867Y-77634561D01*
X168456861Y-77634562D01*
X168456856Y-77634563D01*
X168456846Y-77634565D01*
X168162725Y-77710083D01*
X168162707Y-77710088D01*
X167880350Y-77821882D01*
X167614222Y-77968186D01*
X167368536Y-78146687D01*
X167147157Y-78354577D01*
X167147153Y-78354581D01*
X166953579Y-78588571D01*
X166953576Y-78588574D01*
X166790857Y-78844979D01*
X166790850Y-78844993D01*
X166661551Y-79119768D01*
X166661549Y-79119772D01*
X166567703Y-79408596D01*
X166567701Y-79408603D01*
X166510798Y-79706903D01*
X166510795Y-79706926D01*
X166491728Y-80009994D01*
X166491728Y-80010005D01*
X164324472Y-80010005D01*
X164387574Y-79988342D01*
X164585576Y-79881189D01*
X164763240Y-79742906D01*
X164915722Y-79577268D01*
X165038860Y-79388791D01*
X165129296Y-79182616D01*
X165184564Y-78964368D01*
X165203156Y-78740000D01*
X165184564Y-78515632D01*
X165129296Y-78297384D01*
X165038860Y-78091209D01*
X165032140Y-78080924D01*
X164915724Y-77902734D01*
X164915720Y-77902729D01*
X164763237Y-77737091D01*
X164643679Y-77644035D01*
X164585576Y-77598811D01*
X164387574Y-77491658D01*
X164387572Y-77491657D01*
X164387571Y-77491656D01*
X164174639Y-77418557D01*
X164174630Y-77418555D01*
X164130476Y-77411187D01*
X163952569Y-77381500D01*
X163727431Y-77381500D01*
X163579211Y-77406233D01*
X163505369Y-77418555D01*
X163505360Y-77418557D01*
X163292428Y-77491656D01*
X163292426Y-77491658D01*
X163098695Y-77596500D01*
X163094426Y-77598810D01*
X163094424Y-77598811D01*
X162916762Y-77737091D01*
X162764279Y-77902729D01*
X162675483Y-78038643D01*
X162621479Y-78084731D01*
X162551131Y-78094306D01*
X162486774Y-78064329D01*
X162464517Y-78038643D01*
X162375720Y-77902729D01*
X162223237Y-77737091D01*
X162103679Y-77644035D01*
X162045576Y-77598811D01*
X161847574Y-77491658D01*
X161847572Y-77491657D01*
X161847571Y-77491656D01*
X161634639Y-77418557D01*
X161634630Y-77418555D01*
X161590476Y-77411187D01*
X161412569Y-77381500D01*
X161187431Y-77381500D01*
X161039211Y-77406233D01*
X160965369Y-77418555D01*
X160965360Y-77418557D01*
X160752428Y-77491656D01*
X160752426Y-77491658D01*
X160558695Y-77596500D01*
X160554426Y-77598810D01*
X160554424Y-77598811D01*
X160376762Y-77737091D01*
X160224279Y-77902729D01*
X160135483Y-78038643D01*
X160081479Y-78084731D01*
X160011131Y-78094306D01*
X159946774Y-78064329D01*
X159924517Y-78038643D01*
X159835720Y-77902729D01*
X159683237Y-77737091D01*
X159563679Y-77644035D01*
X159505576Y-77598811D01*
X159307574Y-77491658D01*
X159307572Y-77491657D01*
X159307571Y-77491656D01*
X159094639Y-77418557D01*
X159094630Y-77418555D01*
X159050476Y-77411187D01*
X158872569Y-77381500D01*
X158647431Y-77381500D01*
X158499211Y-77406233D01*
X158425369Y-77418555D01*
X158425360Y-77418557D01*
X158212428Y-77491656D01*
X158212426Y-77491658D01*
X158018695Y-77596500D01*
X158014426Y-77598810D01*
X158014424Y-77598811D01*
X157836759Y-77737094D01*
X157775374Y-77803775D01*
X157714521Y-77840346D01*
X157643557Y-77838211D01*
X157585012Y-77798049D01*
X157564618Y-77762470D01*
X157520443Y-77644033D01*
X157432904Y-77527095D01*
X157315965Y-77439555D01*
X157179093Y-77388505D01*
X157118597Y-77382000D01*
X156474000Y-77382000D01*
X156474000Y-78309297D01*
X156412993Y-78274075D01*
X156285826Y-78240000D01*
X156154174Y-78240000D01*
X156027007Y-78274075D01*
X155966000Y-78309297D01*
X155966000Y-77382000D01*
X155321402Y-77382000D01*
X155260906Y-77388505D01*
X155124035Y-77439555D01*
X155124034Y-77439555D01*
X155007095Y-77527095D01*
X154919555Y-77644034D01*
X154919555Y-77644035D01*
X154868505Y-77780906D01*
X154862000Y-77841402D01*
X154862000Y-78486000D01*
X155789297Y-78486000D01*
X155754075Y-78547007D01*
X155720000Y-78674174D01*
X155720000Y-78805826D01*
X155754075Y-78932993D01*
X155789297Y-78994000D01*
X154862000Y-78994000D01*
X154862000Y-79638597D01*
X154868505Y-79699093D01*
X154919555Y-79835964D01*
X154919555Y-79835965D01*
X155007095Y-79952904D01*
X155124034Y-80040444D01*
X155260906Y-80091494D01*
X155321402Y-80097999D01*
X155321415Y-80098000D01*
X155966000Y-80098000D01*
X155966000Y-79170702D01*
X156027007Y-79205925D01*
X156154174Y-79240000D01*
X156285826Y-79240000D01*
X156412993Y-79205925D01*
X156474000Y-79170702D01*
X156474000Y-80098000D01*
X157118585Y-80098000D01*
X157118597Y-80097999D01*
X157179093Y-80091494D01*
X157315964Y-80040444D01*
X157315965Y-80040444D01*
X157432904Y-79952904D01*
X157520444Y-79835965D01*
X157564618Y-79717530D01*
X157607165Y-79660694D01*
X157673685Y-79635883D01*
X157743059Y-79650974D01*
X157775372Y-79676222D01*
X157796427Y-79699093D01*
X157836762Y-79742908D01*
X157878635Y-79775499D01*
X158014424Y-79881189D01*
X158033069Y-79891279D01*
X158083458Y-79941288D01*
X158099100Y-80002092D01*
X158099100Y-80085095D01*
X158120568Y-80193020D01*
X158124498Y-80212777D01*
X158174318Y-80333054D01*
X158246645Y-80441299D01*
X158871645Y-81066299D01*
X158963701Y-81158355D01*
X159071946Y-81230682D01*
X159192223Y-81280502D01*
X159319906Y-81305900D01*
X159319907Y-81305900D01*
X160698478Y-81305900D01*
X160766599Y-81325902D01*
X160787573Y-81342805D01*
X162580195Y-83135427D01*
X162614221Y-83197739D01*
X162617100Y-83224522D01*
X162617100Y-86887232D01*
X162597098Y-86955353D01*
X162543442Y-87001846D01*
X162473168Y-87011950D01*
X162408588Y-86982456D01*
X162371496Y-86926865D01*
X162336850Y-86822311D01*
X162336849Y-86822310D01*
X162336849Y-86822308D01*
X162247600Y-86677613D01*
X162247599Y-86677612D01*
X162247594Y-86677606D01*
X162127390Y-86557402D01*
X162125747Y-86556103D01*
X162124912Y-86554924D01*
X162122198Y-86552210D01*
X162122661Y-86551746D01*
X162084720Y-86498161D01*
X162077900Y-86457269D01*
X162077900Y-86396668D01*
X162097214Y-86329630D01*
X162108336Y-86311930D01*
X162165087Y-86149746D01*
X162184325Y-85979000D01*
X162165087Y-85808254D01*
X162108336Y-85646070D01*
X162108334Y-85646067D01*
X162108334Y-85646066D01*
X162016920Y-85500582D01*
X162016919Y-85500580D01*
X161895419Y-85379080D01*
X161895417Y-85379079D01*
X161749933Y-85287665D01*
X161749930Y-85287664D01*
X161587746Y-85230913D01*
X161587744Y-85230912D01*
X161587746Y-85230912D01*
X161417000Y-85211675D01*
X161246255Y-85230912D01*
X161084069Y-85287664D01*
X161084066Y-85287665D01*
X160938582Y-85379079D01*
X160938580Y-85379080D01*
X160817080Y-85500580D01*
X160817079Y-85500582D01*
X160725665Y-85646066D01*
X160725664Y-85646069D01*
X160668912Y-85808255D01*
X160649675Y-85979000D01*
X160668912Y-86149744D01*
X160725664Y-86311930D01*
X160725663Y-86311930D01*
X160736786Y-86329630D01*
X160756100Y-86396668D01*
X160756100Y-86426424D01*
X160736098Y-86494545D01*
X160682442Y-86541038D01*
X160612168Y-86551142D01*
X160563953Y-86533665D01*
X160458479Y-86468607D01*
X160297210Y-86415169D01*
X160297206Y-86415168D01*
X160197681Y-86405000D01*
X160147000Y-86405000D01*
X160147000Y-87478500D01*
X160126998Y-87546621D01*
X160073342Y-87593114D01*
X160021000Y-87604500D01*
X158910001Y-87604500D01*
X158910001Y-87617673D01*
X158920168Y-87717208D01*
X158973607Y-87878478D01*
X159062795Y-88023074D01*
X159062800Y-88023080D01*
X159088271Y-88048551D01*
X159122297Y-88110863D01*
X159117232Y-88181678D01*
X159088271Y-88226741D01*
X159062405Y-88252606D01*
X159062400Y-88252612D01*
X158973151Y-88397307D01*
X158958981Y-88440070D01*
X158938505Y-88501865D01*
X158919675Y-88558690D01*
X158909500Y-88658280D01*
X158909500Y-89192710D01*
X158919675Y-89292309D01*
X158919676Y-89292314D01*
X158973151Y-89453692D01*
X159024741Y-89537333D01*
X159063136Y-89599580D01*
X159081873Y-89668060D01*
X159063136Y-89731873D01*
X158985152Y-89858305D01*
X158985151Y-89858307D01*
X158985151Y-89858308D01*
X158938505Y-89999079D01*
X158931675Y-90019690D01*
X158921500Y-90119280D01*
X158921500Y-90728710D01*
X158931247Y-90824116D01*
X158931676Y-90828314D01*
X158985151Y-90989692D01*
X159074400Y-91134387D01*
X159080192Y-91140179D01*
X159114219Y-91202488D01*
X159117100Y-91229277D01*
X159117100Y-91594666D01*
X159097098Y-91662787D01*
X159043442Y-91709280D01*
X159032716Y-91713595D01*
X158886766Y-91764665D01*
X158741282Y-91856079D01*
X158741280Y-91856080D01*
X158619780Y-91977580D01*
X158619779Y-91977582D01*
X158528365Y-92123066D01*
X158528362Y-92123073D01*
X158522001Y-92141250D01*
X158480621Y-92198940D01*
X158444690Y-92218559D01*
X158290067Y-92272665D01*
X158290066Y-92272665D01*
X158144582Y-92364079D01*
X158144580Y-92364080D01*
X158023080Y-92485580D01*
X158023079Y-92485582D01*
X157931665Y-92631066D01*
X157931664Y-92631069D01*
X157874912Y-92793255D01*
X157855675Y-92964000D01*
X157874912Y-93134744D01*
X157931664Y-93296930D01*
X157931665Y-93296933D01*
X158023079Y-93442417D01*
X158027489Y-93447947D01*
X158025983Y-93449147D01*
X158055408Y-93503033D01*
X158050343Y-93573848D01*
X158007796Y-93630684D01*
X157941276Y-93655495D01*
X157915843Y-93654738D01*
X157891251Y-93651500D01*
X157891244Y-93651500D01*
X157664756Y-93651500D01*
X157664753Y-93651500D01*
X157550677Y-93666518D01*
X157408733Y-93725313D01*
X157408725Y-93725318D01*
X157360656Y-93762203D01*
X157294436Y-93787803D01*
X157224887Y-93773538D01*
X157176712Y-93728386D01*
X157167601Y-93713615D01*
X157167599Y-93713612D01*
X157155995Y-93702008D01*
X157141727Y-93687740D01*
X157107703Y-93625431D01*
X157112767Y-93554615D01*
X157141729Y-93509549D01*
X157167204Y-93484074D01*
X157256392Y-93339479D01*
X157309830Y-93178210D01*
X157309831Y-93178206D01*
X157319999Y-93078681D01*
X157320000Y-93078681D01*
X157320000Y-93065500D01*
X156209000Y-93065500D01*
X156140879Y-93045498D01*
X156094386Y-92991842D01*
X156083000Y-92939500D01*
X156083000Y-91866000D01*
X156591000Y-91866000D01*
X156591000Y-92557500D01*
X157319999Y-92557500D01*
X157319999Y-92544326D01*
X157309831Y-92444791D01*
X157256392Y-92283521D01*
X157167204Y-92138925D01*
X157167199Y-92138919D01*
X157047080Y-92018800D01*
X157047074Y-92018795D01*
X156902479Y-91929607D01*
X156741210Y-91876169D01*
X156741206Y-91876168D01*
X156641681Y-91866000D01*
X156591000Y-91866000D01*
X156083000Y-91866000D01*
X156082999Y-91865999D01*
X156032327Y-91866000D01*
X155932791Y-91876168D01*
X155771521Y-91929607D01*
X155626925Y-92018795D01*
X155626919Y-92018800D01*
X155506800Y-92138919D01*
X155506795Y-92138925D01*
X155427641Y-92267254D01*
X155374855Y-92314732D01*
X155304780Y-92326135D01*
X155239664Y-92297842D01*
X155200182Y-92238837D01*
X155194400Y-92201107D01*
X155194400Y-91191777D01*
X155214402Y-91123656D01*
X155231253Y-91102733D01*
X155232215Y-91101771D01*
X155294505Y-91067717D01*
X155365324Y-91072744D01*
X155410448Y-91101728D01*
X155435919Y-91127199D01*
X155435925Y-91127204D01*
X155580520Y-91216392D01*
X155741787Y-91269830D01*
X155841327Y-91279999D01*
X155854500Y-91279998D01*
X155854500Y-90551000D01*
X156362500Y-90551000D01*
X156362500Y-91279999D01*
X156375673Y-91279999D01*
X156475208Y-91269831D01*
X156636478Y-91216392D01*
X156781074Y-91127204D01*
X156781080Y-91127199D01*
X156901199Y-91007080D01*
X156901204Y-91007074D01*
X156990392Y-90862479D01*
X157043830Y-90701210D01*
X157043831Y-90701206D01*
X157053999Y-90601681D01*
X157054000Y-90601681D01*
X157054000Y-90551000D01*
X156362500Y-90551000D01*
X155854500Y-90551000D01*
X155854500Y-90169000D01*
X155874502Y-90100879D01*
X155928158Y-90054386D01*
X155980500Y-90043000D01*
X157053999Y-90043000D01*
X157053999Y-89992326D01*
X157043831Y-89892791D01*
X156990392Y-89731520D01*
X156958610Y-89679994D01*
X156939872Y-89611514D01*
X156961131Y-89543776D01*
X157015637Y-89498283D01*
X157086086Y-89489482D01*
X157107464Y-89494916D01*
X157182254Y-89521087D01*
X157353000Y-89540325D01*
X157523746Y-89521087D01*
X157685930Y-89464336D01*
X157831419Y-89372919D01*
X157952919Y-89251419D01*
X158044336Y-89105930D01*
X158101087Y-88943746D01*
X158120325Y-88773000D01*
X158101087Y-88602254D01*
X158044336Y-88440070D01*
X158044334Y-88440067D01*
X158044334Y-88440066D01*
X157952920Y-88294582D01*
X157952919Y-88294580D01*
X157831419Y-88173080D01*
X157831417Y-88173079D01*
X157685933Y-88081665D01*
X157685930Y-88081664D01*
X157649944Y-88069072D01*
X157523746Y-88024913D01*
X157523744Y-88024912D01*
X157523746Y-88024912D01*
X157353000Y-88005675D01*
X157182258Y-88024912D01*
X157182255Y-88024912D01*
X157182254Y-88024913D01*
X157130533Y-88043011D01*
X157021148Y-88081286D01*
X156950244Y-88084904D01*
X156890439Y-88051451D01*
X156781393Y-87942405D01*
X156781387Y-87942400D01*
X156636692Y-87853151D01*
X156633149Y-87851977D01*
X156475314Y-87799676D01*
X156475311Y-87799675D01*
X156475309Y-87799675D01*
X156375719Y-87789500D01*
X155841289Y-87789500D01*
X155741690Y-87799675D01*
X155741687Y-87799675D01*
X155741686Y-87799676D01*
X155661723Y-87826172D01*
X155580307Y-87853151D01*
X155435612Y-87942400D01*
X155435606Y-87942405D01*
X155434995Y-87943017D01*
X155434471Y-87943302D01*
X155429855Y-87946953D01*
X155429231Y-87946164D01*
X155372683Y-87977043D01*
X155301868Y-87971978D01*
X155245032Y-87929431D01*
X155220221Y-87862911D01*
X155219900Y-87853922D01*
X155219900Y-87691909D01*
X155219899Y-87691904D01*
X155219223Y-87688507D01*
X155216596Y-87675299D01*
X155194502Y-87564223D01*
X155185826Y-87543277D01*
X155144682Y-87443946D01*
X155072355Y-87335701D01*
X155000650Y-87263996D01*
X154966625Y-87201683D01*
X154971691Y-87130868D01*
X154997041Y-87089568D01*
X155040627Y-87042221D01*
X155101477Y-87005653D01*
X155172442Y-87007788D01*
X155230987Y-87047950D01*
X155251380Y-87083529D01*
X155295553Y-87201961D01*
X155295555Y-87201965D01*
X155383095Y-87318904D01*
X155500034Y-87406444D01*
X155636906Y-87457494D01*
X155697402Y-87463999D01*
X155697415Y-87464000D01*
X156342000Y-87464000D01*
X156342000Y-86536702D01*
X156403007Y-86571925D01*
X156530174Y-86606000D01*
X156661826Y-86606000D01*
X156788993Y-86571925D01*
X156850000Y-86536702D01*
X156850000Y-87464000D01*
X157494585Y-87464000D01*
X157494597Y-87463999D01*
X157555093Y-87457494D01*
X157691964Y-87406444D01*
X157691965Y-87406444D01*
X157808904Y-87318904D01*
X157896444Y-87201965D01*
X157896444Y-87201964D01*
X157935780Y-87096500D01*
X158910000Y-87096500D01*
X159639000Y-87096500D01*
X159639000Y-86405000D01*
X159638999Y-86404999D01*
X159588327Y-86405000D01*
X159488791Y-86415168D01*
X159327521Y-86468607D01*
X159182925Y-86557795D01*
X159182919Y-86557800D01*
X159062800Y-86677919D01*
X159062795Y-86677925D01*
X158973607Y-86822520D01*
X158920169Y-86983789D01*
X158920168Y-86983793D01*
X158910000Y-87083318D01*
X158910000Y-87096500D01*
X157935780Y-87096500D01*
X157947494Y-87065093D01*
X157953999Y-87004597D01*
X157954000Y-87004585D01*
X157954000Y-86360000D01*
X157026703Y-86360000D01*
X157061925Y-86298993D01*
X157096000Y-86171826D01*
X157096000Y-86040174D01*
X157061925Y-85913007D01*
X157026703Y-85852000D01*
X157954000Y-85852000D01*
X157954000Y-85207414D01*
X157953999Y-85207402D01*
X157947494Y-85146906D01*
X157896444Y-85010035D01*
X157896444Y-85010034D01*
X157808904Y-84893095D01*
X157691965Y-84805555D01*
X157555093Y-84754505D01*
X157494597Y-84748000D01*
X156850000Y-84748000D01*
X156850000Y-85675297D01*
X156788993Y-85640075D01*
X156661826Y-85606000D01*
X156530174Y-85606000D01*
X156403007Y-85640075D01*
X156342000Y-85675297D01*
X156342000Y-84748000D01*
X155697402Y-84748000D01*
X155636906Y-84754505D01*
X155500035Y-84805555D01*
X155500034Y-84805555D01*
X155383095Y-84893095D01*
X155295555Y-85010034D01*
X155295553Y-85010039D01*
X155251380Y-85128470D01*
X155208833Y-85185306D01*
X155142313Y-85210116D01*
X155072939Y-85195024D01*
X155040626Y-85169777D01*
X154979240Y-85103094D01*
X154979239Y-85103093D01*
X154979237Y-85103091D01*
X154859679Y-85010035D01*
X154801576Y-84964811D01*
X154603574Y-84857658D01*
X154603572Y-84857657D01*
X154603571Y-84857656D01*
X154390639Y-84784557D01*
X154390630Y-84784555D01*
X154346476Y-84777187D01*
X154168569Y-84747500D01*
X153943431Y-84747500D01*
X153795211Y-84772233D01*
X153721369Y-84784555D01*
X153721360Y-84784557D01*
X153508428Y-84857656D01*
X153508426Y-84857658D01*
X153310426Y-84964810D01*
X153310424Y-84964811D01*
X153132762Y-85103091D01*
X152980279Y-85268729D01*
X152980278Y-85268732D01*
X152857141Y-85457206D01*
X152766703Y-85663386D01*
X152766702Y-85663387D01*
X152711437Y-85881624D01*
X152711436Y-85881630D01*
X152711436Y-85881632D01*
X152692844Y-86106000D01*
X152709908Y-86311930D01*
X152711437Y-86330375D01*
X152766702Y-86548612D01*
X152766703Y-86548613D01*
X152766704Y-86548616D01*
X152823287Y-86677613D01*
X152857141Y-86754793D01*
X152980275Y-86943265D01*
X152980279Y-86943270D01*
X153132762Y-87108908D01*
X153160976Y-87130868D01*
X153310424Y-87247189D01*
X153337224Y-87261692D01*
X153387615Y-87311705D01*
X153400834Y-87347923D01*
X153409717Y-87392581D01*
X153420498Y-87446777D01*
X153420499Y-87446781D01*
X153420500Y-87446782D01*
X153433638Y-87478500D01*
X153470318Y-87567054D01*
X153542645Y-87675299D01*
X153542647Y-87675301D01*
X153746083Y-87878737D01*
X153780109Y-87941049D01*
X153775044Y-88011864D01*
X153746092Y-88056919D01*
X153740405Y-88062606D01*
X153740400Y-88062612D01*
X153651151Y-88207307D01*
X153629943Y-88271310D01*
X153619483Y-88302878D01*
X153597675Y-88368690D01*
X153587500Y-88468280D01*
X153587500Y-89077710D01*
X153597675Y-89177309D01*
X153597676Y-89177314D01*
X153646392Y-89324330D01*
X153651152Y-89338694D01*
X153731435Y-89468854D01*
X153750172Y-89537333D01*
X153731435Y-89601146D01*
X153651152Y-89731305D01*
X153597675Y-89892690D01*
X153587500Y-89992280D01*
X153587500Y-90601710D01*
X153597665Y-90701210D01*
X153597676Y-90701314D01*
X153646587Y-90848920D01*
X153651151Y-90862692D01*
X153740400Y-91007387D01*
X153740405Y-91007393D01*
X153835695Y-91102683D01*
X153869721Y-91164995D01*
X153872600Y-91191778D01*
X153872600Y-95897556D01*
X153865529Y-95939171D01*
X153810912Y-96095255D01*
X153791675Y-96266000D01*
X153809391Y-96423244D01*
X153810913Y-96436746D01*
X153815666Y-96450329D01*
X153824609Y-96475886D01*
X153828227Y-96546790D01*
X153792938Y-96608395D01*
X153729944Y-96641141D01*
X153705679Y-96643500D01*
X152036350Y-96643500D01*
X151975801Y-96650010D01*
X151886934Y-96683156D01*
X151842902Y-96691100D01*
X151756904Y-96691100D01*
X151629222Y-96716498D01*
X151629217Y-96716500D01*
X151508945Y-96766318D01*
X151400702Y-96838644D01*
X151400699Y-96838646D01*
X151362974Y-96876370D01*
X151300661Y-96910393D01*
X151229846Y-96905327D01*
X151207735Y-96894513D01*
X151187696Y-96882153D01*
X151187694Y-96882152D01*
X151187692Y-96882151D01*
X151026314Y-96828676D01*
X151026311Y-96828675D01*
X151026309Y-96828675D01*
X150926719Y-96818500D01*
X150317289Y-96818500D01*
X150217690Y-96828675D01*
X150217687Y-96828675D01*
X150217686Y-96828676D01*
X150137723Y-96855172D01*
X150056307Y-96882151D01*
X149911612Y-96971400D01*
X149911606Y-96971405D01*
X149791405Y-97091606D01*
X149791400Y-97091612D01*
X149702151Y-97236307D01*
X149690152Y-97272518D01*
X149658756Y-97367268D01*
X149648675Y-97397690D01*
X149638500Y-97497280D01*
X149638500Y-98031710D01*
X149648675Y-98131309D01*
X149648676Y-98131314D01*
X149670411Y-98196905D01*
X149702151Y-98292692D01*
X149791400Y-98437387D01*
X149791405Y-98437393D01*
X149816917Y-98462905D01*
X149850943Y-98525217D01*
X149845878Y-98596032D01*
X149816917Y-98641095D01*
X149791405Y-98666606D01*
X149791400Y-98666612D01*
X149702151Y-98811307D01*
X149648675Y-98972690D01*
X149638500Y-99072280D01*
X149638500Y-99606710D01*
X149648675Y-99706309D01*
X149648676Y-99706314D01*
X149660996Y-99743493D01*
X149702151Y-99867692D01*
X149791400Y-100012387D01*
X149791405Y-100012393D01*
X149911606Y-100132594D01*
X149911612Y-100132599D01*
X149911613Y-100132600D01*
X150056308Y-100221849D01*
X150217686Y-100275324D01*
X150317289Y-100285500D01*
X150926710Y-100285499D01*
X151026314Y-100275324D01*
X151187692Y-100221849D01*
X151207734Y-100209486D01*
X151276212Y-100190748D01*
X151343951Y-100212006D01*
X151362977Y-100227631D01*
X151400701Y-100265355D01*
X151508946Y-100337682D01*
X151514407Y-100340601D01*
X151513615Y-100342080D01*
X151562604Y-100381553D01*
X151585028Y-100448916D01*
X151567474Y-100517708D01*
X151548205Y-100542515D01*
X151454795Y-100635925D01*
X151365607Y-100780520D01*
X151312169Y-100941789D01*
X151312168Y-100941793D01*
X151302000Y-101041318D01*
X151302000Y-101092000D01*
X152375500Y-101092000D01*
X152443621Y-101112002D01*
X152490114Y-101165658D01*
X152501500Y-101218000D01*
X152501500Y-101474000D01*
X152481498Y-101542121D01*
X152427842Y-101588614D01*
X152375500Y-101600000D01*
X151302001Y-101600000D01*
X151302001Y-101650673D01*
X151312168Y-101750208D01*
X151365607Y-101911478D01*
X151454795Y-102056074D01*
X151454800Y-102056080D01*
X151574919Y-102176199D01*
X151574925Y-102176204D01*
X151661913Y-102229859D01*
X151709391Y-102282645D01*
X151720794Y-102352720D01*
X151692501Y-102417836D01*
X151633496Y-102457318D01*
X151595766Y-102463100D01*
X149677943Y-102463100D01*
X149609822Y-102443098D01*
X149588852Y-102426199D01*
X148376299Y-101213645D01*
X148351033Y-101196763D01*
X148268054Y-101141318D01*
X148147782Y-101091500D01*
X148147777Y-101091498D01*
X148020095Y-101066100D01*
X148020093Y-101066100D01*
X147857730Y-101066100D01*
X147789609Y-101046098D01*
X147762800Y-101021791D01*
X147762790Y-101021802D01*
X147762566Y-101021578D01*
X147758890Y-101018245D01*
X147757594Y-101016606D01*
X147637393Y-100896405D01*
X147637387Y-100896400D01*
X147492692Y-100807151D01*
X147331314Y-100753676D01*
X147331311Y-100753675D01*
X147331309Y-100753675D01*
X147231719Y-100743500D01*
X146697289Y-100743500D01*
X146597690Y-100753675D01*
X146597687Y-100753675D01*
X146597686Y-100753676D01*
X146517723Y-100780172D01*
X146436307Y-100807151D01*
X146291612Y-100896400D01*
X146291606Y-100896405D01*
X146266095Y-100921917D01*
X146203783Y-100955943D01*
X146132968Y-100950878D01*
X146087905Y-100921917D01*
X146062393Y-100896405D01*
X146062387Y-100896400D01*
X145917692Y-100807151D01*
X145756314Y-100753676D01*
X145756311Y-100753675D01*
X145756309Y-100753675D01*
X145656719Y-100743500D01*
X145122289Y-100743500D01*
X145022690Y-100753675D01*
X145022687Y-100753675D01*
X145022686Y-100753676D01*
X144942723Y-100780172D01*
X144861307Y-100807151D01*
X144716612Y-100896400D01*
X144716606Y-100896405D01*
X144610817Y-101002195D01*
X144548505Y-101036221D01*
X144521722Y-101039100D01*
X134923066Y-101039100D01*
X134854945Y-101019098D01*
X134808452Y-100965442D01*
X134806657Y-100961318D01*
X134773978Y-100882423D01*
X134678285Y-100757714D01*
X134553575Y-100662020D01*
X134408348Y-100601867D01*
X134291625Y-100586500D01*
X134291622Y-100586500D01*
X133800376Y-100586500D01*
X133800367Y-100586501D01*
X133683648Y-100601867D01*
X133683646Y-100601868D01*
X133618562Y-100628826D01*
X133547973Y-100636415D01*
X133522129Y-100628826D01*
X133458218Y-100602354D01*
X133350000Y-100588106D01*
X133350000Y-100797978D01*
X133329998Y-100866099D01*
X133323963Y-100874681D01*
X133318020Y-100882425D01*
X133257867Y-101027651D01*
X133242500Y-101144372D01*
X133242500Y-102255623D01*
X133242501Y-102255632D01*
X133250746Y-102318254D01*
X133257867Y-102372348D01*
X133295583Y-102463402D01*
X133306185Y-102489000D01*
X133318022Y-102517576D01*
X133323962Y-102525317D01*
X133349563Y-102591534D01*
X133350000Y-102602021D01*
X133350000Y-102811891D01*
X133458216Y-102797646D01*
X133458217Y-102797645D01*
X133522129Y-102771173D01*
X133592719Y-102763584D01*
X133618562Y-102771172D01*
X133683652Y-102798133D01*
X133800375Y-102813500D01*
X134291624Y-102813499D01*
X134408348Y-102798133D01*
X134478783Y-102768957D01*
X134549371Y-102761368D01*
X134612858Y-102793147D01*
X134649086Y-102854204D01*
X134653000Y-102885365D01*
X134653000Y-102984674D01*
X134655926Y-103013311D01*
X134642949Y-103083111D01*
X134594296Y-103134816D01*
X134525412Y-103152008D01*
X134482361Y-103142523D01*
X134408348Y-103111867D01*
X134291625Y-103096500D01*
X134291622Y-103096500D01*
X133800376Y-103096500D01*
X133800367Y-103096501D01*
X133695324Y-103110330D01*
X133683652Y-103111867D01*
X133683650Y-103111867D01*
X133683649Y-103111868D01*
X133538424Y-103172020D01*
X133413714Y-103267714D01*
X133318020Y-103392424D01*
X133257867Y-103537651D01*
X133253887Y-103567883D01*
X133225164Y-103632810D01*
X133165899Y-103671901D01*
X133094907Y-103672746D01*
X133039870Y-103640531D01*
X133017072Y-103617733D01*
X133017063Y-103617725D01*
X132980037Y-103592985D01*
X132934510Y-103538508D01*
X132933631Y-103536439D01*
X132873978Y-103392423D01*
X132778285Y-103267714D01*
X132653575Y-103172020D01*
X132508348Y-103111867D01*
X132391625Y-103096500D01*
X132391622Y-103096500D01*
X131900376Y-103096500D01*
X131900367Y-103096501D01*
X131795324Y-103110330D01*
X131783652Y-103111867D01*
X131783650Y-103111867D01*
X131783649Y-103111868D01*
X131638425Y-103172020D01*
X131591885Y-103207732D01*
X131525665Y-103233332D01*
X131456116Y-103219067D01*
X131445180Y-103212534D01*
X131358054Y-103154318D01*
X131237777Y-103104498D01*
X131110095Y-103079100D01*
X131110093Y-103079100D01*
X129966098Y-103079100D01*
X129922066Y-103071156D01*
X129866997Y-103050616D01*
X129833201Y-103038011D01*
X129833200Y-103038010D01*
X129833198Y-103038010D01*
X129772649Y-103031500D01*
X129772638Y-103031500D01*
X128269000Y-103031500D01*
X128200879Y-103011498D01*
X128154386Y-102957842D01*
X128143000Y-102905500D01*
X128143000Y-100802299D01*
X128162314Y-100735262D01*
X128199336Y-100676342D01*
X128256087Y-100514158D01*
X128275325Y-100343412D01*
X128256087Y-100172666D01*
X128199336Y-100010482D01*
X128199334Y-100010479D01*
X128199334Y-100010478D01*
X128107920Y-99864994D01*
X128107919Y-99864992D01*
X127986419Y-99743492D01*
X127986417Y-99743491D01*
X127840933Y-99652077D01*
X127840930Y-99652076D01*
X127678746Y-99595325D01*
X127678744Y-99595324D01*
X127678746Y-99595324D01*
X127508000Y-99576087D01*
X127337257Y-99595324D01*
X127277768Y-99616140D01*
X127206864Y-99619758D01*
X127145259Y-99584469D01*
X127116229Y-99530651D01*
X127115424Y-99530933D01*
X127113656Y-99525881D01*
X127113312Y-99525243D01*
X127113087Y-99524261D01*
X127113087Y-99524254D01*
X127056336Y-99362070D01*
X127056334Y-99362067D01*
X127056334Y-99362066D01*
X126964920Y-99216582D01*
X126964919Y-99216580D01*
X126843419Y-99095080D01*
X126843417Y-99095079D01*
X126697933Y-99003665D01*
X126697930Y-99003664D01*
X126535746Y-98946913D01*
X126535744Y-98946912D01*
X126535746Y-98946912D01*
X126365000Y-98927675D01*
X126194255Y-98946912D01*
X126032069Y-99003664D01*
X126032066Y-99003665D01*
X125886582Y-99095079D01*
X125886580Y-99095080D01*
X125765080Y-99216580D01*
X125765079Y-99216582D01*
X125673665Y-99362066D01*
X125673664Y-99362069D01*
X125616912Y-99524255D01*
X125597675Y-99695000D01*
X118203917Y-99695000D01*
X118198500Y-99670100D01*
X118198500Y-99558367D01*
X118198499Y-99558350D01*
X118191990Y-99497803D01*
X118191988Y-99497795D01*
X118141364Y-99362070D01*
X118140889Y-99360796D01*
X118140888Y-99360794D01*
X118140887Y-99360792D01*
X118053261Y-99243738D01*
X117936207Y-99156112D01*
X117936202Y-99156110D01*
X117799204Y-99105011D01*
X117799196Y-99105009D01*
X117738649Y-99098500D01*
X117738638Y-99098500D01*
X115941362Y-99098500D01*
X115941350Y-99098500D01*
X115880803Y-99105009D01*
X115880795Y-99105011D01*
X115743797Y-99156110D01*
X115743792Y-99156112D01*
X115626738Y-99243738D01*
X115539112Y-99360792D01*
X115539110Y-99360797D01*
X115488011Y-99497795D01*
X115488009Y-99497803D01*
X115481500Y-99558350D01*
X115481500Y-101355649D01*
X115488009Y-101416196D01*
X115488011Y-101416204D01*
X115539110Y-101553202D01*
X115539112Y-101553207D01*
X115626738Y-101670261D01*
X115743791Y-101757886D01*
X115743792Y-101757886D01*
X115743796Y-101757889D01*
X115858810Y-101800787D01*
X115915642Y-101843332D01*
X115940453Y-101909852D01*
X115925362Y-101979226D01*
X115907475Y-102004179D01*
X115764280Y-102159729D01*
X115764275Y-102159734D01*
X115641141Y-102348206D01*
X115550703Y-102554386D01*
X115550702Y-102554387D01*
X115495437Y-102772624D01*
X115495436Y-102772630D01*
X115495436Y-102772632D01*
X115476844Y-102997000D01*
X115495245Y-103219067D01*
X115495437Y-103221375D01*
X115550702Y-103439612D01*
X115550703Y-103439613D01*
X115550704Y-103439616D01*
X115629700Y-103619710D01*
X115641141Y-103645793D01*
X115764275Y-103834265D01*
X115764279Y-103834270D01*
X115872454Y-103951777D01*
X115906381Y-103988632D01*
X115916762Y-103999908D01*
X115967194Y-104039161D01*
X116094424Y-104138189D01*
X116118197Y-104151054D01*
X116127680Y-104156186D01*
X116178071Y-104206200D01*
X116193423Y-104275516D01*
X116168862Y-104342129D01*
X116127680Y-104377813D01*
X116094426Y-104395810D01*
X116094424Y-104395811D01*
X115916762Y-104534091D01*
X115764279Y-104699729D01*
X115764275Y-104699734D01*
X115641141Y-104888206D01*
X115550703Y-105094386D01*
X115550702Y-105094387D01*
X115495437Y-105312624D01*
X115495436Y-105312630D01*
X115495436Y-105312632D01*
X115476844Y-105537000D01*
X115495335Y-105760151D01*
X115495437Y-105761375D01*
X115550702Y-105979612D01*
X115550703Y-105979613D01*
X115550704Y-105979616D01*
X115635252Y-106172368D01*
X115641141Y-106185793D01*
X115764275Y-106374265D01*
X115764279Y-106374270D01*
X115916762Y-106539908D01*
X115921900Y-106543907D01*
X116094424Y-106678189D01*
X116128205Y-106696470D01*
X116178596Y-106746482D01*
X116193949Y-106815799D01*
X116169389Y-106882412D01*
X116128209Y-106918096D01*
X116094704Y-106936228D01*
X116094698Y-106936232D01*
X115917097Y-107074465D01*
X115764674Y-107240041D01*
X115641580Y-107428451D01*
X115551179Y-107634543D01*
X115551176Y-107634550D01*
X115503455Y-107822999D01*
X115503456Y-107823000D01*
X116409297Y-107823000D01*
X116374075Y-107884007D01*
X116340000Y-108011174D01*
X116340000Y-108142826D01*
X116374075Y-108269993D01*
X116409297Y-108331000D01*
X115503455Y-108331000D01*
X115551176Y-108519449D01*
X115551179Y-108519456D01*
X115641580Y-108725548D01*
X115764674Y-108913958D01*
X115917097Y-109079534D01*
X116094698Y-109217767D01*
X116094704Y-109217771D01*
X116128207Y-109235902D01*
X116178597Y-109285915D01*
X116193949Y-109355232D01*
X116169388Y-109421845D01*
X116128207Y-109457528D01*
X116094430Y-109475807D01*
X116094424Y-109475811D01*
X115916762Y-109614091D01*
X115764279Y-109779729D01*
X115764275Y-109779734D01*
X115641141Y-109968206D01*
X115550703Y-110174386D01*
X115550702Y-110174387D01*
X115495437Y-110392624D01*
X115495436Y-110392630D01*
X115495436Y-110392632D01*
X115476844Y-110617000D01*
X115489854Y-110774008D01*
X115495437Y-110841375D01*
X115550702Y-111059612D01*
X115550703Y-111059613D01*
X115550704Y-111059616D01*
X115612860Y-111201318D01*
X115641141Y-111265793D01*
X115764275Y-111454265D01*
X115764279Y-111454270D01*
X115916762Y-111619908D01*
X115971331Y-111662381D01*
X116094424Y-111758189D01*
X116127680Y-111776186D01*
X116178071Y-111826200D01*
X116193423Y-111895516D01*
X116168862Y-111962129D01*
X116127680Y-111997813D01*
X116094426Y-112015810D01*
X116094424Y-112015811D01*
X115916762Y-112154091D01*
X115764279Y-112319729D01*
X115764275Y-112319734D01*
X115641141Y-112508206D01*
X115550703Y-112714386D01*
X115550702Y-112714387D01*
X115495437Y-112932624D01*
X115476844Y-113157000D01*
X114300000Y-113157000D01*
X114300000Y-99072280D01*
X114300000Y-96882027D01*
X114628500Y-96882027D01*
X114661695Y-97091606D01*
X114666680Y-97123080D01*
X114715235Y-97272518D01*
X114742096Y-97355185D01*
X114852894Y-97572639D01*
X114852896Y-97572642D01*
X114860186Y-97582676D01*
X114996345Y-97770083D01*
X114996347Y-97770085D01*
X114996349Y-97770088D01*
X115168911Y-97942650D01*
X115168914Y-97942652D01*
X115168917Y-97942655D01*
X115366361Y-98086106D01*
X115583815Y-98196904D01*
X115815924Y-98272321D01*
X116056973Y-98310500D01*
X116056976Y-98310500D01*
X116301024Y-98310500D01*
X116301027Y-98310500D01*
X116542076Y-98272321D01*
X116774185Y-98196904D01*
X116991639Y-98086106D01*
X117189083Y-97942655D01*
X117361655Y-97770083D01*
X117477514Y-97610616D01*
X124321000Y-97610616D01*
X124331603Y-97714398D01*
X124331605Y-97714410D01*
X124387331Y-97882579D01*
X124480344Y-98033377D01*
X124480349Y-98033383D01*
X124605616Y-98158650D01*
X124605622Y-98158655D01*
X124756420Y-98251668D01*
X124924589Y-98307394D01*
X124924601Y-98307396D01*
X125028383Y-98317999D01*
X125028383Y-98318000D01*
X125625000Y-98318000D01*
X125625000Y-97248438D01*
X125666708Y-97272518D01*
X125806591Y-97310000D01*
X125951409Y-97310000D01*
X126091292Y-97272518D01*
X126133000Y-97248438D01*
X126133000Y-98318000D01*
X126729617Y-98318000D01*
X126729616Y-98317999D01*
X126833398Y-98307396D01*
X126833410Y-98307394D01*
X127001579Y-98251668D01*
X127152377Y-98158655D01*
X127152383Y-98158650D01*
X127277650Y-98033383D01*
X127277655Y-98033377D01*
X127370668Y-97882579D01*
X127426394Y-97714410D01*
X127426396Y-97714398D01*
X127436999Y-97610616D01*
X127437000Y-97610616D01*
X127437000Y-97014000D01*
X126367438Y-97014000D01*
X126391518Y-96972292D01*
X126429000Y-96832409D01*
X126429000Y-96687591D01*
X126391518Y-96547708D01*
X126367438Y-96506000D01*
X127437000Y-96506000D01*
X127437000Y-95909383D01*
X127426396Y-95805601D01*
X127426394Y-95805589D01*
X127370668Y-95637420D01*
X127277655Y-95486622D01*
X127277650Y-95486616D01*
X127152383Y-95361349D01*
X127152377Y-95361344D01*
X127001579Y-95268331D01*
X126833410Y-95212605D01*
X126833398Y-95212603D01*
X126729616Y-95202000D01*
X126133000Y-95202000D01*
X126133000Y-96271561D01*
X126091292Y-96247482D01*
X125951409Y-96210000D01*
X125806591Y-96210000D01*
X125666708Y-96247482D01*
X125625000Y-96271561D01*
X125625000Y-95202000D01*
X125028383Y-95202000D01*
X124924601Y-95212603D01*
X124924589Y-95212605D01*
X124756420Y-95268331D01*
X124605622Y-95361344D01*
X124605616Y-95361349D01*
X124480349Y-95486616D01*
X124480344Y-95486622D01*
X124387331Y-95637420D01*
X124331605Y-95805589D01*
X124331603Y-95805601D01*
X124321000Y-95909383D01*
X124321000Y-96506000D01*
X125390562Y-96506000D01*
X125366482Y-96547708D01*
X125329000Y-96687591D01*
X125329000Y-96832409D01*
X125366482Y-96972292D01*
X125390562Y-97014000D01*
X124321000Y-97014000D01*
X124321000Y-97610616D01*
X117477514Y-97610616D01*
X117505106Y-97572639D01*
X117615904Y-97355185D01*
X117691321Y-97123076D01*
X117729500Y-96882027D01*
X117729500Y-96637973D01*
X117691321Y-96396924D01*
X117615904Y-96164815D01*
X117505106Y-95947361D01*
X117361655Y-95749917D01*
X117361652Y-95749914D01*
X117361650Y-95749911D01*
X117189088Y-95577349D01*
X117189085Y-95577347D01*
X117189083Y-95577345D01*
X117017613Y-95452765D01*
X116991642Y-95433896D01*
X116991641Y-95433895D01*
X116991639Y-95433894D01*
X116774185Y-95323096D01*
X116774182Y-95323095D01*
X116774180Y-95323094D01*
X116542080Y-95247680D01*
X116542078Y-95247679D01*
X116542076Y-95247679D01*
X116301027Y-95209500D01*
X116056973Y-95209500D01*
X115815924Y-95247679D01*
X115815922Y-95247679D01*
X115815919Y-95247680D01*
X115583819Y-95323094D01*
X115583813Y-95323097D01*
X115366357Y-95433896D01*
X115168914Y-95577347D01*
X115168911Y-95577349D01*
X114996349Y-95749911D01*
X114996347Y-95749914D01*
X114852896Y-95947357D01*
X114742097Y-96164813D01*
X114742094Y-96164819D01*
X114666680Y-96396919D01*
X114666679Y-96396922D01*
X114666679Y-96396924D01*
X114628500Y-96637973D01*
X114628500Y-96882027D01*
X114300000Y-96882027D01*
X114300000Y-92846027D01*
X114628500Y-92846027D01*
X114666679Y-93087076D01*
X114666680Y-93087080D01*
X114738495Y-93308104D01*
X114742096Y-93319185D01*
X114852894Y-93536639D01*
X114996345Y-93734083D01*
X114996347Y-93734085D01*
X114996349Y-93734088D01*
X115168911Y-93906650D01*
X115168914Y-93906652D01*
X115168917Y-93906655D01*
X115366361Y-94050106D01*
X115583815Y-94160904D01*
X115815924Y-94236321D01*
X116056973Y-94274500D01*
X116056976Y-94274500D01*
X116301024Y-94274500D01*
X116301027Y-94274500D01*
X116542076Y-94236321D01*
X116774185Y-94160904D01*
X116991639Y-94050106D01*
X117189083Y-93906655D01*
X117361655Y-93734083D01*
X117505106Y-93536639D01*
X117615904Y-93319185D01*
X117691321Y-93087076D01*
X117729500Y-92846027D01*
X117729500Y-92601973D01*
X117691321Y-92360924D01*
X117615904Y-92128815D01*
X117505106Y-91911361D01*
X117412570Y-91783996D01*
X121919500Y-91783996D01*
X121936393Y-91890660D01*
X121947656Y-91961772D01*
X121968829Y-92026933D01*
X121976079Y-92049245D01*
X122003277Y-92132952D01*
X122023386Y-92172417D01*
X122041187Y-92207354D01*
X122084988Y-92293321D01*
X122084991Y-92293325D01*
X122190787Y-92438941D01*
X122190789Y-92438943D01*
X122190791Y-92438946D01*
X123348053Y-93596208D01*
X123348056Y-93596210D01*
X123348059Y-93596213D01*
X123471229Y-93685701D01*
X123493675Y-93702009D01*
X123654048Y-93783723D01*
X123695595Y-93797222D01*
X123695596Y-93797223D01*
X123695597Y-93797223D01*
X123825230Y-93839344D01*
X124003004Y-93867500D01*
X124003005Y-93867500D01*
X124771653Y-93867500D01*
X124839774Y-93887502D01*
X124853480Y-93897686D01*
X124960104Y-93988752D01*
X124960106Y-93988753D01*
X124960107Y-93988754D01*
X124996219Y-94010883D01*
X125169268Y-94116927D01*
X125395908Y-94210805D01*
X125634443Y-94268072D01*
X125879000Y-94287319D01*
X126123557Y-94268072D01*
X126362092Y-94210805D01*
X126588732Y-94116927D01*
X126797896Y-93988752D01*
X126984433Y-93829433D01*
X127143752Y-93642896D01*
X127232850Y-93497500D01*
X129183001Y-93497500D01*
X129183001Y-93510673D01*
X129193168Y-93610208D01*
X129246607Y-93771478D01*
X129335795Y-93916074D01*
X129335800Y-93916080D01*
X129455919Y-94036199D01*
X129455925Y-94036204D01*
X129600520Y-94125392D01*
X129761789Y-94178830D01*
X129761793Y-94178831D01*
X129861318Y-94188999D01*
X129912000Y-94188998D01*
X129912000Y-93497500D01*
X130420000Y-93497500D01*
X130420000Y-94188999D01*
X130470673Y-94188999D01*
X130570208Y-94178831D01*
X130731479Y-94125392D01*
X130866352Y-94042201D01*
X130934832Y-94023463D01*
X130998648Y-94042201D01*
X131133519Y-94125391D01*
X131294789Y-94178830D01*
X131294793Y-94178831D01*
X131394318Y-94188999D01*
X131445000Y-94188998D01*
X131445000Y-93497500D01*
X131953000Y-93497500D01*
X131953000Y-94188999D01*
X132003673Y-94188999D01*
X132103208Y-94178831D01*
X132264478Y-94125392D01*
X132394853Y-94044976D01*
X132463332Y-94026239D01*
X132527147Y-94044976D01*
X132657520Y-94125392D01*
X132818789Y-94178830D01*
X132818793Y-94178831D01*
X132918318Y-94188999D01*
X132969000Y-94188998D01*
X132969000Y-93497500D01*
X133477000Y-93497500D01*
X133477000Y-94188999D01*
X133527673Y-94188999D01*
X133627208Y-94178831D01*
X133788478Y-94125392D01*
X133933074Y-94036204D01*
X133933080Y-94036199D01*
X134053199Y-93916080D01*
X134053204Y-93916074D01*
X134142392Y-93771479D01*
X134195830Y-93610210D01*
X134195831Y-93610206D01*
X134205999Y-93510681D01*
X134206000Y-93510681D01*
X134206000Y-93497500D01*
X133477000Y-93497500D01*
X132969000Y-93497500D01*
X131953000Y-93497500D01*
X131445000Y-93497500D01*
X130420000Y-93497500D01*
X129912000Y-93497500D01*
X129183001Y-93497500D01*
X127232850Y-93497500D01*
X127271927Y-93433732D01*
X127365805Y-93207092D01*
X127423072Y-92968557D01*
X127442319Y-92724000D01*
X127423072Y-92479443D01*
X127365805Y-92240908D01*
X127271927Y-92014268D01*
X127150213Y-91815647D01*
X127143754Y-91805107D01*
X127143753Y-91805106D01*
X127143752Y-91805104D01*
X126984433Y-91618567D01*
X126797896Y-91459248D01*
X126797894Y-91459246D01*
X126797892Y-91459245D01*
X126675256Y-91384094D01*
X126588732Y-91331073D01*
X126362092Y-91237195D01*
X126123557Y-91179928D01*
X125879000Y-91160681D01*
X125634443Y-91179928D01*
X125395907Y-91237195D01*
X125240214Y-91301686D01*
X125197452Y-91319399D01*
X125169266Y-91331074D01*
X124960107Y-91459245D01*
X124924859Y-91489350D01*
X124863982Y-91541345D01*
X124853484Y-91550311D01*
X124788694Y-91579342D01*
X124771653Y-91580500D01*
X124618844Y-91580500D01*
X124550723Y-91560498D01*
X124529749Y-91543595D01*
X124243405Y-91257251D01*
X124209379Y-91194939D01*
X124206500Y-91168156D01*
X124206500Y-90287647D01*
X124226502Y-90219526D01*
X124280158Y-90173033D01*
X124350432Y-90162929D01*
X124415012Y-90192423D01*
X124439741Y-90221501D01*
X124479947Y-90286686D01*
X124479954Y-90286695D01*
X124605304Y-90412045D01*
X124605310Y-90412050D01*
X124605311Y-90412051D01*
X124756204Y-90505123D01*
X124924494Y-90560888D01*
X124945268Y-90563010D01*
X125028356Y-90571500D01*
X125028364Y-90571500D01*
X125813441Y-90571500D01*
X125872810Y-90588243D01*
X125873464Y-90586961D01*
X125877872Y-90589207D01*
X125877875Y-90589209D01*
X125938402Y-90620049D01*
X126038249Y-90670924D01*
X126209430Y-90726544D01*
X126387205Y-90754700D01*
X127406650Y-90754700D01*
X127474771Y-90774702D01*
X127507518Y-90805191D01*
X127551138Y-90863461D01*
X127668192Y-90951087D01*
X127668194Y-90951088D01*
X127668196Y-90951089D01*
X127720761Y-90970695D01*
X127805195Y-91002188D01*
X127805203Y-91002190D01*
X127865750Y-91008699D01*
X127865755Y-91008699D01*
X127865762Y-91008700D01*
X129115272Y-91008700D01*
X129183393Y-91028702D01*
X129229886Y-91082358D01*
X129239990Y-91152632D01*
X129234878Y-91174325D01*
X129192676Y-91301686D01*
X129192675Y-91301690D01*
X129182500Y-91401280D01*
X129182500Y-91935710D01*
X129192675Y-92035309D01*
X129192676Y-92035314D01*
X129246151Y-92196692D01*
X129335400Y-92341387D01*
X129361271Y-92367258D01*
X129395296Y-92429568D01*
X129390232Y-92500384D01*
X129361273Y-92545447D01*
X129335795Y-92570925D01*
X129246607Y-92715520D01*
X129193169Y-92876789D01*
X129193168Y-92876793D01*
X129183000Y-92976318D01*
X129183000Y-92989500D01*
X134205999Y-92989500D01*
X134205999Y-92976326D01*
X134195831Y-92876791D01*
X134142392Y-92715521D01*
X134053204Y-92570925D01*
X134053199Y-92570919D01*
X134027728Y-92545448D01*
X133993702Y-92483136D01*
X133998767Y-92412321D01*
X134027817Y-92367169D01*
X134028776Y-92366211D01*
X134091124Y-92332251D01*
X134117778Y-92329400D01*
X134288749Y-92329400D01*
X134355784Y-92348712D01*
X134414070Y-92385336D01*
X134576254Y-92442087D01*
X134576253Y-92442087D01*
X134593543Y-92444034D01*
X134747000Y-92461325D01*
X134917746Y-92442087D01*
X135079930Y-92385336D01*
X135225419Y-92293919D01*
X135346919Y-92172419D01*
X135438336Y-92026930D01*
X135452576Y-91986233D01*
X135493951Y-91928544D01*
X135559951Y-91902380D01*
X135629618Y-91916051D01*
X135660599Y-91938754D01*
X136872247Y-93150402D01*
X136872253Y-93150407D01*
X136872259Y-93150413D01*
X136889515Y-93162950D01*
X136889517Y-93162952D01*
X136889518Y-93162952D01*
X137017875Y-93256209D01*
X137126934Y-93311777D01*
X137126933Y-93311777D01*
X137176833Y-93337202D01*
X137178248Y-93337923D01*
X137349424Y-93393541D01*
X137349425Y-93393541D01*
X137349430Y-93393543D01*
X137527204Y-93421700D01*
X137527205Y-93421700D01*
X138439187Y-93421700D01*
X138507308Y-93441702D01*
X138516524Y-93449129D01*
X138516725Y-93448861D01*
X138640992Y-93541887D01*
X138640994Y-93541888D01*
X138640996Y-93541889D01*
X138686076Y-93558703D01*
X138785384Y-93595744D01*
X138784832Y-93597221D01*
X138838669Y-93627876D01*
X138871578Y-93690785D01*
X138874000Y-93715370D01*
X138874000Y-95363670D01*
X138853998Y-95431791D01*
X138837095Y-95452765D01*
X137997765Y-96292095D01*
X137935453Y-96326121D01*
X137908670Y-96329000D01*
X133522640Y-96329000D01*
X133385862Y-96356207D01*
X133363065Y-96360742D01*
X133363062Y-96360742D01*
X133363059Y-96360744D01*
X133275714Y-96396924D01*
X133212741Y-96423008D01*
X133077455Y-96513403D01*
X133077449Y-96513408D01*
X131619457Y-97971402D01*
X131504406Y-98086452D01*
X131504401Y-98086459D01*
X131414008Y-98221742D01*
X131351744Y-98372059D01*
X131351742Y-98372066D01*
X131320000Y-98531640D01*
X131320000Y-101781359D01*
X131340079Y-101882301D01*
X131342500Y-101906882D01*
X131342500Y-102255623D01*
X131342501Y-102255632D01*
X131350746Y-102318254D01*
X131357867Y-102372348D01*
X131357868Y-102372350D01*
X131418020Y-102517575D01*
X131513714Y-102642285D01*
X131638424Y-102737979D01*
X131718564Y-102771173D01*
X131783652Y-102798133D01*
X131900375Y-102813500D01*
X132391624Y-102813499D01*
X132508348Y-102798133D01*
X132573436Y-102771172D01*
X132644024Y-102763584D01*
X132669869Y-102771173D01*
X132733781Y-102797645D01*
X132841999Y-102811893D01*
X132842000Y-102811892D01*
X132842000Y-102602021D01*
X132862002Y-102533900D01*
X132868023Y-102525335D01*
X132873978Y-102517576D01*
X132934133Y-102372348D01*
X132949500Y-102255625D01*
X132949499Y-101906882D01*
X132951920Y-101882301D01*
X132958246Y-101850500D01*
X132972000Y-101781354D01*
X132972000Y-99007331D01*
X132992002Y-98939210D01*
X133008905Y-98918235D01*
X133909237Y-98017904D01*
X133971549Y-97983879D01*
X133998332Y-97981000D01*
X138384353Y-97981000D01*
X138384354Y-97981000D01*
X138543935Y-97949258D01*
X138694258Y-97886992D01*
X138829545Y-97796596D01*
X138944596Y-97681545D01*
X138944597Y-97681542D01*
X138951773Y-97674367D01*
X138951779Y-97674359D01*
X140219358Y-96406780D01*
X140219372Y-96406769D01*
X140341591Y-96284550D01*
X140341596Y-96284545D01*
X140420459Y-96166519D01*
X140431992Y-96149259D01*
X140472155Y-96052296D01*
X140494258Y-95998935D01*
X140526000Y-95839354D01*
X140526000Y-93715370D01*
X140546002Y-93647249D01*
X140599658Y-93600756D01*
X140618421Y-93594324D01*
X140621999Y-93592989D01*
X140622001Y-93592989D01*
X140759004Y-93541889D01*
X140802203Y-93509551D01*
X140876061Y-93454261D01*
X140963687Y-93337207D01*
X140963687Y-93337206D01*
X140963689Y-93337204D01*
X141014789Y-93200201D01*
X141017154Y-93178210D01*
X141021299Y-93139649D01*
X141021300Y-93139632D01*
X141021300Y-91416767D01*
X141021299Y-91416750D01*
X141014790Y-91356203D01*
X141014788Y-91356195D01*
X140967449Y-91229277D01*
X140963689Y-91219196D01*
X140963688Y-91219194D01*
X140963687Y-91219192D01*
X140876061Y-91102138D01*
X140759007Y-91014512D01*
X140759002Y-91014510D01*
X140622004Y-90963411D01*
X140621996Y-90963409D01*
X140561449Y-90956900D01*
X140561438Y-90956900D01*
X138838562Y-90956900D01*
X138838550Y-90956900D01*
X138778003Y-90963409D01*
X138777995Y-90963411D01*
X138640997Y-91014510D01*
X138640992Y-91014512D01*
X138516725Y-91107539D01*
X138514900Y-91105101D01*
X138465970Y-91131821D01*
X138439187Y-91134700D01*
X138143044Y-91134700D01*
X138074923Y-91114698D01*
X138053949Y-91097795D01*
X137578405Y-90622251D01*
X137544379Y-90559939D01*
X137541500Y-90533156D01*
X137541500Y-87249000D01*
X138040000Y-87249000D01*
X138040000Y-88943597D01*
X138046505Y-89004093D01*
X138097555Y-89140964D01*
X138097555Y-89140965D01*
X138185095Y-89257904D01*
X138302034Y-89345444D01*
X138438906Y-89396494D01*
X138499402Y-89402999D01*
X138499415Y-89403000D01*
X139294000Y-89403000D01*
X139294000Y-87249000D01*
X139802000Y-87249000D01*
X139802000Y-89403000D01*
X140596585Y-89403000D01*
X140596597Y-89402999D01*
X140657093Y-89396494D01*
X140793964Y-89345444D01*
X140793965Y-89345444D01*
X140910904Y-89257904D01*
X140998444Y-89140965D01*
X140998444Y-89140964D01*
X141049494Y-89004093D01*
X141055999Y-88943597D01*
X141056000Y-88943585D01*
X141056000Y-87249000D01*
X139802000Y-87249000D01*
X139294000Y-87249000D01*
X138040000Y-87249000D01*
X137541500Y-87249000D01*
X137541500Y-86741000D01*
X138040000Y-86741000D01*
X139294000Y-86741000D01*
X139294000Y-84587000D01*
X139802000Y-84587000D01*
X139802000Y-86741000D01*
X141056000Y-86741000D01*
X141056000Y-85046414D01*
X141055999Y-85046402D01*
X141049494Y-84985906D01*
X140998444Y-84849035D01*
X140998444Y-84849034D01*
X140910904Y-84732095D01*
X140793965Y-84644555D01*
X140657093Y-84593505D01*
X140596597Y-84587000D01*
X139802000Y-84587000D01*
X139294000Y-84587000D01*
X138499402Y-84587000D01*
X138438906Y-84593505D01*
X138302035Y-84644555D01*
X138302034Y-84644555D01*
X138185095Y-84732095D01*
X138097555Y-84849034D01*
X138097555Y-84849035D01*
X138046505Y-84985906D01*
X138040000Y-85046402D01*
X138040000Y-86741000D01*
X137541500Y-86741000D01*
X137541500Y-85889008D01*
X137540332Y-85881632D01*
X137513343Y-85711230D01*
X137457723Y-85540048D01*
X137376009Y-85379675D01*
X137295404Y-85268732D01*
X137270213Y-85234059D01*
X137270207Y-85234053D01*
X137270202Y-85234047D01*
X135858946Y-83822791D01*
X135858943Y-83822789D01*
X135858941Y-83822787D01*
X135785598Y-83769500D01*
X135713334Y-83716997D01*
X135713330Y-83716995D01*
X135713325Y-83716991D01*
X135677615Y-83698796D01*
X135677612Y-83698794D01*
X135677611Y-83698793D01*
X135552953Y-83635277D01*
X135552945Y-83635274D01*
X135510972Y-83621635D01*
X135510972Y-83621636D01*
X135381773Y-83579657D01*
X135381775Y-83579657D01*
X135381771Y-83579656D01*
X135381770Y-83579656D01*
X135203996Y-83551500D01*
X135203995Y-83551500D01*
X135203994Y-83551500D01*
X134612804Y-83551500D01*
X134544683Y-83531498D01*
X134537295Y-83526368D01*
X134494207Y-83494112D01*
X134494204Y-83494111D01*
X134448466Y-83477051D01*
X134391631Y-83434504D01*
X134366821Y-83367983D01*
X134366500Y-83358996D01*
X134366500Y-82206008D01*
X134366289Y-82204675D01*
X134338343Y-82028230D01*
X134282723Y-81857048D01*
X134201009Y-81696675D01*
X134095213Y-81551060D01*
X134095211Y-81551057D01*
X134079598Y-81535444D01*
X134045572Y-81473132D01*
X134050637Y-81402317D01*
X134061453Y-81380201D01*
X134142391Y-81248980D01*
X134195830Y-81087710D01*
X134195831Y-81087706D01*
X134205999Y-80988181D01*
X134206000Y-80988181D01*
X134206000Y-80975000D01*
X129192001Y-80975000D01*
X129192001Y-80988173D01*
X129202168Y-81087708D01*
X129255607Y-81248978D01*
X129336546Y-81380201D01*
X129355283Y-81448681D01*
X129334024Y-81516419D01*
X129318401Y-81535443D01*
X128794785Y-82059060D01*
X128747957Y-82123516D01*
X128747956Y-82123517D01*
X128688993Y-82204671D01*
X128606823Y-82365939D01*
X128605747Y-82369755D01*
X128551657Y-82536224D01*
X128534571Y-82644105D01*
X128523500Y-82714006D01*
X128523500Y-82855300D01*
X128503498Y-82923421D01*
X128449842Y-82969914D01*
X128397500Y-82981300D01*
X127865750Y-82981300D01*
X127805203Y-82987809D01*
X127805195Y-82987811D01*
X127668197Y-83038910D01*
X127668192Y-83038912D01*
X127551138Y-83126538D01*
X127463512Y-83243592D01*
X127463510Y-83243597D01*
X127412411Y-83380595D01*
X127412409Y-83380603D01*
X127405900Y-83441150D01*
X127405900Y-84039128D01*
X127385898Y-84107249D01*
X127332242Y-84153742D01*
X127261968Y-84163846D01*
X127197388Y-84134352D01*
X127172467Y-84104963D01*
X127172359Y-84104787D01*
X127143752Y-84058104D01*
X126984433Y-83871567D01*
X126797896Y-83712248D01*
X126797894Y-83712246D01*
X126797892Y-83712245D01*
X126672285Y-83635274D01*
X126588732Y-83584073D01*
X126362092Y-83490195D01*
X126123557Y-83432928D01*
X125879000Y-83413681D01*
X125634443Y-83432928D01*
X125395907Y-83490195D01*
X125169266Y-83584074D01*
X124960107Y-83712245D01*
X124902401Y-83761530D01*
X124863982Y-83794345D01*
X124853484Y-83803311D01*
X124788694Y-83832342D01*
X124771653Y-83833500D01*
X124154996Y-83833500D01*
X123975004Y-83833500D01*
X123903894Y-83844762D01*
X123797227Y-83861656D01*
X123690418Y-83896362D01*
X123626048Y-83917277D01*
X123626046Y-83917277D01*
X123626040Y-83917280D01*
X123528623Y-83966916D01*
X123528624Y-83966917D01*
X123465671Y-83998992D01*
X123320056Y-84104789D01*
X123320053Y-84104791D01*
X122190791Y-85234053D01*
X122190789Y-85234056D01*
X122129728Y-85318100D01*
X122084993Y-85379672D01*
X122003278Y-85540044D01*
X121998586Y-85554488D01*
X121998585Y-85554490D01*
X121949388Y-85705901D01*
X121947656Y-85711230D01*
X121929511Y-85825798D01*
X121919500Y-85889005D01*
X121919500Y-91604004D01*
X121919500Y-91783996D01*
X117412570Y-91783996D01*
X117361655Y-91713917D01*
X117361652Y-91713914D01*
X117361650Y-91713911D01*
X117189088Y-91541349D01*
X117189085Y-91541347D01*
X117189083Y-91541345D01*
X116996312Y-91401289D01*
X116991642Y-91397896D01*
X116991641Y-91397895D01*
X116991639Y-91397894D01*
X116774185Y-91287096D01*
X116774182Y-91287095D01*
X116774180Y-91287094D01*
X116542080Y-91211680D01*
X116542078Y-91211679D01*
X116542076Y-91211679D01*
X116301027Y-91173500D01*
X116056973Y-91173500D01*
X115815924Y-91211679D01*
X115815922Y-91211679D01*
X115815919Y-91211680D01*
X115583819Y-91287094D01*
X115583813Y-91287097D01*
X115366357Y-91397896D01*
X115168914Y-91541347D01*
X115168911Y-91541349D01*
X114996349Y-91713911D01*
X114996347Y-91713914D01*
X114852896Y-91911357D01*
X114742097Y-92128813D01*
X114742094Y-92128819D01*
X114666680Y-92360919D01*
X114666679Y-92360922D01*
X114666679Y-92360924D01*
X114628500Y-92601973D01*
X114628500Y-92846027D01*
X114300000Y-92846027D01*
X114300000Y-89135027D01*
X114628500Y-89135027D01*
X114666655Y-89375925D01*
X114666680Y-89376080D01*
X114735086Y-89586613D01*
X114742096Y-89608185D01*
X114852894Y-89825639D01*
X114996345Y-90023083D01*
X114996347Y-90023085D01*
X114996349Y-90023088D01*
X115168911Y-90195650D01*
X115168914Y-90195652D01*
X115168917Y-90195655D01*
X115366361Y-90339106D01*
X115583815Y-90449904D01*
X115815924Y-90525321D01*
X116056973Y-90563500D01*
X116056976Y-90563500D01*
X116301024Y-90563500D01*
X116301027Y-90563500D01*
X116542076Y-90525321D01*
X116774185Y-90449904D01*
X116991639Y-90339106D01*
X117189083Y-90195655D01*
X117361655Y-90023083D01*
X117505106Y-89825639D01*
X117615904Y-89608185D01*
X117691321Y-89376076D01*
X117729500Y-89135027D01*
X117729500Y-88890973D01*
X117691321Y-88649924D01*
X117615904Y-88417815D01*
X117505106Y-88200361D01*
X117361655Y-88002917D01*
X117361652Y-88002914D01*
X117361650Y-88002911D01*
X117189088Y-87830349D01*
X117189085Y-87830347D01*
X117189083Y-87830345D01*
X116991639Y-87686894D01*
X116774185Y-87576096D01*
X116774182Y-87576095D01*
X116774180Y-87576094D01*
X116542080Y-87500680D01*
X116542078Y-87500679D01*
X116542076Y-87500679D01*
X116301027Y-87462500D01*
X116056973Y-87462500D01*
X115815924Y-87500679D01*
X115815922Y-87500679D01*
X115815919Y-87500680D01*
X115583819Y-87576094D01*
X115583813Y-87576097D01*
X115366357Y-87686896D01*
X115168914Y-87830347D01*
X115168911Y-87830349D01*
X114996349Y-88002911D01*
X114996347Y-88002914D01*
X114852896Y-88200357D01*
X114742097Y-88417813D01*
X114742094Y-88417819D01*
X114666680Y-88649919D01*
X114666679Y-88649922D01*
X114666679Y-88649924D01*
X114628500Y-88890973D01*
X114628500Y-89135027D01*
X114300000Y-89135027D01*
X114300000Y-85099027D01*
X114628500Y-85099027D01*
X114666679Y-85340076D01*
X114666680Y-85340080D01*
X114736529Y-85555054D01*
X114742096Y-85572185D01*
X114852894Y-85789639D01*
X114852896Y-85789642D01*
X114866419Y-85808255D01*
X114996345Y-85987083D01*
X114996347Y-85987085D01*
X114996349Y-85987088D01*
X115168911Y-86159650D01*
X115168914Y-86159652D01*
X115168917Y-86159655D01*
X115366361Y-86303106D01*
X115583815Y-86413904D01*
X115815924Y-86489321D01*
X116056973Y-86527500D01*
X116056976Y-86527500D01*
X116301024Y-86527500D01*
X116301027Y-86527500D01*
X116542076Y-86489321D01*
X116774185Y-86413904D01*
X116991639Y-86303106D01*
X117189083Y-86159655D01*
X117361655Y-85987083D01*
X117505106Y-85789639D01*
X117615904Y-85572185D01*
X117691321Y-85340076D01*
X117729500Y-85099027D01*
X117729500Y-84854973D01*
X117691321Y-84613924D01*
X117615904Y-84381815D01*
X117505106Y-84164361D01*
X117361655Y-83966917D01*
X117361652Y-83966914D01*
X117361650Y-83966911D01*
X117189088Y-83794349D01*
X117189085Y-83794347D01*
X117189083Y-83794345D01*
X116991639Y-83650894D01*
X116774185Y-83540096D01*
X116774182Y-83540095D01*
X116774180Y-83540094D01*
X116542080Y-83464680D01*
X116542078Y-83464679D01*
X116542076Y-83464679D01*
X116301027Y-83426500D01*
X116056973Y-83426500D01*
X115815924Y-83464679D01*
X115815922Y-83464679D01*
X115815919Y-83464680D01*
X115583819Y-83540094D01*
X115583813Y-83540097D01*
X115366357Y-83650896D01*
X115168914Y-83794347D01*
X115168911Y-83794349D01*
X114996349Y-83966911D01*
X114996347Y-83966914D01*
X114852896Y-84164357D01*
X114742097Y-84381813D01*
X114742094Y-84381819D01*
X114666680Y-84613919D01*
X114666679Y-84613922D01*
X114666679Y-84613924D01*
X114628500Y-84854973D01*
X114628500Y-85099027D01*
X114300000Y-85099027D01*
X114300000Y-80010641D01*
X114300004Y-80010005D01*
X115691728Y-80010005D01*
X115710795Y-80313073D01*
X115710798Y-80313096D01*
X115740156Y-80467000D01*
X115767702Y-80611400D01*
X115861548Y-80900225D01*
X115990852Y-81175011D01*
X115990854Y-81175014D01*
X115990857Y-81175020D01*
X116153576Y-81431425D01*
X116153579Y-81431428D01*
X116347153Y-81665418D01*
X116347157Y-81665422D01*
X116568536Y-81873312D01*
X116781763Y-82028230D01*
X116814225Y-82051815D01*
X117080350Y-82198118D01*
X117285617Y-82279388D01*
X117362707Y-82309911D01*
X117362710Y-82309911D01*
X117362713Y-82309913D01*
X117656861Y-82385438D01*
X117958155Y-82423500D01*
X117958159Y-82423500D01*
X118261841Y-82423500D01*
X118261845Y-82423500D01*
X118563139Y-82385438D01*
X118857287Y-82309913D01*
X119139650Y-82198118D01*
X119405775Y-82051815D01*
X119651465Y-81873311D01*
X119872844Y-81665421D01*
X120066423Y-81431425D01*
X120229148Y-81175011D01*
X120358452Y-80900225D01*
X120452298Y-80611400D01*
X120479843Y-80467000D01*
X129192000Y-80467000D01*
X129921000Y-80467000D01*
X130429000Y-80467000D01*
X131445000Y-80467000D01*
X131953000Y-80467000D01*
X132969000Y-80467000D01*
X132969000Y-79775500D01*
X133477000Y-79775500D01*
X133477000Y-80467000D01*
X134205999Y-80467000D01*
X134205999Y-80453826D01*
X134195831Y-80354291D01*
X134142392Y-80193021D01*
X134053204Y-80048425D01*
X134053199Y-80048419D01*
X133933080Y-79928300D01*
X133933074Y-79928295D01*
X133788479Y-79839107D01*
X133627210Y-79785669D01*
X133627206Y-79785668D01*
X133527681Y-79775500D01*
X133477000Y-79775500D01*
X132969000Y-79775500D01*
X132968999Y-79775499D01*
X132918327Y-79775500D01*
X132818791Y-79785668D01*
X132657521Y-79839107D01*
X132527147Y-79919523D01*
X132458667Y-79938260D01*
X132394853Y-79919523D01*
X132264479Y-79839107D01*
X132103210Y-79785669D01*
X132103206Y-79785668D01*
X132003681Y-79775500D01*
X131953000Y-79775500D01*
X131953000Y-80467000D01*
X131445000Y-80467000D01*
X131445000Y-79775500D01*
X131444999Y-79775499D01*
X131394327Y-79775500D01*
X131294791Y-79785668D01*
X131133521Y-79839107D01*
X131003147Y-79919523D01*
X130934667Y-79938260D01*
X130870853Y-79919523D01*
X130740479Y-79839107D01*
X130579210Y-79785669D01*
X130579206Y-79785668D01*
X130479681Y-79775500D01*
X130429000Y-79775500D01*
X130429000Y-80467000D01*
X129921000Y-80467000D01*
X129921000Y-79775500D01*
X129920999Y-79775499D01*
X129870327Y-79775500D01*
X129770791Y-79785668D01*
X129609521Y-79839107D01*
X129464925Y-79928295D01*
X129464919Y-79928300D01*
X129344800Y-80048419D01*
X129344795Y-80048425D01*
X129255607Y-80193020D01*
X129202169Y-80354289D01*
X129202168Y-80354293D01*
X129192000Y-80453818D01*
X129192000Y-80467000D01*
X120479843Y-80467000D01*
X120509203Y-80313090D01*
X120522704Y-80098500D01*
X120528272Y-80010005D01*
X120528272Y-80009994D01*
X120509204Y-79706926D01*
X120509203Y-79706910D01*
X120452298Y-79408600D01*
X120358452Y-79119775D01*
X120229148Y-78844989D01*
X120229142Y-78844979D01*
X120162522Y-78740003D01*
X122184659Y-78740003D01*
X122203974Y-78936124D01*
X122203974Y-78936126D01*
X122261186Y-79124728D01*
X122322801Y-79240000D01*
X122354090Y-79298538D01*
X122479117Y-79450883D01*
X122631462Y-79575910D01*
X122805273Y-79668814D01*
X122993868Y-79726024D01*
X122993872Y-79726024D01*
X122993874Y-79726025D01*
X123189997Y-79745341D01*
X123190000Y-79745341D01*
X123190003Y-79745341D01*
X123386124Y-79726025D01*
X123386126Y-79726025D01*
X123386127Y-79726024D01*
X123386132Y-79726024D01*
X123574727Y-79668814D01*
X123748538Y-79575910D01*
X123900883Y-79450883D01*
X124025910Y-79298538D01*
X124118814Y-79124727D01*
X124176024Y-78936132D01*
X124176333Y-78932993D01*
X124195341Y-78740003D01*
X124195341Y-78739996D01*
X124176025Y-78543875D01*
X124176025Y-78543873D01*
X124176024Y-78543870D01*
X124176024Y-78543868D01*
X124118814Y-78355273D01*
X124110597Y-78339901D01*
X124081325Y-78285137D01*
X124025910Y-78181462D01*
X123900883Y-78029117D01*
X123748538Y-77904090D01*
X123745992Y-77902729D01*
X123574728Y-77811186D01*
X123386125Y-77753974D01*
X123190003Y-77734659D01*
X123189997Y-77734659D01*
X122993875Y-77753974D01*
X122993873Y-77753974D01*
X122805271Y-77811186D01*
X122631461Y-77904090D01*
X122479117Y-78029117D01*
X122354090Y-78181461D01*
X122261186Y-78355271D01*
X122203974Y-78543873D01*
X122203974Y-78543875D01*
X122184659Y-78739996D01*
X122184659Y-78740003D01*
X120162522Y-78740003D01*
X120066423Y-78588574D01*
X120066420Y-78588571D01*
X119872846Y-78354581D01*
X119872842Y-78354577D01*
X119651463Y-78146687D01*
X119405777Y-77968186D01*
X119289186Y-77904090D01*
X119139650Y-77821882D01*
X119036156Y-77780906D01*
X118857292Y-77710088D01*
X118857274Y-77710083D01*
X118563153Y-77634565D01*
X118563145Y-77634563D01*
X118563139Y-77634562D01*
X118563129Y-77634560D01*
X118563125Y-77634560D01*
X118261859Y-77596501D01*
X118261848Y-77596500D01*
X118261845Y-77596500D01*
X117958155Y-77596500D01*
X117958152Y-77596500D01*
X117958140Y-77596501D01*
X117656874Y-77634560D01*
X117656867Y-77634561D01*
X117656861Y-77634562D01*
X117656856Y-77634563D01*
X117656846Y-77634565D01*
X117362725Y-77710083D01*
X117362707Y-77710088D01*
X117080350Y-77821882D01*
X116814222Y-77968186D01*
X116568536Y-78146687D01*
X116347157Y-78354577D01*
X116347153Y-78354581D01*
X116153579Y-78588571D01*
X116153576Y-78588574D01*
X115990857Y-78844979D01*
X115990850Y-78844993D01*
X115861551Y-79119768D01*
X115861549Y-79119772D01*
X115767703Y-79408596D01*
X115767701Y-79408603D01*
X115710798Y-79706903D01*
X115710795Y-79706926D01*
X115691728Y-80009994D01*
X115691728Y-80010005D01*
X114300004Y-80010005D01*
X114300009Y-80009367D01*
X114302449Y-79816243D01*
X114303127Y-79804701D01*
X114343548Y-79420118D01*
X114345607Y-79407117D01*
X114425841Y-79029646D01*
X114429254Y-79016914D01*
X114436700Y-78994000D01*
X114548494Y-78649930D01*
X114553219Y-78637621D01*
X114575058Y-78588571D01*
X114710174Y-78285094D01*
X114716161Y-78273346D01*
X114909105Y-77939156D01*
X114916268Y-77928126D01*
X115143093Y-77615927D01*
X115151390Y-77605683D01*
X115353245Y-77381500D01*
X115409600Y-77318911D01*
X115418911Y-77309600D01*
X115585903Y-77159239D01*
X115705683Y-77051390D01*
X115715932Y-77043090D01*
X116028126Y-76816268D01*
X116039156Y-76809105D01*
X116373348Y-76616159D01*
X116385097Y-76610173D01*
X116737437Y-76453301D01*
X116737625Y-76453217D01*
X116749930Y-76448494D01*
X117116921Y-76329251D01*
X117129646Y-76325841D01*
X117507117Y-76245607D01*
X117520118Y-76243548D01*
X117904701Y-76203127D01*
X117916252Y-76202448D01*
X118109367Y-76200009D01*
X118110641Y-76200000D01*
X168909191Y-76200000D01*
X168910839Y-76200011D01*
G37*
G04 #@! TD.AperFunction*
M02*
