G04 #@! TF.GenerationSoftware,KiCad,Pcbnew,8.0.1-rc1*
G04 #@! TF.CreationDate,2024-03-28T09:47:17-05:00*
G04 #@! TF.ProjectId,motor_control,6d6f746f-725f-4636-9f6e-74726f6c2e6b,1.0*
G04 #@! TF.SameCoordinates,Original*
G04 #@! TF.FileFunction,Copper,L2,Bot*
G04 #@! TF.FilePolarity,Positive*
%FSLAX46Y46*%
G04 Gerber Fmt 4.6, Leading zero omitted, Abs format (unit mm)*
G04 Created by KiCad (PCBNEW 8.0.1-rc1) date 2024-03-28 09:47:17*
%MOMM*%
%LPD*%
G01*
G04 APERTURE LIST*
G04 Aperture macros list*
%AMRoundRect*
0 Rectangle with rounded corners*
0 $1 Rounding radius*
0 $2 $3 $4 $5 $6 $7 $8 $9 X,Y pos of 4 corners*
0 Add a 4 corners polygon primitive as box body*
4,1,4,$2,$3,$4,$5,$6,$7,$8,$9,$2,$3,0*
0 Add four circle primitives for the rounded corners*
1,1,$1+$1,$2,$3*
1,1,$1+$1,$4,$5*
1,1,$1+$1,$6,$7*
1,1,$1+$1,$8,$9*
0 Add four rect primitives between the rounded corners*
20,1,$1+$1,$2,$3,$4,$5,0*
20,1,$1+$1,$4,$5,$6,$7,0*
20,1,$1+$1,$6,$7,$8,$9,0*
20,1,$1+$1,$8,$9,$2,$3,0*%
G04 Aperture macros list end*
G04 #@! TA.AperFunction,WasherPad*
%ADD10C,3.810000*%
G04 #@! TD*
G04 #@! TA.AperFunction,ComponentPad*
%ADD11R,1.700000X1.700000*%
G04 #@! TD*
G04 #@! TA.AperFunction,ComponentPad*
%ADD12O,1.700000X1.700000*%
G04 #@! TD*
G04 #@! TA.AperFunction,ComponentPad*
%ADD13RoundRect,0.249900X-0.800100X0.800100X-0.800100X-0.800100X0.800100X-0.800100X0.800100X0.800100X0*%
G04 #@! TD*
G04 #@! TA.AperFunction,ComponentPad*
%ADD14C,2.100000*%
G04 #@! TD*
G04 #@! TA.AperFunction,ComponentPad*
%ADD15R,1.625600X1.625600*%
G04 #@! TD*
G04 #@! TA.AperFunction,ComponentPad*
%ADD16C,1.625600*%
G04 #@! TD*
G04 #@! TA.AperFunction,ViaPad*
%ADD17C,0.508000*%
G04 #@! TD*
G04 #@! TA.AperFunction,ViaPad*
%ADD18C,1.016000*%
G04 #@! TD*
G04 #@! TA.AperFunction,Conductor*
%ADD19C,1.270000*%
G04 #@! TD*
G04 #@! TA.AperFunction,Conductor*
%ADD20C,0.304800*%
G04 #@! TD*
G04 APERTURE END LIST*
D10*
X168910000Y-118110000D03*
X118110000Y-118110000D03*
X168910000Y-80010000D03*
X118110000Y-80010000D03*
D11*
X170180000Y-101600000D03*
D12*
X170180000Y-104140000D03*
X170180000Y-106680000D03*
X170180000Y-109220000D03*
D11*
X152146000Y-119380000D03*
D12*
X154686000Y-119380000D03*
X157226000Y-119380000D03*
X159766000Y-119380000D03*
D11*
X156220000Y-78740000D03*
D12*
X158760000Y-78740000D03*
X161300000Y-78740000D03*
X163840000Y-78740000D03*
D13*
X125879000Y-89013000D03*
D14*
X125879000Y-84977000D03*
D11*
X170180000Y-88910000D03*
D12*
X170180000Y-91450000D03*
X170180000Y-93990000D03*
X170180000Y-96530000D03*
D13*
X125879000Y-96760000D03*
D14*
X125879000Y-92724000D03*
D11*
X116840000Y-100457000D03*
D12*
X116840000Y-102997000D03*
X116840000Y-105537000D03*
X116840000Y-108077000D03*
X116840000Y-110617000D03*
X116840000Y-113157000D03*
D15*
X139700000Y-92278200D03*
D16*
X139700000Y-113461800D03*
D11*
X156596000Y-86106000D03*
D12*
X154056000Y-86106000D03*
D17*
X132842000Y-108712000D03*
X155321000Y-95377000D03*
X135636000Y-105664000D03*
X157353000Y-88773000D03*
X164084000Y-94107000D03*
X165989000Y-103759000D03*
X153670000Y-102489000D03*
X161417000Y-85979000D03*
X134747000Y-91694000D03*
X162306000Y-111252000D03*
X153543000Y-109347000D03*
D18*
X131191000Y-86995000D03*
X141859000Y-86995000D03*
D17*
X154559000Y-96266000D03*
X154559000Y-100330000D03*
X156210000Y-102489000D03*
X154924931Y-101460512D03*
X154940000Y-105029000D03*
X156464000Y-105791000D03*
X126365000Y-99695000D03*
X159219700Y-92456000D03*
X167223858Y-99829978D03*
X126923300Y-100965000D03*
X158623000Y-92964000D03*
X127508000Y-100343412D03*
D19*
X131191000Y-86995000D02*
X141859000Y-86995000D01*
D20*
X154559000Y-96266000D02*
X154559000Y-100330000D01*
X127495088Y-101358912D02*
X125857000Y-102997000D01*
X155953419Y-102489000D02*
X154924931Y-101460512D01*
X125857000Y-102997000D02*
X116840000Y-102997000D01*
X156210000Y-102489000D02*
X155953419Y-102489000D01*
X154940000Y-105029000D02*
X151269912Y-101358912D01*
X151269912Y-101358912D02*
X127495088Y-101358912D01*
X154911737Y-105791000D02*
X150936849Y-101816112D01*
X117983000Y-110617000D02*
X116840000Y-110617000D01*
X119557800Y-103454200D02*
X118618000Y-104394000D01*
X118618000Y-104394000D02*
X118618000Y-109982000D01*
X118618000Y-109982000D02*
X117983000Y-110617000D01*
X156464000Y-105791000D02*
X154911737Y-105791000D01*
X150936849Y-101816112D02*
X127684466Y-101816112D01*
X126046378Y-103454200D02*
X119557800Y-103454200D01*
X127684466Y-101816112D02*
X126046378Y-103454200D01*
X159168900Y-92405200D02*
X158343600Y-92405200D01*
X158242000Y-92506800D02*
X155611359Y-92506800D01*
X159219700Y-92456000D02*
X159168900Y-92405200D01*
X151207110Y-99987312D02*
X127942163Y-99987312D01*
X152958800Y-98235622D02*
X151207110Y-99987312D01*
X158343600Y-92405200D02*
X158242000Y-92506800D01*
X155611359Y-92506800D02*
X152958801Y-95159358D01*
X152958801Y-95159358D02*
X152958800Y-98235622D01*
X127942163Y-99987312D02*
X127649851Y-99695000D01*
X127649851Y-99695000D02*
X126365000Y-99695000D01*
X166152124Y-100901712D02*
X167223858Y-99829978D01*
X126923300Y-100965000D02*
X126986588Y-100901712D01*
X126986588Y-100901712D02*
X166152124Y-100901712D01*
X158623000Y-92964000D02*
X155800737Y-92964000D01*
X127609100Y-100444512D02*
X127508000Y-100343412D01*
X151396488Y-100444512D02*
X127609100Y-100444512D01*
X153416000Y-98425000D02*
X151396488Y-100444512D01*
X153416000Y-95348737D02*
X153416000Y-98425000D01*
X155800737Y-92964000D02*
X153416000Y-95348737D01*
G04 #@! TA.AperFunction,Conductor*
G36*
X168910839Y-76200011D02*
G01*
X168922255Y-76200160D01*
X169103762Y-76202535D01*
X169115270Y-76203213D01*
X169499859Y-76243635D01*
X169512875Y-76245696D01*
X169890325Y-76325925D01*
X169903059Y-76329338D01*
X170270048Y-76448580D01*
X170282333Y-76453295D01*
X170545509Y-76570469D01*
X170634862Y-76610252D01*
X170646613Y-76616240D01*
X170787510Y-76697586D01*
X170980786Y-76809174D01*
X170991833Y-76816348D01*
X171290513Y-77033351D01*
X171304017Y-77043163D01*
X171314266Y-77051463D01*
X171601018Y-77309655D01*
X171610344Y-77318981D01*
X171868536Y-77605733D01*
X171876836Y-77615982D01*
X171897041Y-77643792D01*
X172085400Y-77903045D01*
X172103647Y-77928159D01*
X172110830Y-77939220D01*
X172303759Y-78273386D01*
X172309747Y-78285137D01*
X172340666Y-78354581D01*
X172444845Y-78588571D01*
X172466698Y-78637652D01*
X172471424Y-78649965D01*
X172590660Y-79016937D01*
X172594074Y-79029676D01*
X172674302Y-79407119D01*
X172676365Y-79420146D01*
X172716785Y-79804722D01*
X172717464Y-79816243D01*
X172719989Y-80009159D01*
X172720000Y-80010808D01*
X172720000Y-118109191D01*
X172719989Y-118110840D01*
X172717464Y-118303756D01*
X172716785Y-118315277D01*
X172676365Y-118699853D01*
X172674302Y-118712880D01*
X172594074Y-119090323D01*
X172590660Y-119103062D01*
X172471424Y-119470034D01*
X172466698Y-119482347D01*
X172309747Y-119834862D01*
X172303759Y-119846613D01*
X172110830Y-120180779D01*
X172103647Y-120191840D01*
X171876836Y-120504017D01*
X171868536Y-120514266D01*
X171610344Y-120801018D01*
X171601018Y-120810344D01*
X171314266Y-121068536D01*
X171304017Y-121076836D01*
X170991840Y-121303647D01*
X170980779Y-121310830D01*
X170646613Y-121503759D01*
X170634862Y-121509747D01*
X170282347Y-121666698D01*
X170270034Y-121671424D01*
X169903062Y-121790660D01*
X169890323Y-121794074D01*
X169512880Y-121874302D01*
X169499853Y-121876365D01*
X169115277Y-121916785D01*
X169103756Y-121917464D01*
X168910841Y-121919989D01*
X168909192Y-121920000D01*
X118110808Y-121920000D01*
X118109159Y-121919989D01*
X117916243Y-121917464D01*
X117904722Y-121916785D01*
X117520146Y-121876365D01*
X117507119Y-121874302D01*
X117129676Y-121794074D01*
X117116937Y-121790660D01*
X116847617Y-121703153D01*
X116749961Y-121671422D01*
X116737656Y-121666699D01*
X116648299Y-121626915D01*
X116385137Y-121509747D01*
X116373386Y-121503759D01*
X116039220Y-121310830D01*
X116028159Y-121303647D01*
X115715982Y-121076836D01*
X115705733Y-121068536D01*
X115418981Y-120810344D01*
X115409655Y-120801018D01*
X115151463Y-120514266D01*
X115143163Y-120504017D01*
X115129662Y-120485434D01*
X114916348Y-120191833D01*
X114909174Y-120180786D01*
X114716240Y-119846613D01*
X114710252Y-119834862D01*
X114607632Y-119604375D01*
X114553295Y-119482333D01*
X114548580Y-119470048D01*
X114429338Y-119103059D01*
X114425925Y-119090323D01*
X114345696Y-118712875D01*
X114343634Y-118699853D01*
X114327120Y-118542734D01*
X114303213Y-118315270D01*
X114302535Y-118303755D01*
X114301685Y-118238811D01*
X114300011Y-118110839D01*
X114300005Y-118110005D01*
X115691728Y-118110005D01*
X115710795Y-118413073D01*
X115710798Y-118413096D01*
X115735527Y-118542734D01*
X115767702Y-118711400D01*
X115861548Y-119000225D01*
X115990852Y-119275011D01*
X115990854Y-119275014D01*
X115990857Y-119275020D01*
X116153576Y-119531425D01*
X116153579Y-119531428D01*
X116347153Y-119765418D01*
X116347157Y-119765422D01*
X116568536Y-119973312D01*
X116681891Y-120055669D01*
X116814225Y-120151815D01*
X117080350Y-120298118D01*
X117231449Y-120357942D01*
X117362707Y-120409911D01*
X117362710Y-120409911D01*
X117362713Y-120409913D01*
X117656861Y-120485438D01*
X117958155Y-120523500D01*
X117958159Y-120523500D01*
X118261841Y-120523500D01*
X118261845Y-120523500D01*
X118563139Y-120485438D01*
X118857287Y-120409913D01*
X119139650Y-120298118D01*
X119175064Y-120278649D01*
X150787500Y-120278649D01*
X150794009Y-120339196D01*
X150794011Y-120339204D01*
X150845110Y-120476202D01*
X150845112Y-120476207D01*
X150932738Y-120593261D01*
X151049792Y-120680887D01*
X151049794Y-120680888D01*
X151049796Y-120680889D01*
X151104900Y-120701442D01*
X151186795Y-120731988D01*
X151186803Y-120731990D01*
X151247350Y-120738499D01*
X151247355Y-120738499D01*
X151247362Y-120738500D01*
X151247368Y-120738500D01*
X153044632Y-120738500D01*
X153044638Y-120738500D01*
X153044645Y-120738499D01*
X153044649Y-120738499D01*
X153105196Y-120731990D01*
X153105199Y-120731989D01*
X153105201Y-120731989D01*
X153242204Y-120680889D01*
X153312399Y-120628342D01*
X153359261Y-120593261D01*
X153446886Y-120476208D01*
X153446885Y-120476208D01*
X153446889Y-120476204D01*
X153490999Y-120357939D01*
X153533545Y-120301107D01*
X153600066Y-120276296D01*
X153669440Y-120291388D01*
X153701753Y-120316635D01*
X153722529Y-120339204D01*
X153762762Y-120382908D01*
X153797458Y-120409913D01*
X153940424Y-120521189D01*
X154138426Y-120628342D01*
X154138427Y-120628342D01*
X154138428Y-120628343D01*
X154250227Y-120666723D01*
X154351365Y-120701444D01*
X154573431Y-120738500D01*
X154573435Y-120738500D01*
X154798565Y-120738500D01*
X154798569Y-120738500D01*
X155020635Y-120701444D01*
X155233574Y-120628342D01*
X155431576Y-120521189D01*
X155609240Y-120382906D01*
X155761722Y-120217268D01*
X155850518Y-120081354D01*
X155904520Y-120035268D01*
X155974868Y-120025692D01*
X156039225Y-120055669D01*
X156061480Y-120081353D01*
X156094607Y-120132058D01*
X156150275Y-120217265D01*
X156150279Y-120217270D01*
X156302762Y-120382908D01*
X156337458Y-120409913D01*
X156480424Y-120521189D01*
X156678426Y-120628342D01*
X156678427Y-120628342D01*
X156678428Y-120628343D01*
X156790227Y-120666723D01*
X156891365Y-120701444D01*
X157113431Y-120738500D01*
X157113435Y-120738500D01*
X157338565Y-120738500D01*
X157338569Y-120738500D01*
X157560635Y-120701444D01*
X157773574Y-120628342D01*
X157971576Y-120521189D01*
X158149240Y-120382906D01*
X158301722Y-120217268D01*
X158390518Y-120081354D01*
X158444520Y-120035268D01*
X158514868Y-120025692D01*
X158579225Y-120055669D01*
X158601480Y-120081353D01*
X158634607Y-120132058D01*
X158690275Y-120217265D01*
X158690279Y-120217270D01*
X158842762Y-120382908D01*
X158877458Y-120409913D01*
X159020424Y-120521189D01*
X159218426Y-120628342D01*
X159218427Y-120628342D01*
X159218428Y-120628343D01*
X159330227Y-120666723D01*
X159431365Y-120701444D01*
X159653431Y-120738500D01*
X159653435Y-120738500D01*
X159878565Y-120738500D01*
X159878569Y-120738500D01*
X160100635Y-120701444D01*
X160313574Y-120628342D01*
X160511576Y-120521189D01*
X160689240Y-120382906D01*
X160841722Y-120217268D01*
X160964860Y-120028791D01*
X161055296Y-119822616D01*
X161110564Y-119604368D01*
X161129156Y-119380000D01*
X161110564Y-119155632D01*
X161110562Y-119155624D01*
X161055297Y-118937387D01*
X161055296Y-118937386D01*
X161055296Y-118937384D01*
X160964860Y-118731209D01*
X160947500Y-118704637D01*
X160841724Y-118542734D01*
X160841720Y-118542729D01*
X160689237Y-118377091D01*
X160569367Y-118283792D01*
X160511576Y-118238811D01*
X160313574Y-118131658D01*
X160313572Y-118131657D01*
X160313571Y-118131656D01*
X160250503Y-118110005D01*
X166491728Y-118110005D01*
X166510795Y-118413073D01*
X166510798Y-118413096D01*
X166535527Y-118542734D01*
X166567702Y-118711400D01*
X166661548Y-119000225D01*
X166790852Y-119275011D01*
X166790854Y-119275014D01*
X166790857Y-119275020D01*
X166953576Y-119531425D01*
X166953579Y-119531428D01*
X167147153Y-119765418D01*
X167147157Y-119765422D01*
X167368536Y-119973312D01*
X167481891Y-120055669D01*
X167614225Y-120151815D01*
X167880350Y-120298118D01*
X168031449Y-120357942D01*
X168162707Y-120409911D01*
X168162710Y-120409911D01*
X168162713Y-120409913D01*
X168456861Y-120485438D01*
X168758155Y-120523500D01*
X168758159Y-120523500D01*
X169061841Y-120523500D01*
X169061845Y-120523500D01*
X169363139Y-120485438D01*
X169657287Y-120409913D01*
X169939650Y-120298118D01*
X170205775Y-120151815D01*
X170451465Y-119973311D01*
X170672844Y-119765421D01*
X170866423Y-119531425D01*
X171029148Y-119275011D01*
X171158452Y-119000225D01*
X171252298Y-118711400D01*
X171309203Y-118413090D01*
X171324702Y-118166739D01*
X171328272Y-118110005D01*
X171328272Y-118109994D01*
X171309204Y-117806926D01*
X171309203Y-117806910D01*
X171252298Y-117508600D01*
X171158452Y-117219775D01*
X171029148Y-116944989D01*
X171029142Y-116944979D01*
X170866423Y-116688574D01*
X170866420Y-116688571D01*
X170672846Y-116454581D01*
X170672842Y-116454577D01*
X170451463Y-116246687D01*
X170205777Y-116068186D01*
X170164990Y-116045763D01*
X169939650Y-115921882D01*
X169858378Y-115889704D01*
X169657292Y-115810088D01*
X169657274Y-115810083D01*
X169363153Y-115734565D01*
X169363145Y-115734563D01*
X169363139Y-115734562D01*
X169363129Y-115734560D01*
X169363125Y-115734560D01*
X169061859Y-115696501D01*
X169061848Y-115696500D01*
X169061845Y-115696500D01*
X168758155Y-115696500D01*
X168758152Y-115696500D01*
X168758140Y-115696501D01*
X168456874Y-115734560D01*
X168456867Y-115734561D01*
X168456861Y-115734562D01*
X168456856Y-115734563D01*
X168456846Y-115734565D01*
X168162725Y-115810083D01*
X168162707Y-115810088D01*
X167880350Y-115921882D01*
X167614222Y-116068186D01*
X167368536Y-116246687D01*
X167147157Y-116454577D01*
X167147153Y-116454581D01*
X166953579Y-116688571D01*
X166953576Y-116688574D01*
X166790857Y-116944979D01*
X166790850Y-116944993D01*
X166661551Y-117219768D01*
X166661549Y-117219772D01*
X166567703Y-117508596D01*
X166567701Y-117508603D01*
X166510798Y-117806903D01*
X166510795Y-117806926D01*
X166491728Y-118109994D01*
X166491728Y-118110005D01*
X160250503Y-118110005D01*
X160100639Y-118058557D01*
X160100630Y-118058555D01*
X160056476Y-118051187D01*
X159878569Y-118021500D01*
X159653431Y-118021500D01*
X159505211Y-118046233D01*
X159431369Y-118058555D01*
X159431360Y-118058557D01*
X159218428Y-118131656D01*
X159218426Y-118131658D01*
X159020426Y-118238810D01*
X159020424Y-118238811D01*
X158842762Y-118377091D01*
X158690279Y-118542729D01*
X158601483Y-118678643D01*
X158547479Y-118724731D01*
X158477131Y-118734306D01*
X158412774Y-118704329D01*
X158390517Y-118678643D01*
X158301720Y-118542729D01*
X158149237Y-118377091D01*
X158029367Y-118283792D01*
X157971576Y-118238811D01*
X157773574Y-118131658D01*
X157773572Y-118131657D01*
X157773571Y-118131656D01*
X157560639Y-118058557D01*
X157560630Y-118058555D01*
X157516476Y-118051187D01*
X157338569Y-118021500D01*
X157113431Y-118021500D01*
X156965211Y-118046233D01*
X156891369Y-118058555D01*
X156891360Y-118058557D01*
X156678428Y-118131656D01*
X156678426Y-118131658D01*
X156480426Y-118238810D01*
X156480424Y-118238811D01*
X156302762Y-118377091D01*
X156150279Y-118542729D01*
X156061483Y-118678643D01*
X156007479Y-118724731D01*
X155937131Y-118734306D01*
X155872774Y-118704329D01*
X155850517Y-118678643D01*
X155761720Y-118542729D01*
X155609237Y-118377091D01*
X155489367Y-118283792D01*
X155431576Y-118238811D01*
X155233574Y-118131658D01*
X155233572Y-118131657D01*
X155233571Y-118131656D01*
X155020639Y-118058557D01*
X155020630Y-118058555D01*
X154976476Y-118051187D01*
X154798569Y-118021500D01*
X154573431Y-118021500D01*
X154425211Y-118046233D01*
X154351369Y-118058555D01*
X154351360Y-118058557D01*
X154138428Y-118131656D01*
X154138426Y-118131658D01*
X153940426Y-118238810D01*
X153940424Y-118238811D01*
X153762762Y-118377091D01*
X153701754Y-118443363D01*
X153640901Y-118479933D01*
X153569936Y-118477798D01*
X153511391Y-118437636D01*
X153490999Y-118402057D01*
X153446889Y-118283797D01*
X153446887Y-118283792D01*
X153359261Y-118166738D01*
X153242207Y-118079112D01*
X153242202Y-118079110D01*
X153105204Y-118028011D01*
X153105196Y-118028009D01*
X153044649Y-118021500D01*
X153044638Y-118021500D01*
X151247362Y-118021500D01*
X151247350Y-118021500D01*
X151186803Y-118028009D01*
X151186795Y-118028011D01*
X151049797Y-118079110D01*
X151049792Y-118079112D01*
X150932738Y-118166738D01*
X150845112Y-118283792D01*
X150845110Y-118283797D01*
X150794011Y-118420795D01*
X150794009Y-118420803D01*
X150787500Y-118481350D01*
X150787500Y-120278649D01*
X119175064Y-120278649D01*
X119405775Y-120151815D01*
X119651465Y-119973311D01*
X119872844Y-119765421D01*
X120066423Y-119531425D01*
X120229148Y-119275011D01*
X120358452Y-119000225D01*
X120452298Y-118711400D01*
X120509203Y-118413090D01*
X120524702Y-118166739D01*
X120528272Y-118110005D01*
X120528272Y-118109994D01*
X120509204Y-117806926D01*
X120509203Y-117806910D01*
X120452298Y-117508600D01*
X120358452Y-117219775D01*
X120229148Y-116944989D01*
X120229142Y-116944979D01*
X120066423Y-116688574D01*
X120066420Y-116688571D01*
X119872846Y-116454581D01*
X119872842Y-116454577D01*
X119651463Y-116246687D01*
X119405777Y-116068186D01*
X119364990Y-116045763D01*
X119139650Y-115921882D01*
X119058378Y-115889704D01*
X118857292Y-115810088D01*
X118857274Y-115810083D01*
X118563153Y-115734565D01*
X118563145Y-115734563D01*
X118563139Y-115734562D01*
X118563129Y-115734560D01*
X118563125Y-115734560D01*
X118261859Y-115696501D01*
X118261848Y-115696500D01*
X118261845Y-115696500D01*
X117958155Y-115696500D01*
X117958152Y-115696500D01*
X117958140Y-115696501D01*
X117656874Y-115734560D01*
X117656867Y-115734561D01*
X117656861Y-115734562D01*
X117656856Y-115734563D01*
X117656846Y-115734565D01*
X117362725Y-115810083D01*
X117362707Y-115810088D01*
X117080350Y-115921882D01*
X116814222Y-116068186D01*
X116568536Y-116246687D01*
X116347157Y-116454577D01*
X116347153Y-116454581D01*
X116153579Y-116688571D01*
X116153576Y-116688574D01*
X115990857Y-116944979D01*
X115990850Y-116944993D01*
X115861551Y-117219768D01*
X115861549Y-117219772D01*
X115767703Y-117508596D01*
X115767701Y-117508603D01*
X115710798Y-117806903D01*
X115710795Y-117806926D01*
X115691728Y-118109994D01*
X115691728Y-118110005D01*
X114300005Y-118110005D01*
X114300000Y-118109191D01*
X114300000Y-113157000D01*
X115476844Y-113157000D01*
X115495437Y-113381375D01*
X115550702Y-113599612D01*
X115550703Y-113599613D01*
X115550704Y-113599616D01*
X115591279Y-113692118D01*
X115641141Y-113805793D01*
X115764275Y-113994265D01*
X115764279Y-113994270D01*
X115916762Y-114159908D01*
X115971331Y-114202381D01*
X116094424Y-114298189D01*
X116292426Y-114405342D01*
X116292427Y-114405342D01*
X116292428Y-114405343D01*
X116404227Y-114443723D01*
X116505365Y-114478444D01*
X116727431Y-114515500D01*
X116727435Y-114515500D01*
X116952565Y-114515500D01*
X116952569Y-114515500D01*
X117174635Y-114478444D01*
X117387574Y-114405342D01*
X117585576Y-114298189D01*
X117763240Y-114159906D01*
X117915722Y-113994268D01*
X118038860Y-113805791D01*
X118129296Y-113599616D01*
X118164196Y-113461800D01*
X138373653Y-113461800D01*
X138393803Y-113692117D01*
X138453641Y-113915434D01*
X138453643Y-113915440D01*
X138551350Y-114124974D01*
X138672636Y-114298189D01*
X138683959Y-114314359D01*
X138847441Y-114477841D01*
X139036826Y-114610450D01*
X139246363Y-114708158D01*
X139469682Y-114767997D01*
X139700000Y-114788147D01*
X139930318Y-114767997D01*
X140153637Y-114708158D01*
X140363174Y-114610450D01*
X140552559Y-114477841D01*
X140716041Y-114314359D01*
X140848650Y-114124974D01*
X140946358Y-113915437D01*
X141006197Y-113692118D01*
X141026347Y-113461800D01*
X141006197Y-113231482D01*
X140946358Y-113008163D01*
X140848650Y-112798627D01*
X140848649Y-112798626D01*
X140848648Y-112798623D01*
X140716047Y-112609249D01*
X140716044Y-112609245D01*
X140716041Y-112609241D01*
X140552559Y-112445759D01*
X140363174Y-112313150D01*
X140153640Y-112215443D01*
X140153634Y-112215441D01*
X140059253Y-112190151D01*
X139930318Y-112155603D01*
X139700000Y-112135453D01*
X139469682Y-112155603D01*
X139246365Y-112215441D01*
X139246359Y-112215443D01*
X139036823Y-112313151D01*
X138847449Y-112445752D01*
X138847438Y-112445761D01*
X138683961Y-112609238D01*
X138683952Y-112609249D01*
X138551351Y-112798623D01*
X138453643Y-113008159D01*
X138453641Y-113008165D01*
X138393803Y-113231482D01*
X138373653Y-113461800D01*
X118164196Y-113461800D01*
X118184564Y-113381368D01*
X118203156Y-113157000D01*
X118184564Y-112932632D01*
X118129296Y-112714384D01*
X118038860Y-112508209D01*
X117998061Y-112445761D01*
X117915724Y-112319734D01*
X117915720Y-112319729D01*
X117763237Y-112154091D01*
X117681382Y-112090381D01*
X117585576Y-112015811D01*
X117552319Y-111997813D01*
X117501929Y-111947802D01*
X117486576Y-111878485D01*
X117511136Y-111811872D01*
X117552320Y-111776186D01*
X117585576Y-111758189D01*
X117763240Y-111619906D01*
X117915722Y-111454268D01*
X117999424Y-111326151D01*
X118053427Y-111280063D01*
X118080322Y-111271489D01*
X118175777Y-111252502D01*
X118296054Y-111202682D01*
X118404299Y-111130355D01*
X119131355Y-110403299D01*
X119203682Y-110295054D01*
X119253503Y-110174777D01*
X119278900Y-110047093D01*
X119278900Y-109916906D01*
X119278900Y-109220000D01*
X168816844Y-109220000D01*
X168833593Y-109422129D01*
X168835437Y-109444375D01*
X168890702Y-109662612D01*
X168890703Y-109662613D01*
X168890704Y-109662616D01*
X168981140Y-109868791D01*
X168981141Y-109868793D01*
X169104275Y-110057265D01*
X169104279Y-110057270D01*
X169256762Y-110222908D01*
X169311331Y-110265381D01*
X169434424Y-110361189D01*
X169632426Y-110468342D01*
X169632427Y-110468342D01*
X169632428Y-110468343D01*
X169744227Y-110506723D01*
X169845365Y-110541444D01*
X170067431Y-110578500D01*
X170067435Y-110578500D01*
X170292565Y-110578500D01*
X170292569Y-110578500D01*
X170514635Y-110541444D01*
X170727574Y-110468342D01*
X170925576Y-110361189D01*
X171103240Y-110222906D01*
X171255722Y-110057268D01*
X171378860Y-109868791D01*
X171469296Y-109662616D01*
X171524564Y-109444368D01*
X171543156Y-109220000D01*
X171524564Y-108995632D01*
X171503959Y-108914265D01*
X171469297Y-108777387D01*
X171469296Y-108777386D01*
X171469296Y-108777384D01*
X171378860Y-108571209D01*
X171345150Y-108519612D01*
X171255724Y-108382734D01*
X171255720Y-108382729D01*
X171103237Y-108217091D01*
X171021382Y-108153381D01*
X170925576Y-108078811D01*
X170892319Y-108060813D01*
X170841929Y-108010802D01*
X170826576Y-107941485D01*
X170851136Y-107874872D01*
X170892320Y-107839186D01*
X170925576Y-107821189D01*
X171103240Y-107682906D01*
X171255722Y-107517268D01*
X171378860Y-107328791D01*
X171469296Y-107122616D01*
X171524564Y-106904368D01*
X171543156Y-106680000D01*
X171524564Y-106455632D01*
X171508177Y-106390920D01*
X171469297Y-106237387D01*
X171469296Y-106237386D01*
X171469296Y-106237384D01*
X171378860Y-106031209D01*
X171333478Y-105961746D01*
X171255724Y-105842734D01*
X171255720Y-105842729D01*
X171103237Y-105677091D01*
X171021382Y-105613381D01*
X170925576Y-105538811D01*
X170892319Y-105520813D01*
X170841929Y-105470802D01*
X170826576Y-105401485D01*
X170851136Y-105334872D01*
X170892320Y-105299186D01*
X170925576Y-105281189D01*
X171103240Y-105142906D01*
X171255722Y-104977268D01*
X171378860Y-104788791D01*
X171469296Y-104582616D01*
X171524564Y-104364368D01*
X171543156Y-104140000D01*
X171524564Y-103915632D01*
X171469296Y-103697384D01*
X171378860Y-103491209D01*
X171345150Y-103439612D01*
X171255724Y-103302734D01*
X171255719Y-103302729D01*
X171143046Y-103180335D01*
X171112524Y-103147179D01*
X171081103Y-103083514D01*
X171089090Y-103012968D01*
X171133948Y-102957939D01*
X171161183Y-102943789D01*
X171276204Y-102900889D01*
X171393261Y-102813261D01*
X171480889Y-102696204D01*
X171531989Y-102559201D01*
X171536858Y-102513917D01*
X171538499Y-102498649D01*
X171538500Y-102498632D01*
X171538500Y-100701367D01*
X171538499Y-100701350D01*
X171531990Y-100640803D01*
X171531988Y-100640795D01*
X171480889Y-100503797D01*
X171480887Y-100503792D01*
X171393261Y-100386738D01*
X171276207Y-100299112D01*
X171276202Y-100299110D01*
X171139204Y-100248011D01*
X171139196Y-100248009D01*
X171078649Y-100241500D01*
X171078638Y-100241500D01*
X169281362Y-100241500D01*
X169281350Y-100241500D01*
X169220803Y-100248009D01*
X169220795Y-100248011D01*
X169083797Y-100299110D01*
X169083792Y-100299112D01*
X168966738Y-100386738D01*
X168879112Y-100503792D01*
X168879110Y-100503797D01*
X168828011Y-100640795D01*
X168828009Y-100640803D01*
X168821500Y-100701350D01*
X168821500Y-102498649D01*
X168828009Y-102559196D01*
X168828011Y-102559204D01*
X168879110Y-102696202D01*
X168879112Y-102696207D01*
X168966738Y-102813261D01*
X169083791Y-102900886D01*
X169083792Y-102900886D01*
X169083796Y-102900889D01*
X169198810Y-102943787D01*
X169255642Y-102986332D01*
X169280453Y-103052852D01*
X169265362Y-103122226D01*
X169247475Y-103147179D01*
X169104280Y-103302729D01*
X169104275Y-103302734D01*
X168981141Y-103491206D01*
X168890703Y-103697386D01*
X168890702Y-103697387D01*
X168835437Y-103915624D01*
X168835436Y-103915630D01*
X168835436Y-103915632D01*
X168816844Y-104140000D01*
X168834701Y-104355500D01*
X168835437Y-104364375D01*
X168890702Y-104582612D01*
X168890703Y-104582613D01*
X168890704Y-104582616D01*
X168940469Y-104696069D01*
X168981141Y-104788793D01*
X169104275Y-104977265D01*
X169104279Y-104977270D01*
X169256762Y-105142908D01*
X169311331Y-105185381D01*
X169434424Y-105281189D01*
X169467680Y-105299186D01*
X169518071Y-105349200D01*
X169533423Y-105418516D01*
X169508862Y-105485129D01*
X169467680Y-105520813D01*
X169434426Y-105538810D01*
X169434424Y-105538811D01*
X169256762Y-105677091D01*
X169104279Y-105842729D01*
X169104275Y-105842734D01*
X168981141Y-106031206D01*
X168890703Y-106237386D01*
X168890702Y-106237387D01*
X168835437Y-106455624D01*
X168835436Y-106455630D01*
X168835436Y-106455632D01*
X168816844Y-106680000D01*
X168832382Y-106867516D01*
X168835437Y-106904375D01*
X168890702Y-107122612D01*
X168890703Y-107122613D01*
X168890704Y-107122616D01*
X168969856Y-107303065D01*
X168981141Y-107328793D01*
X169104275Y-107517265D01*
X169104279Y-107517270D01*
X169256762Y-107682908D01*
X169311331Y-107725381D01*
X169434424Y-107821189D01*
X169467680Y-107839186D01*
X169518071Y-107889200D01*
X169533423Y-107958516D01*
X169508862Y-108025129D01*
X169467680Y-108060813D01*
X169434426Y-108078810D01*
X169434424Y-108078811D01*
X169256762Y-108217091D01*
X169104279Y-108382729D01*
X169104275Y-108382734D01*
X168981141Y-108571206D01*
X168890703Y-108777386D01*
X168890702Y-108777387D01*
X168835437Y-108995624D01*
X168835436Y-108995630D01*
X168835436Y-108995632D01*
X168816844Y-109220000D01*
X119278900Y-109220000D01*
X119278900Y-104719944D01*
X119298902Y-104651823D01*
X119315805Y-104630849D01*
X119794649Y-104152005D01*
X119856961Y-104117979D01*
X119883744Y-104115100D01*
X126111470Y-104115100D01*
X126111471Y-104115100D01*
X126239155Y-104089702D01*
X126359432Y-104039882D01*
X126467677Y-103967555D01*
X127921314Y-102513916D01*
X127983626Y-102479892D01*
X128010409Y-102477012D01*
X150610905Y-102477012D01*
X150679026Y-102497014D01*
X150700000Y-102513917D01*
X154490438Y-106304355D01*
X154598683Y-106376682D01*
X154718960Y-106426503D01*
X154846644Y-106451901D01*
X154846645Y-106451901D01*
X154983044Y-106451901D01*
X154983064Y-106451900D01*
X156046332Y-106451900D01*
X156113367Y-106471212D01*
X156131070Y-106482336D01*
X156293254Y-106539087D01*
X156293253Y-106539087D01*
X156297221Y-106539534D01*
X156464000Y-106558325D01*
X156634746Y-106539087D01*
X156796930Y-106482336D01*
X156942419Y-106390919D01*
X157063919Y-106269419D01*
X157155336Y-106123930D01*
X157212087Y-105961746D01*
X157231325Y-105791000D01*
X157212087Y-105620254D01*
X157155336Y-105458070D01*
X157155334Y-105458067D01*
X157155334Y-105458066D01*
X157063920Y-105312582D01*
X157063919Y-105312580D01*
X156942419Y-105191080D01*
X156942417Y-105191079D01*
X156796933Y-105099665D01*
X156796930Y-105099664D01*
X156782295Y-105094543D01*
X156634746Y-105042913D01*
X156634744Y-105042912D01*
X156634746Y-105042912D01*
X156464000Y-105023675D01*
X156293255Y-105042912D01*
X156131070Y-105099663D01*
X156113368Y-105110787D01*
X156046332Y-105130100D01*
X155831317Y-105130100D01*
X155763196Y-105110098D01*
X155716703Y-105056442D01*
X155706109Y-105018207D01*
X155688087Y-104858255D01*
X155663781Y-104788793D01*
X155631336Y-104696070D01*
X155631334Y-104696067D01*
X155631334Y-104696066D01*
X155539920Y-104550582D01*
X155539919Y-104550580D01*
X155418419Y-104429080D01*
X155418417Y-104429079D01*
X155272932Y-104337665D01*
X155272931Y-104337664D01*
X155272930Y-104337664D01*
X155218003Y-104318444D01*
X155162223Y-104298925D01*
X155114744Y-104269091D01*
X152623361Y-101777707D01*
X152589335Y-101715395D01*
X152594400Y-101644579D01*
X152636947Y-101587744D01*
X152703467Y-101562933D01*
X152712456Y-101562612D01*
X154063422Y-101562612D01*
X154131543Y-101582614D01*
X154178036Y-101636270D01*
X154182351Y-101646996D01*
X154233596Y-101793445D01*
X154325010Y-101938929D01*
X154325011Y-101938931D01*
X154446511Y-102060431D01*
X154446513Y-102060432D01*
X154591997Y-102151846D01*
X154591998Y-102151846D01*
X154592001Y-102151848D01*
X154702704Y-102190585D01*
X154750183Y-102220418D01*
X155532120Y-103002355D01*
X155640365Y-103074682D01*
X155760642Y-103124503D01*
X155778194Y-103127993D01*
X155820651Y-103144885D01*
X155877070Y-103180336D01*
X156039254Y-103237087D01*
X156039253Y-103237087D01*
X156056543Y-103239034D01*
X156210000Y-103256325D01*
X156380746Y-103237087D01*
X156542930Y-103180336D01*
X156688419Y-103088919D01*
X156809919Y-102967419D01*
X156901336Y-102821930D01*
X156958087Y-102659746D01*
X156977325Y-102489000D01*
X156958087Y-102318254D01*
X156901336Y-102156070D01*
X156901334Y-102156067D01*
X156901334Y-102156066D01*
X156809920Y-102010582D01*
X156809919Y-102010580D01*
X156688419Y-101889080D01*
X156688417Y-101889079D01*
X156539167Y-101795299D01*
X156492129Y-101742121D01*
X156481309Y-101671954D01*
X156510142Y-101607075D01*
X156569473Y-101568084D01*
X156606203Y-101562612D01*
X166217216Y-101562612D01*
X166217217Y-101562612D01*
X166344901Y-101537214D01*
X166465178Y-101487394D01*
X166573423Y-101415067D01*
X167398606Y-100589882D01*
X167446081Y-100560051D01*
X167556788Y-100521314D01*
X167702277Y-100429897D01*
X167823777Y-100308397D01*
X167915194Y-100162908D01*
X167971945Y-100000724D01*
X167991183Y-99829978D01*
X167971945Y-99659232D01*
X167915194Y-99497048D01*
X167915192Y-99497045D01*
X167915192Y-99497044D01*
X167823778Y-99351560D01*
X167823777Y-99351558D01*
X167702277Y-99230058D01*
X167702275Y-99230057D01*
X167556791Y-99138643D01*
X167556788Y-99138642D01*
X167472985Y-99109318D01*
X167394604Y-99081891D01*
X167394602Y-99081890D01*
X167394604Y-99081890D01*
X167223858Y-99062653D01*
X167053113Y-99081890D01*
X166890927Y-99138642D01*
X166890924Y-99138643D01*
X166745440Y-99230057D01*
X166745438Y-99230058D01*
X166623938Y-99351558D01*
X166623937Y-99351560D01*
X166532523Y-99497045D01*
X166493784Y-99607751D01*
X166463951Y-99655229D01*
X165915275Y-100203907D01*
X165852962Y-100237932D01*
X165826179Y-100240812D01*
X155425027Y-100240812D01*
X155356906Y-100220810D01*
X155310413Y-100167154D01*
X155306098Y-100156427D01*
X155250336Y-99997070D01*
X155250334Y-99997067D01*
X155239212Y-99979365D01*
X155219900Y-99912331D01*
X155219900Y-96683668D01*
X155239214Y-96616630D01*
X155250336Y-96598930D01*
X155274456Y-96530000D01*
X168816844Y-96530000D01*
X168825791Y-96637976D01*
X168835437Y-96754375D01*
X168890702Y-96972612D01*
X168890703Y-96972613D01*
X168890704Y-96972616D01*
X168956703Y-97123080D01*
X168981141Y-97178793D01*
X169104275Y-97367265D01*
X169104279Y-97367270D01*
X169256762Y-97532908D01*
X169307808Y-97572639D01*
X169434424Y-97671189D01*
X169632426Y-97778342D01*
X169632427Y-97778342D01*
X169632428Y-97778343D01*
X169744227Y-97816723D01*
X169845365Y-97851444D01*
X170067431Y-97888500D01*
X170067435Y-97888500D01*
X170292565Y-97888500D01*
X170292569Y-97888500D01*
X170514635Y-97851444D01*
X170727574Y-97778342D01*
X170925576Y-97671189D01*
X171103240Y-97532906D01*
X171255722Y-97367268D01*
X171378860Y-97178791D01*
X171469296Y-96972616D01*
X171524564Y-96754368D01*
X171543156Y-96530000D01*
X171524564Y-96305632D01*
X171469296Y-96087384D01*
X171378860Y-95881209D01*
X171372140Y-95870924D01*
X171255724Y-95692734D01*
X171255720Y-95692729D01*
X171103237Y-95527091D01*
X170995827Y-95443490D01*
X170925576Y-95388811D01*
X170892319Y-95370813D01*
X170841929Y-95320802D01*
X170826576Y-95251485D01*
X170851136Y-95184872D01*
X170892320Y-95149186D01*
X170925576Y-95131189D01*
X171103240Y-94992906D01*
X171255722Y-94827268D01*
X171378860Y-94638791D01*
X171469296Y-94432616D01*
X171524564Y-94214368D01*
X171543156Y-93990000D01*
X171524564Y-93765632D01*
X171511005Y-93712087D01*
X171469297Y-93547387D01*
X171469296Y-93547386D01*
X171469296Y-93547384D01*
X171378860Y-93341209D01*
X171338058Y-93278757D01*
X171255724Y-93152734D01*
X171255720Y-93152729D01*
X171103237Y-92987091D01*
X171021382Y-92923381D01*
X170925576Y-92848811D01*
X170892319Y-92830813D01*
X170841929Y-92780802D01*
X170826576Y-92711485D01*
X170851136Y-92644872D01*
X170892320Y-92609186D01*
X170905643Y-92601976D01*
X170925576Y-92591189D01*
X171103240Y-92452906D01*
X171255722Y-92287268D01*
X171378860Y-92098791D01*
X171469296Y-91892616D01*
X171524564Y-91674368D01*
X171543156Y-91450000D01*
X171524564Y-91225632D01*
X171469296Y-91007384D01*
X171378860Y-90801209D01*
X171372140Y-90790924D01*
X171255724Y-90612734D01*
X171255719Y-90612729D01*
X171112524Y-90457179D01*
X171081103Y-90393514D01*
X171089090Y-90322968D01*
X171133948Y-90267939D01*
X171161183Y-90253789D01*
X171276204Y-90210889D01*
X171393261Y-90123261D01*
X171480889Y-90006204D01*
X171531989Y-89869201D01*
X171532587Y-89863644D01*
X171538499Y-89808649D01*
X171538500Y-89808632D01*
X171538500Y-88011367D01*
X171538499Y-88011350D01*
X171531990Y-87950803D01*
X171531988Y-87950795D01*
X171487062Y-87830347D01*
X171480889Y-87813796D01*
X171480888Y-87813794D01*
X171480887Y-87813792D01*
X171393261Y-87696738D01*
X171276207Y-87609112D01*
X171276202Y-87609110D01*
X171139204Y-87558011D01*
X171139196Y-87558009D01*
X171078649Y-87551500D01*
X171078638Y-87551500D01*
X169281362Y-87551500D01*
X169281350Y-87551500D01*
X169220803Y-87558009D01*
X169220795Y-87558011D01*
X169083797Y-87609110D01*
X169083792Y-87609112D01*
X168966738Y-87696738D01*
X168879112Y-87813792D01*
X168879110Y-87813797D01*
X168828011Y-87950795D01*
X168828009Y-87950803D01*
X168821500Y-88011350D01*
X168821500Y-89808649D01*
X168828009Y-89869196D01*
X168828011Y-89869204D01*
X168879110Y-90006202D01*
X168879112Y-90006207D01*
X168966738Y-90123261D01*
X169083791Y-90210886D01*
X169083792Y-90210886D01*
X169083796Y-90210889D01*
X169198810Y-90253787D01*
X169255642Y-90296332D01*
X169280453Y-90362852D01*
X169265362Y-90432226D01*
X169247475Y-90457179D01*
X169104280Y-90612729D01*
X169104275Y-90612734D01*
X168981141Y-90801206D01*
X168890703Y-91007386D01*
X168890702Y-91007387D01*
X168835437Y-91225624D01*
X168835436Y-91225630D01*
X168835436Y-91225632D01*
X168816844Y-91450000D01*
X168824413Y-91541347D01*
X168835437Y-91674375D01*
X168890702Y-91892612D01*
X168890703Y-91892613D01*
X168890704Y-91892616D01*
X168934932Y-91993446D01*
X168981141Y-92098793D01*
X169104275Y-92287265D01*
X169104279Y-92287270D01*
X169256762Y-92452908D01*
X169260735Y-92456000D01*
X169434424Y-92591189D01*
X169467680Y-92609186D01*
X169518071Y-92659200D01*
X169533423Y-92728516D01*
X169508862Y-92795129D01*
X169467680Y-92830813D01*
X169434426Y-92848810D01*
X169434424Y-92848811D01*
X169256762Y-92987091D01*
X169104279Y-93152729D01*
X169104275Y-93152734D01*
X168981141Y-93341206D01*
X168890703Y-93547386D01*
X168890702Y-93547387D01*
X168835437Y-93765624D01*
X168835436Y-93765630D01*
X168835436Y-93765632D01*
X168816844Y-93990000D01*
X168827361Y-94116925D01*
X168835437Y-94214375D01*
X168890702Y-94432612D01*
X168890703Y-94432613D01*
X168981141Y-94638793D01*
X169104275Y-94827265D01*
X169104279Y-94827270D01*
X169256762Y-94992908D01*
X169311331Y-95035381D01*
X169434424Y-95131189D01*
X169467680Y-95149186D01*
X169518071Y-95199200D01*
X169533423Y-95268516D01*
X169508862Y-95335129D01*
X169467680Y-95370813D01*
X169434426Y-95388810D01*
X169434424Y-95388811D01*
X169256762Y-95527091D01*
X169104279Y-95692729D01*
X169104275Y-95692734D01*
X168981141Y-95881206D01*
X168890703Y-96087386D01*
X168890702Y-96087387D01*
X168835437Y-96305624D01*
X168835436Y-96305630D01*
X168835436Y-96305632D01*
X168816844Y-96530000D01*
X155274456Y-96530000D01*
X155307087Y-96436746D01*
X155326325Y-96266000D01*
X155307087Y-96095254D01*
X155250336Y-95933070D01*
X155250334Y-95933067D01*
X155250334Y-95933066D01*
X155158920Y-95787582D01*
X155158919Y-95787580D01*
X155037419Y-95666080D01*
X155037417Y-95666079D01*
X154891933Y-95574665D01*
X154891930Y-95574664D01*
X154729746Y-95517913D01*
X154729744Y-95517912D01*
X154729746Y-95517912D01*
X154576289Y-95500622D01*
X154559000Y-95498675D01*
X154558999Y-95498675D01*
X154513040Y-95503853D01*
X154443108Y-95491603D01*
X154390901Y-95443490D01*
X154372993Y-95374789D01*
X154395071Y-95307312D01*
X154409834Y-95289555D01*
X156037585Y-93661805D01*
X156099897Y-93627779D01*
X156126680Y-93624900D01*
X158205332Y-93624900D01*
X158272367Y-93644212D01*
X158290070Y-93655336D01*
X158452254Y-93712087D01*
X158452253Y-93712087D01*
X158469543Y-93714034D01*
X158623000Y-93731325D01*
X158793746Y-93712087D01*
X158955930Y-93655336D01*
X159101419Y-93563919D01*
X159222919Y-93442419D01*
X159314336Y-93296930D01*
X159320695Y-93278757D01*
X159362073Y-93221064D01*
X159398009Y-93201441D01*
X159436109Y-93188108D01*
X159552630Y-93147336D01*
X159698119Y-93055919D01*
X159819619Y-92934419D01*
X159911036Y-92788930D01*
X159967787Y-92626746D01*
X159987025Y-92456000D01*
X159967787Y-92285254D01*
X159911036Y-92123070D01*
X159911034Y-92123067D01*
X159911034Y-92123066D01*
X159819620Y-91977582D01*
X159819619Y-91977580D01*
X159698119Y-91856080D01*
X159698117Y-91856079D01*
X159552633Y-91764665D01*
X159552630Y-91764664D01*
X159494433Y-91744300D01*
X159390446Y-91707913D01*
X159390444Y-91707912D01*
X159390446Y-91707912D01*
X159219700Y-91688675D01*
X159048955Y-91707912D01*
X158965174Y-91737229D01*
X158923559Y-91744300D01*
X158278504Y-91744300D01*
X158150822Y-91769698D01*
X158150817Y-91769700D01*
X158030547Y-91819517D01*
X158022842Y-91824666D01*
X157955089Y-91845880D01*
X157952841Y-91845900D01*
X155546261Y-91845900D01*
X155418581Y-91871298D01*
X155418578Y-91871299D01*
X155298305Y-91921118D01*
X155204344Y-91983901D01*
X155190059Y-91993445D01*
X155190053Y-91993450D01*
X152537502Y-94646003D01*
X152445448Y-94738056D01*
X152445443Y-94738063D01*
X152373119Y-94846303D01*
X152323301Y-94966575D01*
X152323299Y-94966580D01*
X152297901Y-95094262D01*
X152297900Y-95094266D01*
X152297900Y-97909677D01*
X152277898Y-97977798D01*
X152260995Y-97998772D01*
X150970261Y-99289507D01*
X150907949Y-99323532D01*
X150881166Y-99326412D01*
X128268107Y-99326412D01*
X128199986Y-99306410D01*
X128179012Y-99289507D01*
X128071152Y-99181647D01*
X128071150Y-99181645D01*
X127962905Y-99109318D01*
X127896690Y-99081891D01*
X127842633Y-99059500D01*
X127842628Y-99059498D01*
X127714946Y-99034100D01*
X127714944Y-99034100D01*
X126782668Y-99034100D01*
X126715632Y-99014787D01*
X126697929Y-99003663D01*
X126597491Y-98968518D01*
X126535746Y-98946913D01*
X126535744Y-98946912D01*
X126535746Y-98946912D01*
X126365000Y-98927675D01*
X126194255Y-98946912D01*
X126032069Y-99003664D01*
X126032066Y-99003665D01*
X125886582Y-99095079D01*
X125886580Y-99095080D01*
X125765080Y-99216580D01*
X125765079Y-99216582D01*
X125673665Y-99362066D01*
X125673664Y-99362069D01*
X125616912Y-99524255D01*
X125597675Y-99695000D01*
X125616912Y-99865744D01*
X125673664Y-100027930D01*
X125673665Y-100027933D01*
X125765079Y-100173417D01*
X125765080Y-100173419D01*
X125886580Y-100294919D01*
X125886582Y-100294920D01*
X126032066Y-100386334D01*
X126032067Y-100386334D01*
X126032070Y-100386336D01*
X126173379Y-100435782D01*
X126231069Y-100477159D01*
X126257231Y-100543159D01*
X126243559Y-100612827D01*
X126238453Y-100621740D01*
X126231966Y-100632065D01*
X126231964Y-100632069D01*
X126175212Y-100794255D01*
X126155975Y-100965000D01*
X126175212Y-101135744D01*
X126231964Y-101297930D01*
X126231965Y-101297933D01*
X126327145Y-101449411D01*
X126325110Y-101450689D01*
X126347687Y-101505956D01*
X126334739Y-101575762D01*
X126311440Y-101607906D01*
X125620149Y-102299196D01*
X125557839Y-102333220D01*
X125531056Y-102336100D01*
X118099137Y-102336100D01*
X118031016Y-102316098D01*
X117993654Y-102279015D01*
X117915724Y-102159735D01*
X117915719Y-102159729D01*
X117772524Y-102004179D01*
X117741103Y-101940514D01*
X117749090Y-101869968D01*
X117793948Y-101814939D01*
X117821183Y-101800789D01*
X117936204Y-101757889D01*
X118053261Y-101670261D01*
X118082458Y-101631258D01*
X118140887Y-101553207D01*
X118140887Y-101553206D01*
X118140889Y-101553204D01*
X118191989Y-101416201D01*
X118198500Y-101355638D01*
X118198500Y-99558362D01*
X118198499Y-99558350D01*
X118191990Y-99497803D01*
X118191988Y-99497795D01*
X118141364Y-99362070D01*
X118140889Y-99360796D01*
X118140888Y-99360794D01*
X118140887Y-99360792D01*
X118053261Y-99243738D01*
X117936207Y-99156112D01*
X117936202Y-99156110D01*
X117799204Y-99105011D01*
X117799196Y-99105009D01*
X117738649Y-99098500D01*
X117738638Y-99098500D01*
X115941362Y-99098500D01*
X115941350Y-99098500D01*
X115880803Y-99105009D01*
X115880795Y-99105011D01*
X115743797Y-99156110D01*
X115743792Y-99156112D01*
X115626738Y-99243738D01*
X115539112Y-99360792D01*
X115539110Y-99360797D01*
X115488011Y-99497795D01*
X115488009Y-99497803D01*
X115481500Y-99558350D01*
X115481500Y-101355649D01*
X115488009Y-101416196D01*
X115488011Y-101416204D01*
X115539110Y-101553202D01*
X115539112Y-101553207D01*
X115626738Y-101670261D01*
X115743791Y-101757886D01*
X115743792Y-101757886D01*
X115743796Y-101757889D01*
X115858810Y-101800787D01*
X115915642Y-101843332D01*
X115940453Y-101909852D01*
X115925362Y-101979226D01*
X115907475Y-102004179D01*
X115764280Y-102159729D01*
X115764275Y-102159734D01*
X115641141Y-102348206D01*
X115550703Y-102554386D01*
X115550702Y-102554387D01*
X115495437Y-102772624D01*
X115495436Y-102772630D01*
X115495436Y-102772632D01*
X115476844Y-102997000D01*
X115489288Y-103147179D01*
X115495437Y-103221375D01*
X115550702Y-103439612D01*
X115550703Y-103439613D01*
X115550704Y-103439616D01*
X115573335Y-103491209D01*
X115641141Y-103645793D01*
X115764275Y-103834265D01*
X115764279Y-103834270D01*
X115916762Y-103999908D01*
X115968119Y-104039881D01*
X116094424Y-104138189D01*
X116128205Y-104156470D01*
X116178596Y-104206482D01*
X116193949Y-104275799D01*
X116169389Y-104342412D01*
X116128209Y-104378096D01*
X116094704Y-104396228D01*
X116094698Y-104396232D01*
X115917097Y-104534465D01*
X115764674Y-104700041D01*
X115641580Y-104888451D01*
X115551179Y-105094543D01*
X115551176Y-105094550D01*
X115503455Y-105282999D01*
X115503456Y-105283000D01*
X116409297Y-105283000D01*
X116374075Y-105344007D01*
X116340000Y-105471174D01*
X116340000Y-105602826D01*
X116374075Y-105729993D01*
X116409297Y-105791000D01*
X115503455Y-105791000D01*
X115551176Y-105979449D01*
X115551179Y-105979456D01*
X115641580Y-106185548D01*
X115764674Y-106373958D01*
X115917097Y-106539534D01*
X116094698Y-106677767D01*
X116094704Y-106677771D01*
X116128207Y-106695902D01*
X116178597Y-106745915D01*
X116193949Y-106815232D01*
X116169388Y-106881845D01*
X116128207Y-106917528D01*
X116094430Y-106935807D01*
X116094424Y-106935811D01*
X115916762Y-107074091D01*
X115764279Y-107239729D01*
X115764275Y-107239734D01*
X115641141Y-107428206D01*
X115550703Y-107634386D01*
X115550702Y-107634387D01*
X115495437Y-107852624D01*
X115495436Y-107852630D01*
X115495436Y-107852632D01*
X115476844Y-108077000D01*
X115488452Y-108217091D01*
X115495437Y-108301375D01*
X115550702Y-108519612D01*
X115550703Y-108519613D01*
X115550704Y-108519616D01*
X115573335Y-108571209D01*
X115641141Y-108725793D01*
X115764275Y-108914265D01*
X115764279Y-108914270D01*
X115892539Y-109053596D01*
X115912292Y-109075053D01*
X115916762Y-109079908D01*
X115971331Y-109122381D01*
X116094424Y-109218189D01*
X116127680Y-109236186D01*
X116178071Y-109286200D01*
X116193423Y-109355516D01*
X116168862Y-109422129D01*
X116127680Y-109457813D01*
X116094426Y-109475810D01*
X116094424Y-109475811D01*
X115916762Y-109614091D01*
X115764279Y-109779729D01*
X115764275Y-109779734D01*
X115641141Y-109968206D01*
X115550703Y-110174386D01*
X115550702Y-110174387D01*
X115495437Y-110392624D01*
X115495436Y-110392630D01*
X115495436Y-110392632D01*
X115483105Y-110541442D01*
X115476844Y-110617000D01*
X115495437Y-110841375D01*
X115550702Y-111059612D01*
X115550703Y-111059613D01*
X115550704Y-111059616D01*
X115581733Y-111130355D01*
X115641141Y-111265793D01*
X115764275Y-111454265D01*
X115764279Y-111454270D01*
X115916762Y-111619908D01*
X115971331Y-111662381D01*
X116094424Y-111758189D01*
X116127680Y-111776186D01*
X116178071Y-111826200D01*
X116193423Y-111895516D01*
X116168862Y-111962129D01*
X116127680Y-111997813D01*
X116094426Y-112015810D01*
X116094424Y-112015811D01*
X115916762Y-112154091D01*
X115764279Y-112319729D01*
X115764275Y-112319734D01*
X115641141Y-112508206D01*
X115550703Y-112714386D01*
X115550702Y-112714387D01*
X115495437Y-112932624D01*
X115476844Y-113157000D01*
X114300000Y-113157000D01*
X114300000Y-99062653D01*
X114300000Y-96882027D01*
X114628500Y-96882027D01*
X114666679Y-97123076D01*
X114666680Y-97123080D01*
X114684782Y-97178793D01*
X114742096Y-97355185D01*
X114852894Y-97572639D01*
X114996345Y-97770083D01*
X114996347Y-97770085D01*
X114996349Y-97770088D01*
X115168911Y-97942650D01*
X115168914Y-97942652D01*
X115168917Y-97942655D01*
X115366361Y-98086106D01*
X115583815Y-98196904D01*
X115815924Y-98272321D01*
X116056973Y-98310500D01*
X116056976Y-98310500D01*
X116301024Y-98310500D01*
X116301027Y-98310500D01*
X116542076Y-98272321D01*
X116774185Y-98196904D01*
X116991639Y-98086106D01*
X117189083Y-97942655D01*
X117361655Y-97770083D01*
X117477494Y-97610644D01*
X124320499Y-97610644D01*
X124331111Y-97714503D01*
X124331112Y-97714506D01*
X124386877Y-97882796D01*
X124423797Y-97942652D01*
X124479949Y-98033689D01*
X124479954Y-98033695D01*
X124605304Y-98159045D01*
X124605310Y-98159050D01*
X124605311Y-98159051D01*
X124756204Y-98252123D01*
X124924494Y-98307888D01*
X124945268Y-98310010D01*
X125028356Y-98318500D01*
X125028364Y-98318500D01*
X126729644Y-98318500D01*
X126807940Y-98310500D01*
X126833506Y-98307888D01*
X127001796Y-98252123D01*
X127152689Y-98159051D01*
X127278051Y-98033689D01*
X127371123Y-97882796D01*
X127426888Y-97714506D01*
X127431314Y-97671188D01*
X127437500Y-97610644D01*
X127437500Y-95909355D01*
X127426888Y-95805496D01*
X127426888Y-95805494D01*
X127371123Y-95637204D01*
X127278051Y-95486311D01*
X127278050Y-95486310D01*
X127278045Y-95486304D01*
X127152695Y-95360954D01*
X127152689Y-95360949D01*
X127091321Y-95323097D01*
X127001796Y-95267877D01*
X126833506Y-95212112D01*
X126833503Y-95212111D01*
X126729644Y-95201500D01*
X126729636Y-95201500D01*
X125028364Y-95201500D01*
X125028356Y-95201500D01*
X124924496Y-95212111D01*
X124756204Y-95267877D01*
X124605310Y-95360949D01*
X124605304Y-95360954D01*
X124479954Y-95486304D01*
X124479949Y-95486310D01*
X124386877Y-95637204D01*
X124331111Y-95805496D01*
X124320500Y-95909355D01*
X124320500Y-97610644D01*
X124320499Y-97610644D01*
X117477494Y-97610644D01*
X117505106Y-97572639D01*
X117615904Y-97355185D01*
X117691321Y-97123076D01*
X117729500Y-96882027D01*
X117729500Y-96637973D01*
X117691321Y-96396924D01*
X117615904Y-96164815D01*
X117505106Y-95947361D01*
X117361655Y-95749917D01*
X117361652Y-95749914D01*
X117361650Y-95749911D01*
X117189088Y-95577349D01*
X117189085Y-95577347D01*
X117189083Y-95577345D01*
X116991639Y-95433894D01*
X116774185Y-95323096D01*
X116774182Y-95323095D01*
X116774180Y-95323094D01*
X116542080Y-95247680D01*
X116542078Y-95247679D01*
X116542076Y-95247679D01*
X116301027Y-95209500D01*
X116056973Y-95209500D01*
X115815924Y-95247679D01*
X115815922Y-95247679D01*
X115815919Y-95247680D01*
X115583819Y-95323094D01*
X115583813Y-95323097D01*
X115366357Y-95433896D01*
X115168914Y-95577347D01*
X115168911Y-95577349D01*
X114996349Y-95749911D01*
X114996347Y-95749914D01*
X114852896Y-95947357D01*
X114742097Y-96164813D01*
X114742094Y-96164819D01*
X114666680Y-96396919D01*
X114666679Y-96396922D01*
X114666679Y-96396924D01*
X114628500Y-96637973D01*
X114628500Y-96882027D01*
X114300000Y-96882027D01*
X114300000Y-92846027D01*
X114628500Y-92846027D01*
X114666679Y-93087076D01*
X114666680Y-93087080D01*
X114706360Y-93209203D01*
X114742096Y-93319185D01*
X114852894Y-93536639D01*
X114996345Y-93734083D01*
X114996347Y-93734085D01*
X114996349Y-93734088D01*
X115168911Y-93906650D01*
X115168914Y-93906652D01*
X115168917Y-93906655D01*
X115366361Y-94050106D01*
X115583815Y-94160904D01*
X115815924Y-94236321D01*
X116056973Y-94274500D01*
X116056976Y-94274500D01*
X116301024Y-94274500D01*
X116301027Y-94274500D01*
X116542076Y-94236321D01*
X116774185Y-94160904D01*
X116991639Y-94050106D01*
X117189083Y-93906655D01*
X117361655Y-93734083D01*
X117505106Y-93536639D01*
X117615904Y-93319185D01*
X117691321Y-93087076D01*
X117729500Y-92846027D01*
X117729500Y-92724000D01*
X124315681Y-92724000D01*
X124334928Y-92968557D01*
X124392195Y-93207092D01*
X124486073Y-93433732D01*
X124491398Y-93442421D01*
X124614245Y-93642892D01*
X124614246Y-93642894D01*
X124614248Y-93642896D01*
X124773567Y-93829433D01*
X124960104Y-93988752D01*
X124960106Y-93988753D01*
X124960107Y-93988754D01*
X124996219Y-94010883D01*
X125169268Y-94116927D01*
X125395908Y-94210805D01*
X125634443Y-94268072D01*
X125879000Y-94287319D01*
X126123557Y-94268072D01*
X126362092Y-94210805D01*
X126588732Y-94116927D01*
X126797896Y-93988752D01*
X126984433Y-93829433D01*
X127143752Y-93642896D01*
X127271927Y-93433732D01*
X127365805Y-93207092D01*
X127381997Y-93139649D01*
X138378700Y-93139649D01*
X138385209Y-93200196D01*
X138385211Y-93200204D01*
X138436310Y-93337202D01*
X138436312Y-93337207D01*
X138523938Y-93454261D01*
X138640992Y-93541887D01*
X138640994Y-93541888D01*
X138640996Y-93541889D01*
X138655737Y-93547387D01*
X138777995Y-93592988D01*
X138778003Y-93592990D01*
X138838550Y-93599499D01*
X138838555Y-93599499D01*
X138838562Y-93599500D01*
X138838568Y-93599500D01*
X140561432Y-93599500D01*
X140561438Y-93599500D01*
X140561445Y-93599499D01*
X140561449Y-93599499D01*
X140621996Y-93592990D01*
X140621999Y-93592989D01*
X140622001Y-93592989D01*
X140759004Y-93541889D01*
X140876061Y-93454261D01*
X140963689Y-93337204D01*
X141013340Y-93204087D01*
X141014788Y-93200204D01*
X141014790Y-93200196D01*
X141021299Y-93139649D01*
X141021300Y-93139632D01*
X141021300Y-91416767D01*
X141021299Y-91416750D01*
X141014790Y-91356203D01*
X141014788Y-91356195D01*
X140970402Y-91237195D01*
X140963689Y-91219196D01*
X140963688Y-91219194D01*
X140963687Y-91219192D01*
X140876061Y-91102138D01*
X140759007Y-91014512D01*
X140759002Y-91014510D01*
X140622004Y-90963411D01*
X140621996Y-90963409D01*
X140561449Y-90956900D01*
X140561438Y-90956900D01*
X138838562Y-90956900D01*
X138838550Y-90956900D01*
X138778003Y-90963409D01*
X138777995Y-90963411D01*
X138640997Y-91014510D01*
X138640992Y-91014512D01*
X138523938Y-91102138D01*
X138436312Y-91219192D01*
X138436310Y-91219197D01*
X138385211Y-91356195D01*
X138385209Y-91356203D01*
X138378700Y-91416750D01*
X138378700Y-93139649D01*
X127381997Y-93139649D01*
X127423072Y-92968557D01*
X127442319Y-92724000D01*
X127423072Y-92479443D01*
X127365805Y-92240908D01*
X127271927Y-92014268D01*
X127143752Y-91805104D01*
X126984433Y-91618567D01*
X126797896Y-91459248D01*
X126797894Y-91459246D01*
X126797892Y-91459245D01*
X126675256Y-91384094D01*
X126588732Y-91331073D01*
X126362092Y-91237195D01*
X126123557Y-91179928D01*
X125879000Y-91160681D01*
X125634443Y-91179928D01*
X125395907Y-91237195D01*
X125169266Y-91331074D01*
X124960107Y-91459245D01*
X124773567Y-91618567D01*
X124614245Y-91805107D01*
X124486074Y-92014266D01*
X124392195Y-92240907D01*
X124363383Y-92360919D01*
X124334928Y-92479443D01*
X124315681Y-92724000D01*
X117729500Y-92724000D01*
X117729500Y-92601973D01*
X117691321Y-92360924D01*
X117615904Y-92128815D01*
X117505106Y-91911361D01*
X117361655Y-91713917D01*
X117361652Y-91713914D01*
X117361650Y-91713911D01*
X117189088Y-91541349D01*
X117189085Y-91541347D01*
X117189083Y-91541345D01*
X116991639Y-91397894D01*
X116774185Y-91287096D01*
X116774182Y-91287095D01*
X116774180Y-91287094D01*
X116542080Y-91211680D01*
X116542078Y-91211679D01*
X116542076Y-91211679D01*
X116301027Y-91173500D01*
X116056973Y-91173500D01*
X115815924Y-91211679D01*
X115815922Y-91211679D01*
X115815919Y-91211680D01*
X115583819Y-91287094D01*
X115583813Y-91287097D01*
X115366357Y-91397896D01*
X115168914Y-91541347D01*
X115168911Y-91541349D01*
X114996349Y-91713911D01*
X114996347Y-91713914D01*
X114852896Y-91911357D01*
X114742097Y-92128813D01*
X114742094Y-92128819D01*
X114666680Y-92360919D01*
X114666679Y-92360922D01*
X114666679Y-92360924D01*
X114628500Y-92601973D01*
X114628500Y-92846027D01*
X114300000Y-92846027D01*
X114300000Y-89135027D01*
X114628500Y-89135027D01*
X114666679Y-89376076D01*
X114742096Y-89608185D01*
X114852894Y-89825639D01*
X114996345Y-90023083D01*
X114996347Y-90023085D01*
X114996349Y-90023088D01*
X115168911Y-90195650D01*
X115168914Y-90195652D01*
X115168917Y-90195655D01*
X115366361Y-90339106D01*
X115583815Y-90449904D01*
X115815924Y-90525321D01*
X116056973Y-90563500D01*
X116056976Y-90563500D01*
X116301024Y-90563500D01*
X116301027Y-90563500D01*
X116542076Y-90525321D01*
X116774185Y-90449904D01*
X116991639Y-90339106D01*
X117189083Y-90195655D01*
X117361655Y-90023083D01*
X117477494Y-89863644D01*
X124320499Y-89863644D01*
X124331111Y-89967503D01*
X124331112Y-89967506D01*
X124386877Y-90135796D01*
X124423797Y-90195652D01*
X124479949Y-90286689D01*
X124479954Y-90286695D01*
X124605304Y-90412045D01*
X124605310Y-90412050D01*
X124605311Y-90412051D01*
X124756204Y-90505123D01*
X124924494Y-90560888D01*
X124945268Y-90563010D01*
X125028356Y-90571500D01*
X125028364Y-90571500D01*
X126729644Y-90571500D01*
X126807940Y-90563500D01*
X126833506Y-90560888D01*
X127001796Y-90505123D01*
X127152689Y-90412051D01*
X127278051Y-90286689D01*
X127371123Y-90135796D01*
X127426888Y-89967506D01*
X127429782Y-89939177D01*
X127437500Y-89863644D01*
X127437500Y-88162355D01*
X127426888Y-88058496D01*
X127426888Y-88058494D01*
X127371123Y-87890204D01*
X127278051Y-87739311D01*
X127278050Y-87739310D01*
X127278045Y-87739304D01*
X127152695Y-87613954D01*
X127152689Y-87613949D01*
X127120878Y-87594328D01*
X127001796Y-87520877D01*
X126833506Y-87465112D01*
X126833503Y-87465111D01*
X126729644Y-87454500D01*
X126729636Y-87454500D01*
X125028364Y-87454500D01*
X125028356Y-87454500D01*
X124924496Y-87465111D01*
X124756204Y-87520877D01*
X124605310Y-87613949D01*
X124605304Y-87613954D01*
X124479954Y-87739304D01*
X124479949Y-87739310D01*
X124386877Y-87890204D01*
X124331111Y-88058496D01*
X124320500Y-88162355D01*
X124320500Y-89863644D01*
X124320499Y-89863644D01*
X117477494Y-89863644D01*
X117505106Y-89825639D01*
X117615904Y-89608185D01*
X117691321Y-89376076D01*
X117729500Y-89135027D01*
X117729500Y-88890973D01*
X117691321Y-88649924D01*
X117615904Y-88417815D01*
X117505106Y-88200361D01*
X117361655Y-88002917D01*
X117361652Y-88002914D01*
X117361650Y-88002911D01*
X117189088Y-87830349D01*
X117189085Y-87830347D01*
X117189083Y-87830345D01*
X116991639Y-87686894D01*
X116774185Y-87576096D01*
X116774182Y-87576095D01*
X116774180Y-87576094D01*
X116542080Y-87500680D01*
X116542078Y-87500679D01*
X116542076Y-87500679D01*
X116301027Y-87462500D01*
X116056973Y-87462500D01*
X115815924Y-87500679D01*
X115815922Y-87500679D01*
X115815919Y-87500680D01*
X115583819Y-87576094D01*
X115583813Y-87576097D01*
X115366357Y-87686896D01*
X115168914Y-87830347D01*
X115168911Y-87830349D01*
X114996349Y-88002911D01*
X114996347Y-88002914D01*
X114852896Y-88200357D01*
X114742097Y-88417813D01*
X114742094Y-88417819D01*
X114666680Y-88649919D01*
X114666679Y-88649922D01*
X114666679Y-88649924D01*
X114628500Y-88890973D01*
X114628500Y-89135027D01*
X114300000Y-89135027D01*
X114300000Y-87084995D01*
X130047500Y-87084995D01*
X130066065Y-87202207D01*
X130075658Y-87262775D01*
X130129162Y-87427444D01*
X130131277Y-87433952D01*
X130212991Y-87594325D01*
X130212993Y-87594328D01*
X130318788Y-87739942D01*
X130446057Y-87867211D01*
X130446060Y-87867213D01*
X130591675Y-87973009D01*
X130752048Y-88054723D01*
X130923224Y-88110341D01*
X130923225Y-88110341D01*
X130923230Y-88110343D01*
X131101005Y-88138500D01*
X131101008Y-88138500D01*
X141948992Y-88138500D01*
X141948995Y-88138500D01*
X142126770Y-88110343D01*
X142297952Y-88054723D01*
X142458325Y-87973009D01*
X142603940Y-87867213D01*
X142731213Y-87739940D01*
X142837009Y-87594325D01*
X142918723Y-87433952D01*
X142974343Y-87262770D01*
X143002500Y-87084995D01*
X143002500Y-86905005D01*
X142974343Y-86727230D01*
X142918723Y-86556048D01*
X142837009Y-86395675D01*
X142731213Y-86250060D01*
X142731211Y-86250057D01*
X142603942Y-86122788D01*
X142580835Y-86106000D01*
X152692844Y-86106000D01*
X152704781Y-86250060D01*
X152711437Y-86330375D01*
X152766702Y-86548612D01*
X152766703Y-86548613D01*
X152857141Y-86754793D01*
X152980275Y-86943265D01*
X152980279Y-86943270D01*
X153132762Y-87108908D01*
X153187331Y-87151381D01*
X153310424Y-87247189D01*
X153508426Y-87354342D01*
X153508427Y-87354342D01*
X153508428Y-87354343D01*
X153620227Y-87392723D01*
X153721365Y-87427444D01*
X153943431Y-87464500D01*
X153943435Y-87464500D01*
X154168565Y-87464500D01*
X154168569Y-87464500D01*
X154390635Y-87427444D01*
X154603574Y-87354342D01*
X154801576Y-87247189D01*
X154979240Y-87108906D01*
X155040245Y-87042637D01*
X155101096Y-87006067D01*
X155172061Y-87008200D01*
X155230606Y-87048362D01*
X155251000Y-87083941D01*
X155295111Y-87202204D01*
X155295112Y-87202207D01*
X155382738Y-87319261D01*
X155499792Y-87406887D01*
X155499794Y-87406888D01*
X155499796Y-87406889D01*
X155554900Y-87427442D01*
X155636795Y-87457988D01*
X155636803Y-87457990D01*
X155697350Y-87464499D01*
X155697355Y-87464499D01*
X155697362Y-87464500D01*
X155697368Y-87464500D01*
X157494632Y-87464500D01*
X157494638Y-87464500D01*
X157494645Y-87464499D01*
X157494649Y-87464499D01*
X157555196Y-87457990D01*
X157555199Y-87457989D01*
X157555201Y-87457989D01*
X157692204Y-87406889D01*
X157762399Y-87354342D01*
X157809261Y-87319261D01*
X157896887Y-87202207D01*
X157896887Y-87202206D01*
X157896889Y-87202204D01*
X157947989Y-87065201D01*
X157949800Y-87048362D01*
X157954499Y-87004649D01*
X157954500Y-87004632D01*
X157954500Y-85207367D01*
X157954499Y-85207350D01*
X157947990Y-85146803D01*
X157947988Y-85146795D01*
X157896889Y-85009797D01*
X157896887Y-85009792D01*
X157809261Y-84892738D01*
X157692207Y-84805112D01*
X157692202Y-84805110D01*
X157555204Y-84754011D01*
X157555196Y-84754009D01*
X157494649Y-84747500D01*
X157494638Y-84747500D01*
X155697362Y-84747500D01*
X155697350Y-84747500D01*
X155636803Y-84754009D01*
X155636795Y-84754011D01*
X155499797Y-84805110D01*
X155499792Y-84805112D01*
X155382738Y-84892738D01*
X155295112Y-85009792D01*
X155295111Y-85009795D01*
X155251000Y-85128058D01*
X155208453Y-85184893D01*
X155141932Y-85209703D01*
X155072558Y-85194611D01*
X155040246Y-85169363D01*
X154979240Y-85103094D01*
X154979239Y-85103093D01*
X154979237Y-85103091D01*
X154859372Y-85009796D01*
X154801576Y-84964811D01*
X154603574Y-84857658D01*
X154603572Y-84857657D01*
X154603571Y-84857656D01*
X154390639Y-84784557D01*
X154390630Y-84784555D01*
X154346476Y-84777187D01*
X154168569Y-84747500D01*
X153943431Y-84747500D01*
X153795211Y-84772233D01*
X153721369Y-84784555D01*
X153721360Y-84784557D01*
X153508428Y-84857656D01*
X153508426Y-84857658D01*
X153310426Y-84964810D01*
X153310424Y-84964811D01*
X153132762Y-85103091D01*
X152980279Y-85268729D01*
X152980275Y-85268734D01*
X152857141Y-85457206D01*
X152766703Y-85663386D01*
X152766702Y-85663387D01*
X152711437Y-85881624D01*
X152711436Y-85881630D01*
X152711436Y-85881632D01*
X152692844Y-86106000D01*
X142580835Y-86106000D01*
X142458328Y-86016993D01*
X142458327Y-86016992D01*
X142458325Y-86016991D01*
X142297952Y-85935277D01*
X142297949Y-85935276D01*
X142297947Y-85935275D01*
X142126773Y-85879658D01*
X142126777Y-85879658D01*
X142093677Y-85874415D01*
X141948995Y-85851500D01*
X131101005Y-85851500D01*
X130923230Y-85879657D01*
X130923224Y-85879658D01*
X130752052Y-85935275D01*
X130752046Y-85935278D01*
X130591671Y-86016993D01*
X130446057Y-86122788D01*
X130318788Y-86250057D01*
X130212993Y-86395671D01*
X130131278Y-86556046D01*
X130131275Y-86556052D01*
X130075658Y-86727224D01*
X130075657Y-86727229D01*
X130075657Y-86727230D01*
X130047500Y-86905005D01*
X130047500Y-87084995D01*
X114300000Y-87084995D01*
X114300000Y-85099027D01*
X114628500Y-85099027D01*
X114666679Y-85340076D01*
X114666680Y-85340080D01*
X114705674Y-85460092D01*
X114742096Y-85572185D01*
X114852894Y-85789639D01*
X114996345Y-85987083D01*
X114996347Y-85987085D01*
X114996349Y-85987088D01*
X115168911Y-86159650D01*
X115168914Y-86159652D01*
X115168917Y-86159655D01*
X115366361Y-86303106D01*
X115583815Y-86413904D01*
X115815924Y-86489321D01*
X116056973Y-86527500D01*
X116056976Y-86527500D01*
X116301024Y-86527500D01*
X116301027Y-86527500D01*
X116542076Y-86489321D01*
X116774185Y-86413904D01*
X116991639Y-86303106D01*
X117189083Y-86159655D01*
X117361655Y-85987083D01*
X117505106Y-85789639D01*
X117615904Y-85572185D01*
X117691321Y-85340076D01*
X117729500Y-85099027D01*
X117729500Y-84977000D01*
X124315681Y-84977000D01*
X124334928Y-85221557D01*
X124392195Y-85460092D01*
X124486073Y-85686732D01*
X124486074Y-85686733D01*
X124614245Y-85895892D01*
X124614246Y-85895894D01*
X124614248Y-85895896D01*
X124773567Y-86082433D01*
X124960104Y-86241752D01*
X124960106Y-86241753D01*
X124960107Y-86241754D01*
X124996219Y-86263883D01*
X125169268Y-86369927D01*
X125395908Y-86463805D01*
X125634443Y-86521072D01*
X125879000Y-86540319D01*
X126123557Y-86521072D01*
X126362092Y-86463805D01*
X126588732Y-86369927D01*
X126797896Y-86241752D01*
X126984433Y-86082433D01*
X127143752Y-85895896D01*
X127271927Y-85686732D01*
X127365805Y-85460092D01*
X127423072Y-85221557D01*
X127442319Y-84977000D01*
X127423072Y-84732443D01*
X127365805Y-84493908D01*
X127271927Y-84267268D01*
X127143752Y-84058104D01*
X126984433Y-83871567D01*
X126797896Y-83712248D01*
X126797894Y-83712246D01*
X126797892Y-83712245D01*
X126675256Y-83637094D01*
X126588732Y-83584073D01*
X126362092Y-83490195D01*
X126123557Y-83432928D01*
X125879000Y-83413681D01*
X125634443Y-83432928D01*
X125395907Y-83490195D01*
X125169266Y-83584074D01*
X124960107Y-83712245D01*
X124773567Y-83871567D01*
X124614245Y-84058107D01*
X124486074Y-84267266D01*
X124438627Y-84381813D01*
X124392195Y-84493908D01*
X124334928Y-84732443D01*
X124315681Y-84977000D01*
X117729500Y-84977000D01*
X117729500Y-84854973D01*
X117691321Y-84613924D01*
X117615904Y-84381815D01*
X117505106Y-84164361D01*
X117361655Y-83966917D01*
X117361652Y-83966914D01*
X117361650Y-83966911D01*
X117189088Y-83794349D01*
X117189085Y-83794347D01*
X117189083Y-83794345D01*
X116991639Y-83650894D01*
X116774185Y-83540096D01*
X116774182Y-83540095D01*
X116774180Y-83540094D01*
X116542080Y-83464680D01*
X116542078Y-83464679D01*
X116542076Y-83464679D01*
X116301027Y-83426500D01*
X116056973Y-83426500D01*
X115815924Y-83464679D01*
X115815922Y-83464679D01*
X115815919Y-83464680D01*
X115583819Y-83540094D01*
X115583813Y-83540097D01*
X115366357Y-83650896D01*
X115168914Y-83794347D01*
X115168911Y-83794349D01*
X114996349Y-83966911D01*
X114996347Y-83966914D01*
X114852896Y-84164357D01*
X114742097Y-84381813D01*
X114742094Y-84381819D01*
X114666680Y-84613919D01*
X114666679Y-84613922D01*
X114666679Y-84613924D01*
X114628500Y-84854973D01*
X114628500Y-85099027D01*
X114300000Y-85099027D01*
X114300000Y-80010641D01*
X114300004Y-80010005D01*
X115691728Y-80010005D01*
X115710795Y-80313073D01*
X115710796Y-80313086D01*
X115710797Y-80313090D01*
X115767702Y-80611400D01*
X115861548Y-80900225D01*
X115990852Y-81175011D01*
X115990854Y-81175014D01*
X115990857Y-81175020D01*
X116153576Y-81431425D01*
X116153579Y-81431428D01*
X116347153Y-81665418D01*
X116347156Y-81665421D01*
X116568535Y-81873311D01*
X116814225Y-82051815D01*
X117080350Y-82198118D01*
X117285617Y-82279388D01*
X117362707Y-82309911D01*
X117362710Y-82309911D01*
X117362713Y-82309913D01*
X117656861Y-82385438D01*
X117958155Y-82423500D01*
X117958159Y-82423500D01*
X118261841Y-82423500D01*
X118261845Y-82423500D01*
X118563139Y-82385438D01*
X118857287Y-82309913D01*
X119139650Y-82198118D01*
X119405775Y-82051815D01*
X119651465Y-81873311D01*
X119872844Y-81665421D01*
X120066423Y-81431425D01*
X120229148Y-81175011D01*
X120358452Y-80900225D01*
X120452298Y-80611400D01*
X120509203Y-80313090D01*
X120524221Y-80074390D01*
X120528272Y-80010005D01*
X120528272Y-80009994D01*
X120509204Y-79706926D01*
X120509203Y-79706910D01*
X120496182Y-79638649D01*
X154861500Y-79638649D01*
X154868009Y-79699196D01*
X154868011Y-79699204D01*
X154919110Y-79836202D01*
X154919112Y-79836207D01*
X155006738Y-79953261D01*
X155123792Y-80040887D01*
X155123794Y-80040888D01*
X155123796Y-80040889D01*
X155177600Y-80060957D01*
X155260795Y-80091988D01*
X155260803Y-80091990D01*
X155321350Y-80098499D01*
X155321355Y-80098499D01*
X155321362Y-80098500D01*
X155321368Y-80098500D01*
X157118632Y-80098500D01*
X157118638Y-80098500D01*
X157118645Y-80098499D01*
X157118649Y-80098499D01*
X157179196Y-80091990D01*
X157179199Y-80091989D01*
X157179201Y-80091989D01*
X157316204Y-80040889D01*
X157356388Y-80010808D01*
X157433261Y-79953261D01*
X157520886Y-79836208D01*
X157520885Y-79836208D01*
X157520889Y-79836204D01*
X157564999Y-79717939D01*
X157607545Y-79661107D01*
X157674066Y-79636296D01*
X157743440Y-79651388D01*
X157775753Y-79676635D01*
X157796529Y-79699204D01*
X157836762Y-79742908D01*
X157891331Y-79785381D01*
X158014424Y-79881189D01*
X158212426Y-79988342D01*
X158212427Y-79988342D01*
X158212428Y-79988343D01*
X158277867Y-80010808D01*
X158425365Y-80061444D01*
X158647431Y-80098500D01*
X158647435Y-80098500D01*
X158872565Y-80098500D01*
X158872569Y-80098500D01*
X159094635Y-80061444D01*
X159307574Y-79988342D01*
X159505576Y-79881189D01*
X159683240Y-79742906D01*
X159835722Y-79577268D01*
X159924518Y-79441354D01*
X159978520Y-79395268D01*
X160048868Y-79385692D01*
X160113225Y-79415669D01*
X160135480Y-79441353D01*
X160168607Y-79492058D01*
X160224275Y-79577265D01*
X160224279Y-79577270D01*
X160376762Y-79742908D01*
X160431331Y-79785381D01*
X160554424Y-79881189D01*
X160752426Y-79988342D01*
X160752427Y-79988342D01*
X160752428Y-79988343D01*
X160817867Y-80010808D01*
X160965365Y-80061444D01*
X161187431Y-80098500D01*
X161187435Y-80098500D01*
X161412565Y-80098500D01*
X161412569Y-80098500D01*
X161634635Y-80061444D01*
X161847574Y-79988342D01*
X162045576Y-79881189D01*
X162223240Y-79742906D01*
X162375722Y-79577268D01*
X162464816Y-79440898D01*
X162518819Y-79394810D01*
X162589167Y-79385235D01*
X162653524Y-79415212D01*
X162675782Y-79440898D01*
X162764674Y-79576958D01*
X162917097Y-79742534D01*
X163094698Y-79880767D01*
X163094699Y-79880768D01*
X163292628Y-79987882D01*
X163292630Y-79987883D01*
X163505483Y-80060955D01*
X163505492Y-80060957D01*
X163586000Y-80074391D01*
X163586000Y-79170702D01*
X163647007Y-79205925D01*
X163774174Y-79240000D01*
X163905826Y-79240000D01*
X164032993Y-79205925D01*
X164094000Y-79170702D01*
X164094000Y-80074390D01*
X164174507Y-80060957D01*
X164174516Y-80060955D01*
X164322929Y-80010005D01*
X166491728Y-80010005D01*
X166510795Y-80313073D01*
X166510796Y-80313086D01*
X166510797Y-80313090D01*
X166567702Y-80611400D01*
X166661548Y-80900225D01*
X166790852Y-81175011D01*
X166790854Y-81175014D01*
X166790857Y-81175020D01*
X166953576Y-81431425D01*
X166953579Y-81431428D01*
X167147153Y-81665418D01*
X167147156Y-81665421D01*
X167368535Y-81873311D01*
X167614225Y-82051815D01*
X167880350Y-82198118D01*
X168085617Y-82279388D01*
X168162707Y-82309911D01*
X168162710Y-82309911D01*
X168162713Y-82309913D01*
X168456861Y-82385438D01*
X168758155Y-82423500D01*
X168758159Y-82423500D01*
X169061841Y-82423500D01*
X169061845Y-82423500D01*
X169363139Y-82385438D01*
X169657287Y-82309913D01*
X169939650Y-82198118D01*
X170205775Y-82051815D01*
X170451465Y-81873311D01*
X170672844Y-81665421D01*
X170866423Y-81431425D01*
X171029148Y-81175011D01*
X171158452Y-80900225D01*
X171252298Y-80611400D01*
X171309203Y-80313090D01*
X171324221Y-80074390D01*
X171328272Y-80010005D01*
X171328272Y-80009994D01*
X171309204Y-79706926D01*
X171309203Y-79706910D01*
X171252298Y-79408600D01*
X171158452Y-79119775D01*
X171029148Y-78844989D01*
X171029142Y-78844979D01*
X170866423Y-78588574D01*
X170866420Y-78588571D01*
X170672846Y-78354581D01*
X170672842Y-78354577D01*
X170451463Y-78146687D01*
X170205777Y-77968186D01*
X170087278Y-77903041D01*
X169939650Y-77821882D01*
X169835876Y-77780795D01*
X169657292Y-77710088D01*
X169657274Y-77710083D01*
X169363153Y-77634565D01*
X169363145Y-77634563D01*
X169363139Y-77634562D01*
X169363129Y-77634560D01*
X169363125Y-77634560D01*
X169061859Y-77596501D01*
X169061848Y-77596500D01*
X169061845Y-77596500D01*
X168758155Y-77596500D01*
X168758152Y-77596500D01*
X168758140Y-77596501D01*
X168456874Y-77634560D01*
X168456867Y-77634561D01*
X168456861Y-77634562D01*
X168456856Y-77634563D01*
X168456846Y-77634565D01*
X168162725Y-77710083D01*
X168162707Y-77710088D01*
X167880350Y-77821882D01*
X167614222Y-77968186D01*
X167368536Y-78146687D01*
X167147157Y-78354577D01*
X167147153Y-78354581D01*
X166953579Y-78588571D01*
X166953576Y-78588574D01*
X166790857Y-78844979D01*
X166790850Y-78844993D01*
X166661551Y-79119768D01*
X166661549Y-79119772D01*
X166567703Y-79408596D01*
X166567701Y-79408603D01*
X166510798Y-79706903D01*
X166510795Y-79706926D01*
X166491728Y-80009994D01*
X166491728Y-80010005D01*
X164322929Y-80010005D01*
X164387369Y-79987883D01*
X164387371Y-79987882D01*
X164585300Y-79880768D01*
X164585301Y-79880767D01*
X164762902Y-79742534D01*
X164915325Y-79576958D01*
X165038419Y-79388548D01*
X165128820Y-79182456D01*
X165128823Y-79182449D01*
X165176544Y-78994000D01*
X164270703Y-78994000D01*
X164305925Y-78932993D01*
X164340000Y-78805826D01*
X164340000Y-78674174D01*
X164305925Y-78547007D01*
X164270703Y-78486000D01*
X165176544Y-78486000D01*
X165176544Y-78485999D01*
X165128823Y-78297550D01*
X165128820Y-78297543D01*
X165038419Y-78091451D01*
X164915325Y-77903041D01*
X164762902Y-77737465D01*
X164585301Y-77599232D01*
X164585300Y-77599231D01*
X164387371Y-77492117D01*
X164387369Y-77492116D01*
X164174512Y-77419043D01*
X164174501Y-77419040D01*
X164094000Y-77405606D01*
X164094000Y-78309297D01*
X164032993Y-78274075D01*
X163905826Y-78240000D01*
X163774174Y-78240000D01*
X163647007Y-78274075D01*
X163586000Y-78309297D01*
X163586000Y-77405607D01*
X163585999Y-77405606D01*
X163505498Y-77419040D01*
X163505487Y-77419043D01*
X163292630Y-77492116D01*
X163292628Y-77492117D01*
X163094699Y-77599231D01*
X163094698Y-77599232D01*
X162917097Y-77737465D01*
X162764670Y-77903045D01*
X162675780Y-78039101D01*
X162621776Y-78085189D01*
X162551428Y-78094764D01*
X162487071Y-78064786D01*
X162464816Y-78039101D01*
X162399519Y-77939156D01*
X162375724Y-77902734D01*
X162375720Y-77902729D01*
X162246220Y-77762057D01*
X162223240Y-77737094D01*
X162223239Y-77737093D01*
X162223237Y-77737091D01*
X162091508Y-77634562D01*
X162045576Y-77598811D01*
X161847574Y-77491658D01*
X161847572Y-77491657D01*
X161847571Y-77491656D01*
X161634639Y-77418557D01*
X161634630Y-77418555D01*
X161557029Y-77405606D01*
X161412569Y-77381500D01*
X161187431Y-77381500D01*
X161042971Y-77405606D01*
X160965369Y-77418555D01*
X160965360Y-77418557D01*
X160752428Y-77491656D01*
X160752426Y-77491658D01*
X160558695Y-77596500D01*
X160554426Y-77598810D01*
X160554424Y-77598811D01*
X160376762Y-77737091D01*
X160224279Y-77902729D01*
X160135483Y-78038643D01*
X160081479Y-78084731D01*
X160011131Y-78094306D01*
X159946774Y-78064329D01*
X159924517Y-78038643D01*
X159835720Y-77902729D01*
X159706220Y-77762057D01*
X159683240Y-77737094D01*
X159683239Y-77737093D01*
X159683237Y-77737091D01*
X159551508Y-77634562D01*
X159505576Y-77598811D01*
X159307574Y-77491658D01*
X159307572Y-77491657D01*
X159307571Y-77491656D01*
X159094639Y-77418557D01*
X159094630Y-77418555D01*
X159017029Y-77405606D01*
X158872569Y-77381500D01*
X158647431Y-77381500D01*
X158502971Y-77405606D01*
X158425369Y-77418555D01*
X158425360Y-77418557D01*
X158212428Y-77491656D01*
X158212426Y-77491658D01*
X158018695Y-77596500D01*
X158014426Y-77598810D01*
X158014424Y-77598811D01*
X157836762Y-77737091D01*
X157775754Y-77803363D01*
X157714901Y-77839933D01*
X157643936Y-77837798D01*
X157585391Y-77797636D01*
X157564999Y-77762057D01*
X157520889Y-77643797D01*
X157520887Y-77643792D01*
X157433261Y-77526738D01*
X157316207Y-77439112D01*
X157316202Y-77439110D01*
X157179204Y-77388011D01*
X157179196Y-77388009D01*
X157118649Y-77381500D01*
X157118638Y-77381500D01*
X155321362Y-77381500D01*
X155321350Y-77381500D01*
X155260803Y-77388009D01*
X155260795Y-77388011D01*
X155123797Y-77439110D01*
X155123792Y-77439112D01*
X155006738Y-77526738D01*
X154919112Y-77643792D01*
X154919110Y-77643797D01*
X154868011Y-77780795D01*
X154868009Y-77780803D01*
X154861500Y-77841350D01*
X154861500Y-79638649D01*
X120496182Y-79638649D01*
X120452298Y-79408600D01*
X120358452Y-79119775D01*
X120229148Y-78844989D01*
X120229142Y-78844979D01*
X120066423Y-78588574D01*
X120066420Y-78588571D01*
X119872846Y-78354581D01*
X119872842Y-78354577D01*
X119651463Y-78146687D01*
X119405777Y-77968186D01*
X119287278Y-77903041D01*
X119139650Y-77821882D01*
X119035876Y-77780795D01*
X118857292Y-77710088D01*
X118857274Y-77710083D01*
X118563153Y-77634565D01*
X118563145Y-77634563D01*
X118563139Y-77634562D01*
X118563129Y-77634560D01*
X118563125Y-77634560D01*
X118261859Y-77596501D01*
X118261848Y-77596500D01*
X118261845Y-77596500D01*
X117958155Y-77596500D01*
X117958152Y-77596500D01*
X117958140Y-77596501D01*
X117656874Y-77634560D01*
X117656867Y-77634561D01*
X117656861Y-77634562D01*
X117656856Y-77634563D01*
X117656846Y-77634565D01*
X117362725Y-77710083D01*
X117362707Y-77710088D01*
X117080350Y-77821882D01*
X116814222Y-77968186D01*
X116568536Y-78146687D01*
X116347157Y-78354577D01*
X116347153Y-78354581D01*
X116153579Y-78588571D01*
X116153576Y-78588574D01*
X115990857Y-78844979D01*
X115990850Y-78844993D01*
X115861551Y-79119768D01*
X115861549Y-79119772D01*
X115767703Y-79408596D01*
X115767701Y-79408603D01*
X115710798Y-79706903D01*
X115710795Y-79706926D01*
X115691728Y-80009994D01*
X115691728Y-80010005D01*
X114300004Y-80010005D01*
X114300009Y-80009367D01*
X114302449Y-79816243D01*
X114303127Y-79804701D01*
X114343548Y-79420118D01*
X114345607Y-79407117D01*
X114425841Y-79029646D01*
X114429254Y-79016914D01*
X114436700Y-78994000D01*
X114548494Y-78649930D01*
X114553219Y-78637621D01*
X114575058Y-78588571D01*
X114710174Y-78285094D01*
X114716161Y-78273346D01*
X114909105Y-77939156D01*
X114916268Y-77928126D01*
X115143093Y-77615927D01*
X115151390Y-77605683D01*
X115331540Y-77405606D01*
X115409600Y-77318911D01*
X115418911Y-77309600D01*
X115585903Y-77159239D01*
X115705683Y-77051390D01*
X115715932Y-77043090D01*
X116028126Y-76816268D01*
X116039156Y-76809105D01*
X116373348Y-76616159D01*
X116385097Y-76610173D01*
X116737437Y-76453301D01*
X116737625Y-76453217D01*
X116749930Y-76448494D01*
X117116921Y-76329251D01*
X117129646Y-76325841D01*
X117507117Y-76245607D01*
X117520118Y-76243548D01*
X117904701Y-76203127D01*
X117916252Y-76202448D01*
X118109367Y-76200009D01*
X118110641Y-76200000D01*
X168909191Y-76200000D01*
X168910839Y-76200011D01*
G37*
G04 #@! TD.AperFunction*
M02*
