G04 #@! TF.GenerationSoftware,KiCad,Pcbnew,8.0.1-rc1*
G04 #@! TF.CreationDate,2024-03-28T09:47:17-05:00*
G04 #@! TF.ProjectId,motor_control,6d6f746f-725f-4636-9f6e-74726f6c2e6b,1.0*
G04 #@! TF.SameCoordinates,Original*
G04 #@! TF.FileFunction,Legend,Top*
G04 #@! TF.FilePolarity,Positive*
%FSLAX46Y46*%
G04 Gerber Fmt 4.6, Leading zero omitted, Abs format (unit mm)*
G04 Created by KiCad (PCBNEW 8.0.1-rc1) date 2024-03-28 09:47:17*
%MOMM*%
%LPD*%
G01*
G04 APERTURE LIST*
%ADD10C,0.250000*%
%ADD11C,0.150000*%
%ADD12C,0.120000*%
%ADD13C,0.127000*%
%ADD14C,0.200000*%
%ADD15C,0.152400*%
%ADD16C,0.010000*%
%ADD17C,0.203200*%
G04 APERTURE END LIST*
D10*
X120300857Y-89429000D02*
X120443714Y-89476619D01*
X120443714Y-89476619D02*
X120681809Y-89476619D01*
X120681809Y-89476619D02*
X120777047Y-89429000D01*
X120777047Y-89429000D02*
X120824666Y-89381380D01*
X120824666Y-89381380D02*
X120872285Y-89286142D01*
X120872285Y-89286142D02*
X120872285Y-89190904D01*
X120872285Y-89190904D02*
X120824666Y-89095666D01*
X120824666Y-89095666D02*
X120777047Y-89048047D01*
X120777047Y-89048047D02*
X120681809Y-89000428D01*
X120681809Y-89000428D02*
X120491333Y-88952809D01*
X120491333Y-88952809D02*
X120396095Y-88905190D01*
X120396095Y-88905190D02*
X120348476Y-88857571D01*
X120348476Y-88857571D02*
X120300857Y-88762333D01*
X120300857Y-88762333D02*
X120300857Y-88667095D01*
X120300857Y-88667095D02*
X120348476Y-88571857D01*
X120348476Y-88571857D02*
X120396095Y-88524238D01*
X120396095Y-88524238D02*
X120491333Y-88476619D01*
X120491333Y-88476619D02*
X120729428Y-88476619D01*
X120729428Y-88476619D02*
X120872285Y-88524238D01*
X121205619Y-88476619D02*
X121443714Y-89476619D01*
X121443714Y-89476619D02*
X121634190Y-88762333D01*
X121634190Y-88762333D02*
X121824666Y-89476619D01*
X121824666Y-89476619D02*
X122062762Y-88476619D01*
X120396095Y-96271238D02*
X120300857Y-96223619D01*
X120300857Y-96223619D02*
X120158000Y-96223619D01*
X120158000Y-96223619D02*
X120015143Y-96271238D01*
X120015143Y-96271238D02*
X119919905Y-96366476D01*
X119919905Y-96366476D02*
X119872286Y-96461714D01*
X119872286Y-96461714D02*
X119824667Y-96652190D01*
X119824667Y-96652190D02*
X119824667Y-96795047D01*
X119824667Y-96795047D02*
X119872286Y-96985523D01*
X119872286Y-96985523D02*
X119919905Y-97080761D01*
X119919905Y-97080761D02*
X120015143Y-97176000D01*
X120015143Y-97176000D02*
X120158000Y-97223619D01*
X120158000Y-97223619D02*
X120253238Y-97223619D01*
X120253238Y-97223619D02*
X120396095Y-97176000D01*
X120396095Y-97176000D02*
X120443714Y-97128380D01*
X120443714Y-97128380D02*
X120443714Y-96795047D01*
X120443714Y-96795047D02*
X120253238Y-96795047D01*
X120872286Y-97223619D02*
X120872286Y-96223619D01*
X120872286Y-96223619D02*
X121443714Y-97223619D01*
X121443714Y-97223619D02*
X121443714Y-96223619D01*
X121919905Y-97223619D02*
X121919905Y-96223619D01*
X121919905Y-96223619D02*
X122158000Y-96223619D01*
X122158000Y-96223619D02*
X122300857Y-96271238D01*
X122300857Y-96271238D02*
X122396095Y-96366476D01*
X122396095Y-96366476D02*
X122443714Y-96461714D01*
X122443714Y-96461714D02*
X122491333Y-96652190D01*
X122491333Y-96652190D02*
X122491333Y-96795047D01*
X122491333Y-96795047D02*
X122443714Y-96985523D01*
X122443714Y-96985523D02*
X122396095Y-97080761D01*
X122396095Y-97080761D02*
X122300857Y-97176000D01*
X122300857Y-97176000D02*
X122158000Y-97223619D01*
X122158000Y-97223619D02*
X121919905Y-97223619D01*
X158670810Y-81475619D02*
X158670810Y-80475619D01*
X159718428Y-81380380D02*
X159670809Y-81428000D01*
X159670809Y-81428000D02*
X159527952Y-81475619D01*
X159527952Y-81475619D02*
X159432714Y-81475619D01*
X159432714Y-81475619D02*
X159289857Y-81428000D01*
X159289857Y-81428000D02*
X159194619Y-81332761D01*
X159194619Y-81332761D02*
X159147000Y-81237523D01*
X159147000Y-81237523D02*
X159099381Y-81047047D01*
X159099381Y-81047047D02*
X159099381Y-80904190D01*
X159099381Y-80904190D02*
X159147000Y-80713714D01*
X159147000Y-80713714D02*
X159194619Y-80618476D01*
X159194619Y-80618476D02*
X159289857Y-80523238D01*
X159289857Y-80523238D02*
X159432714Y-80475619D01*
X159432714Y-80475619D02*
X159527952Y-80475619D01*
X159527952Y-80475619D02*
X159670809Y-80523238D01*
X159670809Y-80523238D02*
X159718428Y-80570857D01*
X160099381Y-81428000D02*
X160242238Y-81475619D01*
X160242238Y-81475619D02*
X160480333Y-81475619D01*
X160480333Y-81475619D02*
X160575571Y-81428000D01*
X160575571Y-81428000D02*
X160623190Y-81380380D01*
X160623190Y-81380380D02*
X160670809Y-81285142D01*
X160670809Y-81285142D02*
X160670809Y-81189904D01*
X160670809Y-81189904D02*
X160623190Y-81094666D01*
X160623190Y-81094666D02*
X160575571Y-81047047D01*
X160575571Y-81047047D02*
X160480333Y-80999428D01*
X160480333Y-80999428D02*
X160289857Y-80951809D01*
X160289857Y-80951809D02*
X160194619Y-80904190D01*
X160194619Y-80904190D02*
X160147000Y-80856571D01*
X160147000Y-80856571D02*
X160099381Y-80761333D01*
X160099381Y-80761333D02*
X160099381Y-80666095D01*
X160099381Y-80666095D02*
X160147000Y-80570857D01*
X160147000Y-80570857D02*
X160194619Y-80523238D01*
X160194619Y-80523238D02*
X160289857Y-80475619D01*
X160289857Y-80475619D02*
X160527952Y-80475619D01*
X160527952Y-80475619D02*
X160670809Y-80523238D01*
X161099381Y-81475619D02*
X161099381Y-80475619D01*
X161099381Y-80475619D02*
X161480333Y-80475619D01*
X161480333Y-80475619D02*
X161575571Y-80523238D01*
X161575571Y-80523238D02*
X161623190Y-80570857D01*
X161623190Y-80570857D02*
X161670809Y-80666095D01*
X161670809Y-80666095D02*
X161670809Y-80808952D01*
X161670809Y-80808952D02*
X161623190Y-80904190D01*
X161623190Y-80904190D02*
X161575571Y-80951809D01*
X161575571Y-80951809D02*
X161480333Y-80999428D01*
X161480333Y-80999428D02*
X161099381Y-80999428D01*
X118549380Y-105100666D02*
X119549380Y-105100666D01*
X119549380Y-105100666D02*
X118835095Y-105433999D01*
X118835095Y-105433999D02*
X119549380Y-105767332D01*
X119549380Y-105767332D02*
X118549380Y-105767332D01*
X118549380Y-106386380D02*
X118597000Y-106291142D01*
X118597000Y-106291142D02*
X118644619Y-106243523D01*
X118644619Y-106243523D02*
X118739857Y-106195904D01*
X118739857Y-106195904D02*
X119025571Y-106195904D01*
X119025571Y-106195904D02*
X119120809Y-106243523D01*
X119120809Y-106243523D02*
X119168428Y-106291142D01*
X119168428Y-106291142D02*
X119216047Y-106386380D01*
X119216047Y-106386380D02*
X119216047Y-106529237D01*
X119216047Y-106529237D02*
X119168428Y-106624475D01*
X119168428Y-106624475D02*
X119120809Y-106672094D01*
X119120809Y-106672094D02*
X119025571Y-106719713D01*
X119025571Y-106719713D02*
X118739857Y-106719713D01*
X118739857Y-106719713D02*
X118644619Y-106672094D01*
X118644619Y-106672094D02*
X118597000Y-106624475D01*
X118597000Y-106624475D02*
X118549380Y-106529237D01*
X118549380Y-106529237D02*
X118549380Y-106386380D01*
X119216047Y-107005428D02*
X119216047Y-107386380D01*
X119549380Y-107148285D02*
X118692238Y-107148285D01*
X118692238Y-107148285D02*
X118597000Y-107195904D01*
X118597000Y-107195904D02*
X118549380Y-107291142D01*
X118549380Y-107291142D02*
X118549380Y-107386380D01*
X118549380Y-107862571D02*
X118597000Y-107767333D01*
X118597000Y-107767333D02*
X118644619Y-107719714D01*
X118644619Y-107719714D02*
X118739857Y-107672095D01*
X118739857Y-107672095D02*
X119025571Y-107672095D01*
X119025571Y-107672095D02*
X119120809Y-107719714D01*
X119120809Y-107719714D02*
X119168428Y-107767333D01*
X119168428Y-107767333D02*
X119216047Y-107862571D01*
X119216047Y-107862571D02*
X119216047Y-108005428D01*
X119216047Y-108005428D02*
X119168428Y-108100666D01*
X119168428Y-108100666D02*
X119120809Y-108148285D01*
X119120809Y-108148285D02*
X119025571Y-108195904D01*
X119025571Y-108195904D02*
X118739857Y-108195904D01*
X118739857Y-108195904D02*
X118644619Y-108148285D01*
X118644619Y-108148285D02*
X118597000Y-108100666D01*
X118597000Y-108100666D02*
X118549380Y-108005428D01*
X118549380Y-108005428D02*
X118549380Y-107862571D01*
X118549380Y-108624476D02*
X119216047Y-108624476D01*
X119025571Y-108624476D02*
X119120809Y-108672095D01*
X119120809Y-108672095D02*
X119168428Y-108719714D01*
X119168428Y-108719714D02*
X119216047Y-108814952D01*
X119216047Y-108814952D02*
X119216047Y-108910190D01*
X120134191Y-92159619D02*
X120467524Y-93159619D01*
X120467524Y-93159619D02*
X120800857Y-92159619D01*
X121134191Y-93159619D02*
X121134191Y-92492952D01*
X121134191Y-92159619D02*
X121086572Y-92207238D01*
X121086572Y-92207238D02*
X121134191Y-92254857D01*
X121134191Y-92254857D02*
X121181810Y-92207238D01*
X121181810Y-92207238D02*
X121134191Y-92159619D01*
X121134191Y-92159619D02*
X121134191Y-92254857D01*
X121610381Y-92492952D02*
X121610381Y-93159619D01*
X121610381Y-92588190D02*
X121658000Y-92540571D01*
X121658000Y-92540571D02*
X121753238Y-92492952D01*
X121753238Y-92492952D02*
X121896095Y-92492952D01*
X121896095Y-92492952D02*
X121991333Y-92540571D01*
X121991333Y-92540571D02*
X122038952Y-92635809D01*
X122038952Y-92635809D02*
X122038952Y-93159619D01*
X168169000Y-107743333D02*
X168216619Y-107600476D01*
X168216619Y-107600476D02*
X168216619Y-107362381D01*
X168216619Y-107362381D02*
X168169000Y-107267143D01*
X168169000Y-107267143D02*
X168121380Y-107219524D01*
X168121380Y-107219524D02*
X168026142Y-107171905D01*
X168026142Y-107171905D02*
X167930904Y-107171905D01*
X167930904Y-107171905D02*
X167835666Y-107219524D01*
X167835666Y-107219524D02*
X167788047Y-107267143D01*
X167788047Y-107267143D02*
X167740428Y-107362381D01*
X167740428Y-107362381D02*
X167692809Y-107552857D01*
X167692809Y-107552857D02*
X167645190Y-107648095D01*
X167645190Y-107648095D02*
X167597571Y-107695714D01*
X167597571Y-107695714D02*
X167502333Y-107743333D01*
X167502333Y-107743333D02*
X167407095Y-107743333D01*
X167407095Y-107743333D02*
X167311857Y-107695714D01*
X167311857Y-107695714D02*
X167264238Y-107648095D01*
X167264238Y-107648095D02*
X167216619Y-107552857D01*
X167216619Y-107552857D02*
X167216619Y-107314762D01*
X167216619Y-107314762D02*
X167264238Y-107171905D01*
X167549952Y-106743333D02*
X168549952Y-106743333D01*
X167597571Y-106743333D02*
X167549952Y-106648095D01*
X167549952Y-106648095D02*
X167549952Y-106457619D01*
X167549952Y-106457619D02*
X167597571Y-106362381D01*
X167597571Y-106362381D02*
X167645190Y-106314762D01*
X167645190Y-106314762D02*
X167740428Y-106267143D01*
X167740428Y-106267143D02*
X168026142Y-106267143D01*
X168026142Y-106267143D02*
X168121380Y-106314762D01*
X168121380Y-106314762D02*
X168169000Y-106362381D01*
X168169000Y-106362381D02*
X168216619Y-106457619D01*
X168216619Y-106457619D02*
X168216619Y-106648095D01*
X168216619Y-106648095D02*
X168169000Y-106743333D01*
X168216619Y-105410000D02*
X167692809Y-105410000D01*
X167692809Y-105410000D02*
X167597571Y-105457619D01*
X167597571Y-105457619D02*
X167549952Y-105552857D01*
X167549952Y-105552857D02*
X167549952Y-105743333D01*
X167549952Y-105743333D02*
X167597571Y-105838571D01*
X168169000Y-105410000D02*
X168216619Y-105505238D01*
X168216619Y-105505238D02*
X168216619Y-105743333D01*
X168216619Y-105743333D02*
X168169000Y-105838571D01*
X168169000Y-105838571D02*
X168073761Y-105886190D01*
X168073761Y-105886190D02*
X167978523Y-105886190D01*
X167978523Y-105886190D02*
X167883285Y-105838571D01*
X167883285Y-105838571D02*
X167835666Y-105743333D01*
X167835666Y-105743333D02*
X167835666Y-105505238D01*
X167835666Y-105505238D02*
X167788047Y-105410000D01*
X168216619Y-104933809D02*
X167549952Y-104933809D01*
X167740428Y-104933809D02*
X167645190Y-104886190D01*
X167645190Y-104886190D02*
X167597571Y-104838571D01*
X167597571Y-104838571D02*
X167549952Y-104743333D01*
X167549952Y-104743333D02*
X167549952Y-104648095D01*
X168169000Y-103933809D02*
X168216619Y-104029047D01*
X168216619Y-104029047D02*
X168216619Y-104219523D01*
X168216619Y-104219523D02*
X168169000Y-104314761D01*
X168169000Y-104314761D02*
X168073761Y-104362380D01*
X168073761Y-104362380D02*
X167692809Y-104362380D01*
X167692809Y-104362380D02*
X167597571Y-104314761D01*
X167597571Y-104314761D02*
X167549952Y-104219523D01*
X167549952Y-104219523D02*
X167549952Y-104029047D01*
X167549952Y-104029047D02*
X167597571Y-103933809D01*
X167597571Y-103933809D02*
X167692809Y-103886190D01*
X167692809Y-103886190D02*
X167788047Y-103886190D01*
X167788047Y-103886190D02*
X167883285Y-104362380D01*
X168169000Y-103505237D02*
X168216619Y-103409999D01*
X168216619Y-103409999D02*
X168216619Y-103219523D01*
X168216619Y-103219523D02*
X168169000Y-103124285D01*
X168169000Y-103124285D02*
X168073761Y-103076666D01*
X168073761Y-103076666D02*
X168026142Y-103076666D01*
X168026142Y-103076666D02*
X167930904Y-103124285D01*
X167930904Y-103124285D02*
X167883285Y-103219523D01*
X167883285Y-103219523D02*
X167883285Y-103362380D01*
X167883285Y-103362380D02*
X167835666Y-103457618D01*
X167835666Y-103457618D02*
X167740428Y-103505237D01*
X167740428Y-103505237D02*
X167692809Y-103505237D01*
X167692809Y-103505237D02*
X167597571Y-103457618D01*
X167597571Y-103457618D02*
X167549952Y-103362380D01*
X167549952Y-103362380D02*
X167549952Y-103219523D01*
X167549952Y-103219523D02*
X167597571Y-103124285D01*
X153622666Y-117369000D02*
X153765523Y-117416619D01*
X153765523Y-117416619D02*
X154003618Y-117416619D01*
X154003618Y-117416619D02*
X154098856Y-117369000D01*
X154098856Y-117369000D02*
X154146475Y-117321380D01*
X154146475Y-117321380D02*
X154194094Y-117226142D01*
X154194094Y-117226142D02*
X154194094Y-117130904D01*
X154194094Y-117130904D02*
X154146475Y-117035666D01*
X154146475Y-117035666D02*
X154098856Y-116988047D01*
X154098856Y-116988047D02*
X154003618Y-116940428D01*
X154003618Y-116940428D02*
X153813142Y-116892809D01*
X153813142Y-116892809D02*
X153717904Y-116845190D01*
X153717904Y-116845190D02*
X153670285Y-116797571D01*
X153670285Y-116797571D02*
X153622666Y-116702333D01*
X153622666Y-116702333D02*
X153622666Y-116607095D01*
X153622666Y-116607095D02*
X153670285Y-116511857D01*
X153670285Y-116511857D02*
X153717904Y-116464238D01*
X153717904Y-116464238D02*
X153813142Y-116416619D01*
X153813142Y-116416619D02*
X154051237Y-116416619D01*
X154051237Y-116416619D02*
X154194094Y-116464238D01*
X154622666Y-116749952D02*
X154622666Y-117749952D01*
X154622666Y-116797571D02*
X154717904Y-116749952D01*
X154717904Y-116749952D02*
X154908380Y-116749952D01*
X154908380Y-116749952D02*
X155003618Y-116797571D01*
X155003618Y-116797571D02*
X155051237Y-116845190D01*
X155051237Y-116845190D02*
X155098856Y-116940428D01*
X155098856Y-116940428D02*
X155098856Y-117226142D01*
X155098856Y-117226142D02*
X155051237Y-117321380D01*
X155051237Y-117321380D02*
X155003618Y-117369000D01*
X155003618Y-117369000D02*
X154908380Y-117416619D01*
X154908380Y-117416619D02*
X154717904Y-117416619D01*
X154717904Y-117416619D02*
X154622666Y-117369000D01*
X155955999Y-117416619D02*
X155955999Y-116892809D01*
X155955999Y-116892809D02*
X155908380Y-116797571D01*
X155908380Y-116797571D02*
X155813142Y-116749952D01*
X155813142Y-116749952D02*
X155622666Y-116749952D01*
X155622666Y-116749952D02*
X155527428Y-116797571D01*
X155955999Y-117369000D02*
X155860761Y-117416619D01*
X155860761Y-117416619D02*
X155622666Y-117416619D01*
X155622666Y-117416619D02*
X155527428Y-117369000D01*
X155527428Y-117369000D02*
X155479809Y-117273761D01*
X155479809Y-117273761D02*
X155479809Y-117178523D01*
X155479809Y-117178523D02*
X155527428Y-117083285D01*
X155527428Y-117083285D02*
X155622666Y-117035666D01*
X155622666Y-117035666D02*
X155860761Y-117035666D01*
X155860761Y-117035666D02*
X155955999Y-116988047D01*
X156432190Y-117416619D02*
X156432190Y-116749952D01*
X156432190Y-116940428D02*
X156479809Y-116845190D01*
X156479809Y-116845190D02*
X156527428Y-116797571D01*
X156527428Y-116797571D02*
X156622666Y-116749952D01*
X156622666Y-116749952D02*
X156717904Y-116749952D01*
X157432190Y-117369000D02*
X157336952Y-117416619D01*
X157336952Y-117416619D02*
X157146476Y-117416619D01*
X157146476Y-117416619D02*
X157051238Y-117369000D01*
X157051238Y-117369000D02*
X157003619Y-117273761D01*
X157003619Y-117273761D02*
X157003619Y-116892809D01*
X157003619Y-116892809D02*
X157051238Y-116797571D01*
X157051238Y-116797571D02*
X157146476Y-116749952D01*
X157146476Y-116749952D02*
X157336952Y-116749952D01*
X157336952Y-116749952D02*
X157432190Y-116797571D01*
X157432190Y-116797571D02*
X157479809Y-116892809D01*
X157479809Y-116892809D02*
X157479809Y-116988047D01*
X157479809Y-116988047D02*
X157003619Y-117083285D01*
X157860762Y-117369000D02*
X157956000Y-117416619D01*
X157956000Y-117416619D02*
X158146476Y-117416619D01*
X158146476Y-117416619D02*
X158241714Y-117369000D01*
X158241714Y-117369000D02*
X158289333Y-117273761D01*
X158289333Y-117273761D02*
X158289333Y-117226142D01*
X158289333Y-117226142D02*
X158241714Y-117130904D01*
X158241714Y-117130904D02*
X158146476Y-117083285D01*
X158146476Y-117083285D02*
X158003619Y-117083285D01*
X158003619Y-117083285D02*
X157908381Y-117035666D01*
X157908381Y-117035666D02*
X157860762Y-116940428D01*
X157860762Y-116940428D02*
X157860762Y-116892809D01*
X157860762Y-116892809D02*
X157908381Y-116797571D01*
X157908381Y-116797571D02*
X158003619Y-116749952D01*
X158003619Y-116749952D02*
X158146476Y-116749952D01*
X158146476Y-116749952D02*
X158241714Y-116797571D01*
X167343619Y-94781428D02*
X168153142Y-94781428D01*
X168153142Y-94781428D02*
X168248380Y-94733809D01*
X168248380Y-94733809D02*
X168296000Y-94686190D01*
X168296000Y-94686190D02*
X168343619Y-94590952D01*
X168343619Y-94590952D02*
X168343619Y-94400476D01*
X168343619Y-94400476D02*
X168296000Y-94305238D01*
X168296000Y-94305238D02*
X168248380Y-94257619D01*
X168248380Y-94257619D02*
X168153142Y-94210000D01*
X168153142Y-94210000D02*
X167343619Y-94210000D01*
X168057904Y-93781428D02*
X168057904Y-93305238D01*
X168343619Y-93876666D02*
X167343619Y-93543333D01*
X167343619Y-93543333D02*
X168343619Y-93210000D01*
X168343619Y-92305238D02*
X167867428Y-92638571D01*
X168343619Y-92876666D02*
X167343619Y-92876666D01*
X167343619Y-92876666D02*
X167343619Y-92495714D01*
X167343619Y-92495714D02*
X167391238Y-92400476D01*
X167391238Y-92400476D02*
X167438857Y-92352857D01*
X167438857Y-92352857D02*
X167534095Y-92305238D01*
X167534095Y-92305238D02*
X167676952Y-92305238D01*
X167676952Y-92305238D02*
X167772190Y-92352857D01*
X167772190Y-92352857D02*
X167819809Y-92400476D01*
X167819809Y-92400476D02*
X167867428Y-92495714D01*
X167867428Y-92495714D02*
X167867428Y-92876666D01*
X167343619Y-92019523D02*
X167343619Y-91448095D01*
X168343619Y-91733809D02*
X167343619Y-91733809D01*
X168343619Y-90590952D02*
X168343619Y-91162380D01*
X168343619Y-90876666D02*
X167343619Y-90876666D01*
X167343619Y-90876666D02*
X167486476Y-90971904D01*
X167486476Y-90971904D02*
X167581714Y-91067142D01*
X167581714Y-91067142D02*
X167629333Y-91162380D01*
X120300857Y-85365000D02*
X120443714Y-85412619D01*
X120443714Y-85412619D02*
X120681809Y-85412619D01*
X120681809Y-85412619D02*
X120777047Y-85365000D01*
X120777047Y-85365000D02*
X120824666Y-85317380D01*
X120824666Y-85317380D02*
X120872285Y-85222142D01*
X120872285Y-85222142D02*
X120872285Y-85126904D01*
X120872285Y-85126904D02*
X120824666Y-85031666D01*
X120824666Y-85031666D02*
X120777047Y-84984047D01*
X120777047Y-84984047D02*
X120681809Y-84936428D01*
X120681809Y-84936428D02*
X120491333Y-84888809D01*
X120491333Y-84888809D02*
X120396095Y-84841190D01*
X120396095Y-84841190D02*
X120348476Y-84793571D01*
X120348476Y-84793571D02*
X120300857Y-84698333D01*
X120300857Y-84698333D02*
X120300857Y-84603095D01*
X120300857Y-84603095D02*
X120348476Y-84507857D01*
X120348476Y-84507857D02*
X120396095Y-84460238D01*
X120396095Y-84460238D02*
X120491333Y-84412619D01*
X120491333Y-84412619D02*
X120729428Y-84412619D01*
X120729428Y-84412619D02*
X120872285Y-84460238D01*
X121205619Y-84412619D02*
X121443714Y-85412619D01*
X121443714Y-85412619D02*
X121634190Y-84698333D01*
X121634190Y-84698333D02*
X121824666Y-85412619D01*
X121824666Y-85412619D02*
X122062762Y-84412619D01*
D11*
X166508580Y-104687666D02*
X166556200Y-104735285D01*
X166556200Y-104735285D02*
X166603819Y-104878142D01*
X166603819Y-104878142D02*
X166603819Y-104973380D01*
X166603819Y-104973380D02*
X166556200Y-105116237D01*
X166556200Y-105116237D02*
X166460961Y-105211475D01*
X166460961Y-105211475D02*
X166365723Y-105259094D01*
X166365723Y-105259094D02*
X166175247Y-105306713D01*
X166175247Y-105306713D02*
X166032390Y-105306713D01*
X166032390Y-105306713D02*
X165841914Y-105259094D01*
X165841914Y-105259094D02*
X165746676Y-105211475D01*
X165746676Y-105211475D02*
X165651438Y-105116237D01*
X165651438Y-105116237D02*
X165603819Y-104973380D01*
X165603819Y-104973380D02*
X165603819Y-104878142D01*
X165603819Y-104878142D02*
X165651438Y-104735285D01*
X165651438Y-104735285D02*
X165699057Y-104687666D01*
X165603819Y-104354332D02*
X165603819Y-103687666D01*
X165603819Y-103687666D02*
X166603819Y-104116237D01*
X134580333Y-110435580D02*
X134532714Y-110483200D01*
X134532714Y-110483200D02*
X134389857Y-110530819D01*
X134389857Y-110530819D02*
X134294619Y-110530819D01*
X134294619Y-110530819D02*
X134151762Y-110483200D01*
X134151762Y-110483200D02*
X134056524Y-110387961D01*
X134056524Y-110387961D02*
X134008905Y-110292723D01*
X134008905Y-110292723D02*
X133961286Y-110102247D01*
X133961286Y-110102247D02*
X133961286Y-109959390D01*
X133961286Y-109959390D02*
X134008905Y-109768914D01*
X134008905Y-109768914D02*
X134056524Y-109673676D01*
X134056524Y-109673676D02*
X134151762Y-109578438D01*
X134151762Y-109578438D02*
X134294619Y-109530819D01*
X134294619Y-109530819D02*
X134389857Y-109530819D01*
X134389857Y-109530819D02*
X134532714Y-109578438D01*
X134532714Y-109578438D02*
X134580333Y-109626057D01*
X135437476Y-109864152D02*
X135437476Y-110530819D01*
X135199381Y-109483200D02*
X134961286Y-110197485D01*
X134961286Y-110197485D02*
X135580333Y-110197485D01*
X132058580Y-79230357D02*
X132106200Y-79277976D01*
X132106200Y-79277976D02*
X132153819Y-79420833D01*
X132153819Y-79420833D02*
X132153819Y-79516071D01*
X132153819Y-79516071D02*
X132106200Y-79658928D01*
X132106200Y-79658928D02*
X132010961Y-79754166D01*
X132010961Y-79754166D02*
X131915723Y-79801785D01*
X131915723Y-79801785D02*
X131725247Y-79849404D01*
X131725247Y-79849404D02*
X131582390Y-79849404D01*
X131582390Y-79849404D02*
X131391914Y-79801785D01*
X131391914Y-79801785D02*
X131296676Y-79754166D01*
X131296676Y-79754166D02*
X131201438Y-79658928D01*
X131201438Y-79658928D02*
X131153819Y-79516071D01*
X131153819Y-79516071D02*
X131153819Y-79420833D01*
X131153819Y-79420833D02*
X131201438Y-79277976D01*
X131201438Y-79277976D02*
X131249057Y-79230357D01*
X132153819Y-78277976D02*
X132153819Y-78849404D01*
X132153819Y-78563690D02*
X131153819Y-78563690D01*
X131153819Y-78563690D02*
X131296676Y-78658928D01*
X131296676Y-78658928D02*
X131391914Y-78754166D01*
X131391914Y-78754166D02*
X131439533Y-78849404D01*
X131249057Y-77897023D02*
X131201438Y-77849404D01*
X131201438Y-77849404D02*
X131153819Y-77754166D01*
X131153819Y-77754166D02*
X131153819Y-77516071D01*
X131153819Y-77516071D02*
X131201438Y-77420833D01*
X131201438Y-77420833D02*
X131249057Y-77373214D01*
X131249057Y-77373214D02*
X131344295Y-77325595D01*
X131344295Y-77325595D02*
X131439533Y-77325595D01*
X131439533Y-77325595D02*
X131582390Y-77373214D01*
X131582390Y-77373214D02*
X132153819Y-77944642D01*
X132153819Y-77944642D02*
X132153819Y-77325595D01*
X152614333Y-90656580D02*
X152566714Y-90704200D01*
X152566714Y-90704200D02*
X152423857Y-90751819D01*
X152423857Y-90751819D02*
X152328619Y-90751819D01*
X152328619Y-90751819D02*
X152185762Y-90704200D01*
X152185762Y-90704200D02*
X152090524Y-90608961D01*
X152090524Y-90608961D02*
X152042905Y-90513723D01*
X152042905Y-90513723D02*
X151995286Y-90323247D01*
X151995286Y-90323247D02*
X151995286Y-90180390D01*
X151995286Y-90180390D02*
X152042905Y-89989914D01*
X152042905Y-89989914D02*
X152090524Y-89894676D01*
X152090524Y-89894676D02*
X152185762Y-89799438D01*
X152185762Y-89799438D02*
X152328619Y-89751819D01*
X152328619Y-89751819D02*
X152423857Y-89751819D01*
X152423857Y-89751819D02*
X152566714Y-89799438D01*
X152566714Y-89799438D02*
X152614333Y-89847057D01*
X153471476Y-89751819D02*
X153281000Y-89751819D01*
X153281000Y-89751819D02*
X153185762Y-89799438D01*
X153185762Y-89799438D02*
X153138143Y-89847057D01*
X153138143Y-89847057D02*
X153042905Y-89989914D01*
X153042905Y-89989914D02*
X152995286Y-90180390D01*
X152995286Y-90180390D02*
X152995286Y-90561342D01*
X152995286Y-90561342D02*
X153042905Y-90656580D01*
X153042905Y-90656580D02*
X153090524Y-90704200D01*
X153090524Y-90704200D02*
X153185762Y-90751819D01*
X153185762Y-90751819D02*
X153376238Y-90751819D01*
X153376238Y-90751819D02*
X153471476Y-90704200D01*
X153471476Y-90704200D02*
X153519095Y-90656580D01*
X153519095Y-90656580D02*
X153566714Y-90561342D01*
X153566714Y-90561342D02*
X153566714Y-90323247D01*
X153566714Y-90323247D02*
X153519095Y-90228009D01*
X153519095Y-90228009D02*
X153471476Y-90180390D01*
X153471476Y-90180390D02*
X153376238Y-90132771D01*
X153376238Y-90132771D02*
X153185762Y-90132771D01*
X153185762Y-90132771D02*
X153090524Y-90180390D01*
X153090524Y-90180390D02*
X153042905Y-90228009D01*
X153042905Y-90228009D02*
X152995286Y-90323247D01*
X133582580Y-96019857D02*
X133630200Y-96067476D01*
X133630200Y-96067476D02*
X133677819Y-96210333D01*
X133677819Y-96210333D02*
X133677819Y-96305571D01*
X133677819Y-96305571D02*
X133630200Y-96448428D01*
X133630200Y-96448428D02*
X133534961Y-96543666D01*
X133534961Y-96543666D02*
X133439723Y-96591285D01*
X133439723Y-96591285D02*
X133249247Y-96638904D01*
X133249247Y-96638904D02*
X133106390Y-96638904D01*
X133106390Y-96638904D02*
X132915914Y-96591285D01*
X132915914Y-96591285D02*
X132820676Y-96543666D01*
X132820676Y-96543666D02*
X132725438Y-96448428D01*
X132725438Y-96448428D02*
X132677819Y-96305571D01*
X132677819Y-96305571D02*
X132677819Y-96210333D01*
X132677819Y-96210333D02*
X132725438Y-96067476D01*
X132725438Y-96067476D02*
X132773057Y-96019857D01*
X133677819Y-95067476D02*
X133677819Y-95638904D01*
X133677819Y-95353190D02*
X132677819Y-95353190D01*
X132677819Y-95353190D02*
X132820676Y-95448428D01*
X132820676Y-95448428D02*
X132915914Y-95543666D01*
X132915914Y-95543666D02*
X132963533Y-95638904D01*
X133011152Y-94210333D02*
X133677819Y-94210333D01*
X132630200Y-94448428D02*
X133344485Y-94686523D01*
X133344485Y-94686523D02*
X133344485Y-94067476D01*
X144472819Y-104306666D02*
X143996628Y-104639999D01*
X144472819Y-104878094D02*
X143472819Y-104878094D01*
X143472819Y-104878094D02*
X143472819Y-104497142D01*
X143472819Y-104497142D02*
X143520438Y-104401904D01*
X143520438Y-104401904D02*
X143568057Y-104354285D01*
X143568057Y-104354285D02*
X143663295Y-104306666D01*
X143663295Y-104306666D02*
X143806152Y-104306666D01*
X143806152Y-104306666D02*
X143901390Y-104354285D01*
X143901390Y-104354285D02*
X143949009Y-104401904D01*
X143949009Y-104401904D02*
X143996628Y-104497142D01*
X143996628Y-104497142D02*
X143996628Y-104878094D01*
X143568057Y-103925713D02*
X143520438Y-103878094D01*
X143520438Y-103878094D02*
X143472819Y-103782856D01*
X143472819Y-103782856D02*
X143472819Y-103544761D01*
X143472819Y-103544761D02*
X143520438Y-103449523D01*
X143520438Y-103449523D02*
X143568057Y-103401904D01*
X143568057Y-103401904D02*
X143663295Y-103354285D01*
X143663295Y-103354285D02*
X143758533Y-103354285D01*
X143758533Y-103354285D02*
X143901390Y-103401904D01*
X143901390Y-103401904D02*
X144472819Y-103973332D01*
X144472819Y-103973332D02*
X144472819Y-103354285D01*
X130534580Y-79230357D02*
X130582200Y-79277976D01*
X130582200Y-79277976D02*
X130629819Y-79420833D01*
X130629819Y-79420833D02*
X130629819Y-79516071D01*
X130629819Y-79516071D02*
X130582200Y-79658928D01*
X130582200Y-79658928D02*
X130486961Y-79754166D01*
X130486961Y-79754166D02*
X130391723Y-79801785D01*
X130391723Y-79801785D02*
X130201247Y-79849404D01*
X130201247Y-79849404D02*
X130058390Y-79849404D01*
X130058390Y-79849404D02*
X129867914Y-79801785D01*
X129867914Y-79801785D02*
X129772676Y-79754166D01*
X129772676Y-79754166D02*
X129677438Y-79658928D01*
X129677438Y-79658928D02*
X129629819Y-79516071D01*
X129629819Y-79516071D02*
X129629819Y-79420833D01*
X129629819Y-79420833D02*
X129677438Y-79277976D01*
X129677438Y-79277976D02*
X129725057Y-79230357D01*
X130629819Y-78277976D02*
X130629819Y-78849404D01*
X130629819Y-78563690D02*
X129629819Y-78563690D01*
X129629819Y-78563690D02*
X129772676Y-78658928D01*
X129772676Y-78658928D02*
X129867914Y-78754166D01*
X129867914Y-78754166D02*
X129915533Y-78849404D01*
X129629819Y-77944642D02*
X129629819Y-77325595D01*
X129629819Y-77325595D02*
X130010771Y-77658928D01*
X130010771Y-77658928D02*
X130010771Y-77516071D01*
X130010771Y-77516071D02*
X130058390Y-77420833D01*
X130058390Y-77420833D02*
X130106009Y-77373214D01*
X130106009Y-77373214D02*
X130201247Y-77325595D01*
X130201247Y-77325595D02*
X130439342Y-77325595D01*
X130439342Y-77325595D02*
X130534580Y-77373214D01*
X130534580Y-77373214D02*
X130582200Y-77420833D01*
X130582200Y-77420833D02*
X130629819Y-77516071D01*
X130629819Y-77516071D02*
X130629819Y-77801785D01*
X130629819Y-77801785D02*
X130582200Y-77897023D01*
X130582200Y-77897023D02*
X130534580Y-77944642D01*
X152558809Y-95736628D02*
X152558809Y-96212819D01*
X152225476Y-95212819D02*
X152558809Y-95736628D01*
X152558809Y-95736628D02*
X152892142Y-95212819D01*
X153749285Y-96212819D02*
X153177857Y-96212819D01*
X153463571Y-96212819D02*
X153463571Y-95212819D01*
X153463571Y-95212819D02*
X153368333Y-95355676D01*
X153368333Y-95355676D02*
X153273095Y-95450914D01*
X153273095Y-95450914D02*
X153177857Y-95498533D01*
X149679819Y-99194857D02*
X149203628Y-99528190D01*
X149679819Y-99766285D02*
X148679819Y-99766285D01*
X148679819Y-99766285D02*
X148679819Y-99385333D01*
X148679819Y-99385333D02*
X148727438Y-99290095D01*
X148727438Y-99290095D02*
X148775057Y-99242476D01*
X148775057Y-99242476D02*
X148870295Y-99194857D01*
X148870295Y-99194857D02*
X149013152Y-99194857D01*
X149013152Y-99194857D02*
X149108390Y-99242476D01*
X149108390Y-99242476D02*
X149156009Y-99290095D01*
X149156009Y-99290095D02*
X149203628Y-99385333D01*
X149203628Y-99385333D02*
X149203628Y-99766285D01*
X149679819Y-98242476D02*
X149679819Y-98813904D01*
X149679819Y-98528190D02*
X148679819Y-98528190D01*
X148679819Y-98528190D02*
X148822676Y-98623428D01*
X148822676Y-98623428D02*
X148917914Y-98718666D01*
X148917914Y-98718666D02*
X148965533Y-98813904D01*
X148775057Y-97861523D02*
X148727438Y-97813904D01*
X148727438Y-97813904D02*
X148679819Y-97718666D01*
X148679819Y-97718666D02*
X148679819Y-97480571D01*
X148679819Y-97480571D02*
X148727438Y-97385333D01*
X148727438Y-97385333D02*
X148775057Y-97337714D01*
X148775057Y-97337714D02*
X148870295Y-97290095D01*
X148870295Y-97290095D02*
X148965533Y-97290095D01*
X148965533Y-97290095D02*
X149108390Y-97337714D01*
X149108390Y-97337714D02*
X149679819Y-97909142D01*
X149679819Y-97909142D02*
X149679819Y-97290095D01*
X133582580Y-79230357D02*
X133630200Y-79277976D01*
X133630200Y-79277976D02*
X133677819Y-79420833D01*
X133677819Y-79420833D02*
X133677819Y-79516071D01*
X133677819Y-79516071D02*
X133630200Y-79658928D01*
X133630200Y-79658928D02*
X133534961Y-79754166D01*
X133534961Y-79754166D02*
X133439723Y-79801785D01*
X133439723Y-79801785D02*
X133249247Y-79849404D01*
X133249247Y-79849404D02*
X133106390Y-79849404D01*
X133106390Y-79849404D02*
X132915914Y-79801785D01*
X132915914Y-79801785D02*
X132820676Y-79754166D01*
X132820676Y-79754166D02*
X132725438Y-79658928D01*
X132725438Y-79658928D02*
X132677819Y-79516071D01*
X132677819Y-79516071D02*
X132677819Y-79420833D01*
X132677819Y-79420833D02*
X132725438Y-79277976D01*
X132725438Y-79277976D02*
X132773057Y-79230357D01*
X133677819Y-78277976D02*
X133677819Y-78849404D01*
X133677819Y-78563690D02*
X132677819Y-78563690D01*
X132677819Y-78563690D02*
X132820676Y-78658928D01*
X132820676Y-78658928D02*
X132915914Y-78754166D01*
X132915914Y-78754166D02*
X132963533Y-78849404D01*
X133677819Y-77325595D02*
X133677819Y-77897023D01*
X133677819Y-77611309D02*
X132677819Y-77611309D01*
X132677819Y-77611309D02*
X132820676Y-77706547D01*
X132820676Y-77706547D02*
X132915914Y-77801785D01*
X132915914Y-77801785D02*
X132963533Y-77897023D01*
X146010333Y-100751819D02*
X145677000Y-100275628D01*
X145438905Y-100751819D02*
X145438905Y-99751819D01*
X145438905Y-99751819D02*
X145819857Y-99751819D01*
X145819857Y-99751819D02*
X145915095Y-99799438D01*
X145915095Y-99799438D02*
X145962714Y-99847057D01*
X145962714Y-99847057D02*
X146010333Y-99942295D01*
X146010333Y-99942295D02*
X146010333Y-100085152D01*
X146010333Y-100085152D02*
X145962714Y-100180390D01*
X145962714Y-100180390D02*
X145915095Y-100228009D01*
X145915095Y-100228009D02*
X145819857Y-100275628D01*
X145819857Y-100275628D02*
X145438905Y-100275628D01*
X146343667Y-99751819D02*
X146962714Y-99751819D01*
X146962714Y-99751819D02*
X146629381Y-100132771D01*
X146629381Y-100132771D02*
X146772238Y-100132771D01*
X146772238Y-100132771D02*
X146867476Y-100180390D01*
X146867476Y-100180390D02*
X146915095Y-100228009D01*
X146915095Y-100228009D02*
X146962714Y-100323247D01*
X146962714Y-100323247D02*
X146962714Y-100561342D01*
X146962714Y-100561342D02*
X146915095Y-100656580D01*
X146915095Y-100656580D02*
X146867476Y-100704200D01*
X146867476Y-100704200D02*
X146772238Y-100751819D01*
X146772238Y-100751819D02*
X146486524Y-100751819D01*
X146486524Y-100751819D02*
X146391286Y-100704200D01*
X146391286Y-100704200D02*
X146343667Y-100656580D01*
X156918819Y-112148857D02*
X156442628Y-112482190D01*
X156918819Y-112720285D02*
X155918819Y-112720285D01*
X155918819Y-112720285D02*
X155918819Y-112339333D01*
X155918819Y-112339333D02*
X155966438Y-112244095D01*
X155966438Y-112244095D02*
X156014057Y-112196476D01*
X156014057Y-112196476D02*
X156109295Y-112148857D01*
X156109295Y-112148857D02*
X156252152Y-112148857D01*
X156252152Y-112148857D02*
X156347390Y-112196476D01*
X156347390Y-112196476D02*
X156395009Y-112244095D01*
X156395009Y-112244095D02*
X156442628Y-112339333D01*
X156442628Y-112339333D02*
X156442628Y-112720285D01*
X156918819Y-111196476D02*
X156918819Y-111767904D01*
X156918819Y-111482190D02*
X155918819Y-111482190D01*
X155918819Y-111482190D02*
X156061676Y-111577428D01*
X156061676Y-111577428D02*
X156156914Y-111672666D01*
X156156914Y-111672666D02*
X156204533Y-111767904D01*
X155918819Y-110863142D02*
X155918819Y-110244095D01*
X155918819Y-110244095D02*
X156299771Y-110577428D01*
X156299771Y-110577428D02*
X156299771Y-110434571D01*
X156299771Y-110434571D02*
X156347390Y-110339333D01*
X156347390Y-110339333D02*
X156395009Y-110291714D01*
X156395009Y-110291714D02*
X156490247Y-110244095D01*
X156490247Y-110244095D02*
X156728342Y-110244095D01*
X156728342Y-110244095D02*
X156823580Y-110291714D01*
X156823580Y-110291714D02*
X156871200Y-110339333D01*
X156871200Y-110339333D02*
X156918819Y-110434571D01*
X156918819Y-110434571D02*
X156918819Y-110720285D01*
X156918819Y-110720285D02*
X156871200Y-110815523D01*
X156871200Y-110815523D02*
X156823580Y-110863142D01*
X161871819Y-85891666D02*
X161395628Y-86224999D01*
X161871819Y-86463094D02*
X160871819Y-86463094D01*
X160871819Y-86463094D02*
X160871819Y-86082142D01*
X160871819Y-86082142D02*
X160919438Y-85986904D01*
X160919438Y-85986904D02*
X160967057Y-85939285D01*
X160967057Y-85939285D02*
X161062295Y-85891666D01*
X161062295Y-85891666D02*
X161205152Y-85891666D01*
X161205152Y-85891666D02*
X161300390Y-85939285D01*
X161300390Y-85939285D02*
X161348009Y-85986904D01*
X161348009Y-85986904D02*
X161395628Y-86082142D01*
X161395628Y-86082142D02*
X161395628Y-86463094D01*
X160871819Y-85558332D02*
X160871819Y-84891666D01*
X160871819Y-84891666D02*
X161871819Y-85320237D01*
X134326333Y-107896819D02*
X133993000Y-107420628D01*
X133754905Y-107896819D02*
X133754905Y-106896819D01*
X133754905Y-106896819D02*
X134135857Y-106896819D01*
X134135857Y-106896819D02*
X134231095Y-106944438D01*
X134231095Y-106944438D02*
X134278714Y-106992057D01*
X134278714Y-106992057D02*
X134326333Y-107087295D01*
X134326333Y-107087295D02*
X134326333Y-107230152D01*
X134326333Y-107230152D02*
X134278714Y-107325390D01*
X134278714Y-107325390D02*
X134231095Y-107373009D01*
X134231095Y-107373009D02*
X134135857Y-107420628D01*
X134135857Y-107420628D02*
X133754905Y-107420628D01*
X135183476Y-107230152D02*
X135183476Y-107896819D01*
X134945381Y-106849200D02*
X134707286Y-107563485D01*
X134707286Y-107563485D02*
X135326333Y-107563485D01*
X134580333Y-120374580D02*
X134532714Y-120422200D01*
X134532714Y-120422200D02*
X134389857Y-120469819D01*
X134389857Y-120469819D02*
X134294619Y-120469819D01*
X134294619Y-120469819D02*
X134151762Y-120422200D01*
X134151762Y-120422200D02*
X134056524Y-120326961D01*
X134056524Y-120326961D02*
X134008905Y-120231723D01*
X134008905Y-120231723D02*
X133961286Y-120041247D01*
X133961286Y-120041247D02*
X133961286Y-119898390D01*
X133961286Y-119898390D02*
X134008905Y-119707914D01*
X134008905Y-119707914D02*
X134056524Y-119612676D01*
X134056524Y-119612676D02*
X134151762Y-119517438D01*
X134151762Y-119517438D02*
X134294619Y-119469819D01*
X134294619Y-119469819D02*
X134389857Y-119469819D01*
X134389857Y-119469819D02*
X134532714Y-119517438D01*
X134532714Y-119517438D02*
X134580333Y-119565057D01*
X135485095Y-119469819D02*
X135008905Y-119469819D01*
X135008905Y-119469819D02*
X134961286Y-119946009D01*
X134961286Y-119946009D02*
X135008905Y-119898390D01*
X135008905Y-119898390D02*
X135104143Y-119850771D01*
X135104143Y-119850771D02*
X135342238Y-119850771D01*
X135342238Y-119850771D02*
X135437476Y-119898390D01*
X135437476Y-119898390D02*
X135485095Y-119946009D01*
X135485095Y-119946009D02*
X135532714Y-120041247D01*
X135532714Y-120041247D02*
X135532714Y-120279342D01*
X135532714Y-120279342D02*
X135485095Y-120374580D01*
X135485095Y-120374580D02*
X135437476Y-120422200D01*
X135437476Y-120422200D02*
X135342238Y-120469819D01*
X135342238Y-120469819D02*
X135104143Y-120469819D01*
X135104143Y-120469819D02*
X135008905Y-120422200D01*
X135008905Y-120422200D02*
X134961286Y-120374580D01*
X138811095Y-89497819D02*
X138811095Y-90307342D01*
X138811095Y-90307342D02*
X138858714Y-90402580D01*
X138858714Y-90402580D02*
X138906333Y-90450200D01*
X138906333Y-90450200D02*
X139001571Y-90497819D01*
X139001571Y-90497819D02*
X139192047Y-90497819D01*
X139192047Y-90497819D02*
X139287285Y-90450200D01*
X139287285Y-90450200D02*
X139334904Y-90402580D01*
X139334904Y-90402580D02*
X139382523Y-90307342D01*
X139382523Y-90307342D02*
X139382523Y-89497819D01*
X140287285Y-89831152D02*
X140287285Y-90497819D01*
X140049190Y-89450200D02*
X139811095Y-90164485D01*
X139811095Y-90164485D02*
X140430142Y-90164485D01*
X132049580Y-96046357D02*
X132097200Y-96093976D01*
X132097200Y-96093976D02*
X132144819Y-96236833D01*
X132144819Y-96236833D02*
X132144819Y-96332071D01*
X132144819Y-96332071D02*
X132097200Y-96474928D01*
X132097200Y-96474928D02*
X132001961Y-96570166D01*
X132001961Y-96570166D02*
X131906723Y-96617785D01*
X131906723Y-96617785D02*
X131716247Y-96665404D01*
X131716247Y-96665404D02*
X131573390Y-96665404D01*
X131573390Y-96665404D02*
X131382914Y-96617785D01*
X131382914Y-96617785D02*
X131287676Y-96570166D01*
X131287676Y-96570166D02*
X131192438Y-96474928D01*
X131192438Y-96474928D02*
X131144819Y-96332071D01*
X131144819Y-96332071D02*
X131144819Y-96236833D01*
X131144819Y-96236833D02*
X131192438Y-96093976D01*
X131192438Y-96093976D02*
X131240057Y-96046357D01*
X132144819Y-95093976D02*
X132144819Y-95665404D01*
X132144819Y-95379690D02*
X131144819Y-95379690D01*
X131144819Y-95379690D02*
X131287676Y-95474928D01*
X131287676Y-95474928D02*
X131382914Y-95570166D01*
X131382914Y-95570166D02*
X131430533Y-95665404D01*
X131144819Y-94189214D02*
X131144819Y-94665404D01*
X131144819Y-94665404D02*
X131621009Y-94713023D01*
X131621009Y-94713023D02*
X131573390Y-94665404D01*
X131573390Y-94665404D02*
X131525771Y-94570166D01*
X131525771Y-94570166D02*
X131525771Y-94332071D01*
X131525771Y-94332071D02*
X131573390Y-94236833D01*
X131573390Y-94236833D02*
X131621009Y-94189214D01*
X131621009Y-94189214D02*
X131716247Y-94141595D01*
X131716247Y-94141595D02*
X131954342Y-94141595D01*
X131954342Y-94141595D02*
X132049580Y-94189214D01*
X132049580Y-94189214D02*
X132097200Y-94236833D01*
X132097200Y-94236833D02*
X132144819Y-94332071D01*
X132144819Y-94332071D02*
X132144819Y-94570166D01*
X132144819Y-94570166D02*
X132097200Y-94665404D01*
X132097200Y-94665404D02*
X132049580Y-94713023D01*
X159865319Y-109608857D02*
X159389128Y-109942190D01*
X159865319Y-110180285D02*
X158865319Y-110180285D01*
X158865319Y-110180285D02*
X158865319Y-109799333D01*
X158865319Y-109799333D02*
X158912938Y-109704095D01*
X158912938Y-109704095D02*
X158960557Y-109656476D01*
X158960557Y-109656476D02*
X159055795Y-109608857D01*
X159055795Y-109608857D02*
X159198652Y-109608857D01*
X159198652Y-109608857D02*
X159293890Y-109656476D01*
X159293890Y-109656476D02*
X159341509Y-109704095D01*
X159341509Y-109704095D02*
X159389128Y-109799333D01*
X159389128Y-109799333D02*
X159389128Y-110180285D01*
X159865319Y-108656476D02*
X159865319Y-109227904D01*
X159865319Y-108942190D02*
X158865319Y-108942190D01*
X158865319Y-108942190D02*
X159008176Y-109037428D01*
X159008176Y-109037428D02*
X159103414Y-109132666D01*
X159103414Y-109132666D02*
X159151033Y-109227904D01*
X159865319Y-107704095D02*
X159865319Y-108275523D01*
X159865319Y-107989809D02*
X158865319Y-107989809D01*
X158865319Y-107989809D02*
X159008176Y-108085047D01*
X159008176Y-108085047D02*
X159103414Y-108180285D01*
X159103414Y-108180285D02*
X159151033Y-108275523D01*
X135995580Y-101258666D02*
X136043200Y-101306285D01*
X136043200Y-101306285D02*
X136090819Y-101449142D01*
X136090819Y-101449142D02*
X136090819Y-101544380D01*
X136090819Y-101544380D02*
X136043200Y-101687237D01*
X136043200Y-101687237D02*
X135947961Y-101782475D01*
X135947961Y-101782475D02*
X135852723Y-101830094D01*
X135852723Y-101830094D02*
X135662247Y-101877713D01*
X135662247Y-101877713D02*
X135519390Y-101877713D01*
X135519390Y-101877713D02*
X135328914Y-101830094D01*
X135328914Y-101830094D02*
X135233676Y-101782475D01*
X135233676Y-101782475D02*
X135138438Y-101687237D01*
X135138438Y-101687237D02*
X135090819Y-101544380D01*
X135090819Y-101544380D02*
X135090819Y-101449142D01*
X135090819Y-101449142D02*
X135138438Y-101306285D01*
X135138438Y-101306285D02*
X135186057Y-101258666D01*
X136090819Y-100306285D02*
X136090819Y-100877713D01*
X136090819Y-100591999D02*
X135090819Y-100591999D01*
X135090819Y-100591999D02*
X135233676Y-100687237D01*
X135233676Y-100687237D02*
X135328914Y-100782475D01*
X135328914Y-100782475D02*
X135376533Y-100877713D01*
X152614333Y-89227819D02*
X152281000Y-88751628D01*
X152042905Y-89227819D02*
X152042905Y-88227819D01*
X152042905Y-88227819D02*
X152423857Y-88227819D01*
X152423857Y-88227819D02*
X152519095Y-88275438D01*
X152519095Y-88275438D02*
X152566714Y-88323057D01*
X152566714Y-88323057D02*
X152614333Y-88418295D01*
X152614333Y-88418295D02*
X152614333Y-88561152D01*
X152614333Y-88561152D02*
X152566714Y-88656390D01*
X152566714Y-88656390D02*
X152519095Y-88704009D01*
X152519095Y-88704009D02*
X152423857Y-88751628D01*
X152423857Y-88751628D02*
X152042905Y-88751628D01*
X153090524Y-89227819D02*
X153281000Y-89227819D01*
X153281000Y-89227819D02*
X153376238Y-89180200D01*
X153376238Y-89180200D02*
X153423857Y-89132580D01*
X153423857Y-89132580D02*
X153519095Y-88989723D01*
X153519095Y-88989723D02*
X153566714Y-88799247D01*
X153566714Y-88799247D02*
X153566714Y-88418295D01*
X153566714Y-88418295D02*
X153519095Y-88323057D01*
X153519095Y-88323057D02*
X153471476Y-88275438D01*
X153471476Y-88275438D02*
X153376238Y-88227819D01*
X153376238Y-88227819D02*
X153185762Y-88227819D01*
X153185762Y-88227819D02*
X153090524Y-88275438D01*
X153090524Y-88275438D02*
X153042905Y-88323057D01*
X153042905Y-88323057D02*
X152995286Y-88418295D01*
X152995286Y-88418295D02*
X152995286Y-88656390D01*
X152995286Y-88656390D02*
X153042905Y-88751628D01*
X153042905Y-88751628D02*
X153090524Y-88799247D01*
X153090524Y-88799247D02*
X153185762Y-88846866D01*
X153185762Y-88846866D02*
X153376238Y-88846866D01*
X153376238Y-88846866D02*
X153471476Y-88799247D01*
X153471476Y-88799247D02*
X153519095Y-88751628D01*
X153519095Y-88751628D02*
X153566714Y-88656390D01*
X164310319Y-109608857D02*
X163834128Y-109942190D01*
X164310319Y-110180285D02*
X163310319Y-110180285D01*
X163310319Y-110180285D02*
X163310319Y-109799333D01*
X163310319Y-109799333D02*
X163357938Y-109704095D01*
X163357938Y-109704095D02*
X163405557Y-109656476D01*
X163405557Y-109656476D02*
X163500795Y-109608857D01*
X163500795Y-109608857D02*
X163643652Y-109608857D01*
X163643652Y-109608857D02*
X163738890Y-109656476D01*
X163738890Y-109656476D02*
X163786509Y-109704095D01*
X163786509Y-109704095D02*
X163834128Y-109799333D01*
X163834128Y-109799333D02*
X163834128Y-110180285D01*
X164310319Y-108656476D02*
X164310319Y-109227904D01*
X164310319Y-108942190D02*
X163310319Y-108942190D01*
X163310319Y-108942190D02*
X163453176Y-109037428D01*
X163453176Y-109037428D02*
X163548414Y-109132666D01*
X163548414Y-109132666D02*
X163596033Y-109227904D01*
X163310319Y-108037428D02*
X163310319Y-107942190D01*
X163310319Y-107942190D02*
X163357938Y-107846952D01*
X163357938Y-107846952D02*
X163405557Y-107799333D01*
X163405557Y-107799333D02*
X163500795Y-107751714D01*
X163500795Y-107751714D02*
X163691271Y-107704095D01*
X163691271Y-107704095D02*
X163929366Y-107704095D01*
X163929366Y-107704095D02*
X164119842Y-107751714D01*
X164119842Y-107751714D02*
X164215080Y-107799333D01*
X164215080Y-107799333D02*
X164262700Y-107846952D01*
X164262700Y-107846952D02*
X164310319Y-107942190D01*
X164310319Y-107942190D02*
X164310319Y-108037428D01*
X164310319Y-108037428D02*
X164262700Y-108132666D01*
X164262700Y-108132666D02*
X164215080Y-108180285D01*
X164215080Y-108180285D02*
X164119842Y-108227904D01*
X164119842Y-108227904D02*
X163929366Y-108275523D01*
X163929366Y-108275523D02*
X163691271Y-108275523D01*
X163691271Y-108275523D02*
X163500795Y-108227904D01*
X163500795Y-108227904D02*
X163405557Y-108180285D01*
X163405557Y-108180285D02*
X163357938Y-108132666D01*
X163357938Y-108132666D02*
X163310319Y-108037428D01*
X160488333Y-92275819D02*
X160155000Y-91799628D01*
X159916905Y-92275819D02*
X159916905Y-91275819D01*
X159916905Y-91275819D02*
X160297857Y-91275819D01*
X160297857Y-91275819D02*
X160393095Y-91323438D01*
X160393095Y-91323438D02*
X160440714Y-91371057D01*
X160440714Y-91371057D02*
X160488333Y-91466295D01*
X160488333Y-91466295D02*
X160488333Y-91609152D01*
X160488333Y-91609152D02*
X160440714Y-91704390D01*
X160440714Y-91704390D02*
X160393095Y-91752009D01*
X160393095Y-91752009D02*
X160297857Y-91799628D01*
X160297857Y-91799628D02*
X159916905Y-91799628D01*
X161393095Y-91275819D02*
X160916905Y-91275819D01*
X160916905Y-91275819D02*
X160869286Y-91752009D01*
X160869286Y-91752009D02*
X160916905Y-91704390D01*
X160916905Y-91704390D02*
X161012143Y-91656771D01*
X161012143Y-91656771D02*
X161250238Y-91656771D01*
X161250238Y-91656771D02*
X161345476Y-91704390D01*
X161345476Y-91704390D02*
X161393095Y-91752009D01*
X161393095Y-91752009D02*
X161440714Y-91847247D01*
X161440714Y-91847247D02*
X161440714Y-92085342D01*
X161440714Y-92085342D02*
X161393095Y-92180580D01*
X161393095Y-92180580D02*
X161345476Y-92228200D01*
X161345476Y-92228200D02*
X161250238Y-92275819D01*
X161250238Y-92275819D02*
X161012143Y-92275819D01*
X161012143Y-92275819D02*
X160916905Y-92228200D01*
X160916905Y-92228200D02*
X160869286Y-92180580D01*
X130499295Y-103581023D02*
X131146914Y-103581023D01*
X131146914Y-103581023D02*
X131223104Y-103542928D01*
X131223104Y-103542928D02*
X131261200Y-103504833D01*
X131261200Y-103504833D02*
X131299295Y-103428642D01*
X131299295Y-103428642D02*
X131299295Y-103276261D01*
X131299295Y-103276261D02*
X131261200Y-103200071D01*
X131261200Y-103200071D02*
X131223104Y-103161976D01*
X131223104Y-103161976D02*
X131146914Y-103123880D01*
X131146914Y-103123880D02*
X130499295Y-103123880D01*
X131299295Y-102323881D02*
X131299295Y-102781024D01*
X131299295Y-102552452D02*
X130499295Y-102552452D01*
X130499295Y-102552452D02*
X130613580Y-102628643D01*
X130613580Y-102628643D02*
X130689771Y-102704833D01*
X130689771Y-102704833D02*
X130727866Y-102781024D01*
X159766095Y-92799819D02*
X159766095Y-93609342D01*
X159766095Y-93609342D02*
X159813714Y-93704580D01*
X159813714Y-93704580D02*
X159861333Y-93752200D01*
X159861333Y-93752200D02*
X159956571Y-93799819D01*
X159956571Y-93799819D02*
X160147047Y-93799819D01*
X160147047Y-93799819D02*
X160242285Y-93752200D01*
X160242285Y-93752200D02*
X160289904Y-93704580D01*
X160289904Y-93704580D02*
X160337523Y-93609342D01*
X160337523Y-93609342D02*
X160337523Y-92799819D01*
X160718476Y-92799819D02*
X161337523Y-92799819D01*
X161337523Y-92799819D02*
X161004190Y-93180771D01*
X161004190Y-93180771D02*
X161147047Y-93180771D01*
X161147047Y-93180771D02*
X161242285Y-93228390D01*
X161242285Y-93228390D02*
X161289904Y-93276009D01*
X161289904Y-93276009D02*
X161337523Y-93371247D01*
X161337523Y-93371247D02*
X161337523Y-93609342D01*
X161337523Y-93609342D02*
X161289904Y-93704580D01*
X161289904Y-93704580D02*
X161242285Y-93752200D01*
X161242285Y-93752200D02*
X161147047Y-93799819D01*
X161147047Y-93799819D02*
X160861333Y-93799819D01*
X160861333Y-93799819D02*
X160766095Y-93752200D01*
X160766095Y-93752200D02*
X160718476Y-93704580D01*
X155394819Y-112148857D02*
X154918628Y-112482190D01*
X155394819Y-112720285D02*
X154394819Y-112720285D01*
X154394819Y-112720285D02*
X154394819Y-112339333D01*
X154394819Y-112339333D02*
X154442438Y-112244095D01*
X154442438Y-112244095D02*
X154490057Y-112196476D01*
X154490057Y-112196476D02*
X154585295Y-112148857D01*
X154585295Y-112148857D02*
X154728152Y-112148857D01*
X154728152Y-112148857D02*
X154823390Y-112196476D01*
X154823390Y-112196476D02*
X154871009Y-112244095D01*
X154871009Y-112244095D02*
X154918628Y-112339333D01*
X154918628Y-112339333D02*
X154918628Y-112720285D01*
X155394819Y-111196476D02*
X155394819Y-111767904D01*
X155394819Y-111482190D02*
X154394819Y-111482190D01*
X154394819Y-111482190D02*
X154537676Y-111577428D01*
X154537676Y-111577428D02*
X154632914Y-111672666D01*
X154632914Y-111672666D02*
X154680533Y-111767904D01*
X154728152Y-110339333D02*
X155394819Y-110339333D01*
X154347200Y-110577428D02*
X155061485Y-110815523D01*
X155061485Y-110815523D02*
X155061485Y-110196476D01*
X152392142Y-103135580D02*
X152344523Y-103183200D01*
X152344523Y-103183200D02*
X152201666Y-103230819D01*
X152201666Y-103230819D02*
X152106428Y-103230819D01*
X152106428Y-103230819D02*
X151963571Y-103183200D01*
X151963571Y-103183200D02*
X151868333Y-103087961D01*
X151868333Y-103087961D02*
X151820714Y-102992723D01*
X151820714Y-102992723D02*
X151773095Y-102802247D01*
X151773095Y-102802247D02*
X151773095Y-102659390D01*
X151773095Y-102659390D02*
X151820714Y-102468914D01*
X151820714Y-102468914D02*
X151868333Y-102373676D01*
X151868333Y-102373676D02*
X151963571Y-102278438D01*
X151963571Y-102278438D02*
X152106428Y-102230819D01*
X152106428Y-102230819D02*
X152201666Y-102230819D01*
X152201666Y-102230819D02*
X152344523Y-102278438D01*
X152344523Y-102278438D02*
X152392142Y-102326057D01*
X153344523Y-103230819D02*
X152773095Y-103230819D01*
X153058809Y-103230819D02*
X153058809Y-102230819D01*
X153058809Y-102230819D02*
X152963571Y-102373676D01*
X152963571Y-102373676D02*
X152868333Y-102468914D01*
X152868333Y-102468914D02*
X152773095Y-102516533D01*
X153963571Y-102230819D02*
X154058809Y-102230819D01*
X154058809Y-102230819D02*
X154154047Y-102278438D01*
X154154047Y-102278438D02*
X154201666Y-102326057D01*
X154201666Y-102326057D02*
X154249285Y-102421295D01*
X154249285Y-102421295D02*
X154296904Y-102611771D01*
X154296904Y-102611771D02*
X154296904Y-102849866D01*
X154296904Y-102849866D02*
X154249285Y-103040342D01*
X154249285Y-103040342D02*
X154201666Y-103135580D01*
X154201666Y-103135580D02*
X154154047Y-103183200D01*
X154154047Y-103183200D02*
X154058809Y-103230819D01*
X154058809Y-103230819D02*
X153963571Y-103230819D01*
X153963571Y-103230819D02*
X153868333Y-103183200D01*
X153868333Y-103183200D02*
X153820714Y-103135580D01*
X153820714Y-103135580D02*
X153773095Y-103040342D01*
X153773095Y-103040342D02*
X153725476Y-102849866D01*
X153725476Y-102849866D02*
X153725476Y-102611771D01*
X153725476Y-102611771D02*
X153773095Y-102421295D01*
X153773095Y-102421295D02*
X153820714Y-102326057D01*
X153820714Y-102326057D02*
X153868333Y-102278438D01*
X153868333Y-102278438D02*
X153963571Y-102230819D01*
X155266580Y-93765666D02*
X155314200Y-93813285D01*
X155314200Y-93813285D02*
X155361819Y-93956142D01*
X155361819Y-93956142D02*
X155361819Y-94051380D01*
X155361819Y-94051380D02*
X155314200Y-94194237D01*
X155314200Y-94194237D02*
X155218961Y-94289475D01*
X155218961Y-94289475D02*
X155123723Y-94337094D01*
X155123723Y-94337094D02*
X154933247Y-94384713D01*
X154933247Y-94384713D02*
X154790390Y-94384713D01*
X154790390Y-94384713D02*
X154599914Y-94337094D01*
X154599914Y-94337094D02*
X154504676Y-94289475D01*
X154504676Y-94289475D02*
X154409438Y-94194237D01*
X154409438Y-94194237D02*
X154361819Y-94051380D01*
X154361819Y-94051380D02*
X154361819Y-93956142D01*
X154361819Y-93956142D02*
X154409438Y-93813285D01*
X154409438Y-93813285D02*
X154457057Y-93765666D01*
X155361819Y-93289475D02*
X155361819Y-93098999D01*
X155361819Y-93098999D02*
X155314200Y-93003761D01*
X155314200Y-93003761D02*
X155266580Y-92956142D01*
X155266580Y-92956142D02*
X155123723Y-92860904D01*
X155123723Y-92860904D02*
X154933247Y-92813285D01*
X154933247Y-92813285D02*
X154552295Y-92813285D01*
X154552295Y-92813285D02*
X154457057Y-92860904D01*
X154457057Y-92860904D02*
X154409438Y-92908523D01*
X154409438Y-92908523D02*
X154361819Y-93003761D01*
X154361819Y-93003761D02*
X154361819Y-93194237D01*
X154361819Y-93194237D02*
X154409438Y-93289475D01*
X154409438Y-93289475D02*
X154457057Y-93337094D01*
X154457057Y-93337094D02*
X154552295Y-93384713D01*
X154552295Y-93384713D02*
X154790390Y-93384713D01*
X154790390Y-93384713D02*
X154885628Y-93337094D01*
X154885628Y-93337094D02*
X154933247Y-93289475D01*
X154933247Y-93289475D02*
X154980866Y-93194237D01*
X154980866Y-93194237D02*
X154980866Y-93003761D01*
X154980866Y-93003761D02*
X154933247Y-92908523D01*
X154933247Y-92908523D02*
X154885628Y-92860904D01*
X154885628Y-92860904D02*
X154790390Y-92813285D01*
X165586580Y-91860666D02*
X165634200Y-91908285D01*
X165634200Y-91908285D02*
X165681819Y-92051142D01*
X165681819Y-92051142D02*
X165681819Y-92146380D01*
X165681819Y-92146380D02*
X165634200Y-92289237D01*
X165634200Y-92289237D02*
X165538961Y-92384475D01*
X165538961Y-92384475D02*
X165443723Y-92432094D01*
X165443723Y-92432094D02*
X165253247Y-92479713D01*
X165253247Y-92479713D02*
X165110390Y-92479713D01*
X165110390Y-92479713D02*
X164919914Y-92432094D01*
X164919914Y-92432094D02*
X164824676Y-92384475D01*
X164824676Y-92384475D02*
X164729438Y-92289237D01*
X164729438Y-92289237D02*
X164681819Y-92146380D01*
X164681819Y-92146380D02*
X164681819Y-92051142D01*
X164681819Y-92051142D02*
X164729438Y-91908285D01*
X164729438Y-91908285D02*
X164777057Y-91860666D01*
X165110390Y-91289237D02*
X165062771Y-91384475D01*
X165062771Y-91384475D02*
X165015152Y-91432094D01*
X165015152Y-91432094D02*
X164919914Y-91479713D01*
X164919914Y-91479713D02*
X164872295Y-91479713D01*
X164872295Y-91479713D02*
X164777057Y-91432094D01*
X164777057Y-91432094D02*
X164729438Y-91384475D01*
X164729438Y-91384475D02*
X164681819Y-91289237D01*
X164681819Y-91289237D02*
X164681819Y-91098761D01*
X164681819Y-91098761D02*
X164729438Y-91003523D01*
X164729438Y-91003523D02*
X164777057Y-90955904D01*
X164777057Y-90955904D02*
X164872295Y-90908285D01*
X164872295Y-90908285D02*
X164919914Y-90908285D01*
X164919914Y-90908285D02*
X165015152Y-90955904D01*
X165015152Y-90955904D02*
X165062771Y-91003523D01*
X165062771Y-91003523D02*
X165110390Y-91098761D01*
X165110390Y-91098761D02*
X165110390Y-91289237D01*
X165110390Y-91289237D02*
X165158009Y-91384475D01*
X165158009Y-91384475D02*
X165205628Y-91432094D01*
X165205628Y-91432094D02*
X165300866Y-91479713D01*
X165300866Y-91479713D02*
X165491342Y-91479713D01*
X165491342Y-91479713D02*
X165586580Y-91432094D01*
X165586580Y-91432094D02*
X165634200Y-91384475D01*
X165634200Y-91384475D02*
X165681819Y-91289237D01*
X165681819Y-91289237D02*
X165681819Y-91098761D01*
X165681819Y-91098761D02*
X165634200Y-91003523D01*
X165634200Y-91003523D02*
X165586580Y-90955904D01*
X165586580Y-90955904D02*
X165491342Y-90908285D01*
X165491342Y-90908285D02*
X165300866Y-90908285D01*
X165300866Y-90908285D02*
X165205628Y-90955904D01*
X165205628Y-90955904D02*
X165158009Y-91003523D01*
X165158009Y-91003523D02*
X165110390Y-91098761D01*
X161402833Y-105737819D02*
X161069500Y-105261628D01*
X160831405Y-105737819D02*
X160831405Y-104737819D01*
X160831405Y-104737819D02*
X161212357Y-104737819D01*
X161212357Y-104737819D02*
X161307595Y-104785438D01*
X161307595Y-104785438D02*
X161355214Y-104833057D01*
X161355214Y-104833057D02*
X161402833Y-104928295D01*
X161402833Y-104928295D02*
X161402833Y-105071152D01*
X161402833Y-105071152D02*
X161355214Y-105166390D01*
X161355214Y-105166390D02*
X161307595Y-105214009D01*
X161307595Y-105214009D02*
X161212357Y-105261628D01*
X161212357Y-105261628D02*
X160831405Y-105261628D01*
X162259976Y-104737819D02*
X162069500Y-104737819D01*
X162069500Y-104737819D02*
X161974262Y-104785438D01*
X161974262Y-104785438D02*
X161926643Y-104833057D01*
X161926643Y-104833057D02*
X161831405Y-104975914D01*
X161831405Y-104975914D02*
X161783786Y-105166390D01*
X161783786Y-105166390D02*
X161783786Y-105547342D01*
X161783786Y-105547342D02*
X161831405Y-105642580D01*
X161831405Y-105642580D02*
X161879024Y-105690200D01*
X161879024Y-105690200D02*
X161974262Y-105737819D01*
X161974262Y-105737819D02*
X162164738Y-105737819D01*
X162164738Y-105737819D02*
X162259976Y-105690200D01*
X162259976Y-105690200D02*
X162307595Y-105642580D01*
X162307595Y-105642580D02*
X162355214Y-105547342D01*
X162355214Y-105547342D02*
X162355214Y-105309247D01*
X162355214Y-105309247D02*
X162307595Y-105214009D01*
X162307595Y-105214009D02*
X162259976Y-105166390D01*
X162259976Y-105166390D02*
X162164738Y-105118771D01*
X162164738Y-105118771D02*
X161974262Y-105118771D01*
X161974262Y-105118771D02*
X161879024Y-105166390D01*
X161879024Y-105166390D02*
X161831405Y-105214009D01*
X161831405Y-105214009D02*
X161783786Y-105309247D01*
X141692333Y-95196819D02*
X141359000Y-94720628D01*
X141120905Y-95196819D02*
X141120905Y-94196819D01*
X141120905Y-94196819D02*
X141501857Y-94196819D01*
X141501857Y-94196819D02*
X141597095Y-94244438D01*
X141597095Y-94244438D02*
X141644714Y-94292057D01*
X141644714Y-94292057D02*
X141692333Y-94387295D01*
X141692333Y-94387295D02*
X141692333Y-94530152D01*
X141692333Y-94530152D02*
X141644714Y-94625390D01*
X141644714Y-94625390D02*
X141597095Y-94673009D01*
X141597095Y-94673009D02*
X141501857Y-94720628D01*
X141501857Y-94720628D02*
X141120905Y-94720628D01*
X142644714Y-95196819D02*
X142073286Y-95196819D01*
X142359000Y-95196819D02*
X142359000Y-94196819D01*
X142359000Y-94196819D02*
X142263762Y-94339676D01*
X142263762Y-94339676D02*
X142168524Y-94434914D01*
X142168524Y-94434914D02*
X142073286Y-94482533D01*
X130525580Y-96019857D02*
X130573200Y-96067476D01*
X130573200Y-96067476D02*
X130620819Y-96210333D01*
X130620819Y-96210333D02*
X130620819Y-96305571D01*
X130620819Y-96305571D02*
X130573200Y-96448428D01*
X130573200Y-96448428D02*
X130477961Y-96543666D01*
X130477961Y-96543666D02*
X130382723Y-96591285D01*
X130382723Y-96591285D02*
X130192247Y-96638904D01*
X130192247Y-96638904D02*
X130049390Y-96638904D01*
X130049390Y-96638904D02*
X129858914Y-96591285D01*
X129858914Y-96591285D02*
X129763676Y-96543666D01*
X129763676Y-96543666D02*
X129668438Y-96448428D01*
X129668438Y-96448428D02*
X129620819Y-96305571D01*
X129620819Y-96305571D02*
X129620819Y-96210333D01*
X129620819Y-96210333D02*
X129668438Y-96067476D01*
X129668438Y-96067476D02*
X129716057Y-96019857D01*
X130620819Y-95067476D02*
X130620819Y-95638904D01*
X130620819Y-95353190D02*
X129620819Y-95353190D01*
X129620819Y-95353190D02*
X129763676Y-95448428D01*
X129763676Y-95448428D02*
X129858914Y-95543666D01*
X129858914Y-95543666D02*
X129906533Y-95638904D01*
X129620819Y-94210333D02*
X129620819Y-94400809D01*
X129620819Y-94400809D02*
X129668438Y-94496047D01*
X129668438Y-94496047D02*
X129716057Y-94543666D01*
X129716057Y-94543666D02*
X129858914Y-94638904D01*
X129858914Y-94638904D02*
X130049390Y-94686523D01*
X130049390Y-94686523D02*
X130430342Y-94686523D01*
X130430342Y-94686523D02*
X130525580Y-94638904D01*
X130525580Y-94638904D02*
X130573200Y-94591285D01*
X130573200Y-94591285D02*
X130620819Y-94496047D01*
X130620819Y-94496047D02*
X130620819Y-94305571D01*
X130620819Y-94305571D02*
X130573200Y-94210333D01*
X130573200Y-94210333D02*
X130525580Y-94162714D01*
X130525580Y-94162714D02*
X130430342Y-94115095D01*
X130430342Y-94115095D02*
X130192247Y-94115095D01*
X130192247Y-94115095D02*
X130097009Y-94162714D01*
X130097009Y-94162714D02*
X130049390Y-94210333D01*
X130049390Y-94210333D02*
X130001771Y-94305571D01*
X130001771Y-94305571D02*
X130001771Y-94496047D01*
X130001771Y-94496047D02*
X130049390Y-94591285D01*
X130049390Y-94591285D02*
X130097009Y-94638904D01*
X130097009Y-94638904D02*
X130192247Y-94686523D01*
X160347819Y-85891666D02*
X159871628Y-86224999D01*
X160347819Y-86463094D02*
X159347819Y-86463094D01*
X159347819Y-86463094D02*
X159347819Y-86082142D01*
X159347819Y-86082142D02*
X159395438Y-85986904D01*
X159395438Y-85986904D02*
X159443057Y-85939285D01*
X159443057Y-85939285D02*
X159538295Y-85891666D01*
X159538295Y-85891666D02*
X159681152Y-85891666D01*
X159681152Y-85891666D02*
X159776390Y-85939285D01*
X159776390Y-85939285D02*
X159824009Y-85986904D01*
X159824009Y-85986904D02*
X159871628Y-86082142D01*
X159871628Y-86082142D02*
X159871628Y-86463094D01*
X159776390Y-85320237D02*
X159728771Y-85415475D01*
X159728771Y-85415475D02*
X159681152Y-85463094D01*
X159681152Y-85463094D02*
X159585914Y-85510713D01*
X159585914Y-85510713D02*
X159538295Y-85510713D01*
X159538295Y-85510713D02*
X159443057Y-85463094D01*
X159443057Y-85463094D02*
X159395438Y-85415475D01*
X159395438Y-85415475D02*
X159347819Y-85320237D01*
X159347819Y-85320237D02*
X159347819Y-85129761D01*
X159347819Y-85129761D02*
X159395438Y-85034523D01*
X159395438Y-85034523D02*
X159443057Y-84986904D01*
X159443057Y-84986904D02*
X159538295Y-84939285D01*
X159538295Y-84939285D02*
X159585914Y-84939285D01*
X159585914Y-84939285D02*
X159681152Y-84986904D01*
X159681152Y-84986904D02*
X159728771Y-85034523D01*
X159728771Y-85034523D02*
X159776390Y-85129761D01*
X159776390Y-85129761D02*
X159776390Y-85320237D01*
X159776390Y-85320237D02*
X159824009Y-85415475D01*
X159824009Y-85415475D02*
X159871628Y-85463094D01*
X159871628Y-85463094D02*
X159966866Y-85510713D01*
X159966866Y-85510713D02*
X160157342Y-85510713D01*
X160157342Y-85510713D02*
X160252580Y-85463094D01*
X160252580Y-85463094D02*
X160300200Y-85415475D01*
X160300200Y-85415475D02*
X160347819Y-85320237D01*
X160347819Y-85320237D02*
X160347819Y-85129761D01*
X160347819Y-85129761D02*
X160300200Y-85034523D01*
X160300200Y-85034523D02*
X160252580Y-84986904D01*
X160252580Y-84986904D02*
X160157342Y-84939285D01*
X160157342Y-84939285D02*
X159966866Y-84939285D01*
X159966866Y-84939285D02*
X159871628Y-84986904D01*
X159871628Y-84986904D02*
X159824009Y-85034523D01*
X159824009Y-85034523D02*
X159776390Y-85129761D01*
X122927710Y-101498080D02*
X122927710Y-102309101D01*
X122927710Y-102309101D02*
X122975417Y-102404515D01*
X122975417Y-102404515D02*
X123023125Y-102452223D01*
X123023125Y-102452223D02*
X123118539Y-102499930D01*
X123118539Y-102499930D02*
X123309367Y-102499930D01*
X123309367Y-102499930D02*
X123404782Y-102452223D01*
X123404782Y-102452223D02*
X123452489Y-102404515D01*
X123452489Y-102404515D02*
X123500196Y-102309101D01*
X123500196Y-102309101D02*
X123500196Y-101498080D01*
X123929560Y-101593494D02*
X123977267Y-101545787D01*
X123977267Y-101545787D02*
X124072682Y-101498080D01*
X124072682Y-101498080D02*
X124311217Y-101498080D01*
X124311217Y-101498080D02*
X124406632Y-101545787D01*
X124406632Y-101545787D02*
X124454339Y-101593494D01*
X124454339Y-101593494D02*
X124502046Y-101688908D01*
X124502046Y-101688908D02*
X124502046Y-101784323D01*
X124502046Y-101784323D02*
X124454339Y-101927444D01*
X124454339Y-101927444D02*
X123881853Y-102499930D01*
X123881853Y-102499930D02*
X124502046Y-102499930D01*
X128190666Y-82354009D02*
X127857333Y-82354009D01*
X127857333Y-82877819D02*
X127857333Y-81877819D01*
X127857333Y-81877819D02*
X128333523Y-81877819D01*
X129238285Y-82877819D02*
X128666857Y-82877819D01*
X128952571Y-82877819D02*
X128952571Y-81877819D01*
X128952571Y-81877819D02*
X128857333Y-82020676D01*
X128857333Y-82020676D02*
X128762095Y-82115914D01*
X128762095Y-82115914D02*
X128666857Y-82163533D01*
X148728580Y-104306666D02*
X148776200Y-104354285D01*
X148776200Y-104354285D02*
X148823819Y-104497142D01*
X148823819Y-104497142D02*
X148823819Y-104592380D01*
X148823819Y-104592380D02*
X148776200Y-104735237D01*
X148776200Y-104735237D02*
X148680961Y-104830475D01*
X148680961Y-104830475D02*
X148585723Y-104878094D01*
X148585723Y-104878094D02*
X148395247Y-104925713D01*
X148395247Y-104925713D02*
X148252390Y-104925713D01*
X148252390Y-104925713D02*
X148061914Y-104878094D01*
X148061914Y-104878094D02*
X147966676Y-104830475D01*
X147966676Y-104830475D02*
X147871438Y-104735237D01*
X147871438Y-104735237D02*
X147823819Y-104592380D01*
X147823819Y-104592380D02*
X147823819Y-104497142D01*
X147823819Y-104497142D02*
X147871438Y-104354285D01*
X147871438Y-104354285D02*
X147919057Y-104306666D01*
X147919057Y-103925713D02*
X147871438Y-103878094D01*
X147871438Y-103878094D02*
X147823819Y-103782856D01*
X147823819Y-103782856D02*
X147823819Y-103544761D01*
X147823819Y-103544761D02*
X147871438Y-103449523D01*
X147871438Y-103449523D02*
X147919057Y-103401904D01*
X147919057Y-103401904D02*
X148014295Y-103354285D01*
X148014295Y-103354285D02*
X148109533Y-103354285D01*
X148109533Y-103354285D02*
X148252390Y-103401904D01*
X148252390Y-103401904D02*
X148823819Y-103973332D01*
X148823819Y-103973332D02*
X148823819Y-103354285D01*
X134326333Y-106277580D02*
X134278714Y-106325200D01*
X134278714Y-106325200D02*
X134135857Y-106372819D01*
X134135857Y-106372819D02*
X134040619Y-106372819D01*
X134040619Y-106372819D02*
X133897762Y-106325200D01*
X133897762Y-106325200D02*
X133802524Y-106229961D01*
X133802524Y-106229961D02*
X133754905Y-106134723D01*
X133754905Y-106134723D02*
X133707286Y-105944247D01*
X133707286Y-105944247D02*
X133707286Y-105801390D01*
X133707286Y-105801390D02*
X133754905Y-105610914D01*
X133754905Y-105610914D02*
X133802524Y-105515676D01*
X133802524Y-105515676D02*
X133897762Y-105420438D01*
X133897762Y-105420438D02*
X134040619Y-105372819D01*
X134040619Y-105372819D02*
X134135857Y-105372819D01*
X134135857Y-105372819D02*
X134278714Y-105420438D01*
X134278714Y-105420438D02*
X134326333Y-105468057D01*
X134659667Y-105372819D02*
X135278714Y-105372819D01*
X135278714Y-105372819D02*
X134945381Y-105753771D01*
X134945381Y-105753771D02*
X135088238Y-105753771D01*
X135088238Y-105753771D02*
X135183476Y-105801390D01*
X135183476Y-105801390D02*
X135231095Y-105849009D01*
X135231095Y-105849009D02*
X135278714Y-105944247D01*
X135278714Y-105944247D02*
X135278714Y-106182342D01*
X135278714Y-106182342D02*
X135231095Y-106277580D01*
X135231095Y-106277580D02*
X135183476Y-106325200D01*
X135183476Y-106325200D02*
X135088238Y-106372819D01*
X135088238Y-106372819D02*
X134802524Y-106372819D01*
X134802524Y-106372819D02*
X134707286Y-106325200D01*
X134707286Y-106325200D02*
X134659667Y-106277580D01*
D12*
X164209000Y-104358221D02*
X164209000Y-104683779D01*
X165229000Y-104358221D02*
X165229000Y-104683779D01*
X134584221Y-110996000D02*
X134909779Y-110996000D01*
X134584221Y-112016000D02*
X134909779Y-112016000D01*
X168850000Y-100270000D02*
X170180000Y-100270000D01*
X168850000Y-101600000D02*
X168850000Y-100270000D01*
X168850000Y-102870000D02*
X168850000Y-110550000D01*
X168850000Y-102870000D02*
X171510000Y-102870000D01*
X168850000Y-110550000D02*
X171510000Y-110550000D01*
X171510000Y-102870000D02*
X171510000Y-110550000D01*
X131189000Y-81671279D02*
X131189000Y-81345721D01*
X132209000Y-81671279D02*
X132209000Y-81345721D01*
X155158221Y-89787000D02*
X155483779Y-89787000D01*
X155158221Y-90807000D02*
X155483779Y-90807000D01*
X150816000Y-120710000D02*
X150816000Y-119380000D01*
X152146000Y-120710000D02*
X150816000Y-120710000D01*
X153416000Y-118050000D02*
X161096000Y-118050000D01*
X153416000Y-120710000D02*
X153416000Y-118050000D01*
X153416000Y-120710000D02*
X161096000Y-120710000D01*
X161096000Y-120710000D02*
X161096000Y-118050000D01*
X132713000Y-92293221D02*
X132713000Y-92618779D01*
X133733000Y-92293221D02*
X133733000Y-92618779D01*
X144905000Y-103977221D02*
X144905000Y-104302779D01*
X145925000Y-103977221D02*
X145925000Y-104302779D01*
X129665000Y-81671279D02*
X129665000Y-81345721D01*
X130685000Y-81671279D02*
X130685000Y-81345721D01*
X154890000Y-80070000D02*
X154890000Y-78740000D01*
X156220000Y-80070000D02*
X154890000Y-80070000D01*
X157490000Y-77410000D02*
X165170000Y-77410000D01*
X157490000Y-80070000D02*
X157490000Y-77410000D01*
X157490000Y-80070000D02*
X165170000Y-80070000D01*
X165170000Y-80070000D02*
X165170000Y-77410000D01*
X124569000Y-83817000D02*
X116950000Y-83817000D01*
X124569000Y-86137000D02*
X116950000Y-86137000D01*
X124569000Y-87853000D02*
X116950000Y-87853000D01*
X124569000Y-90173000D02*
X116950000Y-90173000D01*
X168850000Y-87580000D02*
X170180000Y-87580000D01*
X168850000Y-88910000D02*
X168850000Y-87580000D01*
X168850000Y-90180000D02*
X168850000Y-97860000D01*
X168850000Y-90180000D02*
X171510000Y-90180000D01*
X168850000Y-97860000D02*
X171510000Y-97860000D01*
X171510000Y-90180000D02*
X171510000Y-97860000D01*
X151935000Y-96752000D02*
X151935000Y-96952000D01*
X151935000Y-96952000D02*
X154135000Y-96952000D01*
X151935000Y-100152000D02*
X151935000Y-96952000D01*
X154135000Y-96752000D02*
X151935000Y-96752000D01*
X154135000Y-96952000D02*
X154135000Y-96752000D01*
X154135000Y-96952000D02*
X154135000Y-100152000D01*
X154135000Y-100152000D02*
X151935000Y-100152000D01*
X150112000Y-98389221D02*
X150112000Y-98714779D01*
X151132000Y-98389221D02*
X151132000Y-98714779D01*
X132713000Y-81671279D02*
X132713000Y-81345721D01*
X133733000Y-81671279D02*
X133733000Y-81345721D01*
X146014221Y-101217000D02*
X146339779Y-101217000D01*
X146014221Y-102237000D02*
X146339779Y-102237000D01*
X155954000Y-108747779D02*
X155954000Y-108422221D01*
X156974000Y-108747779D02*
X156974000Y-108422221D01*
X160907000Y-87975221D02*
X160907000Y-88300779D01*
X161927000Y-87975221D02*
X161927000Y-88300779D01*
X132242779Y-106932000D02*
X131917221Y-106932000D01*
X132242779Y-107952000D02*
X131917221Y-107952000D01*
X124569000Y-91564000D02*
X116950000Y-91564000D01*
X124569000Y-93884000D02*
X116950000Y-93884000D01*
X124569000Y-95600000D02*
X116950000Y-95600000D01*
X124569000Y-97920000D02*
X116950000Y-97920000D01*
X115510000Y-99127000D02*
X116840000Y-99127000D01*
X115510000Y-100457000D02*
X115510000Y-99127000D01*
X115510000Y-101727000D02*
X115510000Y-114487000D01*
X115510000Y-101727000D02*
X118170000Y-101727000D01*
X115510000Y-114487000D02*
X118170000Y-114487000D01*
X118170000Y-101727000D02*
X118170000Y-114487000D01*
D11*
X131347000Y-112424000D02*
X131347000Y-114824000D01*
X131347000Y-119224000D02*
X131347000Y-116824000D01*
X137447000Y-112424000D02*
X138147000Y-113124000D01*
X138147000Y-112424000D02*
X131347000Y-112424000D01*
X138147000Y-112424000D02*
X138147000Y-114824000D01*
X138147000Y-116824000D02*
X138147000Y-119224000D01*
X138147000Y-118624000D02*
X137447000Y-119224000D01*
X138147000Y-119224000D02*
X131347000Y-119224000D01*
D12*
X132298000Y-83585000D02*
X138308000Y-83585000D01*
X134548000Y-90405000D02*
X138308000Y-90405000D01*
X138308000Y-83585000D02*
X138308000Y-84845000D01*
X138308000Y-90405000D02*
X138308000Y-89145000D01*
X131189000Y-92293221D02*
X131189000Y-92618779D01*
X132209000Y-92293221D02*
X132209000Y-92618779D01*
X160297500Y-108803221D02*
X160297500Y-109128779D01*
X161317500Y-108803221D02*
X161317500Y-109128779D01*
X135126000Y-103667779D02*
X135126000Y-103342221D01*
X136146000Y-103667779D02*
X136146000Y-103342221D01*
X155483779Y-88263000D02*
X155158221Y-88263000D01*
X155483779Y-89283000D02*
X155158221Y-89283000D01*
X161821500Y-109128779D02*
X161821500Y-108803221D01*
X162841500Y-109128779D02*
X162841500Y-108803221D01*
X160492221Y-89914000D02*
X160817779Y-89914000D01*
X160492221Y-90934000D02*
X160817779Y-90934000D01*
D13*
X131646000Y-103285000D02*
X131646000Y-102625000D01*
X133431000Y-103755000D02*
X132761000Y-103755000D01*
X134546000Y-102625000D02*
X134546000Y-103285000D01*
D14*
X134246000Y-100545000D02*
G75*
G02*
X134046000Y-100545000I-100000J0D01*
G01*
X134046000Y-100545000D02*
G75*
G02*
X134246000Y-100545000I100000J0D01*
G01*
D12*
X156918000Y-95450000D02*
X156918000Y-95900000D01*
X156918000Y-95900000D02*
X155628000Y-95900000D01*
X156918000Y-102670000D02*
X156918000Y-102220000D01*
X157368000Y-95450000D02*
X156918000Y-95450000D01*
X157368000Y-102670000D02*
X156918000Y-102670000D01*
X163688000Y-95450000D02*
X164138000Y-95450000D01*
X163688000Y-102670000D02*
X164138000Y-102670000D01*
X164138000Y-95450000D02*
X164138000Y-95900000D01*
X164138000Y-102670000D02*
X164138000Y-102220000D01*
X154430000Y-108747779D02*
X154430000Y-108422221D01*
X155450000Y-108747779D02*
X155450000Y-108422221D01*
X153197779Y-100836000D02*
X152872221Y-100836000D01*
X153197779Y-101856000D02*
X152872221Y-101856000D01*
X155827000Y-93761779D02*
X155827000Y-93436221D01*
X156847000Y-93761779D02*
X156847000Y-93436221D01*
X164717000Y-94269779D02*
X164717000Y-93944221D01*
X165737000Y-94269779D02*
X165737000Y-93944221D01*
X161406721Y-106170000D02*
X161732279Y-106170000D01*
X161406721Y-107190000D02*
X161732279Y-107190000D01*
D15*
X136626600Y-95605600D02*
X136626600Y-110134400D01*
X136626600Y-110134400D02*
X142773400Y-110134400D01*
X142773400Y-95605600D02*
X136626600Y-95605600D01*
X142773400Y-110134400D02*
X142773400Y-95605600D01*
D12*
X129656000Y-92293221D02*
X129656000Y-92618779D01*
X130676000Y-92293221D02*
X130676000Y-92618779D01*
D16*
X147074771Y-77989798D02*
X147517421Y-78042371D01*
X147946400Y-78141592D01*
X148358665Y-78285671D01*
X148751175Y-78472816D01*
X149120888Y-78701237D01*
X149464763Y-78969143D01*
X149779758Y-79274743D01*
X150062831Y-79616247D01*
X150310940Y-79991863D01*
X150443204Y-80235748D01*
X150495027Y-80348881D01*
X150553461Y-80491854D01*
X150613455Y-80650613D01*
X150669958Y-80811108D01*
X150717920Y-80959289D01*
X150752290Y-81081102D01*
X150761504Y-81121250D01*
X150778436Y-81203800D01*
X147142200Y-81203800D01*
X147142200Y-81408953D01*
X147140918Y-81512810D01*
X147134506Y-81580368D01*
X147119116Y-81626115D01*
X147090897Y-81664535D01*
X147067953Y-81688353D01*
X147007380Y-81737701D01*
X146941841Y-81759024D01*
X146875500Y-81762600D01*
X146789882Y-81755549D01*
X146728162Y-81727776D01*
X146683046Y-81688353D01*
X146645923Y-81647690D01*
X146623794Y-81607845D01*
X146612808Y-81554332D01*
X146609116Y-81472667D01*
X146608800Y-81408953D01*
X146608800Y-81203800D01*
X142843107Y-81203800D01*
X142859185Y-81103250D01*
X142888450Y-80973919D01*
X142938374Y-80812375D01*
X143004551Y-80630593D01*
X143082578Y-80440546D01*
X143168048Y-80254209D01*
X143181941Y-80225900D01*
X143403703Y-79834147D01*
X143663533Y-79474158D01*
X143958305Y-79147968D01*
X144284892Y-78857613D01*
X144640168Y-78605129D01*
X145021007Y-78392553D01*
X145424283Y-78221920D01*
X145846870Y-78095267D01*
X146285641Y-78014631D01*
X146621491Y-77985665D01*
X147074771Y-77989798D01*
G36*
X147074771Y-77989798D02*
G01*
X147517421Y-78042371D01*
X147946400Y-78141592D01*
X148358665Y-78285671D01*
X148751175Y-78472816D01*
X149120888Y-78701237D01*
X149464763Y-78969143D01*
X149779758Y-79274743D01*
X150062831Y-79616247D01*
X150310940Y-79991863D01*
X150443204Y-80235748D01*
X150495027Y-80348881D01*
X150553461Y-80491854D01*
X150613455Y-80650613D01*
X150669958Y-80811108D01*
X150717920Y-80959289D01*
X150752290Y-81081102D01*
X150761504Y-81121250D01*
X150778436Y-81203800D01*
X147142200Y-81203800D01*
X147142200Y-81408953D01*
X147140918Y-81512810D01*
X147134506Y-81580368D01*
X147119116Y-81626115D01*
X147090897Y-81664535D01*
X147067953Y-81688353D01*
X147007380Y-81737701D01*
X146941841Y-81759024D01*
X146875500Y-81762600D01*
X146789882Y-81755549D01*
X146728162Y-81727776D01*
X146683046Y-81688353D01*
X146645923Y-81647690D01*
X146623794Y-81607845D01*
X146612808Y-81554332D01*
X146609116Y-81472667D01*
X146608800Y-81408953D01*
X146608800Y-81203800D01*
X142843107Y-81203800D01*
X142859185Y-81103250D01*
X142888450Y-80973919D01*
X142938374Y-80812375D01*
X143004551Y-80630593D01*
X143082578Y-80440546D01*
X143168048Y-80254209D01*
X143181941Y-80225900D01*
X143403703Y-79834147D01*
X143663533Y-79474158D01*
X143958305Y-79147968D01*
X144284892Y-78857613D01*
X144640168Y-78605129D01*
X145021007Y-78392553D01*
X145424283Y-78221920D01*
X145846870Y-78095267D01*
X146285641Y-78014631D01*
X146621491Y-77985665D01*
X147074771Y-77989798D01*
G37*
X146124254Y-81903867D02*
X146235313Y-82061044D01*
X146382014Y-82189184D01*
X146554963Y-82282747D01*
X146744762Y-82336192D01*
X146875500Y-82346799D01*
X147071298Y-82323055D01*
X147256484Y-82255514D01*
X147421663Y-82149718D01*
X147557439Y-82011205D01*
X147626745Y-81903867D01*
X147688212Y-81788000D01*
X150876000Y-81788000D01*
X150876000Y-82002903D01*
X150851376Y-82460304D01*
X150778612Y-82904833D01*
X150659367Y-83333653D01*
X150495299Y-83743925D01*
X150288067Y-84132811D01*
X150039330Y-84497473D01*
X149750747Y-84835073D01*
X149423977Y-85142772D01*
X149060678Y-85417731D01*
X148777114Y-85594008D01*
X148418626Y-85771115D01*
X148031651Y-85912227D01*
X147625287Y-86015528D01*
X147208627Y-86079202D01*
X146790769Y-86101435D01*
X146380808Y-86080410D01*
X146354800Y-86077520D01*
X145945680Y-86011261D01*
X145559431Y-85907315D01*
X145181087Y-85761235D01*
X144995900Y-85673851D01*
X144605308Y-85451108D01*
X144243786Y-85188098D01*
X143914186Y-84888067D01*
X143619362Y-84554259D01*
X143362166Y-84189922D01*
X143145453Y-83798299D01*
X142972076Y-83382638D01*
X142965719Y-83364513D01*
X142964124Y-83359503D01*
X143896024Y-83359503D01*
X143907117Y-83415677D01*
X143927091Y-83476499D01*
X143983873Y-83611539D01*
X144067601Y-83771124D01*
X144170750Y-83942484D01*
X144285795Y-84112846D01*
X144363420Y-84217038D01*
X144617967Y-84503546D01*
X144908492Y-84757053D01*
X145230002Y-84974587D01*
X145577501Y-85153176D01*
X145945995Y-85289849D01*
X146316700Y-85379191D01*
X146490798Y-85401542D01*
X146696458Y-85413959D01*
X146915413Y-85416405D01*
X147129398Y-85408845D01*
X147320147Y-85391244D01*
X147386522Y-85381269D01*
X147783151Y-85287976D01*
X148158186Y-85149145D01*
X148509782Y-84965715D01*
X148836093Y-84738629D01*
X149093962Y-84510249D01*
X149318897Y-84267464D01*
X149506792Y-84015261D01*
X149670671Y-83735607D01*
X149711250Y-83655574D01*
X149768790Y-83534632D01*
X149804205Y-83447916D01*
X149820710Y-83385618D01*
X149821516Y-83337935D01*
X149819340Y-83325746D01*
X149772740Y-83207049D01*
X149694031Y-83127688D01*
X149583780Y-83088122D01*
X149519330Y-83083400D01*
X149429523Y-83101041D01*
X149350622Y-83157056D01*
X149277555Y-83256080D01*
X149229618Y-83348199D01*
X149057984Y-83656764D01*
X148847976Y-83935663D01*
X148604128Y-84182326D01*
X148330974Y-84394182D01*
X148033047Y-84568659D01*
X147714882Y-84703187D01*
X147381014Y-84795194D01*
X147035975Y-84842109D01*
X146684301Y-84841361D01*
X146608169Y-84834717D01*
X146259947Y-84778170D01*
X145937059Y-84681089D01*
X145630389Y-84540272D01*
X145433082Y-84422239D01*
X145154075Y-84214334D01*
X144912128Y-83977852D01*
X144702044Y-83706967D01*
X144519626Y-83397785D01*
X144456125Y-83277847D01*
X144406761Y-83195833D01*
X144363907Y-83143764D01*
X144319934Y-83113662D01*
X144267215Y-83097551D01*
X144226329Y-83091026D01*
X144106220Y-83097625D01*
X144006498Y-83149695D01*
X143933090Y-83244010D01*
X143928605Y-83253130D01*
X143903137Y-83312627D01*
X143896024Y-83359503D01*
X142964124Y-83359503D01*
X142885830Y-83113608D01*
X142827719Y-82876800D01*
X142826134Y-82867155D01*
X145289900Y-82867155D01*
X145305186Y-82992725D01*
X145348787Y-83103294D01*
X145428405Y-83240185D01*
X145527735Y-83381474D01*
X145634252Y-83510880D01*
X145735434Y-83612124D01*
X145749058Y-83623614D01*
X145998797Y-83798169D01*
X146263121Y-83925922D01*
X146538387Y-84006016D01*
X146820952Y-84037598D01*
X147107172Y-84019810D01*
X147283756Y-83983901D01*
X147553566Y-83888545D01*
X147802862Y-83749039D01*
X148026092Y-83569781D01*
X148217705Y-83355167D01*
X148361094Y-83130644D01*
X148417832Y-82989556D01*
X148431876Y-82863382D01*
X148404429Y-82756874D01*
X148336693Y-82674780D01*
X148232585Y-82622655D01*
X148128450Y-82608634D01*
X148036558Y-82635646D01*
X147951937Y-82706712D01*
X147869614Y-82824856D01*
X147853874Y-82852781D01*
X147717844Y-83052513D01*
X147552405Y-83214741D01*
X147363360Y-83337557D01*
X147156514Y-83419057D01*
X146937673Y-83457333D01*
X146712641Y-83450480D01*
X146487222Y-83396593D01*
X146359445Y-83343452D01*
X146218084Y-83254872D01*
X146078002Y-83132015D01*
X145953851Y-82989611D01*
X145860283Y-82842392D01*
X145859500Y-82840842D01*
X145778831Y-82714932D01*
X145688023Y-82638293D01*
X145585803Y-82610174D01*
X145490081Y-82623534D01*
X145383884Y-82677342D01*
X145316645Y-82760288D01*
X145289900Y-82867155D01*
X142826134Y-82867155D01*
X142788182Y-82636333D01*
X142764013Y-82374454D01*
X142755593Y-82200750D01*
X142740885Y-81788000D01*
X146062787Y-81788000D01*
X146124254Y-81903867D01*
G36*
X146124254Y-81903867D02*
G01*
X146235313Y-82061044D01*
X146382014Y-82189184D01*
X146554963Y-82282747D01*
X146744762Y-82336192D01*
X146875500Y-82346799D01*
X147071298Y-82323055D01*
X147256484Y-82255514D01*
X147421663Y-82149718D01*
X147557439Y-82011205D01*
X147626745Y-81903867D01*
X147688212Y-81788000D01*
X150876000Y-81788000D01*
X150876000Y-82002903D01*
X150851376Y-82460304D01*
X150778612Y-82904833D01*
X150659367Y-83333653D01*
X150495299Y-83743925D01*
X150288067Y-84132811D01*
X150039330Y-84497473D01*
X149750747Y-84835073D01*
X149423977Y-85142772D01*
X149060678Y-85417731D01*
X148777114Y-85594008D01*
X148418626Y-85771115D01*
X148031651Y-85912227D01*
X147625287Y-86015528D01*
X147208627Y-86079202D01*
X146790769Y-86101435D01*
X146380808Y-86080410D01*
X146354800Y-86077520D01*
X145945680Y-86011261D01*
X145559431Y-85907315D01*
X145181087Y-85761235D01*
X144995900Y-85673851D01*
X144605308Y-85451108D01*
X144243786Y-85188098D01*
X143914186Y-84888067D01*
X143619362Y-84554259D01*
X143362166Y-84189922D01*
X143145453Y-83798299D01*
X142972076Y-83382638D01*
X142965719Y-83364513D01*
X142964124Y-83359503D01*
X143896024Y-83359503D01*
X143907117Y-83415677D01*
X143927091Y-83476499D01*
X143983873Y-83611539D01*
X144067601Y-83771124D01*
X144170750Y-83942484D01*
X144285795Y-84112846D01*
X144363420Y-84217038D01*
X144617967Y-84503546D01*
X144908492Y-84757053D01*
X145230002Y-84974587D01*
X145577501Y-85153176D01*
X145945995Y-85289849D01*
X146316700Y-85379191D01*
X146490798Y-85401542D01*
X146696458Y-85413959D01*
X146915413Y-85416405D01*
X147129398Y-85408845D01*
X147320147Y-85391244D01*
X147386522Y-85381269D01*
X147783151Y-85287976D01*
X148158186Y-85149145D01*
X148509782Y-84965715D01*
X148836093Y-84738629D01*
X149093962Y-84510249D01*
X149318897Y-84267464D01*
X149506792Y-84015261D01*
X149670671Y-83735607D01*
X149711250Y-83655574D01*
X149768790Y-83534632D01*
X149804205Y-83447916D01*
X149820710Y-83385618D01*
X149821516Y-83337935D01*
X149819340Y-83325746D01*
X149772740Y-83207049D01*
X149694031Y-83127688D01*
X149583780Y-83088122D01*
X149519330Y-83083400D01*
X149429523Y-83101041D01*
X149350622Y-83157056D01*
X149277555Y-83256080D01*
X149229618Y-83348199D01*
X149057984Y-83656764D01*
X148847976Y-83935663D01*
X148604128Y-84182326D01*
X148330974Y-84394182D01*
X148033047Y-84568659D01*
X147714882Y-84703187D01*
X147381014Y-84795194D01*
X147035975Y-84842109D01*
X146684301Y-84841361D01*
X146608169Y-84834717D01*
X146259947Y-84778170D01*
X145937059Y-84681089D01*
X145630389Y-84540272D01*
X145433082Y-84422239D01*
X145154075Y-84214334D01*
X144912128Y-83977852D01*
X144702044Y-83706967D01*
X144519626Y-83397785D01*
X144456125Y-83277847D01*
X144406761Y-83195833D01*
X144363907Y-83143764D01*
X144319934Y-83113662D01*
X144267215Y-83097551D01*
X144226329Y-83091026D01*
X144106220Y-83097625D01*
X144006498Y-83149695D01*
X143933090Y-83244010D01*
X143928605Y-83253130D01*
X143903137Y-83312627D01*
X143896024Y-83359503D01*
X142964124Y-83359503D01*
X142885830Y-83113608D01*
X142827719Y-82876800D01*
X142826134Y-82867155D01*
X145289900Y-82867155D01*
X145305186Y-82992725D01*
X145348787Y-83103294D01*
X145428405Y-83240185D01*
X145527735Y-83381474D01*
X145634252Y-83510880D01*
X145735434Y-83612124D01*
X145749058Y-83623614D01*
X145998797Y-83798169D01*
X146263121Y-83925922D01*
X146538387Y-84006016D01*
X146820952Y-84037598D01*
X147107172Y-84019810D01*
X147283756Y-83983901D01*
X147553566Y-83888545D01*
X147802862Y-83749039D01*
X148026092Y-83569781D01*
X148217705Y-83355167D01*
X148361094Y-83130644D01*
X148417832Y-82989556D01*
X148431876Y-82863382D01*
X148404429Y-82756874D01*
X148336693Y-82674780D01*
X148232585Y-82622655D01*
X148128450Y-82608634D01*
X148036558Y-82635646D01*
X147951937Y-82706712D01*
X147869614Y-82824856D01*
X147853874Y-82852781D01*
X147717844Y-83052513D01*
X147552405Y-83214741D01*
X147363360Y-83337557D01*
X147156514Y-83419057D01*
X146937673Y-83457333D01*
X146712641Y-83450480D01*
X146487222Y-83396593D01*
X146359445Y-83343452D01*
X146218084Y-83254872D01*
X146078002Y-83132015D01*
X145953851Y-82989611D01*
X145860283Y-82842392D01*
X145859500Y-82840842D01*
X145778831Y-82714932D01*
X145688023Y-82638293D01*
X145585803Y-82610174D01*
X145490081Y-82623534D01*
X145383884Y-82677342D01*
X145316645Y-82760288D01*
X145289900Y-82867155D01*
X142826134Y-82867155D01*
X142788182Y-82636333D01*
X142764013Y-82374454D01*
X142755593Y-82200750D01*
X142740885Y-81788000D01*
X146062787Y-81788000D01*
X146124254Y-81903867D01*
G37*
D12*
X159383000Y-88300779D02*
X159383000Y-87975221D01*
X160403000Y-88300779D02*
X160403000Y-87975221D01*
D17*
X122549000Y-111515000D02*
X128149000Y-111515000D01*
X128149000Y-103115000D02*
X122549000Y-103115000D01*
D13*
X121162500Y-103115000D02*
G75*
G02*
X121035500Y-103115000I-63500J0D01*
G01*
X121035500Y-103115000D02*
G75*
G02*
X121162500Y-103115000I63500J0D01*
G01*
D15*
X127838200Y-85591697D02*
X127838200Y-88398303D01*
X131495800Y-88398303D02*
X131495800Y-85591697D01*
D12*
X146429000Y-103977221D02*
X146429000Y-104302779D01*
X147449000Y-103977221D02*
X147449000Y-104302779D01*
X152726000Y-84776000D02*
X152726000Y-87436000D01*
X155326000Y-84776000D02*
X152726000Y-84776000D01*
X155326000Y-84776000D02*
X155326000Y-87436000D01*
X155326000Y-87436000D02*
X152726000Y-87436000D01*
X156596000Y-84776000D02*
X157926000Y-84776000D01*
X157926000Y-84776000D02*
X157926000Y-86106000D01*
X132242779Y-105408000D02*
X131917221Y-105408000D01*
X132242779Y-106428000D02*
X131917221Y-106428000D01*
M02*
