G04 #@! TF.GenerationSoftware,KiCad,Pcbnew,(6.0.7)*
G04 #@! TF.CreationDate,2022-09-05T18:06:51-05:00*
G04 #@! TF.ProjectId,control_pcb,636f6e74-726f-46c5-9f70-63622e6b6963,3.1*
G04 #@! TF.SameCoordinates,Original*
G04 #@! TF.FileFunction,Copper,L1,Top*
G04 #@! TF.FilePolarity,Positive*
%FSLAX46Y46*%
G04 Gerber Fmt 4.6, Leading zero omitted, Abs format (unit mm)*
G04 Created by KiCad (PCBNEW (6.0.7)) date 2022-09-05 18:06:51*
%MOMM*%
%LPD*%
G01*
G04 APERTURE LIST*
G04 Aperture macros list*
%AMRoundRect*
0 Rectangle with rounded corners*
0 $1 Rounding radius*
0 $2 $3 $4 $5 $6 $7 $8 $9 X,Y pos of 4 corners*
0 Add a 4 corners polygon primitive as box body*
4,1,4,$2,$3,$4,$5,$6,$7,$8,$9,$2,$3,0*
0 Add four circle primitives for the rounded corners*
1,1,$1+$1,$2,$3*
1,1,$1+$1,$4,$5*
1,1,$1+$1,$6,$7*
1,1,$1+$1,$8,$9*
0 Add four rect primitives between the rounded corners*
20,1,$1+$1,$2,$3,$4,$5,0*
20,1,$1+$1,$4,$5,$6,$7,0*
20,1,$1+$1,$6,$7,$8,$9,0*
20,1,$1+$1,$8,$9,$2,$3,0*%
G04 Aperture macros list end*
G04 #@! TA.AperFunction,ComponentPad*
%ADD10O,1.700000X1.700000*%
G04 #@! TD*
G04 #@! TA.AperFunction,ComponentPad*
%ADD11R,1.700000X1.700000*%
G04 #@! TD*
G04 #@! TA.AperFunction,SMDPad,CuDef*
%ADD12R,0.250000X1.300000*%
G04 #@! TD*
G04 #@! TA.AperFunction,SMDPad,CuDef*
%ADD13R,1.300000X0.250000*%
G04 #@! TD*
G04 #@! TA.AperFunction,SMDPad,CuDef*
%ADD14R,0.700000X2.000000*%
G04 #@! TD*
G04 #@! TA.AperFunction,SMDPad,CuDef*
%ADD15R,1.000000X2.600000*%
G04 #@! TD*
G04 #@! TA.AperFunction,SMDPad,CuDef*
%ADD16R,1.500000X2.600000*%
G04 #@! TD*
G04 #@! TA.AperFunction,SMDPad,CuDef*
%ADD17R,2.700000X1.400000*%
G04 #@! TD*
G04 #@! TA.AperFunction,SMDPad,CuDef*
%ADD18R,1.200000X1.200000*%
G04 #@! TD*
G04 #@! TA.AperFunction,SMDPad,CuDef*
%ADD19RoundRect,0.225000X0.250000X-0.225000X0.250000X0.225000X-0.250000X0.225000X-0.250000X-0.225000X0*%
G04 #@! TD*
G04 #@! TA.AperFunction,SMDPad,CuDef*
%ADD20RoundRect,0.200000X0.275000X-0.200000X0.275000X0.200000X-0.275000X0.200000X-0.275000X-0.200000X0*%
G04 #@! TD*
G04 #@! TA.AperFunction,SMDPad,CuDef*
%ADD21RoundRect,0.200000X-0.275000X0.200000X-0.275000X-0.200000X0.275000X-0.200000X0.275000X0.200000X0*%
G04 #@! TD*
G04 #@! TA.AperFunction,SMDPad,CuDef*
%ADD22RoundRect,0.225000X0.225000X0.250000X-0.225000X0.250000X-0.225000X-0.250000X0.225000X-0.250000X0*%
G04 #@! TD*
G04 #@! TA.AperFunction,ComponentPad*
%ADD23C,2.300000*%
G04 #@! TD*
G04 #@! TA.AperFunction,ComponentPad*
%ADD24C,1.500000*%
G04 #@! TD*
G04 #@! TA.AperFunction,SMDPad,CuDef*
%ADD25R,1.200000X0.900000*%
G04 #@! TD*
G04 #@! TA.AperFunction,ComponentPad*
%ADD26C,1.620000*%
G04 #@! TD*
G04 #@! TA.AperFunction,SMDPad,CuDef*
%ADD27R,0.800000X0.550000*%
G04 #@! TD*
G04 #@! TA.AperFunction,SMDPad,CuDef*
%ADD28R,1.800000X0.700000*%
G04 #@! TD*
G04 #@! TA.AperFunction,SMDPad,CuDef*
%ADD29R,1.800000X0.800000*%
G04 #@! TD*
G04 #@! TA.AperFunction,ComponentPad*
%ADD30C,5.700000*%
G04 #@! TD*
G04 #@! TA.AperFunction,SMDPad,CuDef*
%ADD31R,1.100000X1.500000*%
G04 #@! TD*
G04 #@! TA.AperFunction,SMDPad,CuDef*
%ADD32R,0.800000X0.900000*%
G04 #@! TD*
G04 #@! TA.AperFunction,SMDPad,CuDef*
%ADD33RoundRect,0.218750X0.218750X0.256250X-0.218750X0.256250X-0.218750X-0.256250X0.218750X-0.256250X0*%
G04 #@! TD*
G04 #@! TA.AperFunction,SMDPad,CuDef*
%ADD34RoundRect,0.218750X-0.218750X-0.256250X0.218750X-0.256250X0.218750X0.256250X-0.218750X0.256250X0*%
G04 #@! TD*
G04 #@! TA.AperFunction,SMDPad,CuDef*
%ADD35RoundRect,0.243750X-0.456250X0.243750X-0.456250X-0.243750X0.456250X-0.243750X0.456250X0.243750X0*%
G04 #@! TD*
G04 #@! TA.AperFunction,SMDPad,CuDef*
%ADD36RoundRect,0.243750X0.243750X0.456250X-0.243750X0.456250X-0.243750X-0.456250X0.243750X-0.456250X0*%
G04 #@! TD*
G04 #@! TA.AperFunction,SMDPad,CuDef*
%ADD37R,1.100000X1.100000*%
G04 #@! TD*
G04 #@! TA.AperFunction,SMDPad,CuDef*
%ADD38RoundRect,0.200000X-0.200000X-0.275000X0.200000X-0.275000X0.200000X0.275000X-0.200000X0.275000X0*%
G04 #@! TD*
G04 #@! TA.AperFunction,SMDPad,CuDef*
%ADD39RoundRect,0.218750X-0.256250X0.218750X-0.256250X-0.218750X0.256250X-0.218750X0.256250X0.218750X0*%
G04 #@! TD*
G04 #@! TA.AperFunction,SMDPad,CuDef*
%ADD40R,1.600000X0.550000*%
G04 #@! TD*
G04 #@! TA.AperFunction,SMDPad,CuDef*
%ADD41R,0.550000X1.600000*%
G04 #@! TD*
G04 #@! TA.AperFunction,SMDPad,CuDef*
%ADD42R,0.650000X1.060000*%
G04 #@! TD*
G04 #@! TA.AperFunction,SMDPad,CuDef*
%ADD43R,1.900000X0.400000*%
G04 #@! TD*
G04 #@! TA.AperFunction,SMDPad,CuDef*
%ADD44RoundRect,0.225000X-0.225000X-0.250000X0.225000X-0.250000X0.225000X0.250000X-0.225000X0.250000X0*%
G04 #@! TD*
G04 #@! TA.AperFunction,SMDPad,CuDef*
%ADD45RoundRect,0.225000X-0.250000X0.225000X-0.250000X-0.225000X0.250000X-0.225000X0.250000X0.225000X0*%
G04 #@! TD*
G04 #@! TA.AperFunction,SMDPad,CuDef*
%ADD46C,1.000000*%
G04 #@! TD*
G04 #@! TA.AperFunction,SMDPad,CuDef*
%ADD47RoundRect,0.200000X0.200000X0.275000X-0.200000X0.275000X-0.200000X-0.275000X0.200000X-0.275000X0*%
G04 #@! TD*
G04 #@! TA.AperFunction,SMDPad,CuDef*
%ADD48RoundRect,0.152000X1.248000X0.608000X-1.248000X0.608000X-1.248000X-0.608000X1.248000X-0.608000X0*%
G04 #@! TD*
G04 #@! TA.AperFunction,SMDPad,CuDef*
%ADD49RoundRect,0.152000X0.608000X1.248000X-0.608000X1.248000X-0.608000X-1.248000X0.608000X-1.248000X0*%
G04 #@! TD*
G04 #@! TA.AperFunction,SMDPad,CuDef*
%ADD50RoundRect,0.279000X1.116000X1.116000X-1.116000X1.116000X-1.116000X-1.116000X1.116000X-1.116000X0*%
G04 #@! TD*
G04 #@! TA.AperFunction,ComponentPad*
%ADD51R,1.800000X1.800000*%
G04 #@! TD*
G04 #@! TA.AperFunction,ComponentPad*
%ADD52C,1.800000*%
G04 #@! TD*
G04 #@! TA.AperFunction,ComponentPad*
%ADD53C,1.509000*%
G04 #@! TD*
G04 #@! TA.AperFunction,ViaPad*
%ADD54C,0.508000*%
G04 #@! TD*
G04 #@! TA.AperFunction,ViaPad*
%ADD55C,1.016000*%
G04 #@! TD*
G04 #@! TA.AperFunction,Conductor*
%ADD56C,0.304800*%
G04 #@! TD*
G04 #@! TA.AperFunction,Conductor*
%ADD57C,0.508000*%
G04 #@! TD*
G04 #@! TA.AperFunction,Conductor*
%ADD58C,0.152400*%
G04 #@! TD*
G04 #@! TA.AperFunction,Conductor*
%ADD59C,0.635000*%
G04 #@! TD*
G04 #@! TA.AperFunction,Conductor*
%ADD60C,0.347980*%
G04 #@! TD*
G04 #@! TA.AperFunction,Conductor*
%ADD61C,1.270000*%
G04 #@! TD*
G04 APERTURE END LIST*
D10*
X154432000Y-135890000D03*
X154432000Y-133350000D03*
X154432000Y-130810000D03*
D11*
X154432000Y-128270000D03*
D12*
X137966000Y-137890000D03*
X138466000Y-137890000D03*
X138966000Y-137890000D03*
X139466000Y-137890000D03*
X139966000Y-137890000D03*
X140466000Y-137890000D03*
X140966000Y-137890000D03*
X141466000Y-137890000D03*
X141966000Y-137890000D03*
X142466000Y-137890000D03*
X142966000Y-137890000D03*
X143466000Y-137890000D03*
D13*
X145066000Y-139490000D03*
X145066000Y-139990000D03*
X145066000Y-140490000D03*
X145066000Y-140990000D03*
X145066000Y-141490000D03*
X145066000Y-141990000D03*
X145066000Y-142490000D03*
X145066000Y-142990000D03*
X145066000Y-143490000D03*
X145066000Y-143990000D03*
X145066000Y-144490000D03*
X145066000Y-144990000D03*
D12*
X143466000Y-146590000D03*
X142966000Y-146590000D03*
X142466000Y-146590000D03*
X141966000Y-146590000D03*
X141466000Y-146590000D03*
X140966000Y-146590000D03*
X140466000Y-146590000D03*
X139966000Y-146590000D03*
X139466000Y-146590000D03*
X138966000Y-146590000D03*
X138466000Y-146590000D03*
X137966000Y-146590000D03*
D13*
X136366000Y-144990000D03*
X136366000Y-144490000D03*
X136366000Y-143990000D03*
X136366000Y-143490000D03*
X136366000Y-142990000D03*
X136366000Y-142490000D03*
X136366000Y-141990000D03*
X136366000Y-141490000D03*
X136366000Y-140990000D03*
X136366000Y-140490000D03*
X136366000Y-139990000D03*
X136366000Y-139490000D03*
D14*
X126042001Y-170195001D03*
X127142001Y-170195001D03*
X128242001Y-170195001D03*
X129342001Y-170195001D03*
X130442001Y-170195001D03*
X131542001Y-170195001D03*
X132642001Y-170195001D03*
X133742001Y-170195001D03*
D15*
X123942001Y-169695001D03*
D16*
X137292001Y-169695001D03*
D17*
X132342001Y-157495001D03*
X127442001Y-157495001D03*
D18*
X135392001Y-157395001D03*
D19*
X129159000Y-155080000D03*
X129159000Y-153530000D03*
D20*
X124333000Y-153353000D03*
X124333000Y-155003000D03*
X127635000Y-153353000D03*
X127635000Y-155003000D03*
X130683000Y-153353000D03*
X130683000Y-155003000D03*
X132334000Y-155003000D03*
X132334000Y-153353000D03*
X125984000Y-155003000D03*
X125984000Y-153353000D03*
X133985000Y-155003000D03*
X133985000Y-153353000D03*
D21*
X134112000Y-140145000D03*
X134112000Y-141795000D03*
D22*
X130035000Y-124968000D03*
X131585000Y-124968000D03*
X148857000Y-138684000D03*
X147307000Y-138684000D03*
D21*
X137541000Y-153988000D03*
X137541000Y-155638000D03*
D23*
X84963000Y-105918000D03*
X90043000Y-105918000D03*
X84963000Y-110998000D03*
X90043000Y-110998000D03*
X87503000Y-108458000D03*
D24*
X144185000Y-125222000D03*
X149185000Y-125222000D03*
D10*
X133604000Y-129413000D03*
D11*
X131064000Y-129413000D03*
X138684000Y-129540000D03*
D10*
X141224000Y-129540000D03*
X143764000Y-129540000D03*
X146304000Y-129540000D03*
D25*
X95461000Y-108458000D03*
X93261000Y-108458000D03*
D26*
X129797001Y-101887001D03*
X127892001Y-101887001D03*
X125987001Y-101887001D03*
D27*
X129550000Y-114114001D03*
X129550000Y-113164001D03*
X129550000Y-112214001D03*
X127150000Y-112214001D03*
X127150000Y-114114001D03*
D28*
X107874000Y-117811000D03*
D29*
X107874000Y-116711000D03*
X107874000Y-115611000D03*
X107874000Y-114511000D03*
X107874000Y-113411000D03*
X107874000Y-112311000D03*
X107874000Y-111211000D03*
X107874000Y-110111000D03*
D28*
X107874000Y-109011000D03*
X98374000Y-109011000D03*
D29*
X98374000Y-110111000D03*
X98374000Y-111211000D03*
X98374000Y-112311000D03*
X98374000Y-113411000D03*
X98374000Y-114511000D03*
X98374000Y-115611000D03*
X98374000Y-116711000D03*
D28*
X98374000Y-117811000D03*
D30*
X77470000Y-168910000D03*
D31*
X141732000Y-164597000D03*
X144272000Y-164597000D03*
X146812000Y-164597000D03*
X146812000Y-155697000D03*
X144272000Y-155697000D03*
X141732000Y-155697000D03*
D32*
X134239000Y-107807000D03*
X133289000Y-105807000D03*
X135189000Y-105807000D03*
D33*
X108051500Y-133350000D03*
X109626500Y-133350000D03*
D34*
X122529500Y-135255000D03*
X124104500Y-135255000D03*
D33*
X108051500Y-131572000D03*
X109626500Y-131572000D03*
D34*
X124104500Y-133350000D03*
X122529500Y-133350000D03*
D33*
X104800500Y-159131000D03*
X103225500Y-159131000D03*
D34*
X119532500Y-162179000D03*
X117957500Y-162179000D03*
D33*
X104800500Y-160782000D03*
X103225500Y-160782000D03*
D34*
X117957500Y-160401000D03*
X119532500Y-160401000D03*
D35*
X129463800Y-119077500D03*
X129463800Y-120952500D03*
D36*
X125427500Y-123190000D03*
X127302500Y-123190000D03*
D33*
X127152500Y-125095000D03*
X125577500Y-125095000D03*
D37*
X131927600Y-118615000D03*
X131927600Y-121415000D03*
D11*
X122555000Y-140843000D03*
D10*
X122555000Y-143383000D03*
X120015000Y-140843000D03*
X120015000Y-143383000D03*
X117475000Y-140843000D03*
X117475000Y-143383000D03*
X112522000Y-170307000D03*
X112522000Y-167767000D03*
X115062000Y-170307000D03*
X115062000Y-167767000D03*
X117602000Y-170307000D03*
D11*
X117602000Y-167767000D03*
D38*
X138747000Y-148844000D03*
X137097000Y-148844000D03*
X137097000Y-150622000D03*
X138747000Y-150622000D03*
D33*
X131597500Y-133858000D03*
X130022500Y-133858000D03*
X131597500Y-135636000D03*
X130022500Y-135636000D03*
D38*
X142939000Y-100584000D03*
X144589000Y-100584000D03*
D39*
X116332000Y-124815500D03*
X116332000Y-126390500D03*
X114554000Y-126390500D03*
X114554000Y-124815500D03*
X112776000Y-124815500D03*
X112776000Y-126390500D03*
D34*
X109626500Y-129794000D03*
X108051500Y-129794000D03*
D20*
X111379000Y-139256000D03*
X111379000Y-140906000D03*
X113792000Y-140906000D03*
X113792000Y-139256000D03*
D39*
X112522000Y-153441500D03*
X112522000Y-151866500D03*
X110744000Y-151866500D03*
X110744000Y-153441500D03*
X108966000Y-153441500D03*
X108966000Y-151866500D03*
D38*
X104838000Y-157480000D03*
X103188000Y-157480000D03*
X106490000Y-166370000D03*
X108140000Y-166370000D03*
D33*
X127152500Y-116078000D03*
X125577500Y-116078000D03*
D40*
X111955000Y-130169000D03*
X111955000Y-130969000D03*
X111955000Y-131769000D03*
X111955000Y-132569000D03*
X111955000Y-133369000D03*
X111955000Y-134169000D03*
X111955000Y-134969000D03*
X111955000Y-135769000D03*
D41*
X113405000Y-137219000D03*
X114205000Y-137219000D03*
X115005000Y-137219000D03*
X115805000Y-137219000D03*
X116605000Y-137219000D03*
X117405000Y-137219000D03*
X118205000Y-137219000D03*
X119005000Y-137219000D03*
D40*
X120455000Y-135769000D03*
X120455000Y-134969000D03*
X120455000Y-134169000D03*
X120455000Y-133369000D03*
X120455000Y-132569000D03*
X120455000Y-131769000D03*
X120455000Y-130969000D03*
X120455000Y-130169000D03*
D41*
X119005000Y-128719000D03*
X118205000Y-128719000D03*
X117405000Y-128719000D03*
X116605000Y-128719000D03*
X115805000Y-128719000D03*
X115005000Y-128719000D03*
X114205000Y-128719000D03*
X113405000Y-128719000D03*
X108579000Y-155643000D03*
X109379000Y-155643000D03*
X110179000Y-155643000D03*
X110979000Y-155643000D03*
X111779000Y-155643000D03*
X112579000Y-155643000D03*
X113379000Y-155643000D03*
X114179000Y-155643000D03*
D40*
X115629000Y-157093000D03*
X115629000Y-157893000D03*
X115629000Y-158693000D03*
X115629000Y-159493000D03*
X115629000Y-160293000D03*
X115629000Y-161093000D03*
X115629000Y-161893000D03*
X115629000Y-162693000D03*
D41*
X114179000Y-164143000D03*
X113379000Y-164143000D03*
X112579000Y-164143000D03*
X111779000Y-164143000D03*
X110979000Y-164143000D03*
X110179000Y-164143000D03*
X109379000Y-164143000D03*
X108579000Y-164143000D03*
D40*
X107129000Y-162693000D03*
X107129000Y-161893000D03*
X107129000Y-161093000D03*
X107129000Y-160293000D03*
X107129000Y-159493000D03*
X107129000Y-158693000D03*
X107129000Y-157893000D03*
X107129000Y-157093000D03*
D42*
X127315000Y-118915000D03*
X126365000Y-118915000D03*
X125415000Y-118915000D03*
X125415000Y-121115000D03*
X127315000Y-121115000D03*
D43*
X131064000Y-139770000D03*
X131064000Y-140970000D03*
X131064000Y-142170000D03*
X108839000Y-135198000D03*
X108839000Y-136398000D03*
X108839000Y-137598000D03*
X104013000Y-165030000D03*
X104013000Y-163830000D03*
X104013000Y-162630000D03*
D44*
X136665000Y-136144000D03*
X135115000Y-136144000D03*
D22*
X146037000Y-149098000D03*
X147587000Y-149098000D03*
D44*
X132575000Y-144272000D03*
X134125000Y-144272000D03*
D45*
X103124000Y-153302000D03*
X103124000Y-151752000D03*
X101219000Y-151752000D03*
X101219000Y-153302000D03*
X122936000Y-102883000D03*
X122936000Y-101333000D03*
D19*
X125476000Y-112382000D03*
X125476000Y-113932000D03*
D44*
X93586000Y-110109000D03*
X95136000Y-110109000D03*
X93586000Y-106807000D03*
X95136000Y-106807000D03*
D46*
X154178000Y-106680000D03*
X76200000Y-162560000D03*
D11*
X154432000Y-124460000D03*
D10*
X154432000Y-121920000D03*
X154432000Y-114300000D03*
D11*
X154432000Y-116840000D03*
D38*
X131635000Y-126746000D03*
X129985000Y-126746000D03*
D47*
X139763000Y-124079000D03*
X138113000Y-124079000D03*
D38*
X139779001Y-125734001D03*
X138129001Y-125734001D03*
D21*
X138176000Y-133033000D03*
X138176000Y-134683000D03*
D20*
X144018000Y-149035000D03*
X144018000Y-150685000D03*
D21*
X139954000Y-134683000D03*
X139954000Y-133033000D03*
D20*
X142240000Y-150685000D03*
X142240000Y-149035000D03*
X136398000Y-133033000D03*
X136398000Y-134683000D03*
D21*
X140462000Y-149035000D03*
X140462000Y-150685000D03*
X149352000Y-155638000D03*
X149352000Y-153988000D03*
X139446000Y-153988000D03*
X139446000Y-155638000D03*
D20*
X135636000Y-155003000D03*
X135636000Y-153353000D03*
X122936000Y-106489000D03*
X122936000Y-104839000D03*
X136779000Y-109157000D03*
X136779000Y-110807000D03*
D47*
X135064000Y-104013000D03*
X133414000Y-104013000D03*
X133286000Y-114046000D03*
X131636000Y-114046000D03*
X131636000Y-112395000D03*
X133286000Y-112395000D03*
D38*
X95313000Y-104902000D03*
X93663000Y-104902000D03*
X112839000Y-114173000D03*
X111189000Y-114173000D03*
D11*
X105410000Y-148844000D03*
D10*
X102870000Y-148844000D03*
X105410000Y-146304000D03*
X102870000Y-146304000D03*
X105410000Y-143764000D03*
X102870000Y-143764000D03*
X105410000Y-141224000D03*
X102870000Y-141224000D03*
D48*
X97972000Y-150922000D03*
X97972000Y-148922000D03*
X97972000Y-146922000D03*
X97972000Y-144922000D03*
X97972000Y-142922000D03*
X97972000Y-140922000D03*
X97972000Y-138922000D03*
X97972000Y-136922000D03*
X97972000Y-134922000D03*
X97972000Y-132922000D03*
X97972000Y-130922000D03*
X97972000Y-128922000D03*
X97972000Y-126922000D03*
X76272000Y-126922000D03*
X76272000Y-128922000D03*
X76272000Y-130922000D03*
X76272000Y-132922000D03*
X76272000Y-134922000D03*
X76272000Y-136922000D03*
X76272000Y-138922000D03*
X76272000Y-140922000D03*
X76272000Y-142922000D03*
X76272000Y-144922000D03*
X76272000Y-146922000D03*
X76272000Y-148922000D03*
X76272000Y-150922000D03*
X76272000Y-152922000D03*
X76272000Y-154922000D03*
X76272000Y-156922000D03*
D49*
X94122000Y-124842000D03*
X92122000Y-124842000D03*
X90122000Y-124842000D03*
X88122000Y-124842000D03*
X86122000Y-124842000D03*
X84122000Y-124842000D03*
X82122000Y-124842000D03*
X80122000Y-124842000D03*
D50*
X91877000Y-147957000D03*
D35*
X97028000Y-120576100D03*
X97028000Y-122451100D03*
D36*
X79021700Y-112420400D03*
X80896700Y-112420400D03*
D33*
X80746700Y-110540800D03*
X79171700Y-110540800D03*
D51*
X153924000Y-141605000D03*
D52*
X153924000Y-139065000D03*
X153924000Y-144145000D03*
D51*
X153924000Y-146685000D03*
X141478000Y-98044000D03*
D52*
X138938000Y-98044000D03*
D51*
X153924000Y-156845000D03*
D52*
X153924000Y-154305000D03*
X153924000Y-149225000D03*
D51*
X153924000Y-151765000D03*
X153924000Y-167005000D03*
D52*
X153924000Y-164465000D03*
X153924000Y-159385000D03*
D51*
X153924000Y-161925000D03*
D53*
X93446000Y-119533200D03*
X90906000Y-119533200D03*
X88366000Y-119533200D03*
X83286000Y-119533200D03*
X80746000Y-119533200D03*
X78206000Y-119533200D03*
X75666000Y-119533200D03*
D54*
X129540000Y-111125000D03*
D55*
X110490000Y-117856000D03*
X95758000Y-111760000D03*
X99822000Y-107315000D03*
X92202000Y-105537000D03*
D54*
X128143000Y-168656000D03*
X129413000Y-157480000D03*
X136652000Y-157353000D03*
X122555000Y-169672000D03*
X138684000Y-169672000D03*
X146558000Y-139954000D03*
X137668000Y-143002000D03*
X140462000Y-164592000D03*
X127127000Y-110998000D03*
X125222000Y-133350000D03*
X125222000Y-135255000D03*
X110617000Y-136398000D03*
X113665000Y-133477000D03*
X113665000Y-131826000D03*
X118745000Y-132588000D03*
X106807000Y-131572000D03*
X106807000Y-133350000D03*
X108712000Y-158750000D03*
X108712000Y-160274000D03*
X102108000Y-160782000D03*
X102108000Y-159004000D03*
X105813868Y-163217868D03*
X120904000Y-160528000D03*
X120904000Y-162052000D03*
X113792000Y-159512000D03*
X121666000Y-102870000D03*
X126365000Y-117475000D03*
X129540000Y-122174000D03*
X124460000Y-125095000D03*
X128905000Y-124968000D03*
X148844000Y-139954000D03*
X131318000Y-144272000D03*
X140335000Y-147955000D03*
X147320000Y-147828000D03*
X100076000Y-150876000D03*
X91186000Y-148844000D03*
X91877000Y-147957000D03*
X84836000Y-149352000D03*
X78486000Y-152908000D03*
X135128000Y-134620000D03*
X133096000Y-140970000D03*
X140970000Y-126263400D03*
X75438000Y-125476000D03*
X99060000Y-125476000D03*
X100076000Y-130810000D03*
X143002000Y-145034000D03*
X138938000Y-136144000D03*
X100076000Y-153416000D03*
X98602800Y-122478800D03*
X79146400Y-109321600D03*
X78384400Y-109321600D03*
X98602800Y-121666000D03*
X110490000Y-112522000D03*
X125476000Y-142748000D03*
X124714000Y-129540000D03*
D55*
X110490000Y-111379000D03*
X110490000Y-109855000D03*
D54*
X112014000Y-114173000D03*
X134239000Y-104013000D03*
X117602000Y-124714000D03*
X118745000Y-135001000D03*
X113792000Y-151892000D03*
X113792000Y-162052000D03*
X128524000Y-123190000D03*
X128905000Y-126314199D03*
X145542000Y-138938000D03*
X144018000Y-147955000D03*
X137922000Y-136144000D03*
X145796000Y-100584000D03*
X131572000Y-154178000D03*
X129032000Y-152400000D03*
X123190000Y-155194000D03*
X109982000Y-159512000D03*
X109982000Y-161036000D03*
X130556000Y-168656000D03*
X114808000Y-132588000D03*
X114808000Y-134112000D03*
X134112000Y-145542000D03*
X92456000Y-104394000D03*
X139573000Y-152908000D03*
X150495000Y-153924000D03*
D55*
X124694599Y-110216599D03*
X135235600Y-109708600D03*
D54*
X150622000Y-131318000D03*
X142448600Y-136525000D03*
X142009750Y-135786750D03*
X152273000Y-135255000D03*
X141478000Y-136271000D03*
X151586388Y-135198676D03*
X140995400Y-135742678D03*
X151104600Y-134747000D03*
X133604000Y-168402000D03*
X134112000Y-152146000D03*
X140462000Y-145034000D03*
X137922000Y-122682000D03*
X124968000Y-146558000D03*
X132080000Y-103886000D03*
X138176000Y-140970000D03*
X129794000Y-138176000D03*
X127254000Y-138176000D03*
X127254000Y-115062000D03*
X138176000Y-141630403D03*
X129286000Y-138684000D03*
X126746000Y-138684000D03*
X123952000Y-116840000D03*
X126746000Y-127508000D03*
X123952000Y-127762000D03*
X138176000Y-142290806D03*
X129133600Y-140462000D03*
X126238000Y-140462000D03*
X123926600Y-115874801D03*
X135890000Y-148844000D03*
X148971000Y-148844000D03*
X135890000Y-150622000D03*
X149225000Y-150622000D03*
X134493000Y-147701000D03*
X149860000Y-151257000D03*
X134874000Y-147072600D03*
X150241000Y-147193000D03*
X101536500Y-157543500D03*
X105664000Y-124968000D03*
X104140000Y-129794000D03*
X100330000Y-143764000D03*
X78740000Y-140970000D03*
X120142000Y-138176000D03*
X117602000Y-126492000D03*
X125984000Y-168656000D03*
X124206000Y-152146000D03*
X126746000Y-168656000D03*
X125984000Y-152146000D03*
X129286000Y-168656000D03*
X127508000Y-163576000D03*
X127508000Y-152146000D03*
X115570000Y-164846000D03*
X131572000Y-168402000D03*
X130556000Y-152146000D03*
X119888000Y-167259000D03*
X119888000Y-168249600D03*
X132588000Y-168402000D03*
X132334000Y-152146000D03*
X110998000Y-162560000D03*
X120650000Y-164084000D03*
X111760000Y-162560000D03*
X118110000Y-159004000D03*
X122174000Y-153924000D03*
X122174000Y-168402000D03*
X121412000Y-169672000D03*
X133350000Y-135890000D03*
X141986000Y-145034000D03*
X141986000Y-140462000D03*
X138684000Y-140462000D03*
X128016000Y-150368000D03*
X128016000Y-133858000D03*
X127762000Y-126314199D03*
X142494000Y-144272000D03*
X142748000Y-139700000D03*
X128574800Y-149606000D03*
X128778000Y-135636000D03*
X118999000Y-126492000D03*
X120777000Y-159512000D03*
X123952000Y-104775000D03*
X100076000Y-148844000D03*
X100076000Y-149860000D03*
X122809000Y-130175000D03*
X121539000Y-161417000D03*
X144399000Y-161290000D03*
X144272000Y-157480000D03*
X122555000Y-131445000D03*
X122809000Y-162560000D03*
X141859000Y-162687000D03*
X141859000Y-157607000D03*
D56*
X129550000Y-112214001D02*
X129550000Y-111135000D01*
X129550000Y-111135000D02*
X129540000Y-111125000D01*
D57*
X107874000Y-117811000D02*
X110445000Y-117811000D01*
X110445000Y-117811000D02*
X110490000Y-117856000D01*
X98374000Y-111211000D02*
X96307000Y-111211000D01*
X96307000Y-111211000D02*
X95758000Y-111760000D01*
X98374000Y-109011000D02*
X98374000Y-108763000D01*
X98374000Y-108763000D02*
X99822000Y-107315000D01*
X93411000Y-106807000D02*
X93411000Y-106746000D01*
X93411000Y-106746000D02*
X92202000Y-105537000D01*
D58*
X128242001Y-170195001D02*
X128242001Y-168755001D01*
X128242001Y-168755001D02*
X128143000Y-168656000D01*
D56*
X127442001Y-157495001D02*
X129397999Y-157495001D01*
X129397999Y-157495001D02*
X129413000Y-157480000D01*
X135392001Y-157395001D02*
X136609999Y-157395001D01*
X136609999Y-157395001D02*
X136652000Y-157353000D01*
X123942001Y-169695001D02*
X122578001Y-169695001D01*
X122578001Y-169695001D02*
X122555000Y-169672000D01*
X137292001Y-169695001D02*
X138660999Y-169695001D01*
X138660999Y-169695001D02*
X138684000Y-169672000D01*
D58*
X145066000Y-139990000D02*
X146522000Y-139990000D01*
X146522000Y-139990000D02*
X146558000Y-139954000D01*
X136366000Y-142990000D02*
X137656000Y-142990000D01*
X137656000Y-142990000D02*
X137668000Y-143002000D01*
X146109600Y-164597000D02*
X144272000Y-164597000D01*
X146812000Y-164597000D02*
X146109600Y-164597000D01*
X144272000Y-164597000D02*
X141732000Y-164597000D01*
X141732000Y-164597000D02*
X140467000Y-164597000D01*
X140467000Y-164597000D02*
X140462000Y-164592000D01*
D56*
X125476000Y-112207000D02*
X125918000Y-112207000D01*
X125918000Y-112207000D02*
X127127000Y-110998000D01*
X124104500Y-133350000D02*
X125222000Y-133350000D01*
X124104500Y-135255000D02*
X125222000Y-135255000D01*
X108839000Y-136398000D02*
X110617000Y-136398000D01*
X113557000Y-133369000D02*
X113665000Y-133477000D01*
X111955000Y-133369000D02*
X113557000Y-133369000D01*
X113608000Y-131769000D02*
X113665000Y-131826000D01*
X111955000Y-131769000D02*
X113608000Y-131769000D01*
X118764000Y-132569000D02*
X118745000Y-132588000D01*
X120455000Y-132569000D02*
X118764000Y-132569000D01*
X108051500Y-131572000D02*
X106807000Y-131572000D01*
X108051500Y-133350000D02*
X106807000Y-133350000D01*
X108655000Y-158693000D02*
X108712000Y-158750000D01*
X107129000Y-158693000D02*
X108655000Y-158693000D01*
X108693000Y-160293000D02*
X108712000Y-160274000D01*
X107129000Y-160293000D02*
X108693000Y-160293000D01*
X103225500Y-160782000D02*
X102108000Y-160782000D01*
X102235000Y-159131000D02*
X102108000Y-159004000D01*
X103225500Y-159131000D02*
X102235000Y-159131000D01*
X105201736Y-163830000D02*
X105813868Y-163217868D01*
X104013000Y-163830000D02*
X105201736Y-163830000D01*
X120777000Y-160401000D02*
X120904000Y-160528000D01*
X119532500Y-160401000D02*
X120777000Y-160401000D01*
X120777000Y-162179000D02*
X120904000Y-162052000D01*
X119532500Y-162179000D02*
X120777000Y-162179000D01*
X113811000Y-159493000D02*
X113792000Y-159512000D01*
X115629000Y-159493000D02*
X113811000Y-159493000D01*
X121679000Y-102883000D02*
X121666000Y-102870000D01*
X122936000Y-102883000D02*
X121679000Y-102883000D01*
D59*
X126365000Y-118915000D02*
X126365000Y-117475000D01*
X129463800Y-122097800D02*
X129540000Y-122174000D01*
X129463800Y-120952500D02*
X129463800Y-122097800D01*
X125577500Y-123340000D02*
X125427500Y-123190000D01*
X125577500Y-125095000D02*
X125577500Y-123340000D01*
X125577500Y-125095000D02*
X124460000Y-125095000D01*
X130035000Y-124968000D02*
X128905000Y-124968000D01*
D56*
X148857000Y-139941000D02*
X148844000Y-139954000D01*
X148857000Y-138684000D02*
X148857000Y-139941000D01*
X132575000Y-144272000D02*
X131318000Y-144272000D01*
X140462000Y-148082000D02*
X140335000Y-147955000D01*
X140462000Y-149035000D02*
X140462000Y-148082000D01*
X147587000Y-148095000D02*
X147320000Y-147828000D01*
X147587000Y-149098000D02*
X147587000Y-148095000D01*
D59*
X100030000Y-150922000D02*
X100076000Y-150876000D01*
X97972000Y-150922000D02*
X100030000Y-150922000D01*
X91877000Y-148153000D02*
X91186000Y-148844000D01*
X91877000Y-147957000D02*
X91877000Y-148153000D01*
X78472000Y-152922000D02*
X78486000Y-152908000D01*
X76272000Y-152922000D02*
X78472000Y-152922000D01*
D56*
X135115000Y-134633000D02*
X135128000Y-134620000D01*
X135115000Y-136144000D02*
X135115000Y-134633000D01*
X135191000Y-134683000D02*
X135128000Y-134620000D01*
X136398000Y-134683000D02*
X135191000Y-134683000D01*
X131064000Y-140970000D02*
X133096000Y-140970000D01*
D58*
X129159000Y-155080000D02*
X129159000Y-157607000D01*
D56*
X140440601Y-125734001D02*
X140970000Y-126263400D01*
X139779001Y-125734001D02*
X140440601Y-125734001D01*
X76272000Y-126310000D02*
X75438000Y-125476000D01*
X76272000Y-126922000D02*
X76272000Y-126310000D01*
X97972000Y-126564000D02*
X99060000Y-125476000D01*
X97972000Y-126922000D02*
X97972000Y-126564000D01*
X99964000Y-130922000D02*
X100076000Y-130810000D01*
X97972000Y-130922000D02*
X99964000Y-130922000D01*
D58*
X142966000Y-145070000D02*
X143002000Y-145034000D01*
X142966000Y-146590000D02*
X142966000Y-145070000D01*
X138466000Y-136616000D02*
X138938000Y-136144000D01*
X138466000Y-137890000D02*
X138466000Y-136616000D01*
D59*
X101219000Y-153302000D02*
X103124000Y-153302000D01*
X100190000Y-153302000D02*
X100076000Y-153416000D01*
X101219000Y-153302000D02*
X100190000Y-153302000D01*
X98575100Y-122451100D02*
X98602800Y-122478800D01*
X97028000Y-122451100D02*
X98575100Y-122451100D01*
X79021700Y-110690800D02*
X79171700Y-110540800D01*
X79021700Y-112420400D02*
X79021700Y-110690800D01*
X79171700Y-109346900D02*
X79146400Y-109321600D01*
X79171700Y-110540800D02*
X79171700Y-109346900D01*
D56*
X108085000Y-112522000D02*
X107874000Y-112311000D01*
X110490000Y-112522000D02*
X108085000Y-112522000D01*
D59*
X131635000Y-125018000D02*
X131585000Y-124968000D01*
X131635000Y-126746000D02*
X131635000Y-125018000D01*
X131064000Y-127317000D02*
X131635000Y-126746000D01*
X131064000Y-129413000D02*
X131064000Y-127317000D01*
D58*
X135368171Y-142490000D02*
X135110171Y-142748000D01*
X136366000Y-142490000D02*
X135368171Y-142490000D01*
X135110171Y-142748000D02*
X125476000Y-142748000D01*
X130937000Y-129540000D02*
X131064000Y-129413000D01*
X124714000Y-129540000D02*
X130937000Y-129540000D01*
D57*
X107874000Y-111211000D02*
X110322000Y-111211000D01*
X110322000Y-111211000D02*
X110490000Y-111379000D01*
X107874000Y-110111000D02*
X110234000Y-110111000D01*
X110234000Y-110111000D02*
X110490000Y-109855000D01*
D56*
X113114000Y-114173000D02*
X112014000Y-114173000D01*
X117500500Y-124815500D02*
X117602000Y-124714000D01*
X116332000Y-124815500D02*
X117500500Y-124815500D01*
X122243500Y-134969000D02*
X122529500Y-135255000D01*
X120455000Y-134969000D02*
X122243500Y-134969000D01*
X110445500Y-134169000D02*
X109626500Y-133350000D01*
X111955000Y-134169000D02*
X110445500Y-134169000D01*
X110623500Y-132569000D02*
X109626500Y-131572000D01*
X111955000Y-132569000D02*
X110623500Y-132569000D01*
X118777000Y-134969000D02*
X118745000Y-135001000D01*
X120455000Y-134969000D02*
X118777000Y-134969000D01*
X113766500Y-151866500D02*
X113792000Y-151892000D01*
X112522000Y-151866500D02*
X113766500Y-151866500D01*
X105162500Y-159493000D02*
X107129000Y-159493000D01*
X104800500Y-159131000D02*
X105162500Y-159493000D01*
X105111500Y-161093000D02*
X107129000Y-161093000D01*
X104800500Y-160782000D02*
X105111500Y-161093000D01*
X117671500Y-161893000D02*
X115629000Y-161893000D01*
X117957500Y-162179000D02*
X117671500Y-161893000D01*
X113951000Y-161893000D02*
X113792000Y-162052000D01*
X115629000Y-161893000D02*
X113951000Y-161893000D01*
X132334000Y-155278000D02*
X133985000Y-155278000D01*
X124333000Y-155278000D02*
X125984000Y-155278000D01*
X127635000Y-155278000D02*
X125984000Y-155278000D01*
D59*
X127315000Y-123177500D02*
X127302500Y-123190000D01*
X127315000Y-121115000D02*
X127315000Y-123177500D01*
X127302500Y-124945000D02*
X127152500Y-125095000D01*
X127302500Y-123190000D02*
X127302500Y-124945000D01*
X127302500Y-123190000D02*
X128524000Y-123190000D01*
X129336801Y-126746000D02*
X128905000Y-126314199D01*
X129985000Y-126746000D02*
X129336801Y-126746000D01*
D56*
X145872000Y-138684000D02*
X147307000Y-138684000D01*
X145567500Y-138912500D02*
X145542000Y-138938000D01*
X145643500Y-138912500D02*
X145567500Y-138912500D01*
X145066000Y-139490000D02*
X145643500Y-138912500D01*
X145643500Y-138912500D02*
X145872000Y-138684000D01*
X134907000Y-143490000D02*
X136366000Y-143490000D01*
X134125000Y-144272000D02*
X134907000Y-143490000D01*
X144018000Y-149035000D02*
X144018000Y-147955000D01*
X143466000Y-147403000D02*
X144018000Y-147955000D01*
X143466000Y-146590000D02*
X143466000Y-147403000D01*
X146037000Y-149098000D02*
X146037000Y-149085000D01*
X144907000Y-147955000D02*
X144018000Y-147955000D01*
X146037000Y-149085000D02*
X144907000Y-147955000D01*
X137966000Y-137445000D02*
X136665000Y-136144000D01*
X137966000Y-137890000D02*
X137966000Y-137445000D01*
X137966000Y-134893000D02*
X138176000Y-134683000D01*
X137966000Y-136188000D02*
X137922000Y-136144000D01*
X137966000Y-137890000D02*
X137966000Y-136188000D01*
X137966000Y-136188000D02*
X137966000Y-134893000D01*
X144589000Y-100584000D02*
X145796000Y-100584000D01*
D58*
X135636000Y-155003000D02*
X133985000Y-155003000D01*
X131488000Y-154262000D02*
X131572000Y-154178000D01*
X131488000Y-155278000D02*
X131488000Y-154262000D01*
D56*
X130683000Y-155278000D02*
X131488000Y-155278000D01*
X131488000Y-155278000D02*
X132334000Y-155278000D01*
D58*
X129159000Y-152527000D02*
X129032000Y-152400000D01*
X129159000Y-153530000D02*
X129159000Y-152527000D01*
X123381000Y-155003000D02*
X123190000Y-155194000D01*
X124333000Y-155003000D02*
X123381000Y-155003000D01*
D56*
X109963000Y-159493000D02*
X109982000Y-159512000D01*
X107129000Y-159493000D02*
X109963000Y-159493000D01*
X109925000Y-161093000D02*
X109982000Y-161036000D01*
X107129000Y-161093000D02*
X109925000Y-161093000D01*
X130442001Y-168769999D02*
X130556000Y-168656000D01*
X130442001Y-170195001D02*
X130442001Y-168769999D01*
X114789000Y-132569000D02*
X114808000Y-132588000D01*
X111955000Y-132569000D02*
X114789000Y-132569000D01*
X114751000Y-134169000D02*
X114808000Y-134112000D01*
X111955000Y-134169000D02*
X114751000Y-134169000D01*
D58*
X134125000Y-145529000D02*
X134112000Y-145542000D01*
X134125000Y-144272000D02*
X134125000Y-145529000D01*
D60*
X92964000Y-104902000D02*
X92456000Y-104394000D01*
X93663000Y-104902000D02*
X92964000Y-104902000D01*
D58*
X137541000Y-153988000D02*
X139446000Y-153988000D01*
X139446000Y-153035000D02*
X139573000Y-152908000D01*
X139446000Y-153988000D02*
X139446000Y-153035000D01*
X150431000Y-153988000D02*
X150495000Y-153924000D01*
X149352000Y-153988000D02*
X150431000Y-153988000D01*
X135339000Y-104013000D02*
X134239000Y-104013000D01*
X135189000Y-105807000D02*
X135189000Y-104163000D01*
X135189000Y-104163000D02*
X135339000Y-104013000D01*
D56*
X125483001Y-114114001D02*
X125476000Y-114107000D01*
X127150000Y-114114001D02*
X125483001Y-114114001D01*
D57*
X125177002Y-102697000D02*
X125987001Y-101887001D01*
X124694599Y-103179403D02*
X125177002Y-102697000D01*
X125476000Y-114107000D02*
X125476000Y-113882000D01*
D56*
X125433000Y-101333000D02*
X125987001Y-101887001D01*
X122936000Y-101333000D02*
X125433000Y-101333000D01*
X124484198Y-106489000D02*
X124694599Y-106699401D01*
X122936000Y-106489000D02*
X124484198Y-106489000D01*
D57*
X124694599Y-106699401D02*
X124694599Y-103179403D01*
X124694599Y-110216599D02*
X124694599Y-106699401D01*
D56*
X136334000Y-110807000D02*
X135235600Y-109708600D01*
X136779000Y-110807000D02*
X136334000Y-110807000D01*
D61*
X143042000Y-124079000D02*
X139763000Y-124079000D01*
X144185000Y-125222000D02*
X143042000Y-124079000D01*
X144185000Y-125222000D02*
X144185000Y-121960000D01*
X135235600Y-113010600D02*
X135235600Y-109708600D01*
X144185000Y-121960000D02*
X135235600Y-113010600D01*
X143640000Y-121415000D02*
X144185000Y-121960000D01*
X131927600Y-121415000D02*
X143640000Y-121415000D01*
D57*
X125476000Y-113932000D02*
X124092000Y-113932000D01*
X124092000Y-113932000D02*
X123952000Y-113792000D01*
X123952000Y-110959198D02*
X124694599Y-110216599D01*
X123952000Y-113792000D02*
X123952000Y-110959198D01*
D61*
X153670000Y-125222000D02*
X154432000Y-124460000D01*
X149185000Y-125222000D02*
X153670000Y-125222000D01*
D58*
X145066000Y-140490000D02*
X150086000Y-140490000D01*
X150086000Y-140490000D02*
X150622000Y-139954000D01*
X150622000Y-131318000D02*
X150622000Y-139954000D01*
X143466000Y-129838000D02*
X143764000Y-129540000D01*
X143466000Y-137890000D02*
X143466000Y-129838000D01*
X142466000Y-136542400D02*
X142448600Y-136525000D01*
X142466000Y-137890000D02*
X142466000Y-136542400D01*
X141966000Y-135830500D02*
X142009750Y-135786750D01*
X141966000Y-137890000D02*
X141966000Y-135830500D01*
X152273000Y-135255000D02*
X152273000Y-133477000D01*
X152400000Y-133350000D02*
X154432000Y-133350000D01*
X152273000Y-133477000D02*
X152400000Y-133350000D01*
X141466000Y-136283000D02*
X141478000Y-136271000D01*
X141466000Y-137890000D02*
X141466000Y-136283000D01*
X151840387Y-134944677D02*
X151840387Y-131115613D01*
X151586388Y-135198676D02*
X151840387Y-134944677D01*
X152146000Y-130810000D02*
X154432000Y-130810000D01*
X151840387Y-131115613D02*
X152146000Y-130810000D01*
X140966000Y-137890000D02*
X140966000Y-135772078D01*
X140966000Y-135772078D02*
X140995400Y-135742678D01*
X151638000Y-128270000D02*
X154432000Y-128270000D01*
X151104600Y-128803400D02*
X151638000Y-128270000D01*
X151104600Y-134747000D02*
X151104600Y-128803400D01*
X133742001Y-168540001D02*
X133604000Y-168402000D01*
X133742001Y-170195001D02*
X133742001Y-168540001D01*
X134112000Y-153226000D02*
X133985000Y-153353000D01*
X134112000Y-152146000D02*
X134112000Y-153226000D01*
D56*
X139966000Y-134695000D02*
X139954000Y-134683000D01*
X139966000Y-137890000D02*
X139966000Y-134695000D01*
X140966000Y-147761000D02*
X142240000Y-149035000D01*
X140966000Y-146590000D02*
X140966000Y-147761000D01*
X138113000Y-125718000D02*
X138129001Y-125734001D01*
X138113000Y-124079000D02*
X138113000Y-125718000D01*
D58*
X140466000Y-145038000D02*
X140462000Y-145034000D01*
X140466000Y-146590000D02*
X140466000Y-145038000D01*
X137922000Y-123888000D02*
X138113000Y-124079000D01*
X137922000Y-122682000D02*
X137922000Y-123888000D01*
X133289000Y-104163000D02*
X133139000Y-104013000D01*
X133289000Y-105807000D02*
X133289000Y-104163000D01*
X125000000Y-146590000D02*
X124968000Y-146558000D01*
X137966000Y-146590000D02*
X125000000Y-146590000D01*
X133287000Y-103886000D02*
X133414000Y-104013000D01*
X132080000Y-103886000D02*
X133287000Y-103886000D01*
D56*
X110576000Y-114511000D02*
X110914000Y-114173000D01*
X107874000Y-114511000D02*
X110576000Y-114511000D01*
D58*
X138196000Y-140990000D02*
X138176000Y-140970000D01*
X145066000Y-140990000D02*
X138196000Y-140990000D01*
X129794000Y-138176000D02*
X127254000Y-138176000D01*
X125730000Y-115062000D02*
X127254000Y-115062000D01*
X111857000Y-115316000D02*
X125476000Y-115316000D01*
X111189000Y-114648000D02*
X111857000Y-115316000D01*
X111189000Y-114173000D02*
X111189000Y-114648000D01*
X125476000Y-115316000D02*
X125730000Y-115062000D01*
X145066000Y-141990000D02*
X144022000Y-141990000D01*
X143662403Y-141630403D02*
X138176000Y-141630403D01*
X144022000Y-141990000D02*
X143662403Y-141630403D01*
X129286000Y-138684000D02*
X126746000Y-138684000D01*
D56*
X123823000Y-116711000D02*
X123952000Y-116840000D01*
X107874000Y-116711000D02*
X123823000Y-116711000D01*
D58*
X124206000Y-127508000D02*
X123952000Y-127762000D01*
X126746000Y-127508000D02*
X124206000Y-127508000D01*
X138375194Y-142490000D02*
X138176000Y-142290806D01*
X145066000Y-142490000D02*
X138375194Y-142490000D01*
X129133600Y-140462000D02*
X126238000Y-140462000D01*
D56*
X110602775Y-115874801D02*
X123901199Y-115874801D01*
X110338974Y-115611000D02*
X110602775Y-115874801D01*
X107874000Y-115611000D02*
X110338974Y-115611000D01*
X123901199Y-115874801D02*
X123926600Y-115874801D01*
X110001500Y-130169000D02*
X109626500Y-129794000D01*
X111955000Y-130169000D02*
X110001500Y-130169000D01*
X113405000Y-137219000D02*
X113405000Y-137928000D01*
X112077000Y-139256000D02*
X111379000Y-139256000D01*
X113405000Y-137928000D02*
X112077000Y-139256000D01*
X114205000Y-138843000D02*
X113792000Y-139256000D01*
X114205000Y-137219000D02*
X114205000Y-138843000D01*
X110179000Y-154006500D02*
X110744000Y-153441500D01*
X110179000Y-155643000D02*
X110179000Y-154006500D01*
X133286000Y-114046000D02*
X133286000Y-112395000D01*
X133286000Y-108760000D02*
X134239000Y-107807000D01*
X133286000Y-112395000D02*
X133286000Y-108760000D01*
X135429000Y-107807000D02*
X134239000Y-107807000D01*
X136779000Y-109157000D02*
X135429000Y-107807000D01*
X122510500Y-133369000D02*
X122529500Y-133350000D01*
X120455000Y-133369000D02*
X122510500Y-133369000D01*
X115737000Y-160401000D02*
X115629000Y-160293000D01*
X117957500Y-160401000D02*
X115737000Y-160401000D01*
D60*
X98372000Y-110109000D02*
X98374000Y-110111000D01*
X95311000Y-110109000D02*
X98372000Y-110109000D01*
X95461000Y-106957000D02*
X95311000Y-106807000D01*
X95461000Y-108458000D02*
X95461000Y-106957000D01*
X95136000Y-105079000D02*
X95313000Y-104902000D01*
X95136000Y-106807000D02*
X95136000Y-105079000D01*
D61*
X131465100Y-119077500D02*
X131927600Y-118615000D01*
X129463800Y-119077500D02*
X131465100Y-119077500D01*
D59*
X129301300Y-118915000D02*
X129463800Y-119077500D01*
X127315000Y-118915000D02*
X129301300Y-118915000D01*
X127315000Y-116240500D02*
X127315000Y-118915000D01*
X127152500Y-116078000D02*
X127315000Y-116240500D01*
X128626399Y-119914901D02*
X129463800Y-119077500D01*
X97689199Y-119914901D02*
X128626399Y-119914901D01*
X97028000Y-120576100D02*
X97689199Y-119914901D01*
X92434427Y-121061627D02*
X90906000Y-119533200D01*
X96542473Y-121061627D02*
X92434427Y-121061627D01*
X97028000Y-120576100D02*
X96542473Y-121061627D01*
D56*
X137097000Y-148844000D02*
X135890000Y-148844000D01*
X153385171Y-139603829D02*
X153924000Y-139065000D01*
X151511000Y-139603829D02*
X153385171Y-139603829D01*
X150243819Y-140871010D02*
X151511000Y-139603829D01*
X149577990Y-140871010D02*
X150243819Y-140871010D01*
X148971000Y-141478000D02*
X149577990Y-140871010D01*
X148971000Y-148844000D02*
X148971000Y-141478000D01*
X137097000Y-150622000D02*
X135890000Y-150622000D01*
X149225000Y-150622000D02*
X149529801Y-150317199D01*
X153924000Y-144145000D02*
X149987000Y-144145000D01*
X149529801Y-144602199D02*
X149529801Y-147497801D01*
X149987000Y-144145000D02*
X149529801Y-144602199D01*
X149529801Y-147497801D02*
X149529801Y-146354801D01*
X149529801Y-150317199D02*
X149529801Y-147497801D01*
X141478000Y-100584000D02*
X142939000Y-100584000D01*
X138938000Y-98044000D02*
X141478000Y-100584000D01*
X115939408Y-147701000D02*
X134493000Y-147701000D01*
X111379000Y-143140592D02*
X115939408Y-147701000D01*
X111379000Y-140906000D02*
X111379000Y-143140592D01*
X150876000Y-151257000D02*
X153924000Y-154305000D01*
X149860000Y-151257000D02*
X150876000Y-151257000D01*
X113792000Y-140906000D02*
X113792000Y-141409106D01*
X113792000Y-141409106D02*
X113792000Y-144907000D01*
X134829799Y-147116801D02*
X134874000Y-147072600D01*
X116001801Y-147116801D02*
X134829799Y-147116801D01*
X113792000Y-144907000D02*
X116001801Y-147116801D01*
X152273000Y-149225000D02*
X153924000Y-149225000D01*
X150241000Y-147193000D02*
X152273000Y-149225000D01*
X101600000Y-157480000D02*
X101536500Y-157543500D01*
X103188000Y-157480000D02*
X101600000Y-157480000D01*
X106490000Y-166370000D02*
X106490000Y-168085000D01*
X106490000Y-168085000D02*
X110236000Y-171831000D01*
X110236000Y-171831000D02*
X141859000Y-171831000D01*
X141859000Y-171831000D02*
X149352000Y-164338000D01*
X149352000Y-164338000D02*
X149352000Y-160147000D01*
X150114000Y-159385000D02*
X153924000Y-159385000D01*
X149352000Y-160147000D02*
X150114000Y-159385000D01*
X112623500Y-124968000D02*
X112776000Y-124815500D01*
X105664000Y-124968000D02*
X112623500Y-124968000D01*
X97972000Y-146922000D02*
X101456000Y-146922000D01*
X102870000Y-148336000D02*
X102870000Y-148844000D01*
X101456000Y-146922000D02*
X102870000Y-148336000D01*
X104140000Y-129794000D02*
X108051500Y-129794000D01*
X101488000Y-144922000D02*
X102870000Y-146304000D01*
X97972000Y-144922000D02*
X101488000Y-144922000D01*
X102870000Y-143764000D02*
X100330000Y-143764000D01*
X76320000Y-140970000D02*
X76272000Y-140922000D01*
X78740000Y-140970000D02*
X76320000Y-140970000D01*
X102870000Y-136420000D02*
X102870000Y-141224000D01*
X99372000Y-132922000D02*
X102870000Y-136420000D01*
X97972000Y-132922000D02*
X99372000Y-132922000D01*
D58*
X119005000Y-137219000D02*
X119005000Y-138551000D01*
X119005000Y-138551000D02*
X119265000Y-138811000D01*
X119265000Y-138811000D02*
X122174000Y-138811000D01*
X122555000Y-139192000D02*
X122555000Y-140843000D01*
X122174000Y-138811000D02*
X122555000Y-139192000D01*
X120455000Y-137863000D02*
X120455000Y-135769000D01*
X120142000Y-138176000D02*
X120455000Y-137863000D01*
D56*
X115805000Y-126917500D02*
X116332000Y-126390500D01*
X115805000Y-128719000D02*
X115805000Y-126917500D01*
D58*
X116433500Y-126492000D02*
X116332000Y-126390500D01*
X117602000Y-126492000D02*
X116433500Y-126492000D01*
X120015000Y-143383000D02*
X118745000Y-142113000D01*
X118745000Y-142113000D02*
X118745000Y-139319000D01*
X118205000Y-138779000D02*
X118205000Y-137219000D01*
X118745000Y-139319000D02*
X118205000Y-138779000D01*
X126042001Y-168714001D02*
X125984000Y-168656000D01*
X126042001Y-170195001D02*
X126042001Y-168714001D01*
X124206000Y-153226000D02*
X124333000Y-153353000D01*
X124206000Y-152146000D02*
X124206000Y-153226000D01*
X127142001Y-169052001D02*
X126746000Y-168656000D01*
X127142001Y-170195001D02*
X127142001Y-169052001D01*
X125984000Y-152146000D02*
X125984000Y-153353000D01*
X114179000Y-164143000D02*
X114179000Y-165360000D01*
X114179000Y-165360000D02*
X114554000Y-165735000D01*
X114554000Y-165735000D02*
X117348000Y-165735000D01*
X117602000Y-165989000D02*
X117602000Y-167767000D01*
X117348000Y-165735000D02*
X117602000Y-165989000D01*
X125857000Y-167767000D02*
X126746000Y-168656000D01*
X117602000Y-167767000D02*
X125857000Y-167767000D01*
X129286000Y-170139000D02*
X129342001Y-170195001D01*
X129286000Y-168656000D02*
X129286000Y-170139000D01*
X115629000Y-162693000D02*
X116512000Y-163576000D01*
X116512000Y-163576000D02*
X127508000Y-163576000D01*
X127508000Y-153226000D02*
X127635000Y-153353000D01*
X127508000Y-152146000D02*
X127508000Y-153226000D01*
X115570000Y-162752000D02*
X115629000Y-162693000D01*
X115570000Y-164846000D02*
X115570000Y-162752000D01*
X131542001Y-168431999D02*
X131572000Y-168402000D01*
X131542001Y-170195001D02*
X131542001Y-168431999D01*
X130556000Y-153226000D02*
X130683000Y-153353000D01*
X130556000Y-152146000D02*
X130556000Y-153226000D01*
X115062000Y-170307000D02*
X113792000Y-169037000D01*
X113792000Y-169037000D02*
X113792000Y-166116000D01*
X113379000Y-165703000D02*
X113379000Y-164143000D01*
X113792000Y-166116000D02*
X113379000Y-165703000D01*
X131572000Y-168402000D02*
X130429000Y-167259000D01*
X130429000Y-167259000D02*
X119888000Y-167259000D01*
X116523399Y-168845601D02*
X115062000Y-170307000D01*
X119291999Y-168845601D02*
X116523399Y-168845601D01*
X119888000Y-168249600D02*
X119291999Y-168845601D01*
X132642001Y-168456001D02*
X132588000Y-168402000D01*
X132642001Y-170195001D02*
X132642001Y-168456001D01*
X132334000Y-152146000D02*
X132334000Y-153353000D01*
X110979000Y-162579000D02*
X110998000Y-162560000D01*
X110979000Y-164143000D02*
X110979000Y-162579000D01*
X128270000Y-164084000D02*
X132588000Y-168402000D01*
X120650000Y-164084000D02*
X128270000Y-164084000D01*
X132342001Y-157495001D02*
X133627002Y-156210000D01*
X136339610Y-154056610D02*
X135636000Y-153353000D01*
X136339610Y-155380538D02*
X136339610Y-154056610D01*
X135510148Y-156210000D02*
X136339610Y-155380538D01*
X133627002Y-156210000D02*
X135510148Y-156210000D01*
X111779000Y-162579000D02*
X111760000Y-162560000D01*
X111779000Y-164143000D02*
X111779000Y-162579000D01*
X130833002Y-159004000D02*
X132342001Y-157495001D01*
X118110000Y-159004000D02*
X130833002Y-159004000D01*
D56*
X112075700Y-153441500D02*
X112522000Y-153441500D01*
X110979000Y-154538200D02*
X112075700Y-153441500D01*
X110979000Y-155643000D02*
X110979000Y-154538200D01*
D58*
X112522000Y-153441500D02*
X121437500Y-153441500D01*
X121920000Y-153924000D02*
X122174000Y-153924000D01*
X121437500Y-153441500D02*
X121920000Y-153924000D01*
X122174000Y-168910000D02*
X121412000Y-169672000D01*
X122174000Y-168402000D02*
X122174000Y-168910000D01*
D61*
X154432000Y-116840000D02*
X154432000Y-121920000D01*
D56*
X136398000Y-133033000D02*
X138176000Y-133033000D01*
X139954000Y-133033000D02*
X138176000Y-133033000D01*
X140462000Y-150685000D02*
X142240000Y-150685000D01*
X144018000Y-150685000D02*
X142240000Y-150685000D01*
X133737000Y-139770000D02*
X134112000Y-140145000D01*
X131064000Y-139770000D02*
X133737000Y-139770000D01*
X135457000Y-141490000D02*
X134112000Y-140145000D01*
X136366000Y-141490000D02*
X135457000Y-141490000D01*
X133737000Y-142170000D02*
X134112000Y-141795000D01*
X131064000Y-142170000D02*
X133737000Y-142170000D01*
X134307000Y-141990000D02*
X134112000Y-141795000D01*
X136366000Y-141990000D02*
X134307000Y-141990000D01*
X138966000Y-148625000D02*
X138747000Y-148844000D01*
X138966000Y-146590000D02*
X138966000Y-148625000D01*
X139466000Y-149903000D02*
X139466000Y-146590000D01*
X138747000Y-150622000D02*
X139466000Y-149903000D01*
D58*
X131597500Y-134137500D02*
X133350000Y-135890000D01*
X131597500Y-133858000D02*
X131597500Y-134137500D01*
X141966000Y-145054000D02*
X141986000Y-145034000D01*
X141966000Y-146590000D02*
X141966000Y-145054000D01*
X141986000Y-140462000D02*
X138684000Y-140462000D01*
D56*
X112242500Y-150368000D02*
X128016000Y-150368000D01*
X110744000Y-151866500D02*
X112242500Y-150368000D01*
X128016000Y-133858000D02*
X130022500Y-133858000D01*
D58*
X117090554Y-125798610D02*
X127246411Y-125798610D01*
X116773554Y-125481610D02*
X117090554Y-125798610D01*
X115220110Y-125481610D02*
X116773554Y-125481610D01*
X127246411Y-125798610D02*
X127762000Y-126314199D01*
X114554000Y-124815500D02*
X115220110Y-125481610D01*
X131597500Y-135636000D02*
X134730101Y-138768601D01*
X142494000Y-146562000D02*
X142494000Y-144272000D01*
X142466000Y-146590000D02*
X142494000Y-146562000D01*
X136567399Y-138768601D02*
X137117601Y-138768601D01*
X134730101Y-138768601D02*
X136567399Y-138768601D01*
X138049000Y-139700000D02*
X142748000Y-139700000D01*
X137117601Y-138768601D02*
X138049000Y-139700000D01*
D56*
X111226500Y-149606000D02*
X128574800Y-149606000D01*
X108966000Y-151866500D02*
X111226500Y-149606000D01*
X128778000Y-135636000D02*
X130022500Y-135636000D01*
D58*
X149293000Y-155697000D02*
X149352000Y-155638000D01*
X146812000Y-155697000D02*
X149293000Y-155697000D01*
X119005000Y-126498000D02*
X118999000Y-126492000D01*
X119005000Y-128719000D02*
X119005000Y-126498000D01*
X120777000Y-159512000D02*
X145542000Y-159512000D01*
X146812000Y-158242000D02*
X146812000Y-155697000D01*
X145542000Y-159512000D02*
X146812000Y-158242000D01*
D56*
X115005000Y-126841500D02*
X114554000Y-126390500D01*
X115005000Y-128719000D02*
X115005000Y-126841500D01*
X113405000Y-127019500D02*
X112776000Y-126390500D01*
X113405000Y-128719000D02*
X113405000Y-127019500D01*
X109379000Y-153854500D02*
X108966000Y-153441500D01*
X109379000Y-155643000D02*
X109379000Y-153854500D01*
X105251000Y-157893000D02*
X104838000Y-157480000D01*
X107129000Y-157893000D02*
X105251000Y-157893000D01*
X108140000Y-164582000D02*
X108579000Y-164143000D01*
X108140000Y-166370000D02*
X108140000Y-164582000D01*
X130591999Y-113164001D02*
X131361000Y-112395000D01*
X129550000Y-113164001D02*
X130591999Y-113164001D01*
D57*
X131361000Y-105356000D02*
X127892001Y-101887001D01*
X131361000Y-112395000D02*
X131361000Y-105356000D01*
D56*
X123888000Y-104839000D02*
X123952000Y-104775000D01*
X122936000Y-104839000D02*
X123888000Y-104839000D01*
X131361000Y-114046000D02*
X131211000Y-114046000D01*
X130606200Y-114800800D02*
X131361000Y-114046000D01*
X129013157Y-114800800D02*
X130606200Y-114800800D01*
X127150000Y-112214001D02*
X127150000Y-112937643D01*
X127150000Y-112937643D02*
X129013157Y-114800800D01*
D59*
X125415000Y-116240500D02*
X125577500Y-116078000D01*
X125415000Y-118915000D02*
X125415000Y-116240500D01*
D56*
X104792000Y-165030000D02*
X104013000Y-165030000D01*
X107129000Y-162693000D02*
X104792000Y-165030000D01*
X105568358Y-162630000D02*
X104013000Y-162630000D01*
X106305358Y-161893000D02*
X105568358Y-162630000D01*
X107129000Y-161893000D02*
X106305358Y-161893000D01*
D59*
X99998000Y-148922000D02*
X100076000Y-148844000D01*
X97972000Y-148922000D02*
X99998000Y-148922000D01*
X100076000Y-148844000D02*
X100076000Y-149860000D01*
X101219000Y-150643790D02*
X101219000Y-151752000D01*
X100435210Y-149860000D02*
X101219000Y-150643790D01*
X100076000Y-149860000D02*
X100435210Y-149860000D01*
X103124000Y-151752000D02*
X101219000Y-151752000D01*
X80746700Y-112270400D02*
X80896700Y-112420400D01*
X80746700Y-110540800D02*
X80746700Y-112270400D01*
X80896700Y-119382500D02*
X80746000Y-119533200D01*
X80896700Y-112420400D02*
X80896700Y-119382500D01*
X96572000Y-148922000D02*
X88416800Y-140766800D01*
X97972000Y-148922000D02*
X96572000Y-148922000D01*
X88416800Y-140766800D02*
X81330800Y-140766800D01*
X81330800Y-140766800D02*
X80010000Y-139446000D01*
X80010000Y-139446000D02*
X80010000Y-127914400D01*
X80010000Y-127914400D02*
X78435200Y-126339600D01*
X78435200Y-121844000D02*
X80746000Y-119533200D01*
X78435200Y-126339600D02*
X78435200Y-121844000D01*
D60*
X87503000Y-108458000D02*
X93261000Y-108458000D01*
X93261000Y-109959000D02*
X93411000Y-110109000D01*
X93261000Y-108458000D02*
X93261000Y-109959000D01*
D58*
X140365601Y-154718399D02*
X140556601Y-154718399D01*
X139446000Y-155638000D02*
X140365601Y-154718399D01*
X140556601Y-154718399D02*
X140970000Y-154305000D01*
X142880000Y-154305000D02*
X144272000Y-155697000D01*
X140970000Y-154305000D02*
X142880000Y-154305000D01*
X122803000Y-130169000D02*
X122809000Y-130175000D01*
X120455000Y-130169000D02*
X122803000Y-130169000D01*
X144272000Y-161417000D02*
X144399000Y-161290000D01*
X121539000Y-161417000D02*
X144272000Y-161417000D01*
X144272000Y-157480000D02*
X144272000Y-155697000D01*
X141162390Y-156266610D02*
X141732000Y-155697000D01*
X138169610Y-156266610D02*
X141162390Y-156266610D01*
X137541000Y-155638000D02*
X138169610Y-156266610D01*
X122079000Y-130969000D02*
X122555000Y-131445000D01*
X120455000Y-130969000D02*
X122079000Y-130969000D01*
X141732000Y-162560000D02*
X141859000Y-162687000D01*
X122809000Y-162560000D02*
X141732000Y-162560000D01*
X141859000Y-155824000D02*
X141732000Y-155697000D01*
X141859000Y-157607000D02*
X141859000Y-155824000D01*
D56*
X109068000Y-134969000D02*
X111955000Y-134969000D01*
X108839000Y-135198000D02*
X109068000Y-134969000D01*
X111955000Y-135887026D02*
X111955000Y-135769000D01*
X110244026Y-137598000D02*
X111955000Y-135887026D01*
X108839000Y-137598000D02*
X110244026Y-137598000D01*
M02*
