G04 #@! TF.GenerationSoftware,KiCad,Pcbnew,(6.0.7)*
G04 #@! TF.CreationDate,2022-09-05T18:06:52-05:00*
G04 #@! TF.ProjectId,control_pcb,636f6e74-726f-46c5-9f70-63622e6b6963,3.1*
G04 #@! TF.SameCoordinates,Original*
G04 #@! TF.FileFunction,Paste,Top*
G04 #@! TF.FilePolarity,Positive*
%FSLAX46Y46*%
G04 Gerber Fmt 4.6, Leading zero omitted, Abs format (unit mm)*
G04 Created by KiCad (PCBNEW (6.0.7)) date 2022-09-05 18:06:52*
%MOMM*%
%LPD*%
G01*
G04 APERTURE LIST*
G04 Aperture macros list*
%AMRoundRect*
0 Rectangle with rounded corners*
0 $1 Rounding radius*
0 $2 $3 $4 $5 $6 $7 $8 $9 X,Y pos of 4 corners*
0 Add a 4 corners polygon primitive as box body*
4,1,4,$2,$3,$4,$5,$6,$7,$8,$9,$2,$3,0*
0 Add four circle primitives for the rounded corners*
1,1,$1+$1,$2,$3*
1,1,$1+$1,$4,$5*
1,1,$1+$1,$6,$7*
1,1,$1+$1,$8,$9*
0 Add four rect primitives between the rounded corners*
20,1,$1+$1,$2,$3,$4,$5,0*
20,1,$1+$1,$4,$5,$6,$7,0*
20,1,$1+$1,$6,$7,$8,$9,0*
20,1,$1+$1,$8,$9,$2,$3,0*%
G04 Aperture macros list end*
%ADD10C,0.000100*%
%ADD11R,0.250000X1.300000*%
%ADD12R,1.300000X0.250000*%
%ADD13R,0.700000X2.000000*%
%ADD14R,1.000000X2.600000*%
%ADD15R,1.500000X2.600000*%
%ADD16R,2.700000X1.400000*%
%ADD17R,1.200000X1.200000*%
%ADD18RoundRect,0.225000X0.250000X-0.225000X0.250000X0.225000X-0.250000X0.225000X-0.250000X-0.225000X0*%
%ADD19RoundRect,0.200000X0.275000X-0.200000X0.275000X0.200000X-0.275000X0.200000X-0.275000X-0.200000X0*%
%ADD20RoundRect,0.200000X-0.275000X0.200000X-0.275000X-0.200000X0.275000X-0.200000X0.275000X0.200000X0*%
%ADD21RoundRect,0.225000X0.225000X0.250000X-0.225000X0.250000X-0.225000X-0.250000X0.225000X-0.250000X0*%
%ADD22R,1.200000X0.900000*%
%ADD23R,0.800000X0.550000*%
%ADD24R,1.800000X0.700000*%
%ADD25R,1.800000X0.800000*%
%ADD26R,1.100000X1.500000*%
%ADD27R,0.800000X0.900000*%
%ADD28RoundRect,0.218750X0.218750X0.256250X-0.218750X0.256250X-0.218750X-0.256250X0.218750X-0.256250X0*%
%ADD29RoundRect,0.218750X-0.218750X-0.256250X0.218750X-0.256250X0.218750X0.256250X-0.218750X0.256250X0*%
%ADD30RoundRect,0.243750X-0.456250X0.243750X-0.456250X-0.243750X0.456250X-0.243750X0.456250X0.243750X0*%
%ADD31RoundRect,0.243750X0.243750X0.456250X-0.243750X0.456250X-0.243750X-0.456250X0.243750X-0.456250X0*%
%ADD32R,1.100000X1.100000*%
%ADD33RoundRect,0.200000X-0.200000X-0.275000X0.200000X-0.275000X0.200000X0.275000X-0.200000X0.275000X0*%
%ADD34RoundRect,0.218750X-0.256250X0.218750X-0.256250X-0.218750X0.256250X-0.218750X0.256250X0.218750X0*%
%ADD35R,1.600000X0.550000*%
%ADD36R,0.550000X1.600000*%
%ADD37R,0.650000X1.060000*%
%ADD38R,1.900000X0.400000*%
%ADD39RoundRect,0.225000X-0.225000X-0.250000X0.225000X-0.250000X0.225000X0.250000X-0.225000X0.250000X0*%
%ADD40RoundRect,0.225000X-0.250000X0.225000X-0.250000X-0.225000X0.250000X-0.225000X0.250000X0.225000X0*%
%ADD41RoundRect,0.200000X0.200000X0.275000X-0.200000X0.275000X-0.200000X-0.275000X0.200000X-0.275000X0*%
%ADD42RoundRect,0.152000X1.248000X0.608000X-1.248000X0.608000X-1.248000X-0.608000X1.248000X-0.608000X0*%
%ADD43RoundRect,0.152000X0.608000X1.248000X-0.608000X1.248000X-0.608000X-1.248000X0.608000X-1.248000X0*%
%ADD44RoundRect,0.279000X1.116000X1.116000X-1.116000X1.116000X-1.116000X-1.116000X1.116000X-1.116000X0*%
G04 APERTURE END LIST*
G36*
X98274000Y-108761000D02*
G01*
X99174000Y-108761000D01*
X99174000Y-109261000D01*
X98274000Y-109261000D01*
X98274000Y-109361000D01*
X96874000Y-109361000D01*
X96874000Y-108661000D01*
X98274000Y-108661000D01*
X98274000Y-108761000D01*
G37*
D10*
X98274000Y-108761000D02*
X99174000Y-108761000D01*
X99174000Y-109261000D01*
X98274000Y-109261000D01*
X98274000Y-109361000D01*
X96874000Y-109361000D01*
X96874000Y-108661000D01*
X98274000Y-108661000D01*
X98274000Y-108761000D01*
G36*
X98274000Y-109811000D02*
G01*
X99174000Y-109811000D01*
X99174000Y-110411000D01*
X98274000Y-110411000D01*
X98274000Y-110511000D01*
X96874000Y-110511000D01*
X96874000Y-109711000D01*
X98274000Y-109711000D01*
X98274000Y-109811000D01*
G37*
X98274000Y-109811000D02*
X99174000Y-109811000D01*
X99174000Y-110411000D01*
X98274000Y-110411000D01*
X98274000Y-110511000D01*
X96874000Y-110511000D01*
X96874000Y-109711000D01*
X98274000Y-109711000D01*
X98274000Y-109811000D01*
G36*
X98274000Y-110911000D02*
G01*
X99174000Y-110911000D01*
X99174000Y-111511000D01*
X98274000Y-111511000D01*
X98274000Y-111611000D01*
X96874000Y-111611000D01*
X96874000Y-110811000D01*
X98274000Y-110811000D01*
X98274000Y-110911000D01*
G37*
X98274000Y-110911000D02*
X99174000Y-110911000D01*
X99174000Y-111511000D01*
X98274000Y-111511000D01*
X98274000Y-111611000D01*
X96874000Y-111611000D01*
X96874000Y-110811000D01*
X98274000Y-110811000D01*
X98274000Y-110911000D01*
G36*
X98274000Y-112011000D02*
G01*
X99174000Y-112011000D01*
X99174000Y-112611000D01*
X98274000Y-112611000D01*
X98274000Y-112711000D01*
X96874000Y-112711000D01*
X96874000Y-111911000D01*
X98274000Y-111911000D01*
X98274000Y-112011000D01*
G37*
X98274000Y-112011000D02*
X99174000Y-112011000D01*
X99174000Y-112611000D01*
X98274000Y-112611000D01*
X98274000Y-112711000D01*
X96874000Y-112711000D01*
X96874000Y-111911000D01*
X98274000Y-111911000D01*
X98274000Y-112011000D01*
G36*
X98274000Y-113111000D02*
G01*
X99174000Y-113111000D01*
X99174000Y-113711000D01*
X98274000Y-113711000D01*
X98274000Y-113811000D01*
X96874000Y-113811000D01*
X96874000Y-113011000D01*
X98274000Y-113011000D01*
X98274000Y-113111000D01*
G37*
X98274000Y-113111000D02*
X99174000Y-113111000D01*
X99174000Y-113711000D01*
X98274000Y-113711000D01*
X98274000Y-113811000D01*
X96874000Y-113811000D01*
X96874000Y-113011000D01*
X98274000Y-113011000D01*
X98274000Y-113111000D01*
G36*
X98274000Y-114211000D02*
G01*
X99174000Y-114211000D01*
X99174000Y-114811000D01*
X98274000Y-114811000D01*
X98274000Y-114911000D01*
X96874000Y-114911000D01*
X96874000Y-114111000D01*
X98274000Y-114111000D01*
X98274000Y-114211000D01*
G37*
X98274000Y-114211000D02*
X99174000Y-114211000D01*
X99174000Y-114811000D01*
X98274000Y-114811000D01*
X98274000Y-114911000D01*
X96874000Y-114911000D01*
X96874000Y-114111000D01*
X98274000Y-114111000D01*
X98274000Y-114211000D01*
G36*
X98274000Y-115311000D02*
G01*
X99174000Y-115311000D01*
X99174000Y-115911000D01*
X98274000Y-115911000D01*
X98274000Y-116011000D01*
X96874000Y-116011000D01*
X96874000Y-115211000D01*
X98274000Y-115211000D01*
X98274000Y-115311000D01*
G37*
X98274000Y-115311000D02*
X99174000Y-115311000D01*
X99174000Y-115911000D01*
X98274000Y-115911000D01*
X98274000Y-116011000D01*
X96874000Y-116011000D01*
X96874000Y-115211000D01*
X98274000Y-115211000D01*
X98274000Y-115311000D01*
G36*
X98274000Y-116411000D02*
G01*
X99174000Y-116411000D01*
X99174000Y-117011000D01*
X98274000Y-117011000D01*
X98274000Y-117111000D01*
X96874000Y-117111000D01*
X96874000Y-116311000D01*
X98274000Y-116311000D01*
X98274000Y-116411000D01*
G37*
X98274000Y-116411000D02*
X99174000Y-116411000D01*
X99174000Y-117011000D01*
X98274000Y-117011000D01*
X98274000Y-117111000D01*
X96874000Y-117111000D01*
X96874000Y-116311000D01*
X98274000Y-116311000D01*
X98274000Y-116411000D01*
G36*
X98274000Y-117561000D02*
G01*
X99174000Y-117561000D01*
X99174000Y-118061000D01*
X98274000Y-118061000D01*
X98274000Y-118161000D01*
X96874000Y-118161000D01*
X96874000Y-117461000D01*
X98274000Y-117461000D01*
X98274000Y-117561000D01*
G37*
X98274000Y-117561000D02*
X99174000Y-117561000D01*
X99174000Y-118061000D01*
X98274000Y-118061000D01*
X98274000Y-118161000D01*
X96874000Y-118161000D01*
X96874000Y-117461000D01*
X98274000Y-117461000D01*
X98274000Y-117561000D01*
G36*
X109374000Y-118161000D02*
G01*
X107974000Y-118161000D01*
X107974000Y-118061000D01*
X107074000Y-118061000D01*
X107074000Y-117561000D01*
X107974000Y-117561000D01*
X107974000Y-117461000D01*
X109374000Y-117461000D01*
X109374000Y-118161000D01*
G37*
X109374000Y-118161000D02*
X107974000Y-118161000D01*
X107974000Y-118061000D01*
X107074000Y-118061000D01*
X107074000Y-117561000D01*
X107974000Y-117561000D01*
X107974000Y-117461000D01*
X109374000Y-117461000D01*
X109374000Y-118161000D01*
G36*
X109374000Y-117111000D02*
G01*
X107974000Y-117111000D01*
X107974000Y-117011000D01*
X107074000Y-117011000D01*
X107074000Y-116411000D01*
X107974000Y-116411000D01*
X107974000Y-116311000D01*
X109374000Y-116311000D01*
X109374000Y-117111000D01*
G37*
X109374000Y-117111000D02*
X107974000Y-117111000D01*
X107974000Y-117011000D01*
X107074000Y-117011000D01*
X107074000Y-116411000D01*
X107974000Y-116411000D01*
X107974000Y-116311000D01*
X109374000Y-116311000D01*
X109374000Y-117111000D01*
G36*
X109374000Y-116011000D02*
G01*
X107974000Y-116011000D01*
X107974000Y-115911000D01*
X107074000Y-115911000D01*
X107074000Y-115311000D01*
X107974000Y-115311000D01*
X107974000Y-115211000D01*
X109374000Y-115211000D01*
X109374000Y-116011000D01*
G37*
X109374000Y-116011000D02*
X107974000Y-116011000D01*
X107974000Y-115911000D01*
X107074000Y-115911000D01*
X107074000Y-115311000D01*
X107974000Y-115311000D01*
X107974000Y-115211000D01*
X109374000Y-115211000D01*
X109374000Y-116011000D01*
G36*
X109374000Y-114911000D02*
G01*
X107974000Y-114911000D01*
X107974000Y-114811000D01*
X107074000Y-114811000D01*
X107074000Y-114211000D01*
X107974000Y-114211000D01*
X107974000Y-114111000D01*
X109374000Y-114111000D01*
X109374000Y-114911000D01*
G37*
X109374000Y-114911000D02*
X107974000Y-114911000D01*
X107974000Y-114811000D01*
X107074000Y-114811000D01*
X107074000Y-114211000D01*
X107974000Y-114211000D01*
X107974000Y-114111000D01*
X109374000Y-114111000D01*
X109374000Y-114911000D01*
G36*
X109374000Y-113811000D02*
G01*
X107974000Y-113811000D01*
X107974000Y-113711000D01*
X107074000Y-113711000D01*
X107074000Y-113111000D01*
X107974000Y-113111000D01*
X107974000Y-113011000D01*
X109374000Y-113011000D01*
X109374000Y-113811000D01*
G37*
X109374000Y-113811000D02*
X107974000Y-113811000D01*
X107974000Y-113711000D01*
X107074000Y-113711000D01*
X107074000Y-113111000D01*
X107974000Y-113111000D01*
X107974000Y-113011000D01*
X109374000Y-113011000D01*
X109374000Y-113811000D01*
G36*
X109374000Y-112711000D02*
G01*
X107974000Y-112711000D01*
X107974000Y-112611000D01*
X107074000Y-112611000D01*
X107074000Y-112011000D01*
X107974000Y-112011000D01*
X107974000Y-111911000D01*
X109374000Y-111911000D01*
X109374000Y-112711000D01*
G37*
X109374000Y-112711000D02*
X107974000Y-112711000D01*
X107974000Y-112611000D01*
X107074000Y-112611000D01*
X107074000Y-112011000D01*
X107974000Y-112011000D01*
X107974000Y-111911000D01*
X109374000Y-111911000D01*
X109374000Y-112711000D01*
G36*
X109374000Y-111611000D02*
G01*
X107974000Y-111611000D01*
X107974000Y-111511000D01*
X107074000Y-111511000D01*
X107074000Y-110911000D01*
X107974000Y-110911000D01*
X107974000Y-110811000D01*
X109374000Y-110811000D01*
X109374000Y-111611000D01*
G37*
X109374000Y-111611000D02*
X107974000Y-111611000D01*
X107974000Y-111511000D01*
X107074000Y-111511000D01*
X107074000Y-110911000D01*
X107974000Y-110911000D01*
X107974000Y-110811000D01*
X109374000Y-110811000D01*
X109374000Y-111611000D01*
G36*
X109374000Y-110511000D02*
G01*
X107974000Y-110511000D01*
X107974000Y-110411000D01*
X107074000Y-110411000D01*
X107074000Y-109811000D01*
X107974000Y-109811000D01*
X107974000Y-109711000D01*
X109374000Y-109711000D01*
X109374000Y-110511000D01*
G37*
X109374000Y-110511000D02*
X107974000Y-110511000D01*
X107974000Y-110411000D01*
X107074000Y-110411000D01*
X107074000Y-109811000D01*
X107974000Y-109811000D01*
X107974000Y-109711000D01*
X109374000Y-109711000D01*
X109374000Y-110511000D01*
G36*
X109374000Y-109361000D02*
G01*
X107974000Y-109361000D01*
X107974000Y-109261000D01*
X107074000Y-109261000D01*
X107074000Y-108761000D01*
X107974000Y-108761000D01*
X107974000Y-108661000D01*
X109374000Y-108661000D01*
X109374000Y-109361000D01*
G37*
X109374000Y-109361000D02*
X107974000Y-109361000D01*
X107974000Y-109261000D01*
X107074000Y-109261000D01*
X107074000Y-108761000D01*
X107974000Y-108761000D01*
X107974000Y-108661000D01*
X109374000Y-108661000D01*
X109374000Y-109361000D01*
D11*
X137966000Y-137890000D03*
X138466000Y-137890000D03*
X138966000Y-137890000D03*
X139466000Y-137890000D03*
X139966000Y-137890000D03*
X140466000Y-137890000D03*
X140966000Y-137890000D03*
X141466000Y-137890000D03*
X141966000Y-137890000D03*
X142466000Y-137890000D03*
X142966000Y-137890000D03*
X143466000Y-137890000D03*
D12*
X145066000Y-139490000D03*
X145066000Y-139990000D03*
X145066000Y-140490000D03*
X145066000Y-140990000D03*
X145066000Y-141490000D03*
X145066000Y-141990000D03*
X145066000Y-142490000D03*
X145066000Y-142990000D03*
X145066000Y-143490000D03*
X145066000Y-143990000D03*
X145066000Y-144490000D03*
X145066000Y-144990000D03*
D11*
X143466000Y-146590000D03*
X142966000Y-146590000D03*
X142466000Y-146590000D03*
X141966000Y-146590000D03*
X141466000Y-146590000D03*
X140966000Y-146590000D03*
X140466000Y-146590000D03*
X139966000Y-146590000D03*
X139466000Y-146590000D03*
X138966000Y-146590000D03*
X138466000Y-146590000D03*
X137966000Y-146590000D03*
D12*
X136366000Y-144990000D03*
X136366000Y-144490000D03*
X136366000Y-143990000D03*
X136366000Y-143490000D03*
X136366000Y-142990000D03*
X136366000Y-142490000D03*
X136366000Y-141990000D03*
X136366000Y-141490000D03*
X136366000Y-140990000D03*
X136366000Y-140490000D03*
X136366000Y-139990000D03*
X136366000Y-139490000D03*
D13*
X126042001Y-170195001D03*
X127142001Y-170195001D03*
X128242001Y-170195001D03*
X129342001Y-170195001D03*
X130442001Y-170195001D03*
X131542001Y-170195001D03*
X132642001Y-170195001D03*
X133742001Y-170195001D03*
D14*
X123942001Y-169695001D03*
D15*
X137292001Y-169695001D03*
D16*
X132342001Y-157495001D03*
X127442001Y-157495001D03*
D17*
X135392001Y-157395001D03*
D18*
X129159000Y-155080000D03*
X129159000Y-153530000D03*
D19*
X124333000Y-153353000D03*
X124333000Y-155003000D03*
X127635000Y-153353000D03*
X127635000Y-155003000D03*
X130683000Y-153353000D03*
X130683000Y-155003000D03*
X132334000Y-155003000D03*
X132334000Y-153353000D03*
X125984000Y-155003000D03*
X125984000Y-153353000D03*
X133985000Y-155003000D03*
X133985000Y-153353000D03*
D20*
X134112000Y-140145000D03*
X134112000Y-141795000D03*
D21*
X130035000Y-124968000D03*
X131585000Y-124968000D03*
X148857000Y-138684000D03*
X147307000Y-138684000D03*
D20*
X137541000Y-153988000D03*
X137541000Y-155638000D03*
D22*
X95461000Y-108458000D03*
X93261000Y-108458000D03*
D23*
X129550000Y-114114001D03*
X129550000Y-113164001D03*
X129550000Y-112214001D03*
X127150000Y-112214001D03*
X127150000Y-114114001D03*
D24*
X107874000Y-117811000D03*
D25*
X107874000Y-116711000D03*
X107874000Y-115611000D03*
X107874000Y-114511000D03*
X107874000Y-113411000D03*
X107874000Y-112311000D03*
X107874000Y-111211000D03*
X107874000Y-110111000D03*
D24*
X107874000Y-109011000D03*
X98374000Y-109011000D03*
D25*
X98374000Y-110111000D03*
X98374000Y-111211000D03*
X98374000Y-112311000D03*
X98374000Y-113411000D03*
X98374000Y-114511000D03*
X98374000Y-115611000D03*
X98374000Y-116711000D03*
D24*
X98374000Y-117811000D03*
D26*
X141732000Y-164597000D03*
X144272000Y-164597000D03*
X146812000Y-164597000D03*
X146812000Y-155697000D03*
X144272000Y-155697000D03*
X141732000Y-155697000D03*
D27*
X134239000Y-107807000D03*
X133289000Y-105807000D03*
X135189000Y-105807000D03*
D28*
X108051500Y-133350000D03*
X109626500Y-133350000D03*
D29*
X122529500Y-135255000D03*
X124104500Y-135255000D03*
D28*
X108051500Y-131572000D03*
X109626500Y-131572000D03*
D29*
X124104500Y-133350000D03*
X122529500Y-133350000D03*
D28*
X104800500Y-159131000D03*
X103225500Y-159131000D03*
D29*
X119532500Y-162179000D03*
X117957500Y-162179000D03*
D28*
X104800500Y-160782000D03*
X103225500Y-160782000D03*
D29*
X117957500Y-160401000D03*
X119532500Y-160401000D03*
D30*
X129463800Y-119077500D03*
X129463800Y-120952500D03*
D31*
X125427500Y-123190000D03*
X127302500Y-123190000D03*
D28*
X127152500Y-125095000D03*
X125577500Y-125095000D03*
D32*
X131927600Y-118615000D03*
X131927600Y-121415000D03*
D33*
X138747000Y-148844000D03*
X137097000Y-148844000D03*
X137097000Y-150622000D03*
X138747000Y-150622000D03*
D28*
X131597500Y-133858000D03*
X130022500Y-133858000D03*
X131597500Y-135636000D03*
X130022500Y-135636000D03*
D33*
X142939000Y-100584000D03*
X144589000Y-100584000D03*
D34*
X116332000Y-124815500D03*
X116332000Y-126390500D03*
X114554000Y-126390500D03*
X114554000Y-124815500D03*
X112776000Y-124815500D03*
X112776000Y-126390500D03*
D29*
X109626500Y-129794000D03*
X108051500Y-129794000D03*
D19*
X111379000Y-139256000D03*
X111379000Y-140906000D03*
X113792000Y-140906000D03*
X113792000Y-139256000D03*
D34*
X112522000Y-153441500D03*
X112522000Y-151866500D03*
X110744000Y-151866500D03*
X110744000Y-153441500D03*
X108966000Y-153441500D03*
X108966000Y-151866500D03*
D33*
X104838000Y-157480000D03*
X103188000Y-157480000D03*
X106490000Y-166370000D03*
X108140000Y-166370000D03*
D28*
X127152500Y-116078000D03*
X125577500Y-116078000D03*
D35*
X111955000Y-130169000D03*
X111955000Y-130969000D03*
X111955000Y-131769000D03*
X111955000Y-132569000D03*
X111955000Y-133369000D03*
X111955000Y-134169000D03*
X111955000Y-134969000D03*
X111955000Y-135769000D03*
D36*
X113405000Y-137219000D03*
X114205000Y-137219000D03*
X115005000Y-137219000D03*
X115805000Y-137219000D03*
X116605000Y-137219000D03*
X117405000Y-137219000D03*
X118205000Y-137219000D03*
X119005000Y-137219000D03*
D35*
X120455000Y-135769000D03*
X120455000Y-134969000D03*
X120455000Y-134169000D03*
X120455000Y-133369000D03*
X120455000Y-132569000D03*
X120455000Y-131769000D03*
X120455000Y-130969000D03*
X120455000Y-130169000D03*
D36*
X119005000Y-128719000D03*
X118205000Y-128719000D03*
X117405000Y-128719000D03*
X116605000Y-128719000D03*
X115805000Y-128719000D03*
X115005000Y-128719000D03*
X114205000Y-128719000D03*
X113405000Y-128719000D03*
X108579000Y-155643000D03*
X109379000Y-155643000D03*
X110179000Y-155643000D03*
X110979000Y-155643000D03*
X111779000Y-155643000D03*
X112579000Y-155643000D03*
X113379000Y-155643000D03*
X114179000Y-155643000D03*
D35*
X115629000Y-157093000D03*
X115629000Y-157893000D03*
X115629000Y-158693000D03*
X115629000Y-159493000D03*
X115629000Y-160293000D03*
X115629000Y-161093000D03*
X115629000Y-161893000D03*
X115629000Y-162693000D03*
D36*
X114179000Y-164143000D03*
X113379000Y-164143000D03*
X112579000Y-164143000D03*
X111779000Y-164143000D03*
X110979000Y-164143000D03*
X110179000Y-164143000D03*
X109379000Y-164143000D03*
X108579000Y-164143000D03*
D35*
X107129000Y-162693000D03*
X107129000Y-161893000D03*
X107129000Y-161093000D03*
X107129000Y-160293000D03*
X107129000Y-159493000D03*
X107129000Y-158693000D03*
X107129000Y-157893000D03*
X107129000Y-157093000D03*
D37*
X127315000Y-118915000D03*
X126365000Y-118915000D03*
X125415000Y-118915000D03*
X125415000Y-121115000D03*
X127315000Y-121115000D03*
D38*
X131064000Y-139770000D03*
X131064000Y-140970000D03*
X131064000Y-142170000D03*
X108839000Y-135198000D03*
X108839000Y-136398000D03*
X108839000Y-137598000D03*
X104013000Y-165030000D03*
X104013000Y-163830000D03*
X104013000Y-162630000D03*
D39*
X136665000Y-136144000D03*
X135115000Y-136144000D03*
D21*
X146037000Y-149098000D03*
X147587000Y-149098000D03*
D39*
X132575000Y-144272000D03*
X134125000Y-144272000D03*
D40*
X103124000Y-153302000D03*
X103124000Y-151752000D03*
X101219000Y-151752000D03*
X101219000Y-153302000D03*
X122936000Y-102883000D03*
X122936000Y-101333000D03*
D18*
X125476000Y-112382000D03*
X125476000Y-113932000D03*
D39*
X93586000Y-110109000D03*
X95136000Y-110109000D03*
X93586000Y-106807000D03*
X95136000Y-106807000D03*
D33*
X131635000Y-126746000D03*
X129985000Y-126746000D03*
D41*
X139763000Y-124079000D03*
X138113000Y-124079000D03*
D33*
X139779001Y-125734001D03*
X138129001Y-125734001D03*
D20*
X138176000Y-133033000D03*
X138176000Y-134683000D03*
D19*
X144018000Y-149035000D03*
X144018000Y-150685000D03*
D20*
X139954000Y-134683000D03*
X139954000Y-133033000D03*
D19*
X142240000Y-150685000D03*
X142240000Y-149035000D03*
X136398000Y-133033000D03*
X136398000Y-134683000D03*
D20*
X140462000Y-149035000D03*
X140462000Y-150685000D03*
X149352000Y-155638000D03*
X149352000Y-153988000D03*
X139446000Y-153988000D03*
X139446000Y-155638000D03*
D19*
X135636000Y-155003000D03*
X135636000Y-153353000D03*
X122936000Y-106489000D03*
X122936000Y-104839000D03*
X136779000Y-109157000D03*
X136779000Y-110807000D03*
D41*
X135064000Y-104013000D03*
X133414000Y-104013000D03*
X133286000Y-114046000D03*
X131636000Y-114046000D03*
X131636000Y-112395000D03*
X133286000Y-112395000D03*
D33*
X95313000Y-104902000D03*
X93663000Y-104902000D03*
X112839000Y-114173000D03*
X111189000Y-114173000D03*
D42*
X97972000Y-150922000D03*
X97972000Y-148922000D03*
X97972000Y-146922000D03*
X97972000Y-144922000D03*
X97972000Y-142922000D03*
X97972000Y-140922000D03*
X97972000Y-138922000D03*
X97972000Y-136922000D03*
X97972000Y-134922000D03*
X97972000Y-132922000D03*
X97972000Y-130922000D03*
X97972000Y-128922000D03*
X97972000Y-126922000D03*
X76272000Y-126922000D03*
X76272000Y-128922000D03*
X76272000Y-130922000D03*
X76272000Y-132922000D03*
X76272000Y-134922000D03*
X76272000Y-136922000D03*
X76272000Y-138922000D03*
X76272000Y-140922000D03*
X76272000Y-142922000D03*
X76272000Y-144922000D03*
X76272000Y-146922000D03*
X76272000Y-148922000D03*
X76272000Y-150922000D03*
X76272000Y-152922000D03*
X76272000Y-154922000D03*
X76272000Y-156922000D03*
D43*
X94122000Y-124842000D03*
X92122000Y-124842000D03*
X90122000Y-124842000D03*
X88122000Y-124842000D03*
X86122000Y-124842000D03*
X84122000Y-124842000D03*
X82122000Y-124842000D03*
X80122000Y-124842000D03*
D44*
X91877000Y-147957000D03*
D30*
X97028000Y-120576100D03*
X97028000Y-122451100D03*
D31*
X79021700Y-112420400D03*
X80896700Y-112420400D03*
D28*
X80746700Y-110540800D03*
X79171700Y-110540800D03*
M02*
